<?xml version="1.0" encoding="utf-8" standalone="no"?>
<!DOCTYPE svg PUBLIC "-//W3C//DTD SVG 1.1//EN"
  "http://www.w3.org/Graphics/SVG/1.1/DTD/svg11.dtd">
<svg xmlns:xlink="http://www.w3.org/1999/xlink" width="216pt" height="504pt" viewBox="0 0 216 504" xmlns="http://www.w3.org/2000/svg" version="1.1">
 <metadata>
  <rdf:RDF xmlns:dc="http://purl.org/dc/elements/1.1/" xmlns:cc="http://creativecommons.org/ns#" xmlns:rdf="http://www.w3.org/1999/02/22-rdf-syntax-ns#">
   <cc:Work>
    <dc:type rdf:resource="http://purl.org/dc/dcmitype/StillImage"/>
    <dc:date>2025-07-01T17:42:12.712763</dc:date>
    <dc:format>image/svg+xml</dc:format>
    <dc:creator>
     <cc:Agent>
      <dc:title>Matplotlib v3.7.4, https://matplotlib.org/</dc:title>
     </cc:Agent>
    </dc:creator>
   </cc:Work>
  </rdf:RDF>
 </metadata>
 <defs>
  <style type="text/css">*{stroke-linejoin: round; stroke-linecap: butt}</style>
 </defs>
 <g id="figure_1">
  <g id="patch_1">
   <path d="M 0 504 
L 216 504 
L 216 0 
L 0 0 
z
" style="fill: #ffffff"/>
  </g>
  <g id="axes_1">
   <g id="patch_2">
    <path d="M 27 448.56 
L 194.4 448.56 
L 194.4 60.48 
L 27 60.48 
z
" style="fill: #ffffff"/>
   </g>
   <g id="patch_3">
    <path d="M 35.37 209.413125 
L 102.33 209.413125 
L 102.33 151.12 
L 35.37 151.12 
L 35.37 209.413125 
z
" clip-path="url(#p75dfac0645)" style="fill: #3274a1; stroke: #3f3f3f; stroke-width: 1.5; stroke-linejoin: miter"/>
   </g>
   <g id="patch_4">
    <path d="M 119.07 239.651321 
L 186.03 239.651321 
L 186.03 199.786809 
L 119.07 199.786809 
L 119.07 239.651321 
z
" clip-path="url(#p75dfac0645)" style="fill: #e1812c; stroke: #3f3f3f; stroke-width: 1.5; stroke-linejoin: miter"/>
   </g>
   <g id="matplotlib.axis_1">
    <g id="xtick_1">
     <g id="line2d_1">
      <defs>
       <path id="mf484784cb2" d="M 0 0 
L 0 3.5 
" style="stroke: #000000; stroke-width: 0.8"/>
      </defs>
      <g>
       <use xlink:href="#mf484784cb2" x="68.85" y="448.56" style="stroke: #000000; stroke-width: 0.8"/>
      </g>
     </g>
     <g id="text_1">
      <!-- False -->
      <g transform="translate(56.296094 463.158437) scale(0.1 -0.1)">
       <defs>
        <path id="DejaVuSans-46" d="M 628 4666 
L 3309 4666 
L 3309 4134 
L 1259 4134 
L 1259 2759 
L 3109 2759 
L 3109 2228 
L 1259 2228 
L 1259 0 
L 628 0 
L 628 4666 
z
" transform="scale(0.015625)"/>
        <path id="DejaVuSans-61" d="M 2194 1759 
Q 1497 1759 1228 1600 
Q 959 1441 959 1056 
Q 959 750 1161 570 
Q 1363 391 1709 391 
Q 2188 391 2477 730 
Q 2766 1069 2766 1631 
L 2766 1759 
L 2194 1759 
z
M 3341 1997 
L 3341 0 
L 2766 0 
L 2766 531 
Q 2569 213 2275 61 
Q 1981 -91 1556 -91 
Q 1019 -91 701 211 
Q 384 513 384 1019 
Q 384 1609 779 1909 
Q 1175 2209 1959 2209 
L 2766 2209 
L 2766 2266 
Q 2766 2663 2505 2880 
Q 2244 3097 1772 3097 
Q 1472 3097 1187 3025 
Q 903 2953 641 2809 
L 641 3341 
Q 956 3463 1253 3523 
Q 1550 3584 1831 3584 
Q 2591 3584 2966 3190 
Q 3341 2797 3341 1997 
z
" transform="scale(0.015625)"/>
        <path id="DejaVuSans-6c" d="M 603 4863 
L 1178 4863 
L 1178 0 
L 603 0 
L 603 4863 
z
" transform="scale(0.015625)"/>
        <path id="DejaVuSans-73" d="M 2834 3397 
L 2834 2853 
Q 2591 2978 2328 3040 
Q 2066 3103 1784 3103 
Q 1356 3103 1142 2972 
Q 928 2841 928 2578 
Q 928 2378 1081 2264 
Q 1234 2150 1697 2047 
L 1894 2003 
Q 2506 1872 2764 1633 
Q 3022 1394 3022 966 
Q 3022 478 2636 193 
Q 2250 -91 1575 -91 
Q 1294 -91 989 -36 
Q 684 19 347 128 
L 347 722 
Q 666 556 975 473 
Q 1284 391 1588 391 
Q 1994 391 2212 530 
Q 2431 669 2431 922 
Q 2431 1156 2273 1281 
Q 2116 1406 1581 1522 
L 1381 1569 
Q 847 1681 609 1914 
Q 372 2147 372 2553 
Q 372 3047 722 3315 
Q 1072 3584 1716 3584 
Q 2034 3584 2315 3537 
Q 2597 3491 2834 3397 
z
" transform="scale(0.015625)"/>
        <path id="DejaVuSans-65" d="M 3597 1894 
L 3597 1613 
L 953 1613 
Q 991 1019 1311 708 
Q 1631 397 2203 397 
Q 2534 397 2845 478 
Q 3156 559 3463 722 
L 3463 178 
Q 3153 47 2828 -22 
Q 2503 -91 2169 -91 
Q 1331 -91 842 396 
Q 353 884 353 1716 
Q 353 2575 817 3079 
Q 1281 3584 2069 3584 
Q 2775 3584 3186 3129 
Q 3597 2675 3597 1894 
z
M 3022 2063 
Q 3016 2534 2758 2815 
Q 2500 3097 2075 3097 
Q 1594 3097 1305 2825 
Q 1016 2553 972 2059 
L 3022 2063 
z
" transform="scale(0.015625)"/>
       </defs>
       <use xlink:href="#DejaVuSans-46"/>
       <use xlink:href="#DejaVuSans-61" x="48.394531"/>
       <use xlink:href="#DejaVuSans-6c" x="109.673828"/>
       <use xlink:href="#DejaVuSans-73" x="137.457031"/>
       <use xlink:href="#DejaVuSans-65" x="189.556641"/>
      </g>
     </g>
    </g>
    <g id="xtick_2">
     <g id="line2d_2">
      <g>
       <use xlink:href="#mf484784cb2" x="152.55" y="448.56" style="stroke: #000000; stroke-width: 0.8"/>
      </g>
     </g>
     <g id="text_2">
      <!-- True -->
      <g transform="translate(141.932813 463.158437) scale(0.1 -0.1)">
       <defs>
        <path id="DejaVuSans-54" d="M -19 4666 
L 3928 4666 
L 3928 4134 
L 2272 4134 
L 2272 0 
L 1638 0 
L 1638 4134 
L -19 4134 
L -19 4666 
z
" transform="scale(0.015625)"/>
        <path id="DejaVuSans-72" d="M 2631 2963 
Q 2534 3019 2420 3045 
Q 2306 3072 2169 3072 
Q 1681 3072 1420 2755 
Q 1159 2438 1159 1844 
L 1159 0 
L 581 0 
L 581 3500 
L 1159 3500 
L 1159 2956 
Q 1341 3275 1631 3429 
Q 1922 3584 2338 3584 
Q 2397 3584 2469 3576 
Q 2541 3569 2628 3553 
L 2631 2963 
z
" transform="scale(0.015625)"/>
        <path id="DejaVuSans-75" d="M 544 1381 
L 544 3500 
L 1119 3500 
L 1119 1403 
Q 1119 906 1312 657 
Q 1506 409 1894 409 
Q 2359 409 2629 706 
Q 2900 1003 2900 1516 
L 2900 3500 
L 3475 3500 
L 3475 0 
L 2900 0 
L 2900 538 
Q 2691 219 2414 64 
Q 2138 -91 1772 -91 
Q 1169 -91 856 284 
Q 544 659 544 1381 
z
M 1991 3584 
L 1991 3584 
z
" transform="scale(0.015625)"/>
       </defs>
       <use xlink:href="#DejaVuSans-54"/>
       <use xlink:href="#DejaVuSans-72" x="46.333984"/>
       <use xlink:href="#DejaVuSans-75" x="87.447266"/>
       <use xlink:href="#DejaVuSans-65" x="150.826172"/>
      </g>
     </g>
    </g>
    <g id="text_3">
     <!-- imputed -->
     <g transform="translate(89.886719 476.836563) scale(0.1 -0.1)">
      <defs>
       <path id="DejaVuSans-69" d="M 603 3500 
L 1178 3500 
L 1178 0 
L 603 0 
L 603 3500 
z
M 603 4863 
L 1178 4863 
L 1178 4134 
L 603 4134 
L 603 4863 
z
" transform="scale(0.015625)"/>
       <path id="DejaVuSans-6d" d="M 3328 2828 
Q 3544 3216 3844 3400 
Q 4144 3584 4550 3584 
Q 5097 3584 5394 3201 
Q 5691 2819 5691 2113 
L 5691 0 
L 5113 0 
L 5113 2094 
Q 5113 2597 4934 2840 
Q 4756 3084 4391 3084 
Q 3944 3084 3684 2787 
Q 3425 2491 3425 1978 
L 3425 0 
L 2847 0 
L 2847 2094 
Q 2847 2600 2669 2842 
Q 2491 3084 2119 3084 
Q 1678 3084 1418 2786 
Q 1159 2488 1159 1978 
L 1159 0 
L 581 0 
L 581 3500 
L 1159 3500 
L 1159 2956 
Q 1356 3278 1631 3431 
Q 1906 3584 2284 3584 
Q 2666 3584 2933 3390 
Q 3200 3197 3328 2828 
z
" transform="scale(0.015625)"/>
       <path id="DejaVuSans-70" d="M 1159 525 
L 1159 -1331 
L 581 -1331 
L 581 3500 
L 1159 3500 
L 1159 2969 
Q 1341 3281 1617 3432 
Q 1894 3584 2278 3584 
Q 2916 3584 3314 3078 
Q 3713 2572 3713 1747 
Q 3713 922 3314 415 
Q 2916 -91 2278 -91 
Q 1894 -91 1617 61 
Q 1341 213 1159 525 
z
M 3116 1747 
Q 3116 2381 2855 2742 
Q 2594 3103 2138 3103 
Q 1681 3103 1420 2742 
Q 1159 2381 1159 1747 
Q 1159 1113 1420 752 
Q 1681 391 2138 391 
Q 2594 391 2855 752 
Q 3116 1113 3116 1747 
z
" transform="scale(0.015625)"/>
       <path id="DejaVuSans-74" d="M 1172 4494 
L 1172 3500 
L 2356 3500 
L 2356 3053 
L 1172 3053 
L 1172 1153 
Q 1172 725 1289 603 
Q 1406 481 1766 481 
L 2356 481 
L 2356 0 
L 1766 0 
Q 1100 0 847 248 
Q 594 497 594 1153 
L 594 3053 
L 172 3053 
L 172 3500 
L 594 3500 
L 594 4494 
L 1172 4494 
z
" transform="scale(0.015625)"/>
       <path id="DejaVuSans-64" d="M 2906 2969 
L 2906 4863 
L 3481 4863 
L 3481 0 
L 2906 0 
L 2906 525 
Q 2725 213 2448 61 
Q 2172 -91 1784 -91 
Q 1150 -91 751 415 
Q 353 922 353 1747 
Q 353 2572 751 3078 
Q 1150 3584 1784 3584 
Q 2172 3584 2448 3432 
Q 2725 3281 2906 2969 
z
M 947 1747 
Q 947 1113 1208 752 
Q 1469 391 1925 391 
Q 2381 391 2643 752 
Q 2906 1113 2906 1747 
Q 2906 2381 2643 2742 
Q 2381 3103 1925 3103 
Q 1469 3103 1208 2742 
Q 947 2381 947 1747 
z
" transform="scale(0.015625)"/>
      </defs>
      <use xlink:href="#DejaVuSans-69"/>
      <use xlink:href="#DejaVuSans-6d" x="27.783203"/>
      <use xlink:href="#DejaVuSans-70" x="125.195312"/>
      <use xlink:href="#DejaVuSans-75" x="188.671875"/>
      <use xlink:href="#DejaVuSans-74" x="252.050781"/>
      <use xlink:href="#DejaVuSans-65" x="291.259766"/>
      <use xlink:href="#DejaVuSans-64" x="352.783203"/>
     </g>
    </g>
   </g>
   <g id="matplotlib.axis_2">
    <g id="ytick_1">
     <g id="line2d_3">
      <defs>
       <path id="m1d037e1ce9" d="M 0 0 
L -3.5 0 
" style="stroke: #000000; stroke-width: 0.8"/>
      </defs>
      <g>
       <use xlink:href="#m1d037e1ce9" x="27" y="448.56" style="stroke: #000000; stroke-width: 0.8"/>
      </g>
     </g>
     <g id="text_4">
      <!-- −20 -->
      <g transform="translate(-1.104688 452.359219) scale(0.1 -0.1)">
       <defs>
        <path id="DejaVuSans-2212" d="M 678 2272 
L 4684 2272 
L 4684 1741 
L 678 1741 
L 678 2272 
z
" transform="scale(0.015625)"/>
        <path id="DejaVuSans-32" d="M 1228 531 
L 3431 531 
L 3431 0 
L 469 0 
L 469 531 
Q 828 903 1448 1529 
Q 2069 2156 2228 2338 
Q 2531 2678 2651 2914 
Q 2772 3150 2772 3378 
Q 2772 3750 2511 3984 
Q 2250 4219 1831 4219 
Q 1534 4219 1204 4116 
Q 875 4013 500 3803 
L 500 4441 
Q 881 4594 1212 4672 
Q 1544 4750 1819 4750 
Q 2544 4750 2975 4387 
Q 3406 4025 3406 3419 
Q 3406 3131 3298 2873 
Q 3191 2616 2906 2266 
Q 2828 2175 2409 1742 
Q 1991 1309 1228 531 
z
" transform="scale(0.015625)"/>
        <path id="DejaVuSans-30" d="M 2034 4250 
Q 1547 4250 1301 3770 
Q 1056 3291 1056 2328 
Q 1056 1369 1301 889 
Q 1547 409 2034 409 
Q 2525 409 2770 889 
Q 3016 1369 3016 2328 
Q 3016 3291 2770 3770 
Q 2525 4250 2034 4250 
z
M 2034 4750 
Q 2819 4750 3233 4129 
Q 3647 3509 3647 2328 
Q 3647 1150 3233 529 
Q 2819 -91 2034 -91 
Q 1250 -91 836 529 
Q 422 1150 422 2328 
Q 422 3509 836 4129 
Q 1250 4750 2034 4750 
z
" transform="scale(0.015625)"/>
       </defs>
       <use xlink:href="#DejaVuSans-2212"/>
       <use xlink:href="#DejaVuSans-32" x="83.789062"/>
       <use xlink:href="#DejaVuSans-30" x="147.412109"/>
      </g>
     </g>
    </g>
    <g id="ytick_2">
     <g id="line2d_4">
      <g>
       <use xlink:href="#m1d037e1ce9" x="27" y="374.64" style="stroke: #000000; stroke-width: 0.8"/>
      </g>
     </g>
     <g id="text_5">
      <!-- 0 -->
      <g transform="translate(13.6375 378.439219) scale(0.1 -0.1)">
       <use xlink:href="#DejaVuSans-30"/>
      </g>
     </g>
    </g>
    <g id="ytick_3">
     <g id="line2d_5">
      <g>
       <use xlink:href="#m1d037e1ce9" x="27" y="300.72" style="stroke: #000000; stroke-width: 0.8"/>
      </g>
     </g>
     <g id="text_6">
      <!-- 20 -->
      <g transform="translate(7.275 304.519219) scale(0.1 -0.1)">
       <use xlink:href="#DejaVuSans-32"/>
       <use xlink:href="#DejaVuSans-30" x="63.623047"/>
      </g>
     </g>
    </g>
    <g id="ytick_4">
     <g id="line2d_6">
      <g>
       <use xlink:href="#m1d037e1ce9" x="27" y="226.8" style="stroke: #000000; stroke-width: 0.8"/>
      </g>
     </g>
     <g id="text_7">
      <!-- 40 -->
      <g transform="translate(7.275 230.599219) scale(0.1 -0.1)">
       <defs>
        <path id="DejaVuSans-34" d="M 2419 4116 
L 825 1625 
L 2419 1625 
L 2419 4116 
z
M 2253 4666 
L 3047 4666 
L 3047 1625 
L 3713 1625 
L 3713 1100 
L 3047 1100 
L 3047 0 
L 2419 0 
L 2419 1100 
L 313 1100 
L 313 1709 
L 2253 4666 
z
" transform="scale(0.015625)"/>
       </defs>
       <use xlink:href="#DejaVuSans-34"/>
       <use xlink:href="#DejaVuSans-30" x="63.623047"/>
      </g>
     </g>
    </g>
    <g id="ytick_5">
     <g id="line2d_7">
      <g>
       <use xlink:href="#m1d037e1ce9" x="27" y="152.88" style="stroke: #000000; stroke-width: 0.8"/>
      </g>
     </g>
     <g id="text_8">
      <!-- 60 -->
      <g transform="translate(7.275 156.679219) scale(0.1 -0.1)">
       <defs>
        <path id="DejaVuSans-36" d="M 2113 2584 
Q 1688 2584 1439 2293 
Q 1191 2003 1191 1497 
Q 1191 994 1439 701 
Q 1688 409 2113 409 
Q 2538 409 2786 701 
Q 3034 994 3034 1497 
Q 3034 2003 2786 2293 
Q 2538 2584 2113 2584 
z
M 3366 4563 
L 3366 3988 
Q 3128 4100 2886 4159 
Q 2644 4219 2406 4219 
Q 1781 4219 1451 3797 
Q 1122 3375 1075 2522 
Q 1259 2794 1537 2939 
Q 1816 3084 2150 3084 
Q 2853 3084 3261 2657 
Q 3669 2231 3669 1497 
Q 3669 778 3244 343 
Q 2819 -91 2113 -91 
Q 1303 -91 875 529 
Q 447 1150 447 2328 
Q 447 3434 972 4092 
Q 1497 4750 2381 4750 
Q 2619 4750 2861 4703 
Q 3103 4656 3366 4563 
z
" transform="scale(0.015625)"/>
       </defs>
       <use xlink:href="#DejaVuSans-36"/>
       <use xlink:href="#DejaVuSans-30" x="63.623047"/>
      </g>
     </g>
    </g>
    <g id="ytick_6">
     <g id="line2d_8">
      <g>
       <use xlink:href="#m1d037e1ce9" x="27" y="78.96" style="stroke: #000000; stroke-width: 0.8"/>
      </g>
     </g>
     <g id="text_9">
      <!-- 80 -->
      <g transform="translate(7.275 82.759219) scale(0.1 -0.1)">
       <defs>
        <path id="DejaVuSans-38" d="M 2034 2216 
Q 1584 2216 1326 1975 
Q 1069 1734 1069 1313 
Q 1069 891 1326 650 
Q 1584 409 2034 409 
Q 2484 409 2743 651 
Q 3003 894 3003 1313 
Q 3003 1734 2745 1975 
Q 2488 2216 2034 2216 
z
M 1403 2484 
Q 997 2584 770 2862 
Q 544 3141 544 3541 
Q 544 4100 942 4425 
Q 1341 4750 2034 4750 
Q 2731 4750 3128 4425 
Q 3525 4100 3525 3541 
Q 3525 3141 3298 2862 
Q 3072 2584 2669 2484 
Q 3125 2378 3379 2068 
Q 3634 1759 3634 1313 
Q 3634 634 3220 271 
Q 2806 -91 2034 -91 
Q 1263 -91 848 271 
Q 434 634 434 1313 
Q 434 1759 690 2068 
Q 947 2378 1403 2484 
z
M 1172 3481 
Q 1172 3119 1398 2916 
Q 1625 2713 2034 2713 
Q 2441 2713 2670 2916 
Q 2900 3119 2900 3481 
Q 2900 3844 2670 4047 
Q 2441 4250 2034 4250 
Q 1625 4250 1398 4047 
Q 1172 3844 1172 3481 
z
" transform="scale(0.015625)"/>
       </defs>
       <use xlink:href="#DejaVuSans-38"/>
       <use xlink:href="#DejaVuSans-30" x="63.623047"/>
      </g>
     </g>
    </g>
    <g id="text_10">
     <!-- diff_auto_manual% -->
     <g transform="translate(-7.4625 302.331719) rotate(-90) scale(0.1 -0.1)">
      <defs>
       <path id="DejaVuSans-66" d="M 2375 4863 
L 2375 4384 
L 1825 4384 
Q 1516 4384 1395 4259 
Q 1275 4134 1275 3809 
L 1275 3500 
L 2222 3500 
L 2222 3053 
L 1275 3053 
L 1275 0 
L 697 0 
L 697 3053 
L 147 3053 
L 147 3500 
L 697 3500 
L 697 3744 
Q 697 4328 969 4595 
Q 1241 4863 1831 4863 
L 2375 4863 
z
" transform="scale(0.015625)"/>
       <path id="DejaVuSans-5f" d="M 3263 -1063 
L 3263 -1509 
L -63 -1509 
L -63 -1063 
L 3263 -1063 
z
" transform="scale(0.015625)"/>
       <path id="DejaVuSans-6f" d="M 1959 3097 
Q 1497 3097 1228 2736 
Q 959 2375 959 1747 
Q 959 1119 1226 758 
Q 1494 397 1959 397 
Q 2419 397 2687 759 
Q 2956 1122 2956 1747 
Q 2956 2369 2687 2733 
Q 2419 3097 1959 3097 
z
M 1959 3584 
Q 2709 3584 3137 3096 
Q 3566 2609 3566 1747 
Q 3566 888 3137 398 
Q 2709 -91 1959 -91 
Q 1206 -91 779 398 
Q 353 888 353 1747 
Q 353 2609 779 3096 
Q 1206 3584 1959 3584 
z
" transform="scale(0.015625)"/>
       <path id="DejaVuSans-6e" d="M 3513 2113 
L 3513 0 
L 2938 0 
L 2938 2094 
Q 2938 2591 2744 2837 
Q 2550 3084 2163 3084 
Q 1697 3084 1428 2787 
Q 1159 2491 1159 1978 
L 1159 0 
L 581 0 
L 581 3500 
L 1159 3500 
L 1159 2956 
Q 1366 3272 1645 3428 
Q 1925 3584 2291 3584 
Q 2894 3584 3203 3211 
Q 3513 2838 3513 2113 
z
" transform="scale(0.015625)"/>
       <path id="DejaVuSans-25" d="M 4653 2053 
Q 4381 2053 4226 1822 
Q 4072 1591 4072 1178 
Q 4072 772 4226 539 
Q 4381 306 4653 306 
Q 4919 306 5073 539 
Q 5228 772 5228 1178 
Q 5228 1588 5073 1820 
Q 4919 2053 4653 2053 
z
M 4653 2450 
Q 5147 2450 5437 2106 
Q 5728 1763 5728 1178 
Q 5728 594 5436 251 
Q 5144 -91 4653 -91 
Q 4153 -91 3862 251 
Q 3572 594 3572 1178 
Q 3572 1766 3864 2108 
Q 4156 2450 4653 2450 
z
M 1428 4353 
Q 1159 4353 1004 4120 
Q 850 3888 850 3481 
Q 850 3069 1003 2837 
Q 1156 2606 1428 2606 
Q 1700 2606 1854 2837 
Q 2009 3069 2009 3481 
Q 2009 3884 1853 4118 
Q 1697 4353 1428 4353 
z
M 4250 4750 
L 4750 4750 
L 1831 -91 
L 1331 -91 
L 4250 4750 
z
M 1428 4750 
Q 1922 4750 2215 4408 
Q 2509 4066 2509 3481 
Q 2509 2891 2217 2550 
Q 1925 2209 1428 2209 
Q 931 2209 642 2551 
Q 353 2894 353 3481 
Q 353 4063 643 4406 
Q 934 4750 1428 4750 
z
" transform="scale(0.015625)"/>
      </defs>
      <use xlink:href="#DejaVuSans-64"/>
      <use xlink:href="#DejaVuSans-69" x="63.476562"/>
      <use xlink:href="#DejaVuSans-66" x="91.259766"/>
      <use xlink:href="#DejaVuSans-66" x="126.464844"/>
      <use xlink:href="#DejaVuSans-5f" x="161.669922"/>
      <use xlink:href="#DejaVuSans-61" x="211.669922"/>
      <use xlink:href="#DejaVuSans-75" x="272.949219"/>
      <use xlink:href="#DejaVuSans-74" x="336.328125"/>
      <use xlink:href="#DejaVuSans-6f" x="375.537109"/>
      <use xlink:href="#DejaVuSans-5f" x="436.71875"/>
      <use xlink:href="#DejaVuSans-6d" x="486.71875"/>
      <use xlink:href="#DejaVuSans-61" x="584.130859"/>
      <use xlink:href="#DejaVuSans-6e" x="645.410156"/>
      <use xlink:href="#DejaVuSans-75" x="708.789062"/>
      <use xlink:href="#DejaVuSans-61" x="772.167969"/>
      <use xlink:href="#DejaVuSans-6c" x="833.447266"/>
      <use xlink:href="#DejaVuSans-25" x="861.230469"/>
     </g>
    </g>
   </g>
   <g id="line2d_9">
    <path d="M 68.85 209.413125 
L 68.85 286.64 
" clip-path="url(#p75dfac0645)" style="fill: none; stroke: #3f3f3f; stroke-width: 1.5; stroke-linecap: square"/>
   </g>
   <g id="line2d_10">
    <path d="M 68.85 151.12 
L 68.85 79.556129 
" clip-path="url(#p75dfac0645)" style="fill: none; stroke: #3f3f3f; stroke-width: 1.5; stroke-linecap: square"/>
   </g>
   <g id="line2d_11">
    <path d="M 52.11 286.64 
L 85.59 286.64 
" clip-path="url(#p75dfac0645)" style="fill: none; stroke: #3f3f3f; stroke-width: 1.5; stroke-linecap: square"/>
   </g>
   <g id="line2d_12">
    <path d="M 52.11 79.556129 
L 85.59 79.556129 
" clip-path="url(#p75dfac0645)" style="fill: none; stroke: #3f3f3f; stroke-width: 1.5; stroke-linecap: square"/>
   </g>
   <g id="line2d_13">
    <defs>
     <path id="m931c5e787a" d="M -0 3.535534 
L 2.12132 0 
L -0 -3.535534 
L -2.12132 -0 
z
" style="stroke: #3f3f3f; stroke-linejoin: miter"/>
    </defs>
    <g clip-path="url(#p75dfac0645)">
     <use xlink:href="#m931c5e787a" x="68.85" y="299.04" style="fill: #3f3f3f; stroke: #3f3f3f; stroke-linejoin: miter"/>
     <use xlink:href="#m931c5e787a" x="68.85" y="52.08" style="fill: #3f3f3f; stroke: #3f3f3f; stroke-linejoin: miter"/>
    </g>
   </g>
   <g id="line2d_14">
    <path d="M 152.55 239.651321 
L 152.55 299.04 
" clip-path="url(#p75dfac0645)" style="fill: none; stroke: #3f3f3f; stroke-width: 1.5; stroke-linecap: square"/>
   </g>
   <g id="line2d_15">
    <path d="M 152.55 199.786809 
L 152.55 151.091613 
" clip-path="url(#p75dfac0645)" style="fill: none; stroke: #3f3f3f; stroke-width: 1.5; stroke-linecap: square"/>
   </g>
   <g id="line2d_16">
    <path d="M 135.81 299.04 
L 169.29 299.04 
" clip-path="url(#p75dfac0645)" style="fill: none; stroke: #3f3f3f; stroke-width: 1.5; stroke-linecap: square"/>
   </g>
   <g id="line2d_17">
    <path d="M 135.81 151.091613 
L 169.29 151.091613 
" clip-path="url(#p75dfac0645)" style="fill: none; stroke: #3f3f3f; stroke-width: 1.5; stroke-linecap: square"/>
   </g>
   <g id="line2d_18">
    <g clip-path="url(#p75dfac0645)">
     <use xlink:href="#m931c5e787a" x="152.55" y="374.64" style="fill: #3f3f3f; stroke: #3f3f3f; stroke-linejoin: miter"/>
     <use xlink:href="#m931c5e787a" x="152.55" y="331.993846" style="fill: #3f3f3f; stroke: #3f3f3f; stroke-linejoin: miter"/>
     <use xlink:href="#m931c5e787a" x="152.55" y="321.84" style="fill: #3f3f3f; stroke: #3f3f3f; stroke-linejoin: miter"/>
    </g>
   </g>
   <g id="line2d_19">
    <path d="M 35.37 189.84 
L 102.33 189.84 
" clip-path="url(#p75dfac0645)" style="fill: none; stroke: #3f3f3f; stroke-width: 1.5; stroke-linecap: square"/>
   </g>
   <g id="line2d_20">
    <path d="M 119.07 212.092766 
L 186.03 212.092766 
" clip-path="url(#p75dfac0645)" style="fill: none; stroke: #3f3f3f; stroke-width: 1.5; stroke-linecap: square"/>
   </g>
   <g id="patch_5">
    <path d="M 27 448.56 
L 27 60.48 
" style="fill: none; stroke: #000000; stroke-width: 0.8; stroke-linejoin: miter; stroke-linecap: square"/>
   </g>
   <g id="patch_6">
    <path d="M 194.4 448.56 
L 194.4 60.48 
" style="fill: none; stroke: #000000; stroke-width: 0.8; stroke-linejoin: miter; stroke-linecap: square"/>
   </g>
   <g id="patch_7">
    <path d="M 27 448.56 
L 194.4 448.56 
" style="fill: none; stroke: #000000; stroke-width: 0.8; stroke-linejoin: miter; stroke-linecap: square"/>
   </g>
   <g id="patch_8">
    <path d="M 27 60.48 
L 194.4 60.48 
" style="fill: none; stroke: #000000; stroke-width: 0.8; stroke-linejoin: miter; stroke-linecap: square"/>
   </g>
   <g id="PathCollection_1">
    <defs>
     <path id="C0_0_bc7d9a1300" d="M 0 2.5 
C 0.663008 2.5 1.29895 2.236584 1.767767 1.767767 
C 2.236584 1.29895 2.5 0.663008 2.5 -0 
C 2.5 -0.663008 2.236584 -1.29895 1.767767 -1.767767 
C 1.29895 -2.236584 0.663008 -2.5 0 -2.5 
C -0.663008 -2.5 -1.29895 -2.236584 -1.767767 -1.767767 
C -2.236584 -1.29895 -2.5 -0.663008 -2.5 0 
C -2.5 0.663008 -2.236584 1.29895 -1.767767 1.767767 
C -1.29895 2.236584 -0.663008 2.5 0 2.5 
z
"/>
    </defs>
    <g clip-path="url(#p75dfac0645)">
     <use xlink:href="#C0_0_bc7d9a1300" x="62.563239" y="145.84" style="fill: #87ceeb"/>
    </g>
    <g clip-path="url(#p75dfac0645)">
     <use xlink:href="#C0_0_bc7d9a1300" x="68.748843" y="209.2" style="fill: #87ceeb"/>
    </g>
    <g clip-path="url(#p75dfac0645)">
     <use xlink:href="#C0_0_bc7d9a1300" x="70.045349" y="248.64" style="fill: #87ceeb"/>
    </g>
    <g clip-path="url(#p75dfac0645)">
     <use xlink:href="#C0_0_bc7d9a1300" x="73.950042" y="299.04" style="fill: #87ceeb"/>
    </g>
    <g clip-path="url(#p75dfac0645)">
     <use xlink:href="#C0_0_bc7d9a1300" x="69.936117" y="90.332308" style="fill: #87ceeb"/>
    </g>
    <g clip-path="url(#p75dfac0645)">
     <use xlink:href="#C0_0_bc7d9a1300" x="70.880825" y="189.84" style="fill: #87ceeb"/>
    </g>
    <g clip-path="url(#p75dfac0645)">
     <use xlink:href="#C0_0_bc7d9a1300" x="68.855507" y="201.635745" style="fill: #87ceeb"/>
    </g>
    <g clip-path="url(#p75dfac0645)">
     <use xlink:href="#C0_0_bc7d9a1300" x="61.045288" y="180.010213" style="fill: #87ceeb"/>
    </g>
    <g clip-path="url(#p75dfac0645)">
     <use xlink:href="#C0_0_bc7d9a1300" x="67.344923" y="196.487482" style="fill: #87ceeb"/>
    </g>
    <g clip-path="url(#p75dfac0645)">
     <use xlink:href="#C0_0_bc7d9a1300" x="69.719033" y="199.146475" style="fill: #87ceeb"/>
    </g>
    <g clip-path="url(#p75dfac0645)">
     <use xlink:href="#C0_0_bc7d9a1300" x="73.794287" y="197.54" style="fill: #87ceeb"/>
    </g>
    <g clip-path="url(#p75dfac0645)">
     <use xlink:href="#C0_0_bc7d9a1300" x="61.807136" y="182.14" style="fill: #87ceeb"/>
    </g>
    <g clip-path="url(#p75dfac0645)">
     <use xlink:href="#C0_0_bc7d9a1300" x="68.242163" y="215.427692" style="fill: #87ceeb"/>
    </g>
    <g clip-path="url(#p75dfac0645)">
     <use xlink:href="#C0_0_bc7d9a1300" x="67.739185" y="204.055385" style="fill: #87ceeb"/>
    </g>
    <g clip-path="url(#p75dfac0645)">
     <use xlink:href="#C0_0_bc7d9a1300" x="68.514165" y="169.587945" style="fill: #87ceeb"/>
    </g>
    <g clip-path="url(#p75dfac0645)">
     <use xlink:href="#C0_0_bc7d9a1300" x="63.852816" y="118.957808" style="fill: #87ceeb"/>
    </g>
    <g clip-path="url(#p75dfac0645)">
     <use xlink:href="#C0_0_bc7d9a1300" x="71.454609" y="283.983396" style="fill: #87ceeb"/>
    </g>
    <g clip-path="url(#p75dfac0645)">
     <use xlink:href="#C0_0_bc7d9a1300" x="65.935106" y="214.247547" style="fill: #87ceeb"/>
    </g>
    <g clip-path="url(#p75dfac0645)">
     <use xlink:href="#C0_0_bc7d9a1300" x="72.860321" y="286.64" style="fill: #87ceeb"/>
    </g>
    <g clip-path="url(#p75dfac0645)">
     <use xlink:href="#C0_0_bc7d9a1300" x="69.740484" y="233.84" style="fill: #87ceeb"/>
    </g>
    <g clip-path="url(#p75dfac0645)">
     <use xlink:href="#C0_0_bc7d9a1300" x="67.594487" y="201.762581" style="fill: #87ceeb"/>
    </g>
    <g clip-path="url(#p75dfac0645)">
     <use xlink:href="#C0_0_bc7d9a1300" x="73.179069" y="79.556129" style="fill: #87ceeb"/>
    </g>
    <g clip-path="url(#p75dfac0645)">
     <use xlink:href="#C0_0_bc7d9a1300" x="75.121173" y="152.88" style="fill: #87ceeb"/>
    </g>
    <g clip-path="url(#p75dfac0645)">
     <use xlink:href="#C0_0_bc7d9a1300" x="68.639125" y="189.84" style="fill: #87ceeb"/>
    </g>
    <g clip-path="url(#p75dfac0645)">
     <use xlink:href="#C0_0_bc7d9a1300" x="75.392776" y="185.908085" style="fill: #87ceeb"/>
    </g>
    <g clip-path="url(#p75dfac0645)">
     <use xlink:href="#C0_0_bc7d9a1300" x="62.313179" y="217.363404" style="fill: #87ceeb"/>
    </g>
    <g clip-path="url(#p75dfac0645)">
     <use xlink:href="#C0_0_bc7d9a1300" x="72.956224" y="166.74" style="fill: #87ceeb"/>
    </g>
    <g clip-path="url(#p75dfac0645)">
     <use xlink:href="#C0_0_bc7d9a1300" x="71.91" y="189.84" style="fill: #87ceeb"/>
    </g>
    <g clip-path="url(#p75dfac0645)">
     <use xlink:href="#C0_0_bc7d9a1300" x="66.724265" y="200.043681" style="fill: #87ceeb"/>
    </g>
    <g clip-path="url(#p75dfac0645)">
     <use xlink:href="#C0_0_bc7d9a1300" x="65.934162" y="156.961472" style="fill: #87ceeb"/>
    </g>
    <g clip-path="url(#p75dfac0645)">
     <use xlink:href="#C0_0_bc7d9a1300" x="71.104946" y="182.592941" style="fill: #87ceeb"/>
    </g>
    <g clip-path="url(#p75dfac0645)">
     <use xlink:href="#C0_0_bc7d9a1300" x="66.830285" y="81.134118" style="fill: #87ceeb"/>
    </g>
    <g clip-path="url(#p75dfac0645)">
     <use xlink:href="#C0_0_bc7d9a1300" x="67.870842" y="115.92" style="fill: #87ceeb"/>
    </g>
    <g clip-path="url(#p75dfac0645)">
     <use xlink:href="#C0_0_bc7d9a1300" x="70.602294" y="52.08" style="fill: #87ceeb"/>
    </g>
    <g clip-path="url(#p75dfac0645)">
     <use xlink:href="#C0_0_bc7d9a1300" x="74.039277" y="134.4" style="fill: #87ceeb"/>
    </g>
    <g clip-path="url(#p75dfac0645)">
     <use xlink:href="#C0_0_bc7d9a1300" x="76.001422" y="245.28" style="fill: #87ceeb"/>
    </g>
    <g clip-path="url(#p75dfac0645)">
     <use xlink:href="#C0_0_bc7d9a1300" x="74.046536" y="199.74" style="fill: #87ceeb"/>
    </g>
    <g clip-path="url(#p75dfac0645)">
     <use xlink:href="#C0_0_bc7d9a1300" x="72.870556" y="123.84" style="fill: #87ceeb"/>
    </g>
    <g clip-path="url(#p75dfac0645)">
     <use xlink:href="#C0_0_bc7d9a1300" x="64.905268" y="248.197895" style="fill: #87ceeb"/>
    </g>
    <g clip-path="url(#p75dfac0645)">
     <use xlink:href="#C0_0_bc7d9a1300" x="62.174395" y="189.84" style="fill: #87ceeb"/>
    </g>
    <g clip-path="url(#p75dfac0645)">
     <use xlink:href="#C0_0_bc7d9a1300" x="62.320628" y="207.44" style="fill: #87ceeb"/>
    </g>
    <g clip-path="url(#p75dfac0645)">
     <use xlink:href="#C0_0_bc7d9a1300" x="60.716284" y="88.64" style="fill: #87ceeb"/>
    </g>
    <g clip-path="url(#p75dfac0645)">
     <use xlink:href="#C0_0_bc7d9a1300" x="63.570468" y="210.0525" style="fill: #87ceeb"/>
    </g>
    <g clip-path="url(#p75dfac0645)">
     <use xlink:href="#C0_0_bc7d9a1300" x="61.891473" y="85.89" style="fill: #87ceeb"/>
    </g>
   </g>
   <g id="PathCollection_2">
    <defs>
     <path id="C1_0_8a49754261" d="M 0 2.5 
C 0.663008 2.5 1.29895 2.236584 1.767767 1.767767 
C 2.236584 1.29895 2.5 0.663008 2.5 -0 
C 2.5 -0.663008 2.236584 -1.29895 1.767767 -1.767767 
C 1.29895 -2.236584 0.663008 -2.5 0 -2.5 
C -0.663008 -2.5 -1.29895 -2.236584 -1.767767 -1.767767 
C -2.236584 -1.29895 -2.5 -0.663008 -2.5 0 
C -2.5 0.663008 -2.236584 1.29895 -1.767767 1.767767 
C -1.29895 2.236584 -0.663008 2.5 0 2.5 
z
"/>
    </defs>
    <g clip-path="url(#p75dfac0645)">
     <use xlink:href="#C1_0_8a49754261" x="150.726255" y="212.72" style="fill: #ffd700"/>
    </g>
    <g clip-path="url(#p75dfac0645)">
     <use xlink:href="#C1_0_8a49754261" x="150.112034" y="219.76" style="fill: #ffd700"/>
    </g>
    <g clip-path="url(#p75dfac0645)">
     <use xlink:href="#C1_0_8a49754261" x="159.486356" y="257.04" style="fill: #ffd700"/>
    </g>
    <g clip-path="url(#p75dfac0645)">
     <use xlink:href="#C1_0_8a49754261" x="154.017235" y="299.04" style="fill: #ffd700"/>
    </g>
    <g clip-path="url(#p75dfac0645)">
     <use xlink:href="#C1_0_8a49754261" x="160.847826" y="374.64" style="fill: #ffd700"/>
    </g>
    <g clip-path="url(#p75dfac0645)">
     <use xlink:href="#C1_0_8a49754261" x="149.561433" y="331.993846" style="fill: #ffd700"/>
    </g>
    <g clip-path="url(#p75dfac0645)">
     <use xlink:href="#C1_0_8a49754261" x="151.279526" y="211.465532" style="fill: #ffd700"/>
    </g>
    <g clip-path="url(#p75dfac0645)">
     <use xlink:href="#C1_0_8a49754261" x="148.631041" y="203.601702" style="fill: #ffd700"/>
    </g>
    <g clip-path="url(#p75dfac0645)">
     <use xlink:href="#C1_0_8a49754261" x="147.863879" y="228.395396" style="fill: #ffd700"/>
    </g>
    <g clip-path="url(#p75dfac0645)">
     <use xlink:href="#C1_0_8a49754261" x="156.557364" y="209.782446" style="fill: #ffd700"/>
    </g>
    <g clip-path="url(#p75dfac0645)">
     <use xlink:href="#C1_0_8a49754261" x="147.251367" y="209.09" style="fill: #ffd700"/>
    </g>
    <g clip-path="url(#p75dfac0645)">
     <use xlink:href="#C1_0_8a49754261" x="152.745107" y="232.19" style="fill: #ffd700"/>
    </g>
    <g clip-path="url(#p75dfac0645)">
     <use xlink:href="#C1_0_8a49754261" x="153.956482" y="232.486154" style="fill: #ffd700"/>
    </g>
    <g clip-path="url(#p75dfac0645)">
     <use xlink:href="#C1_0_8a49754261" x="158.689007" y="221.113846" style="fill: #ffd700"/>
    </g>
    <g clip-path="url(#p75dfac0645)">
     <use xlink:href="#C1_0_8a49754261" x="151.904265" y="184.776986" style="fill: #ffd700"/>
    </g>
    <g clip-path="url(#p75dfac0645)">
     <use xlink:href="#C1_0_8a49754261" x="158.250982" y="184.776986" style="fill: #ffd700"/>
    </g>
    <g clip-path="url(#p75dfac0645)">
     <use xlink:href="#C1_0_8a49754261" x="159.082329" y="294.443774" style="fill: #ffd700"/>
    </g>
    <g clip-path="url(#p75dfac0645)">
     <use xlink:href="#C1_0_8a49754261" x="152.364015" y="238.655094" style="fill: #ffd700"/>
    </g>
    <g clip-path="url(#p75dfac0645)">
     <use xlink:href="#C1_0_8a49754261" x="153.268928" y="286.64" style="fill: #ffd700"/>
    </g>
    <g clip-path="url(#p75dfac0645)">
     <use xlink:href="#C1_0_8a49754261" x="148.048351" y="321.84" style="fill: #ffd700"/>
    </g>
    <g clip-path="url(#p75dfac0645)">
     <use xlink:href="#C1_0_8a49754261" x="157.525431" y="204.743226" style="fill: #ffd700"/>
    </g>
    <g clip-path="url(#p75dfac0645)">
     <use xlink:href="#C1_0_8a49754261" x="156.237815" y="151.091613" style="fill: #ffd700"/>
    </g>
    <g clip-path="url(#p75dfac0645)">
     <use xlink:href="#C1_0_8a49754261" x="159.987532" y="204.624" style="fill: #ffd700"/>
    </g>
    <g clip-path="url(#p75dfac0645)">
     <use xlink:href="#C1_0_8a49754261" x="144.816611" y="189.84" style="fill: #ffd700"/>
    </g>
    <g clip-path="url(#p75dfac0645)">
     <use xlink:href="#C1_0_8a49754261" x="155.581103" y="201.635745" style="fill: #ffd700"/>
    </g>
    <g clip-path="url(#p75dfac0645)">
     <use xlink:href="#C1_0_8a49754261" x="160.34389" y="225.227234" style="fill: #ffd700"/>
    </g>
    <g clip-path="url(#p75dfac0645)">
     <use xlink:href="#C1_0_8a49754261" x="144.428076" y="231.42" style="fill: #ffd700"/>
    </g>
    <g clip-path="url(#p75dfac0645)">
     <use xlink:href="#C1_0_8a49754261" x="149.456542" y="226.8" style="fill: #ffd700"/>
    </g>
    <g clip-path="url(#p75dfac0645)">
     <use xlink:href="#C1_0_8a49754261" x="150.365495" y="204.57865" style="fill: #ffd700"/>
    </g>
    <g clip-path="url(#p75dfac0645)">
     <use xlink:href="#C1_0_8a49754261" x="151.491901" y="181.903804" style="fill: #ffd700"/>
    </g>
    <g clip-path="url(#p75dfac0645)">
     <use xlink:href="#C1_0_8a49754261" x="150.430804" y="204.334118" style="fill: #ffd700"/>
    </g>
    <g clip-path="url(#p75dfac0645)">
     <use xlink:href="#C1_0_8a49754261" x="152.625538" y="189.84" style="fill: #ffd700"/>
    </g>
    <g clip-path="url(#p75dfac0645)">
     <use xlink:href="#C1_0_8a49754261" x="151.150426" y="179.76" style="fill: #ffd700"/>
    </g>
    <g clip-path="url(#p75dfac0645)">
     <use xlink:href="#C1_0_8a49754261" x="148.180918" y="183.12" style="fill: #ffd700"/>
    </g>
    <g clip-path="url(#p75dfac0645)">
     <use xlink:href="#C1_0_8a49754261" x="150.742092" y="208.32" style="fill: #ffd700"/>
    </g>
    <g clip-path="url(#p75dfac0645)">
     <use xlink:href="#C1_0_8a49754261" x="144.712411" y="263.76" style="fill: #ffd700"/>
    </g>
    <g clip-path="url(#p75dfac0645)">
     <use xlink:href="#C1_0_8a49754261" x="159.077352" y="203.04" style="fill: #ffd700"/>
    </g>
    <g clip-path="url(#p75dfac0645)">
     <use xlink:href="#C1_0_8a49754261" x="156.8826" y="176.64" style="fill: #ffd700"/>
    </g>
    <g clip-path="url(#p75dfac0645)">
     <use xlink:href="#C1_0_8a49754261" x="157.397737" y="287.103158" style="fill: #ffd700"/>
    </g>
    <g clip-path="url(#p75dfac0645)">
     <use xlink:href="#C1_0_8a49754261" x="154.903515" y="267.650526" style="fill: #ffd700"/>
    </g>
    <g clip-path="url(#p75dfac0645)">
     <use xlink:href="#C1_0_8a49754261" x="150.378685" y="242.64" style="fill: #ffd700"/>
    </g>
    <g clip-path="url(#p75dfac0645)">
     <use xlink:href="#C1_0_8a49754261" x="147.062412" y="194.24" style="fill: #ffd700"/>
    </g>
    <g clip-path="url(#p75dfac0645)">
     <use xlink:href="#C1_0_8a49754261" x="149.940174" y="212.94" style="fill: #ffd700"/>
    </g>
    <g clip-path="url(#p75dfac0645)">
     <use xlink:href="#C1_0_8a49754261" x="151.238488" y="184.065" style="fill: #ffd700"/>
    </g>
   </g>
  </g>
 </g>
 <defs>
  <clipPath id="p75dfac0645">
   <rect x="27" y="60.48" width="167.4" height="388.08"/>
  </clipPath>
 </defs>
</svg>
