<?xml version="1.0" encoding="utf-8" standalone="no"?>
<!DOCTYPE svg PUBLIC "-//W3C//DTD SVG 1.1//EN"
  "http://www.w3.org/Graphics/SVG/1.1/DTD/svg11.dtd">
<svg xmlns:xlink="http://www.w3.org/1999/xlink" width="864pt" height="360pt" viewBox="0 0 864 360" xmlns="http://www.w3.org/2000/svg" version="1.1">
 <metadata>
  <rdf:RDF xmlns:dc="http://purl.org/dc/elements/1.1/" xmlns:cc="http://creativecommons.org/ns#" xmlns:rdf="http://www.w3.org/1999/02/22-rdf-syntax-ns#">
   <cc:Work>
    <dc:type rdf:resource="http://purl.org/dc/dcmitype/StillImage"/>
    <dc:date>2025-06-30T15:52:10.846328</dc:date>
    <dc:format>image/svg+xml</dc:format>
    <dc:creator>
     <cc:Agent>
      <dc:title>Matplotlib v3.7.4, https://matplotlib.org/</dc:title>
     </cc:Agent>
    </dc:creator>
   </cc:Work>
  </rdf:RDF>
 </metadata>
 <defs>
  <style type="text/css">*{stroke-linejoin: round; stroke-linecap: butt}</style>
 </defs>
 <g id="figure_1">
  <g id="patch_1">
   <path d="M 0 360 
L 864 360 
L 864 0 
L 0 0 
z
" style="fill: #ffffff"/>
  </g>
  <g id="axes_1">
   <g id="patch_2">
    <path d="M 108 320.4 
L 412.363636 320.4 
L 412.363636 43.2 
L 108 43.2 
z
" style="fill: #ffffff"/>
   </g>
   <g id="matplotlib.axis_1">
    <g id="xtick_1">
     <g id="text_1">
      <!-- 0 -->
      <g style="fill: #262626" transform="translate(108.771524 334.998438) scale(0.1 -0.1)">
       <defs>
        <path id="DejaVuSans-30" d="M 2034 4250 
Q 1547 4250 1301 3770 
Q 1056 3291 1056 2328 
Q 1056 1369 1301 889 
Q 1547 409 2034 409 
Q 2525 409 2770 889 
Q 3016 1369 3016 2328 
Q 3016 3291 2770 3770 
Q 2525 4250 2034 4250 
z
M 2034 4750 
Q 2819 4750 3233 4129 
Q 3647 3509 3647 2328 
Q 3647 1150 3233 529 
Q 2819 -91 2034 -91 
Q 1250 -91 836 529 
Q 422 1150 422 2328 
Q 422 3509 836 4129 
Q 1250 4750 2034 4750 
z
" transform="scale(0.015625)"/>
       </defs>
       <use xlink:href="#DejaVuSans-30"/>
      </g>
     </g>
    </g>
    <g id="xtick_2">
     <g id="text_2">
      <!-- 1 -->
      <g style="fill: #262626" transform="translate(143.282973 334.998438) scale(0.1 -0.1)">
       <defs>
        <path id="DejaVuSans-31" d="M 794 531 
L 1825 531 
L 1825 4091 
L 703 3866 
L 703 4441 
L 1819 4666 
L 2450 4666 
L 2450 531 
L 3481 531 
L 3481 0 
L 794 0 
L 794 531 
z
" transform="scale(0.015625)"/>
       </defs>
       <use xlink:href="#DejaVuSans-31"/>
      </g>
     </g>
    </g>
    <g id="xtick_3">
     <g id="text_3">
      <!-- 2 -->
      <g style="fill: #262626" transform="translate(177.794422 334.998438) scale(0.1 -0.1)">
       <defs>
        <path id="DejaVuSans-32" d="M 1228 531 
L 3431 531 
L 3431 0 
L 469 0 
L 469 531 
Q 828 903 1448 1529 
Q 2069 2156 2228 2338 
Q 2531 2678 2651 2914 
Q 2772 3150 2772 3378 
Q 2772 3750 2511 3984 
Q 2250 4219 1831 4219 
Q 1534 4219 1204 4116 
Q 875 4013 500 3803 
L 500 4441 
Q 881 4594 1212 4672 
Q 1544 4750 1819 4750 
Q 2544 4750 2975 4387 
Q 3406 4025 3406 3419 
Q 3406 3131 3298 2873 
Q 3191 2616 2906 2266 
Q 2828 2175 2409 1742 
Q 1991 1309 1228 531 
z
" transform="scale(0.015625)"/>
       </defs>
       <use xlink:href="#DejaVuSans-32"/>
      </g>
     </g>
    </g>
    <g id="xtick_4">
     <g id="text_4">
      <!-- 3 -->
      <g style="fill: #262626" transform="translate(212.30587 334.998438) scale(0.1 -0.1)">
       <defs>
        <path id="DejaVuSans-33" d="M 2597 2516 
Q 3050 2419 3304 2112 
Q 3559 1806 3559 1356 
Q 3559 666 3084 287 
Q 2609 -91 1734 -91 
Q 1441 -91 1130 -33 
Q 819 25 488 141 
L 488 750 
Q 750 597 1062 519 
Q 1375 441 1716 441 
Q 2309 441 2620 675 
Q 2931 909 2931 1356 
Q 2931 1769 2642 2001 
Q 2353 2234 1838 2234 
L 1294 2234 
L 1294 2753 
L 1863 2753 
Q 2328 2753 2575 2939 
Q 2822 3125 2822 3475 
Q 2822 3834 2567 4026 
Q 2313 4219 1838 4219 
Q 1578 4219 1281 4162 
Q 984 4106 628 3988 
L 628 4550 
Q 988 4650 1302 4700 
Q 1616 4750 1894 4750 
Q 2613 4750 3031 4423 
Q 3450 4097 3450 3541 
Q 3450 3153 3228 2886 
Q 3006 2619 2597 2516 
z
" transform="scale(0.015625)"/>
       </defs>
       <use xlink:href="#DejaVuSans-33"/>
      </g>
     </g>
    </g>
    <g id="xtick_5">
     <g id="text_5">
      <!-- 4 -->
      <g style="fill: #262626" transform="translate(246.817319 334.998438) scale(0.1 -0.1)">
       <defs>
        <path id="DejaVuSans-34" d="M 2419 4116 
L 825 1625 
L 2419 1625 
L 2419 4116 
z
M 2253 4666 
L 3047 4666 
L 3047 1625 
L 3713 1625 
L 3713 1100 
L 3047 1100 
L 3047 0 
L 2419 0 
L 2419 1100 
L 313 1100 
L 313 1709 
L 2253 4666 
z
" transform="scale(0.015625)"/>
       </defs>
       <use xlink:href="#DejaVuSans-34"/>
      </g>
     </g>
    </g>
    <g id="xtick_6">
     <g id="text_6">
      <!-- 5 -->
      <g style="fill: #262626" transform="translate(281.328767 334.998438) scale(0.1 -0.1)">
       <defs>
        <path id="DejaVuSans-35" d="M 691 4666 
L 3169 4666 
L 3169 4134 
L 1269 4134 
L 1269 2991 
Q 1406 3038 1543 3061 
Q 1681 3084 1819 3084 
Q 2600 3084 3056 2656 
Q 3513 2228 3513 1497 
Q 3513 744 3044 326 
Q 2575 -91 1722 -91 
Q 1428 -91 1123 -41 
Q 819 9 494 109 
L 494 744 
Q 775 591 1075 516 
Q 1375 441 1709 441 
Q 2250 441 2565 725 
Q 2881 1009 2881 1497 
Q 2881 1984 2565 2268 
Q 2250 2553 1709 2553 
Q 1456 2553 1204 2497 
Q 953 2441 691 2322 
L 691 4666 
z
" transform="scale(0.015625)"/>
       </defs>
       <use xlink:href="#DejaVuSans-35"/>
      </g>
     </g>
    </g>
    <g id="xtick_7">
     <g id="text_7">
      <!-- 6 -->
      <g style="fill: #262626" transform="translate(315.840216 334.998438) scale(0.1 -0.1)">
       <defs>
        <path id="DejaVuSans-36" d="M 2113 2584 
Q 1688 2584 1439 2293 
Q 1191 2003 1191 1497 
Q 1191 994 1439 701 
Q 1688 409 2113 409 
Q 2538 409 2786 701 
Q 3034 994 3034 1497 
Q 3034 2003 2786 2293 
Q 2538 2584 2113 2584 
z
M 3366 4563 
L 3366 3988 
Q 3128 4100 2886 4159 
Q 2644 4219 2406 4219 
Q 1781 4219 1451 3797 
Q 1122 3375 1075 2522 
Q 1259 2794 1537 2939 
Q 1816 3084 2150 3084 
Q 2853 3084 3261 2657 
Q 3669 2231 3669 1497 
Q 3669 778 3244 343 
Q 2819 -91 2113 -91 
Q 1303 -91 875 529 
Q 447 1150 447 2328 
Q 447 3434 972 4092 
Q 1497 4750 2381 4750 
Q 2619 4750 2861 4703 
Q 3103 4656 3366 4563 
z
" transform="scale(0.015625)"/>
       </defs>
       <use xlink:href="#DejaVuSans-36"/>
      </g>
     </g>
    </g>
    <g id="xtick_8">
     <g id="text_8">
      <!-- 7 -->
      <g style="fill: #262626" transform="translate(350.351664 334.998438) scale(0.1 -0.1)">
       <defs>
        <path id="DejaVuSans-37" d="M 525 4666 
L 3525 4666 
L 3525 4397 
L 1831 0 
L 1172 0 
L 2766 4134 
L 525 4134 
L 525 4666 
z
" transform="scale(0.015625)"/>
       </defs>
       <use xlink:href="#DejaVuSans-37"/>
      </g>
     </g>
    </g>
    <g id="xtick_9">
     <g id="text_9">
      <!-- 8 -->
      <g style="fill: #262626" transform="translate(384.863113 334.998438) scale(0.1 -0.1)">
       <defs>
        <path id="DejaVuSans-38" d="M 2034 2216 
Q 1584 2216 1326 1975 
Q 1069 1734 1069 1313 
Q 1069 891 1326 650 
Q 1584 409 2034 409 
Q 2484 409 2743 651 
Q 3003 894 3003 1313 
Q 3003 1734 2745 1975 
Q 2488 2216 2034 2216 
z
M 1403 2484 
Q 997 2584 770 2862 
Q 544 3141 544 3541 
Q 544 4100 942 4425 
Q 1341 4750 2034 4750 
Q 2731 4750 3128 4425 
Q 3525 4100 3525 3541 
Q 3525 3141 3298 2862 
Q 3072 2584 2669 2484 
Q 3125 2378 3379 2068 
Q 3634 1759 3634 1313 
Q 3634 634 3220 271 
Q 2806 -91 2034 -91 
Q 1263 -91 848 271 
Q 434 634 434 1313 
Q 434 1759 690 2068 
Q 947 2378 1403 2484 
z
M 1172 3481 
Q 1172 3119 1398 2916 
Q 1625 2713 2034 2713 
Q 2441 2713 2670 2916 
Q 2900 3119 2900 3481 
Q 2900 3844 2670 4047 
Q 2441 4250 2034 4250 
Q 1625 4250 1398 4047 
Q 1172 3844 1172 3481 
z
" transform="scale(0.015625)"/>
       </defs>
       <use xlink:href="#DejaVuSans-38"/>
      </g>
     </g>
    </g>
    <g id="text_10">
     <!-- binned_dist_bw_fishes -->
     <g style="fill: #262626" transform="translate(204.534943 348.676562) scale(0.1 -0.1)">
      <defs>
       <path id="DejaVuSans-62" d="M 3116 1747 
Q 3116 2381 2855 2742 
Q 2594 3103 2138 3103 
Q 1681 3103 1420 2742 
Q 1159 2381 1159 1747 
Q 1159 1113 1420 752 
Q 1681 391 2138 391 
Q 2594 391 2855 752 
Q 3116 1113 3116 1747 
z
M 1159 2969 
Q 1341 3281 1617 3432 
Q 1894 3584 2278 3584 
Q 2916 3584 3314 3078 
Q 3713 2572 3713 1747 
Q 3713 922 3314 415 
Q 2916 -91 2278 -91 
Q 1894 -91 1617 61 
Q 1341 213 1159 525 
L 1159 0 
L 581 0 
L 581 4863 
L 1159 4863 
L 1159 2969 
z
" transform="scale(0.015625)"/>
       <path id="DejaVuSans-69" d="M 603 3500 
L 1178 3500 
L 1178 0 
L 603 0 
L 603 3500 
z
M 603 4863 
L 1178 4863 
L 1178 4134 
L 603 4134 
L 603 4863 
z
" transform="scale(0.015625)"/>
       <path id="DejaVuSans-6e" d="M 3513 2113 
L 3513 0 
L 2938 0 
L 2938 2094 
Q 2938 2591 2744 2837 
Q 2550 3084 2163 3084 
Q 1697 3084 1428 2787 
Q 1159 2491 1159 1978 
L 1159 0 
L 581 0 
L 581 3500 
L 1159 3500 
L 1159 2956 
Q 1366 3272 1645 3428 
Q 1925 3584 2291 3584 
Q 2894 3584 3203 3211 
Q 3513 2838 3513 2113 
z
" transform="scale(0.015625)"/>
       <path id="DejaVuSans-65" d="M 3597 1894 
L 3597 1613 
L 953 1613 
Q 991 1019 1311 708 
Q 1631 397 2203 397 
Q 2534 397 2845 478 
Q 3156 559 3463 722 
L 3463 178 
Q 3153 47 2828 -22 
Q 2503 -91 2169 -91 
Q 1331 -91 842 396 
Q 353 884 353 1716 
Q 353 2575 817 3079 
Q 1281 3584 2069 3584 
Q 2775 3584 3186 3129 
Q 3597 2675 3597 1894 
z
M 3022 2063 
Q 3016 2534 2758 2815 
Q 2500 3097 2075 3097 
Q 1594 3097 1305 2825 
Q 1016 2553 972 2059 
L 3022 2063 
z
" transform="scale(0.015625)"/>
       <path id="DejaVuSans-64" d="M 2906 2969 
L 2906 4863 
L 3481 4863 
L 3481 0 
L 2906 0 
L 2906 525 
Q 2725 213 2448 61 
Q 2172 -91 1784 -91 
Q 1150 -91 751 415 
Q 353 922 353 1747 
Q 353 2572 751 3078 
Q 1150 3584 1784 3584 
Q 2172 3584 2448 3432 
Q 2725 3281 2906 2969 
z
M 947 1747 
Q 947 1113 1208 752 
Q 1469 391 1925 391 
Q 2381 391 2643 752 
Q 2906 1113 2906 1747 
Q 2906 2381 2643 2742 
Q 2381 3103 1925 3103 
Q 1469 3103 1208 2742 
Q 947 2381 947 1747 
z
" transform="scale(0.015625)"/>
       <path id="DejaVuSans-5f" d="M 3263 -1063 
L 3263 -1509 
L -63 -1509 
L -63 -1063 
L 3263 -1063 
z
" transform="scale(0.015625)"/>
       <path id="DejaVuSans-73" d="M 2834 3397 
L 2834 2853 
Q 2591 2978 2328 3040 
Q 2066 3103 1784 3103 
Q 1356 3103 1142 2972 
Q 928 2841 928 2578 
Q 928 2378 1081 2264 
Q 1234 2150 1697 2047 
L 1894 2003 
Q 2506 1872 2764 1633 
Q 3022 1394 3022 966 
Q 3022 478 2636 193 
Q 2250 -91 1575 -91 
Q 1294 -91 989 -36 
Q 684 19 347 128 
L 347 722 
Q 666 556 975 473 
Q 1284 391 1588 391 
Q 1994 391 2212 530 
Q 2431 669 2431 922 
Q 2431 1156 2273 1281 
Q 2116 1406 1581 1522 
L 1381 1569 
Q 847 1681 609 1914 
Q 372 2147 372 2553 
Q 372 3047 722 3315 
Q 1072 3584 1716 3584 
Q 2034 3584 2315 3537 
Q 2597 3491 2834 3397 
z
" transform="scale(0.015625)"/>
       <path id="DejaVuSans-74" d="M 1172 4494 
L 1172 3500 
L 2356 3500 
L 2356 3053 
L 1172 3053 
L 1172 1153 
Q 1172 725 1289 603 
Q 1406 481 1766 481 
L 2356 481 
L 2356 0 
L 1766 0 
Q 1100 0 847 248 
Q 594 497 594 1153 
L 594 3053 
L 172 3053 
L 172 3500 
L 594 3500 
L 594 4494 
L 1172 4494 
z
" transform="scale(0.015625)"/>
       <path id="DejaVuSans-77" d="M 269 3500 
L 844 3500 
L 1563 769 
L 2278 3500 
L 2956 3500 
L 3675 769 
L 4391 3500 
L 4966 3500 
L 4050 0 
L 3372 0 
L 2619 2869 
L 1863 0 
L 1184 0 
L 269 3500 
z
" transform="scale(0.015625)"/>
       <path id="DejaVuSans-66" d="M 2375 4863 
L 2375 4384 
L 1825 4384 
Q 1516 4384 1395 4259 
Q 1275 4134 1275 3809 
L 1275 3500 
L 2222 3500 
L 2222 3053 
L 1275 3053 
L 1275 0 
L 697 0 
L 697 3053 
L 147 3053 
L 147 3500 
L 697 3500 
L 697 3744 
Q 697 4328 969 4595 
Q 1241 4863 1831 4863 
L 2375 4863 
z
" transform="scale(0.015625)"/>
       <path id="DejaVuSans-68" d="M 3513 2113 
L 3513 0 
L 2938 0 
L 2938 2094 
Q 2938 2591 2744 2837 
Q 2550 3084 2163 3084 
Q 1697 3084 1428 2787 
Q 1159 2491 1159 1978 
L 1159 0 
L 581 0 
L 581 4863 
L 1159 4863 
L 1159 2956 
Q 1366 3272 1645 3428 
Q 1925 3584 2291 3584 
Q 2894 3584 3203 3211 
Q 3513 2838 3513 2113 
z
" transform="scale(0.015625)"/>
      </defs>
      <use xlink:href="#DejaVuSans-62"/>
      <use xlink:href="#DejaVuSans-69" x="63.476562"/>
      <use xlink:href="#DejaVuSans-6e" x="91.259766"/>
      <use xlink:href="#DejaVuSans-6e" x="154.638672"/>
      <use xlink:href="#DejaVuSans-65" x="218.017578"/>
      <use xlink:href="#DejaVuSans-64" x="279.541016"/>
      <use xlink:href="#DejaVuSans-5f" x="343.017578"/>
      <use xlink:href="#DejaVuSans-64" x="393.017578"/>
      <use xlink:href="#DejaVuSans-69" x="456.494141"/>
      <use xlink:href="#DejaVuSans-73" x="484.277344"/>
      <use xlink:href="#DejaVuSans-74" x="536.376953"/>
      <use xlink:href="#DejaVuSans-5f" x="575.585938"/>
      <use xlink:href="#DejaVuSans-62" x="625.585938"/>
      <use xlink:href="#DejaVuSans-77" x="689.0625"/>
      <use xlink:href="#DejaVuSans-5f" x="770.849609"/>
      <use xlink:href="#DejaVuSans-66" x="820.849609"/>
      <use xlink:href="#DejaVuSans-69" x="856.054688"/>
      <use xlink:href="#DejaVuSans-73" x="883.837891"/>
      <use xlink:href="#DejaVuSans-68" x="935.9375"/>
      <use xlink:href="#DejaVuSans-65" x="999.316406"/>
      <use xlink:href="#DejaVuSans-73" x="1060.839844"/>
     </g>
    </g>
   </g>
   <g id="matplotlib.axis_2">
    <g id="ytick_1">
     <g id="text_11">
      <!-- 0 -->
      <g style="fill: #262626" transform="translate(94.6375 324.199219) scale(0.1 -0.1)">
       <use xlink:href="#DejaVuSans-30"/>
      </g>
     </g>
    </g>
    <g id="ytick_2">
     <g id="text_12">
      <!-- 2 -->
      <g style="fill: #262626" transform="translate(94.6375 289.549219) scale(0.1 -0.1)">
       <use xlink:href="#DejaVuSans-32"/>
      </g>
     </g>
    </g>
    <g id="ytick_3">
     <g id="text_13">
      <!-- 4 -->
      <g style="fill: #262626" transform="translate(94.6375 254.899219) scale(0.1 -0.1)">
       <use xlink:href="#DejaVuSans-34"/>
      </g>
     </g>
    </g>
    <g id="ytick_4">
     <g id="text_14">
      <!-- 6 -->
      <g style="fill: #262626" transform="translate(94.6375 220.249219) scale(0.1 -0.1)">
       <use xlink:href="#DejaVuSans-36"/>
      </g>
     </g>
    </g>
    <g id="ytick_5">
     <g id="text_15">
      <!-- 8 -->
      <g style="fill: #262626" transform="translate(94.6375 185.599219) scale(0.1 -0.1)">
       <use xlink:href="#DejaVuSans-38"/>
      </g>
     </g>
    </g>
    <g id="ytick_6">
     <g id="text_16">
      <!-- 10 -->
      <g style="fill: #262626" transform="translate(88.275 150.949219) scale(0.1 -0.1)">
       <use xlink:href="#DejaVuSans-31"/>
       <use xlink:href="#DejaVuSans-30" x="63.623047"/>
      </g>
     </g>
    </g>
    <g id="ytick_7">
     <g id="text_17">
      <!-- 12 -->
      <g style="fill: #262626" transform="translate(88.275 116.299219) scale(0.1 -0.1)">
       <use xlink:href="#DejaVuSans-31"/>
       <use xlink:href="#DejaVuSans-32" x="63.623047"/>
      </g>
     </g>
    </g>
    <g id="ytick_8">
     <g id="text_18">
      <!-- 14 -->
      <g style="fill: #262626" transform="translate(88.275 81.649219) scale(0.1 -0.1)">
       <use xlink:href="#DejaVuSans-31"/>
       <use xlink:href="#DejaVuSans-34" x="63.623047"/>
      </g>
     </g>
    </g>
    <g id="ytick_9">
     <g id="text_19">
      <!-- 16 -->
      <g style="fill: #262626" transform="translate(88.275 46.999219) scale(0.1 -0.1)">
       <use xlink:href="#DejaVuSans-31"/>
       <use xlink:href="#DejaVuSans-36" x="63.623047"/>
      </g>
     </g>
    </g>
    <g id="text_20">
     <!-- RMSE -->
     <g style="fill: #262626" transform="translate(82.195312 195.921875) rotate(-90) scale(0.1 -0.1)">
      <defs>
       <path id="DejaVuSans-52" d="M 2841 2188 
Q 3044 2119 3236 1894 
Q 3428 1669 3622 1275 
L 4263 0 
L 3584 0 
L 2988 1197 
Q 2756 1666 2539 1819 
Q 2322 1972 1947 1972 
L 1259 1972 
L 1259 0 
L 628 0 
L 628 4666 
L 2053 4666 
Q 2853 4666 3247 4331 
Q 3641 3997 3641 3322 
Q 3641 2881 3436 2590 
Q 3231 2300 2841 2188 
z
M 1259 4147 
L 1259 2491 
L 2053 2491 
Q 2509 2491 2742 2702 
Q 2975 2913 2975 3322 
Q 2975 3731 2742 3939 
Q 2509 4147 2053 4147 
L 1259 4147 
z
" transform="scale(0.015625)"/>
       <path id="DejaVuSans-4d" d="M 628 4666 
L 1569 4666 
L 2759 1491 
L 3956 4666 
L 4897 4666 
L 4897 0 
L 4281 0 
L 4281 4097 
L 3078 897 
L 2444 897 
L 1241 4097 
L 1241 0 
L 628 0 
L 628 4666 
z
" transform="scale(0.015625)"/>
       <path id="DejaVuSans-53" d="M 3425 4513 
L 3425 3897 
Q 3066 4069 2747 4153 
Q 2428 4238 2131 4238 
Q 1616 4238 1336 4038 
Q 1056 3838 1056 3469 
Q 1056 3159 1242 3001 
Q 1428 2844 1947 2747 
L 2328 2669 
Q 3034 2534 3370 2195 
Q 3706 1856 3706 1288 
Q 3706 609 3251 259 
Q 2797 -91 1919 -91 
Q 1588 -91 1214 -16 
Q 841 59 441 206 
L 441 856 
Q 825 641 1194 531 
Q 1563 422 1919 422 
Q 2459 422 2753 634 
Q 3047 847 3047 1241 
Q 3047 1584 2836 1778 
Q 2625 1972 2144 2069 
L 1759 2144 
Q 1053 2284 737 2584 
Q 422 2884 422 3419 
Q 422 4038 858 4394 
Q 1294 4750 2059 4750 
Q 2388 4750 2728 4690 
Q 3069 4631 3425 4513 
z
" transform="scale(0.015625)"/>
       <path id="DejaVuSans-45" d="M 628 4666 
L 3578 4666 
L 3578 4134 
L 1259 4134 
L 1259 2753 
L 3481 2753 
L 3481 2222 
L 1259 2222 
L 1259 531 
L 3634 531 
L 3634 0 
L 628 0 
L 628 4666 
z
" transform="scale(0.015625)"/>
      </defs>
      <use xlink:href="#DejaVuSans-52"/>
      <use xlink:href="#DejaVuSans-4d" x="69.482422"/>
      <use xlink:href="#DejaVuSans-53" x="155.761719"/>
      <use xlink:href="#DejaVuSans-45" x="219.238281"/>
     </g>
    </g>
   </g>
   <g id="PolyCollection_1">
    <defs>
     <path id="m1463aeca12" d="M 121.834711 -61.83956 
L 121.834711 -52.510265 
L 141.598583 -54.965878 
L 161.362456 -56.837772 
L 181.126328 -58.245805 
L 200.890201 -57.36168 
L 220.654073 -57.850586 
L 240.417946 -54.603072 
L 260.181818 -63.474764 
L 279.945691 -59.968021 
L 299.709563 -58.876971 
L 319.473436 -66.435874 
L 339.237308 -46.975405 
L 398.528926 -42.224689 
L 398.528926 -49.585484 
L 398.528926 -49.585484 
L 339.237308 -156.768172 
L 319.473436 -196.337561 
L 299.709563 -91.618426 
L 279.945691 -80.944461 
L 260.181818 -90.04863 
L 240.417946 -62.394022 
L 220.654073 -64.48623 
L 200.890201 -70.636008 
L 181.126328 -63.976983 
L 161.362456 -62.579113 
L 141.598583 -59.065186 
L 121.834711 -61.83956 
z
" style="stroke: #4169e1; stroke-opacity: 0.2"/>
    </defs>
    <g clip-path="url(#pbb19190507)">
     <use xlink:href="#m1463aeca12" x="0" y="360" style="fill: #4169e1; fill-opacity: 0.2; stroke: #4169e1; stroke-opacity: 0.2"/>
    </g>
   </g>
   <g id="PolyCollection_2">
    <defs>
     <path id="m0f3e2997df" d="M 121.834711 -61.610034 
L 121.834711 -56.577315 
L 141.598583 -60.462088 
L 161.362456 -63.3055 
L 181.126328 -63.773143 
L 200.890201 -62.56811 
L 220.654073 -61.776966 
L 240.417946 -62.930826 
L 260.181818 -64.02224 
L 279.945691 -61.102473 
L 299.709563 -60.645292 
L 319.473436 -57.87036 
L 339.237308 -63.350956 
L 359.001181 -50.800191 
L 398.528926 -44.815268 
L 398.528926 -132.560085 
L 398.528926 -132.560085 
L 359.001181 -136.745799 
L 339.237308 -122.507242 
L 319.473436 -90.797229 
L 299.709563 -90.073081 
L 279.945691 -74.880834 
L 260.181818 -75.44256 
L 240.417946 -71.21003 
L 220.654073 -67.226029 
L 200.890201 -66.83721 
L 181.126328 -68.378441 
L 161.362456 -67.608788 
L 141.598583 -63.855238 
L 121.834711 -61.610034 
z
" style="stroke: #00008b; stroke-opacity: 0.2"/>
    </defs>
    <g clip-path="url(#pbb19190507)">
     <use xlink:href="#m0f3e2997df" x="0" y="360" style="fill: #00008b; fill-opacity: 0.2; stroke: #00008b; stroke-opacity: 0.2"/>
    </g>
   </g>
   <g id="PolyCollection_3">
    <defs>
     <path id="ma93c2e3586" d="M 121.834711 -65.951178 
L 121.834711 -58.933118 
L 141.598583 -63.839092 
L 161.362456 -66.452417 
L 181.126328 -69.096446 
L 200.890201 -65.733543 
L 220.654073 -67.183381 
L 240.417946 -67.021177 
L 260.181818 -65.141345 
L 279.945691 -58.886506 
L 299.709563 -60.360542 
L 319.473436 -57.061863 
L 339.237308 -49.401663 
L 359.001181 -46.341318 
L 398.528926 -54.701699 
L 398.528926 -296.806918 
L 398.528926 -296.806918 
L 359.001181 -147.75933 
L 339.237308 -109.895561 
L 319.473436 -107.780796 
L 299.709563 -114.726581 
L 279.945691 -82.990113 
L 260.181818 -88.002368 
L 240.417946 -92.439152 
L 220.654073 -81.471092 
L 200.890201 -74.202752 
L 181.126328 -77.448849 
L 161.362456 -73.495328 
L 141.598583 -69.366632 
L 121.834711 -65.951178 
z
" style="stroke: #800080; stroke-opacity: 0.2"/>
    </defs>
    <g clip-path="url(#pbb19190507)">
     <use xlink:href="#ma93c2e3586" x="0" y="360" style="fill: #800080; fill-opacity: 0.2; stroke: #800080; stroke-opacity: 0.2"/>
    </g>
   </g>
   <g id="PolyCollection_4">
    <defs>
     <path id="mcf3068211e" d="M 121.834711 -68.220811 
L 121.834711 -60.957263 
L 141.598583 -67.443326 
L 161.362456 -71.151532 
L 181.126328 -68.734248 
L 200.890201 -67.87244 
L 220.654073 -68.772112 
L 240.417946 -65.471554 
L 260.181818 -65.681113 
L 279.945691 -66.75009 
L 299.709563 -68.543547 
L 319.473436 -60.618586 
L 339.237308 -59.589251 
L 359.001181 -57.268657 
L 398.528926 -42.03929 
L 398.528926 -256.461259 
L 398.528926 -256.461259 
L 359.001181 -135.03048 
L 339.237308 -117.117217 
L 319.473436 -97.502908 
L 299.709563 -94.568747 
L 279.945691 -84.997777 
L 260.181818 -77.032953 
L 240.417946 -76.582219 
L 220.654073 -77.302791 
L 200.890201 -73.468898 
L 181.126328 -73.737534 
L 161.362456 -75.901349 
L 141.598583 -71.695312 
L 121.834711 -68.220811 
z
" style="stroke: #ff1493; stroke-opacity: 0.2"/>
    </defs>
    <g clip-path="url(#pbb19190507)">
     <use xlink:href="#mcf3068211e" x="0" y="360" style="fill: #ff1493; fill-opacity: 0.2; stroke: #ff1493; stroke-opacity: 0.2"/>
    </g>
   </g>
   <g id="PolyCollection_5">
    <defs>
     <path id="m648556e37f" d="M 121.834711 -65.374288 
L 121.834711 -60.953928 
L 141.598583 -68.316421 
L 161.362456 -70.732802 
L 181.126328 -69.888006 
L 200.890201 -69.026063 
L 220.654073 -70.327127 
L 240.417946 -68.947312 
L 260.181818 -69.824927 
L 279.945691 -69.035144 
L 299.709563 -73.334582 
L 319.473436 -68.199726 
L 339.237308 -57.450848 
L 359.001181 -64.621169 
L 359.001181 -112.088013 
L 359.001181 -112.088013 
L 339.237308 -98.656276 
L 319.473436 -103.204031 
L 299.709563 -94.798976 
L 279.945691 -94.819032 
L 260.181818 -83.330125 
L 240.417946 -78.3995 
L 220.654073 -77.630173 
L 200.890201 -75.994198 
L 181.126328 -74.955919 
L 161.362456 -76.101547 
L 141.598583 -72.278944 
L 121.834711 -65.374288 
z
" style="stroke: #dc143c; stroke-opacity: 0.2"/>
    </defs>
    <g clip-path="url(#pbb19190507)">
     <use xlink:href="#m648556e37f" x="0" y="360" style="fill: #dc143c; fill-opacity: 0.2; stroke: #dc143c; stroke-opacity: 0.2"/>
    </g>
   </g>
   <g id="PolyCollection_6">
    <defs>
     <path id="mf2199eb0ee" d="M 121.834711 -68.077808 
L 121.834711 -58.380003 
L 141.598583 -66.094581 
L 161.362456 -67.822196 
L 181.126328 -69.996298 
L 200.890201 -66.314866 
L 220.654073 -65.305895 
L 240.417946 -63.146876 
L 260.181818 -60.342646 
L 279.945691 -64.015944 
L 299.709563 -47.761891 
L 319.473436 -41.962205 
L 339.237308 -52.384142 
L 398.528926 -47.296436 
L 398.528926 -172.01223 
L 398.528926 -172.01223 
L 339.237308 -355.956282 
L 319.473436 -168.897732 
L 299.709563 -104.03565 
L 279.945691 -114.958374 
L 260.181818 -82.350044 
L 240.417946 -90.551447 
L 220.654073 -79.863861 
L 200.890201 -83.780803 
L 181.126328 -87.520348 
L 161.362456 -78.065666 
L 141.598583 -75.815137 
L 121.834711 -68.077808 
z
" style="stroke: #808080; stroke-opacity: 0.2"/>
    </defs>
    <g clip-path="url(#pbb19190507)">
     <use xlink:href="#mf2199eb0ee" x="0" y="360" style="fill: #808080; fill-opacity: 0.2; stroke: #808080; stroke-opacity: 0.2"/>
    </g>
   </g>
   <g id="line2d_1">
    <path d="M 121.834711 303.555384 
L 141.598583 303.111305 
L 161.362456 300.3579 
L 181.126328 299.07637 
L 200.890201 297.582573 
L 220.654073 298.801337 
L 240.417946 301.917018 
L 260.181818 285.22401 
L 279.945691 290.051442 
L 299.709563 286.717008 
L 319.473436 240.794275 
L 339.237308 267.44767 
L 398.528926 313.743933 
" clip-path="url(#pbb19190507)" style="fill: none; stroke: #4169e1; stroke-width: 1.5; stroke-linecap: round"/>
   </g>
   <g id="line2d_2">
    <path d="M 121.834711 301.057007 
L 141.598583 297.921774 
L 161.362456 294.56957 
L 181.126328 294.035482 
L 200.890201 295.376171 
L 220.654073 295.504873 
L 240.417946 293.129385 
L 260.181818 290.648674 
L 279.945691 292.32425 
L 299.709563 287.239271 
L 319.473436 286.521562 
L 339.237308 271.607624 
L 359.001181 272.862018 
L 398.528926 272.875899 
" clip-path="url(#pbb19190507)" style="fill: none; stroke: #00008b; stroke-width: 1.5; stroke-linecap: round"/>
   </g>
   <g id="line2d_3">
    <path d="M 121.834711 297.644085 
L 141.598583 293.585976 
L 161.362456 290.060495 
L 181.126328 286.653656 
L 200.890201 290.152697 
L 220.654073 286.294745 
L 240.417946 281.988171 
L 260.181818 284.309551 
L 279.945691 289.589232 
L 299.709563 277.250746 
L 319.473436 279.198947 
L 339.237308 290.244872 
L 359.001181 270.304916 
L 398.528926 221.909265 
" clip-path="url(#pbb19190507)" style="fill: none; stroke: #800080; stroke-width: 1.5; stroke-linecap: round"/>
   </g>
   <g id="line2d_4">
    <path d="M 121.834711 295.941035 
L 141.598583 290.47064 
L 161.362456 286.48074 
L 181.126328 288.768944 
L 200.890201 289.475248 
L 220.654073 287.448974 
L 240.417946 289.140355 
L 260.181818 289.020451 
L 279.945691 284.911101 
L 299.709563 279.906803 
L 319.473436 282.103941 
L 339.237308 273.067446 
L 359.001181 267.606974 
L 398.528926 245.574934 
" clip-path="url(#pbb19190507)" style="fill: none; stroke: #ff1493; stroke-width: 1.5; stroke-linecap: round"/>
   </g>
   <g id="line2d_5">
    <path d="M 121.834711 296.948636 
L 141.598583 289.716839 
L 161.362456 286.765631 
L 181.126328 287.574492 
L 200.890201 287.52587 
L 220.654073 285.966898 
L 240.417946 286.464977 
L 260.181818 283.967644 
L 279.945691 278.810326 
L 299.709563 276.190603 
L 319.473436 275.162988 
L 339.237308 283.908272 
L 359.001181 272.138365 
" clip-path="url(#pbb19190507)" style="fill: none; stroke: #dc143c; stroke-width: 1.5; stroke-linecap: round"/>
   </g>
   <g id="line2d_6">
    <path d="M 121.834711 297.067094 
L 141.598583 289.556744 
L 161.362456 287.069434 
L 181.126328 281.608132 
L 200.890201 285.589719 
L 220.654073 287.170185 
L 240.417946 284.309107 
L 260.181818 289.265821 
L 279.945691 273.301845 
L 299.709563 284.944434 
L 319.473436 272.937701 
L 339.237308 203.984838 
L 398.528926 250.582149 
" clip-path="url(#pbb19190507)" style="fill: none; stroke: #808080; stroke-width: 1.5; stroke-linecap: round"/>
   </g>
   <g id="line2d_7"/>
   <g id="line2d_8"/>
   <g id="line2d_9"/>
   <g id="line2d_10"/>
   <g id="line2d_11"/>
   <g id="line2d_12"/>
   <g id="patch_3">
    <path d="M 108 320.4 
L 108 43.2 
" style="fill: none; stroke: #262626; stroke-width: 0.8; stroke-linejoin: miter; stroke-linecap: square"/>
   </g>
   <g id="patch_4">
    <path d="M 412.363636 320.4 
L 412.363636 43.2 
" style="fill: none; stroke: #262626; stroke-width: 0.8; stroke-linejoin: miter; stroke-linecap: square"/>
   </g>
   <g id="patch_5">
    <path d="M 108 320.4 
L 412.363636 320.4 
" style="fill: none; stroke: #262626; stroke-width: 0.8; stroke-linejoin: miter; stroke-linecap: square"/>
   </g>
   <g id="patch_6">
    <path d="M 108 43.2 
L 412.363636 43.2 
" style="fill: none; stroke: #262626; stroke-width: 0.8; stroke-linejoin: miter; stroke-linecap: square"/>
   </g>
   <g id="text_21">
    <!-- length_hole in [0, 30] -->
    <g style="fill: #262626" transform="translate(195.993068 37.2) scale(0.12 -0.12)">
     <defs>
      <path id="DejaVuSans-6c" d="M 603 4863 
L 1178 4863 
L 1178 0 
L 603 0 
L 603 4863 
z
" transform="scale(0.015625)"/>
      <path id="DejaVuSans-67" d="M 2906 1791 
Q 2906 2416 2648 2759 
Q 2391 3103 1925 3103 
Q 1463 3103 1205 2759 
Q 947 2416 947 1791 
Q 947 1169 1205 825 
Q 1463 481 1925 481 
Q 2391 481 2648 825 
Q 2906 1169 2906 1791 
z
M 3481 434 
Q 3481 -459 3084 -895 
Q 2688 -1331 1869 -1331 
Q 1566 -1331 1297 -1286 
Q 1028 -1241 775 -1147 
L 775 -588 
Q 1028 -725 1275 -790 
Q 1522 -856 1778 -856 
Q 2344 -856 2625 -561 
Q 2906 -266 2906 331 
L 2906 616 
Q 2728 306 2450 153 
Q 2172 0 1784 0 
Q 1141 0 747 490 
Q 353 981 353 1791 
Q 353 2603 747 3093 
Q 1141 3584 1784 3584 
Q 2172 3584 2450 3431 
Q 2728 3278 2906 2969 
L 2906 3500 
L 3481 3500 
L 3481 434 
z
" transform="scale(0.015625)"/>
      <path id="DejaVuSans-6f" d="M 1959 3097 
Q 1497 3097 1228 2736 
Q 959 2375 959 1747 
Q 959 1119 1226 758 
Q 1494 397 1959 397 
Q 2419 397 2687 759 
Q 2956 1122 2956 1747 
Q 2956 2369 2687 2733 
Q 2419 3097 1959 3097 
z
M 1959 3584 
Q 2709 3584 3137 3096 
Q 3566 2609 3566 1747 
Q 3566 888 3137 398 
Q 2709 -91 1959 -91 
Q 1206 -91 779 398 
Q 353 888 353 1747 
Q 353 2609 779 3096 
Q 1206 3584 1959 3584 
z
" transform="scale(0.015625)"/>
      <path id="DejaVuSans-20" transform="scale(0.015625)"/>
      <path id="DejaVuSans-5b" d="M 550 4863 
L 1875 4863 
L 1875 4416 
L 1125 4416 
L 1125 -397 
L 1875 -397 
L 1875 -844 
L 550 -844 
L 550 4863 
z
" transform="scale(0.015625)"/>
      <path id="DejaVuSans-2c" d="M 750 794 
L 1409 794 
L 1409 256 
L 897 -744 
L 494 -744 
L 750 256 
L 750 794 
z
" transform="scale(0.015625)"/>
      <path id="DejaVuSans-5d" d="M 1947 4863 
L 1947 -844 
L 622 -844 
L 622 -397 
L 1369 -397 
L 1369 4416 
L 622 4416 
L 622 4863 
L 1947 4863 
z
" transform="scale(0.015625)"/>
     </defs>
     <use xlink:href="#DejaVuSans-6c"/>
     <use xlink:href="#DejaVuSans-65" x="27.783203"/>
     <use xlink:href="#DejaVuSans-6e" x="89.306641"/>
     <use xlink:href="#DejaVuSans-67" x="152.685547"/>
     <use xlink:href="#DejaVuSans-74" x="216.162109"/>
     <use xlink:href="#DejaVuSans-68" x="255.371094"/>
     <use xlink:href="#DejaVuSans-5f" x="318.75"/>
     <use xlink:href="#DejaVuSans-68" x="368.75"/>
     <use xlink:href="#DejaVuSans-6f" x="432.128906"/>
     <use xlink:href="#DejaVuSans-6c" x="493.310547"/>
     <use xlink:href="#DejaVuSans-65" x="521.09375"/>
     <use xlink:href="#DejaVuSans-20" x="582.617188"/>
     <use xlink:href="#DejaVuSans-69" x="614.404297"/>
     <use xlink:href="#DejaVuSans-6e" x="642.1875"/>
     <use xlink:href="#DejaVuSans-20" x="705.566406"/>
     <use xlink:href="#DejaVuSans-5b" x="737.353516"/>
     <use xlink:href="#DejaVuSans-30" x="776.367188"/>
     <use xlink:href="#DejaVuSans-2c" x="839.990234"/>
     <use xlink:href="#DejaVuSans-20" x="871.777344"/>
     <use xlink:href="#DejaVuSans-33" x="903.564453"/>
     <use xlink:href="#DejaVuSans-30" x="967.1875"/>
     <use xlink:href="#DejaVuSans-5d" x="1030.810547"/>
    </g>
   </g>
   <g id="legend_1">
    <g id="patch_7">
     <path d="M 318.869886 154.225 
L 405.363636 154.225 
Q 407.363636 154.225 407.363636 152.225 
L 407.363636 50.2 
Q 407.363636 48.2 405.363636 48.2 
L 318.869886 48.2 
Q 316.869886 48.2 316.869886 50.2 
L 316.869886 152.225 
Q 316.869886 154.225 318.869886 154.225 
z
" style="fill: #ffffff; opacity: 0.8; stroke: #cccccc; stroke-linejoin: miter"/>
    </g>
    <g id="text_22">
     <!-- missing_scheme -->
     <g style="fill: #262626" transform="translate(320.869886 59.798437) scale(0.1 -0.1)">
      <defs>
       <path id="DejaVuSans-6d" d="M 3328 2828 
Q 3544 3216 3844 3400 
Q 4144 3584 4550 3584 
Q 5097 3584 5394 3201 
Q 5691 2819 5691 2113 
L 5691 0 
L 5113 0 
L 5113 2094 
Q 5113 2597 4934 2840 
Q 4756 3084 4391 3084 
Q 3944 3084 3684 2787 
Q 3425 2491 3425 1978 
L 3425 0 
L 2847 0 
L 2847 2094 
Q 2847 2600 2669 2842 
Q 2491 3084 2119 3084 
Q 1678 3084 1418 2786 
Q 1159 2488 1159 1978 
L 1159 0 
L 581 0 
L 581 3500 
L 1159 3500 
L 1159 2956 
Q 1356 3278 1631 3431 
Q 1906 3584 2284 3584 
Q 2666 3584 2933 3390 
Q 3200 3197 3328 2828 
z
" transform="scale(0.015625)"/>
       <path id="DejaVuSans-63" d="M 3122 3366 
L 3122 2828 
Q 2878 2963 2633 3030 
Q 2388 3097 2138 3097 
Q 1578 3097 1268 2742 
Q 959 2388 959 1747 
Q 959 1106 1268 751 
Q 1578 397 2138 397 
Q 2388 397 2633 464 
Q 2878 531 3122 666 
L 3122 134 
Q 2881 22 2623 -34 
Q 2366 -91 2075 -91 
Q 1284 -91 818 406 
Q 353 903 353 1747 
Q 353 2603 823 3093 
Q 1294 3584 2113 3584 
Q 2378 3584 2631 3529 
Q 2884 3475 3122 3366 
z
" transform="scale(0.015625)"/>
      </defs>
      <use xlink:href="#DejaVuSans-6d"/>
      <use xlink:href="#DejaVuSans-69" x="97.412109"/>
      <use xlink:href="#DejaVuSans-73" x="125.195312"/>
      <use xlink:href="#DejaVuSans-73" x="177.294922"/>
      <use xlink:href="#DejaVuSans-69" x="229.394531"/>
      <use xlink:href="#DejaVuSans-6e" x="257.177734"/>
      <use xlink:href="#DejaVuSans-67" x="320.556641"/>
      <use xlink:href="#DejaVuSans-5f" x="384.033203"/>
      <use xlink:href="#DejaVuSans-73" x="434.033203"/>
      <use xlink:href="#DejaVuSans-63" x="486.132812"/>
      <use xlink:href="#DejaVuSans-68" x="541.113281"/>
      <use xlink:href="#DejaVuSans-65" x="604.492188"/>
      <use xlink:href="#DejaVuSans-6d" x="666.015625"/>
      <use xlink:href="#DejaVuSans-65" x="763.427734"/>
     </g>
    </g>
    <g id="line2d_13">
     <path d="M 334.386293 71.254687 
L 344.386293 71.254687 
L 354.386293 71.254687 
" style="fill: none; stroke: #4169e1; stroke-width: 1.5; stroke-linecap: round"/>
    </g>
    <g id="text_23">
     <!-- 1 -->
     <g style="fill: #262626" transform="translate(362.386293 74.754687) scale(0.1 -0.1)">
      <use xlink:href="#DejaVuSans-31"/>
     </g>
    </g>
    <g id="line2d_14">
     <path d="M 334.386293 85.932813 
L 344.386293 85.932813 
L 354.386293 85.932813 
" style="fill: none; stroke: #00008b; stroke-width: 1.5; stroke-linecap: round"/>
    </g>
    <g id="text_24">
     <!-- 1 + 1 -->
     <g style="fill: #262626" transform="translate(362.386293 89.432813) scale(0.1 -0.1)">
      <defs>
       <path id="DejaVuSans-2b" d="M 2944 4013 
L 2944 2272 
L 4684 2272 
L 4684 1741 
L 2944 1741 
L 2944 0 
L 2419 0 
L 2419 1741 
L 678 1741 
L 678 2272 
L 2419 2272 
L 2419 4013 
L 2944 4013 
z
" transform="scale(0.015625)"/>
      </defs>
      <use xlink:href="#DejaVuSans-31"/>
      <use xlink:href="#DejaVuSans-20" x="63.623047"/>
      <use xlink:href="#DejaVuSans-2b" x="95.410156"/>
      <use xlink:href="#DejaVuSans-20" x="179.199219"/>
      <use xlink:href="#DejaVuSans-31" x="210.986328"/>
     </g>
    </g>
    <g id="line2d_15">
     <path d="M 334.386293 100.610937 
L 344.386293 100.610937 
L 354.386293 100.610937 
" style="fill: none; stroke: #800080; stroke-width: 1.5; stroke-linecap: round"/>
    </g>
    <g id="text_25">
     <!-- 3 -->
     <g style="fill: #262626" transform="translate(362.386293 104.110937) scale(0.1 -0.1)">
      <use xlink:href="#DejaVuSans-33"/>
     </g>
    </g>
    <g id="line2d_16">
     <path d="M 334.386293 115.289062 
L 344.386293 115.289062 
L 354.386293 115.289062 
" style="fill: none; stroke: #ff1493; stroke-width: 1.5; stroke-linecap: round"/>
    </g>
    <g id="text_26">
     <!-- 3 + 1 -->
     <g style="fill: #262626" transform="translate(362.386293 118.789062) scale(0.1 -0.1)">
      <use xlink:href="#DejaVuSans-33"/>
      <use xlink:href="#DejaVuSans-20" x="63.623047"/>
      <use xlink:href="#DejaVuSans-2b" x="95.410156"/>
      <use xlink:href="#DejaVuSans-20" x="179.199219"/>
      <use xlink:href="#DejaVuSans-31" x="210.986328"/>
     </g>
    </g>
    <g id="line2d_17">
     <path d="M 334.386293 129.967187 
L 344.386293 129.967187 
L 354.386293 129.967187 
" style="fill: none; stroke: #dc143c; stroke-width: 1.5; stroke-linecap: round"/>
    </g>
    <g id="text_27">
     <!-- 3 + 2 -->
     <g style="fill: #262626" transform="translate(362.386293 133.467187) scale(0.1 -0.1)">
      <use xlink:href="#DejaVuSans-33"/>
      <use xlink:href="#DejaVuSans-20" x="63.623047"/>
      <use xlink:href="#DejaVuSans-2b" x="95.410156"/>
      <use xlink:href="#DejaVuSans-20" x="179.199219"/>
      <use xlink:href="#DejaVuSans-32" x="210.986328"/>
     </g>
    </g>
    <g id="line2d_18">
     <path d="M 334.386293 144.645312 
L 344.386293 144.645312 
L 354.386293 144.645312 
" style="fill: none; stroke: #808080; stroke-width: 1.5; stroke-linecap: round"/>
    </g>
    <g id="text_28">
     <!-- 3 + 3 -->
     <g style="fill: #262626" transform="translate(362.386293 148.145312) scale(0.1 -0.1)">
      <use xlink:href="#DejaVuSans-33"/>
      <use xlink:href="#DejaVuSans-20" x="63.623047"/>
      <use xlink:href="#DejaVuSans-2b" x="95.410156"/>
      <use xlink:href="#DejaVuSans-20" x="179.199219"/>
      <use xlink:href="#DejaVuSans-33" x="210.986328"/>
     </g>
    </g>
   </g>
  </g>
  <g id="axes_2">
   <g id="patch_8">
    <path d="M 473.236364 320.4 
L 777.6 320.4 
L 777.6 43.2 
L 473.236364 43.2 
z
" style="fill: #ffffff"/>
   </g>
   <g id="matplotlib.axis_3">
    <g id="xtick_10">
     <g id="text_29">
      <!-- 0 -->
      <g style="fill: #262626" transform="translate(474.007888 334.998438) scale(0.1 -0.1)">
       <use xlink:href="#DejaVuSans-30"/>
      </g>
     </g>
    </g>
    <g id="xtick_11">
     <g id="text_30">
      <!-- 1 -->
      <g style="fill: #262626" transform="translate(508.519337 334.998438) scale(0.1 -0.1)">
       <use xlink:href="#DejaVuSans-31"/>
      </g>
     </g>
    </g>
    <g id="xtick_12">
     <g id="text_31">
      <!-- 2 -->
      <g style="fill: #262626" transform="translate(543.030785 334.998438) scale(0.1 -0.1)">
       <use xlink:href="#DejaVuSans-32"/>
      </g>
     </g>
    </g>
    <g id="xtick_13">
     <g id="text_32">
      <!-- 3 -->
      <g style="fill: #262626" transform="translate(577.542234 334.998438) scale(0.1 -0.1)">
       <use xlink:href="#DejaVuSans-33"/>
      </g>
     </g>
    </g>
    <g id="xtick_14">
     <g id="text_33">
      <!-- 4 -->
      <g style="fill: #262626" transform="translate(612.053682 334.998438) scale(0.1 -0.1)">
       <use xlink:href="#DejaVuSans-34"/>
      </g>
     </g>
    </g>
    <g id="xtick_15">
     <g id="text_34">
      <!-- 5 -->
      <g style="fill: #262626" transform="translate(646.565131 334.998438) scale(0.1 -0.1)">
       <use xlink:href="#DejaVuSans-35"/>
      </g>
     </g>
    </g>
    <g id="xtick_16">
     <g id="text_35">
      <!-- 6 -->
      <g style="fill: #262626" transform="translate(681.076579 334.998438) scale(0.1 -0.1)">
       <use xlink:href="#DejaVuSans-36"/>
      </g>
     </g>
    </g>
    <g id="xtick_17">
     <g id="text_36">
      <!-- 7 -->
      <g style="fill: #262626" transform="translate(715.588028 334.998438) scale(0.1 -0.1)">
       <use xlink:href="#DejaVuSans-37"/>
      </g>
     </g>
    </g>
    <g id="xtick_18">
     <g id="text_37">
      <!-- 8 -->
      <g style="fill: #262626" transform="translate(750.099476 334.998438) scale(0.1 -0.1)">
       <use xlink:href="#DejaVuSans-38"/>
      </g>
     </g>
    </g>
    <g id="text_38">
     <!-- binned_dist_bw_fishes -->
     <g style="fill: #262626" transform="translate(569.771307 348.676562) scale(0.1 -0.1)">
      <use xlink:href="#DejaVuSans-62"/>
      <use xlink:href="#DejaVuSans-69" x="63.476562"/>
      <use xlink:href="#DejaVuSans-6e" x="91.259766"/>
      <use xlink:href="#DejaVuSans-6e" x="154.638672"/>
      <use xlink:href="#DejaVuSans-65" x="218.017578"/>
      <use xlink:href="#DejaVuSans-64" x="279.541016"/>
      <use xlink:href="#DejaVuSans-5f" x="343.017578"/>
      <use xlink:href="#DejaVuSans-64" x="393.017578"/>
      <use xlink:href="#DejaVuSans-69" x="456.494141"/>
      <use xlink:href="#DejaVuSans-73" x="484.277344"/>
      <use xlink:href="#DejaVuSans-74" x="536.376953"/>
      <use xlink:href="#DejaVuSans-5f" x="575.585938"/>
      <use xlink:href="#DejaVuSans-62" x="625.585938"/>
      <use xlink:href="#DejaVuSans-77" x="689.0625"/>
      <use xlink:href="#DejaVuSans-5f" x="770.849609"/>
      <use xlink:href="#DejaVuSans-66" x="820.849609"/>
      <use xlink:href="#DejaVuSans-69" x="856.054688"/>
      <use xlink:href="#DejaVuSans-73" x="883.837891"/>
      <use xlink:href="#DejaVuSans-68" x="935.9375"/>
      <use xlink:href="#DejaVuSans-65" x="999.316406"/>
      <use xlink:href="#DejaVuSans-73" x="1060.839844"/>
     </g>
    </g>
   </g>
   <g id="matplotlib.axis_4">
    <g id="ytick_10"/>
    <g id="ytick_11"/>
    <g id="ytick_12"/>
    <g id="ytick_13"/>
    <g id="ytick_14"/>
    <g id="ytick_15"/>
    <g id="ytick_16"/>
    <g id="ytick_17"/>
    <g id="ytick_18"/>
   </g>
   <g id="PolyCollection_7">
    <defs>
     <path id="m95a76453e1" d="M 487.071074 -82.74436 
L 487.071074 -65.012242 
L 506.834947 -94.594069 
L 526.598819 -97.725926 
L 546.362692 -95.457828 
L 566.126564 -110.828709 
L 585.890437 -105.290244 
L 605.654309 -84.853023 
L 625.418182 -75.83422 
L 645.182054 -72.561072 
L 664.945927 -64.161981 
L 684.709799 -66.069601 
L 704.473672 -55.884031 
L 724.237544 -50.784716 
L 724.237544 -388.540958 
L 724.237544 -388.540958 
L 704.473672 -157.149029 
L 684.709799 -122.171976 
L 664.945927 -174.610333 
L 645.182054 -152.015299 
L 625.418182 -160.626909 
L 605.654309 -130.181098 
L 585.890437 -191.742743 
L 566.126564 -190.958597 
L 546.362692 -132.813996 
L 526.598819 -126.326501 
L 506.834947 -118.454027 
L 487.071074 -82.74436 
z
" style="stroke: #4169e1; stroke-opacity: 0.2"/>
    </defs>
    <g clip-path="url(#p25883f653d)">
     <use xlink:href="#m95a76453e1" x="0" y="360" style="fill: #4169e1; fill-opacity: 0.2; stroke: #4169e1; stroke-opacity: 0.2"/>
    </g>
   </g>
   <g id="PolyCollection_8">
    <defs>
     <path id="m223130fc6d" d="M 487.071074 -91.964975 
L 487.071074 -76.661227 
L 506.834947 -87.437799 
L 526.598819 -99.508683 
L 546.362692 -100.435175 
L 566.126564 -106.18295 
L 585.890437 -90.54272 
L 605.654309 -91.739701 
L 625.418182 -83.552079 
L 645.182054 -84.293032 
L 664.945927 -68.7578 
L 684.709799 -58.635437 
L 704.473672 -75.782723 
L 724.237544 -60.702147 
L 724.237544 -286.940825 
L 724.237544 -286.940825 
L 704.473672 -311.172544 
L 684.709799 -87.946493 
L 664.945927 -133.189942 
L 645.182054 -175.380906 
L 625.418182 -121.439467 
L 605.654309 -134.182594 
L 585.890437 -121.583559 
L 566.126564 -139.85536 
L 546.362692 -118.3597 
L 526.598819 -115.00527 
L 506.834947 -100.60607 
L 487.071074 -91.964975 
z
" style="stroke: #00008b; stroke-opacity: 0.2"/>
    </defs>
    <g clip-path="url(#p25883f653d)">
     <use xlink:href="#m223130fc6d" x="0" y="360" style="fill: #00008b; fill-opacity: 0.2; stroke: #00008b; stroke-opacity: 0.2"/>
    </g>
   </g>
   <g id="PolyCollection_9">
    <defs>
     <path id="m2db61c3539" d="M 487.071074 -94.779382 
L 487.071074 -72.431097 
L 506.834947 -84.509009 
L 526.598819 -90.954664 
L 546.362692 -83.244748 
L 566.126564 -93.029481 
L 585.890437 -86.934335 
L 605.654309 -88.179357 
L 625.418182 -81.402731 
L 645.182054 -78.395488 
L 664.945927 -59.588563 
L 684.709799 -58.785413 
L 704.473672 -57.314451 
L 724.237544 -48.050762 
L 724.237544 -94.401461 
L 724.237544 -94.401461 
L 704.473672 -139.613992 
L 684.709799 -154.536559 
L 664.945927 -98.028918 
L 645.182054 -181.259378 
L 625.418182 -220.785815 
L 605.654309 -147.738087 
L 585.890437 -148.292375 
L 566.126564 -120.276469 
L 546.362692 -98.99456 
L 526.598819 -114.05703 
L 506.834947 -101.349564 
L 487.071074 -94.779382 
z
" style="stroke: #800080; stroke-opacity: 0.2"/>
    </defs>
    <g clip-path="url(#p25883f653d)">
     <use xlink:href="#m2db61c3539" x="0" y="360" style="fill: #800080; fill-opacity: 0.2; stroke: #800080; stroke-opacity: 0.2"/>
    </g>
   </g>
   <g id="PolyCollection_10">
    <defs>
     <path id="m30f4c5a1c8" d="M 487.071074 -87.025937 
L 487.071074 -74.460513 
L 506.834947 -87.684246 
L 526.598819 -92.145578 
L 546.362692 -90.940924 
L 566.126564 -95.816518 
L 585.890437 -92.608171 
L 605.654309 -83.782595 
L 625.418182 -97.371458 
L 645.182054 -85.182927 
L 664.945927 -90.415911 
L 684.709799 -76.97038 
L 704.473672 -72.349784 
L 724.237544 -67.213101 
L 724.237544 -119.726746 
L 724.237544 -119.726746 
L 704.473672 -133.09013 
L 684.709799 -202.556421 
L 664.945927 -171.464676 
L 645.182054 -125.61917 
L 625.418182 -149.984472 
L 605.654309 -109.560515 
L 585.890437 -116.474221 
L 566.126564 -116.245055 
L 546.362692 -102.707316 
L 526.598819 -103.263609 
L 506.834947 -99.082326 
L 487.071074 -87.025937 
z
" style="stroke: #ff1493; stroke-opacity: 0.2"/>
    </defs>
    <g clip-path="url(#p25883f653d)">
     <use xlink:href="#m30f4c5a1c8" x="0" y="360" style="fill: #ff1493; fill-opacity: 0.2; stroke: #ff1493; stroke-opacity: 0.2"/>
    </g>
   </g>
   <g id="PolyCollection_11">
    <defs>
     <path id="m6bdb471f36" d="M 487.071074 -88.917888 
L 487.071074 -75.866923 
L 506.834947 -87.083203 
L 526.598819 -92.363182 
L 546.362692 -94.676091 
L 566.126564 -92.942642 
L 585.890437 -89.361921 
L 605.654309 -86.41081 
L 625.418182 -91.855685 
L 645.182054 -95.199556 
L 664.945927 -82.385515 
L 684.709799 -76.838059 
L 704.473672 -80.871248 
L 724.237544 -51.235812 
L 724.237544 -164.402897 
L 724.237544 -164.402897 
L 704.473672 -160.561779 
L 684.709799 -207.352096 
L 664.945927 -129.080402 
L 645.182054 -157.899203 
L 625.418182 -122.745825 
L 605.654309 -109.490959 
L 585.890437 -109.427207 
L 566.126564 -109.124389 
L 546.362692 -105.759597 
L 526.598819 -102.523707 
L 506.834947 -97.020581 
L 487.071074 -88.917888 
z
" style="stroke: #dc143c; stroke-opacity: 0.2"/>
    </defs>
    <g clip-path="url(#p25883f653d)">
     <use xlink:href="#m6bdb471f36" x="0" y="360" style="fill: #dc143c; fill-opacity: 0.2; stroke: #dc143c; stroke-opacity: 0.2"/>
    </g>
   </g>
   <g id="PolyCollection_12">
    <defs>
     <path id="m772bc5ba3b" d="M 487.071074 -84.60585 
L 487.071074 -68.751043 
L 506.834947 -76.650616 
L 526.598819 -81.977111 
L 546.362692 -82.517357 
L 566.126564 -87.815767 
L 585.890437 -88.739764 
L 605.654309 -73.75093 
L 625.418182 -84.473421 
L 664.945927 -79.71475 
L 664.945927 -219.4445 
L 664.945927 -219.4445 
L 625.418182 -135.216514 
L 605.654309 -122.736439 
L 585.890437 -133.803693 
L 566.126564 -121.974632 
L 546.362692 -110.196596 
L 526.598819 -104.372259 
L 506.834947 -94.197938 
L 487.071074 -84.60585 
z
" style="stroke: #808080; stroke-opacity: 0.2"/>
    </defs>
    <g clip-path="url(#p25883f653d)">
     <use xlink:href="#m772bc5ba3b" x="0" y="360" style="fill: #808080; fill-opacity: 0.2; stroke: #808080; stroke-opacity: 0.2"/>
    </g>
   </g>
   <g id="line2d_19">
    <path d="M 487.071074 286.729612 
L 506.834947 253.952294 
L 526.598819 248.613554 
L 546.362692 246.633953 
L 566.126564 211.393214 
L 585.890437 213.411593 
L 605.654309 254.735519 
L 625.418182 249.831914 
L 645.182054 257.360264 
L 664.945927 248.933127 
L 684.709799 267.444415 
L 704.473672 260.412009 
L 724.237544 194.006441 
" clip-path="url(#p25883f653d)" style="fill: none; stroke: #4169e1; stroke-width: 1.5; stroke-linecap: round"/>
   </g>
   <g id="line2d_20">
    <path d="M 487.071074 276.011322 
L 506.834947 266.23799 
L 526.598819 252.777578 
L 546.362692 250.462867 
L 566.126564 237.402635 
L 585.890437 254.716761 
L 605.654309 247.72881 
L 625.418182 258.065117 
L 645.182054 235.13235 
L 664.945927 265.284833 
L 684.709799 286.659513 
L 704.473672 172.700091 
L 724.237544 216.40432 
" clip-path="url(#p25883f653d)" style="fill: none; stroke: #00008b; stroke-width: 1.5; stroke-linecap: round"/>
   </g>
   <g id="line2d_21">
    <path d="M 487.071074 277.567558 
L 506.834947 267.411508 
L 526.598819 258.405191 
L 546.362692 269.702904 
L 566.126564 254.060143 
L 585.890437 246.700787 
L 605.654309 246.526002 
L 625.418182 222.342117 
L 645.182054 241.47871 
L 664.945927 282.991959 
L 684.709799 262.424071 
L 704.473672 270.915156 
L 724.237544 290.053609 
" clip-path="url(#p25883f653d)" style="fill: none; stroke: #800080; stroke-width: 1.5; stroke-linecap: round"/>
   </g>
   <g id="line2d_22">
    <path d="M 487.071074 279.558679 
L 506.834947 266.705551 
L 526.598819 262.485986 
L 546.362692 263.451364 
L 566.126564 254.863348 
L 585.890437 256.000063 
L 605.654309 264.561421 
L 625.418182 239.94072 
L 645.182054 255.647974 
L 664.945927 234.243684 
L 684.709799 230.236603 
L 704.473672 259.799325 
L 724.237544 266.922436 
" clip-path="url(#p25883f653d)" style="fill: none; stroke: #ff1493; stroke-width: 1.5; stroke-linecap: round"/>
   </g>
   <g id="line2d_23">
    <path d="M 487.071074 278.046006 
L 506.834947 268.16089 
L 526.598819 262.3664 
L 546.362692 259.821843 
L 566.126564 259.605623 
L 585.890437 261.427998 
L 605.654309 263.094262 
L 625.418182 253.551299 
L 645.182054 236.239735 
L 664.945927 257.200682 
L 684.709799 232.938009 
L 704.473672 244.350036 
L 724.237544 269.110759 
" clip-path="url(#p25883f653d)" style="fill: none; stroke: #dc143c; stroke-width: 1.5; stroke-linecap: round"/>
   </g>
   <g id="line2d_24">
    <path d="M 487.071074 283.944614 
L 506.834947 274.663729 
L 526.598819 267.941977 
L 546.362692 264.242008 
L 566.126564 256.161212 
L 585.890437 249.905033 
L 605.654309 265.723914 
L 625.418182 254.231947 
L 664.945927 224.774952 
" clip-path="url(#p25883f653d)" style="fill: none; stroke: #808080; stroke-width: 1.5; stroke-linecap: round"/>
   </g>
   <g id="line2d_25"/>
   <g id="line2d_26"/>
   <g id="line2d_27"/>
   <g id="line2d_28"/>
   <g id="line2d_29"/>
   <g id="line2d_30"/>
   <g id="patch_9">
    <path d="M 473.236364 320.4 
L 473.236364 43.2 
" style="fill: none; stroke: #262626; stroke-width: 0.8; stroke-linejoin: miter; stroke-linecap: square"/>
   </g>
   <g id="patch_10">
    <path d="M 777.6 320.4 
L 777.6 43.2 
" style="fill: none; stroke: #262626; stroke-width: 0.8; stroke-linejoin: miter; stroke-linecap: square"/>
   </g>
   <g id="patch_11">
    <path d="M 473.236364 320.4 
L 777.6 320.4 
" style="fill: none; stroke: #262626; stroke-width: 0.8; stroke-linejoin: miter; stroke-linecap: square"/>
   </g>
   <g id="patch_12">
    <path d="M 473.236364 43.2 
L 777.6 43.2 
" style="fill: none; stroke: #262626; stroke-width: 0.8; stroke-linejoin: miter; stroke-linecap: square"/>
   </g>
   <g id="text_39">
    <!-- length_hole in [30, 60] -->
    <g style="fill: #262626" transform="translate(557.411932 37.2) scale(0.12 -0.12)">
     <use xlink:href="#DejaVuSans-6c"/>
     <use xlink:href="#DejaVuSans-65" x="27.783203"/>
     <use xlink:href="#DejaVuSans-6e" x="89.306641"/>
     <use xlink:href="#DejaVuSans-67" x="152.685547"/>
     <use xlink:href="#DejaVuSans-74" x="216.162109"/>
     <use xlink:href="#DejaVuSans-68" x="255.371094"/>
     <use xlink:href="#DejaVuSans-5f" x="318.75"/>
     <use xlink:href="#DejaVuSans-68" x="368.75"/>
     <use xlink:href="#DejaVuSans-6f" x="432.128906"/>
     <use xlink:href="#DejaVuSans-6c" x="493.310547"/>
     <use xlink:href="#DejaVuSans-65" x="521.09375"/>
     <use xlink:href="#DejaVuSans-20" x="582.617188"/>
     <use xlink:href="#DejaVuSans-69" x="614.404297"/>
     <use xlink:href="#DejaVuSans-6e" x="642.1875"/>
     <use xlink:href="#DejaVuSans-20" x="705.566406"/>
     <use xlink:href="#DejaVuSans-5b" x="737.353516"/>
     <use xlink:href="#DejaVuSans-33" x="776.367188"/>
     <use xlink:href="#DejaVuSans-30" x="839.990234"/>
     <use xlink:href="#DejaVuSans-2c" x="903.613281"/>
     <use xlink:href="#DejaVuSans-20" x="935.400391"/>
     <use xlink:href="#DejaVuSans-36" x="967.1875"/>
     <use xlink:href="#DejaVuSans-30" x="1030.810547"/>
     <use xlink:href="#DejaVuSans-5d" x="1094.433594"/>
    </g>
   </g>
   <g id="legend_2">
    <g id="patch_13">
     <path d="M 684.10625 154.225 
L 770.6 154.225 
Q 772.6 154.225 772.6 152.225 
L 772.6 50.2 
Q 772.6 48.2 770.6 48.2 
L 684.10625 48.2 
Q 682.10625 48.2 682.10625 50.2 
L 682.10625 152.225 
Q 682.10625 154.225 684.10625 154.225 
z
" style="fill: #ffffff; opacity: 0.8; stroke: #cccccc; stroke-linejoin: miter"/>
    </g>
    <g id="text_40">
     <!-- missing_scheme -->
     <g style="fill: #262626" transform="translate(686.10625 59.798437) scale(0.1 -0.1)">
      <use xlink:href="#DejaVuSans-6d"/>
      <use xlink:href="#DejaVuSans-69" x="97.412109"/>
      <use xlink:href="#DejaVuSans-73" x="125.195312"/>
      <use xlink:href="#DejaVuSans-73" x="177.294922"/>
      <use xlink:href="#DejaVuSans-69" x="229.394531"/>
      <use xlink:href="#DejaVuSans-6e" x="257.177734"/>
      <use xlink:href="#DejaVuSans-67" x="320.556641"/>
      <use xlink:href="#DejaVuSans-5f" x="384.033203"/>
      <use xlink:href="#DejaVuSans-73" x="434.033203"/>
      <use xlink:href="#DejaVuSans-63" x="486.132812"/>
      <use xlink:href="#DejaVuSans-68" x="541.113281"/>
      <use xlink:href="#DejaVuSans-65" x="604.492188"/>
      <use xlink:href="#DejaVuSans-6d" x="666.015625"/>
      <use xlink:href="#DejaVuSans-65" x="763.427734"/>
     </g>
    </g>
    <g id="line2d_31">
     <path d="M 699.622656 71.254687 
L 709.622656 71.254687 
L 719.622656 71.254687 
" style="fill: none; stroke: #4169e1; stroke-width: 1.5; stroke-linecap: round"/>
    </g>
    <g id="text_41">
     <!-- 1 -->
     <g style="fill: #262626" transform="translate(727.622656 74.754687) scale(0.1 -0.1)">
      <use xlink:href="#DejaVuSans-31"/>
     </g>
    </g>
    <g id="line2d_32">
     <path d="M 699.622656 85.932813 
L 709.622656 85.932813 
L 719.622656 85.932813 
" style="fill: none; stroke: #00008b; stroke-width: 1.5; stroke-linecap: round"/>
    </g>
    <g id="text_42">
     <!-- 1 + 1 -->
     <g style="fill: #262626" transform="translate(727.622656 89.432813) scale(0.1 -0.1)">
      <use xlink:href="#DejaVuSans-31"/>
      <use xlink:href="#DejaVuSans-20" x="63.623047"/>
      <use xlink:href="#DejaVuSans-2b" x="95.410156"/>
      <use xlink:href="#DejaVuSans-20" x="179.199219"/>
      <use xlink:href="#DejaVuSans-31" x="210.986328"/>
     </g>
    </g>
    <g id="line2d_33">
     <path d="M 699.622656 100.610937 
L 709.622656 100.610937 
L 719.622656 100.610937 
" style="fill: none; stroke: #800080; stroke-width: 1.5; stroke-linecap: round"/>
    </g>
    <g id="text_43">
     <!-- 3 -->
     <g style="fill: #262626" transform="translate(727.622656 104.110937) scale(0.1 -0.1)">
      <use xlink:href="#DejaVuSans-33"/>
     </g>
    </g>
    <g id="line2d_34">
     <path d="M 699.622656 115.289062 
L 709.622656 115.289062 
L 719.622656 115.289062 
" style="fill: none; stroke: #ff1493; stroke-width: 1.5; stroke-linecap: round"/>
    </g>
    <g id="text_44">
     <!-- 3 + 1 -->
     <g style="fill: #262626" transform="translate(727.622656 118.789062) scale(0.1 -0.1)">
      <use xlink:href="#DejaVuSans-33"/>
      <use xlink:href="#DejaVuSans-20" x="63.623047"/>
      <use xlink:href="#DejaVuSans-2b" x="95.410156"/>
      <use xlink:href="#DejaVuSans-20" x="179.199219"/>
      <use xlink:href="#DejaVuSans-31" x="210.986328"/>
     </g>
    </g>
    <g id="line2d_35">
     <path d="M 699.622656 129.967187 
L 709.622656 129.967187 
L 719.622656 129.967187 
" style="fill: none; stroke: #dc143c; stroke-width: 1.5; stroke-linecap: round"/>
    </g>
    <g id="text_45">
     <!-- 3 + 2 -->
     <g style="fill: #262626" transform="translate(727.622656 133.467187) scale(0.1 -0.1)">
      <use xlink:href="#DejaVuSans-33"/>
      <use xlink:href="#DejaVuSans-20" x="63.623047"/>
      <use xlink:href="#DejaVuSans-2b" x="95.410156"/>
      <use xlink:href="#DejaVuSans-20" x="179.199219"/>
      <use xlink:href="#DejaVuSans-32" x="210.986328"/>
     </g>
    </g>
    <g id="line2d_36">
     <path d="M 699.622656 144.645312 
L 709.622656 144.645312 
L 719.622656 144.645312 
" style="fill: none; stroke: #808080; stroke-width: 1.5; stroke-linecap: round"/>
    </g>
    <g id="text_46">
     <!-- 3 + 3 -->
     <g style="fill: #262626" transform="translate(727.622656 148.145312) scale(0.1 -0.1)">
      <use xlink:href="#DejaVuSans-33"/>
      <use xlink:href="#DejaVuSans-20" x="63.623047"/>
      <use xlink:href="#DejaVuSans-2b" x="95.410156"/>
      <use xlink:href="#DejaVuSans-20" x="179.199219"/>
      <use xlink:href="#DejaVuSans-33" x="210.986328"/>
     </g>
    </g>
   </g>
  </g>
 </g>
 <defs>
  <clipPath id="pbb19190507">
   <rect x="108" y="43.2" width="304.363636" height="277.2"/>
  </clipPath>
  <clipPath id="p25883f653d">
   <rect x="473.236364" y="43.2" width="304.363636" height="277.2"/>
  </clipPath>
 </defs>
</svg>
