<?xml version="1.0" encoding="utf-8" standalone="no"?>
<!DOCTYPE svg PUBLIC "-//W3C//DTD SVG 1.1//EN"
  "http://www.w3.org/Graphics/SVG/1.1/DTD/svg11.dtd">
<svg xmlns:xlink="http://www.w3.org/1999/xlink" width="864pt" height="360pt" viewBox="0 0 864 360" xmlns="http://www.w3.org/2000/svg" version="1.1">
 <metadata>
  <rdf:RDF xmlns:dc="http://purl.org/dc/elements/1.1/" xmlns:cc="http://creativecommons.org/ns#" xmlns:rdf="http://www.w3.org/1999/02/22-rdf-syntax-ns#">
   <cc:Work>
    <dc:type rdf:resource="http://purl.org/dc/dcmitype/StillImage"/>
    <dc:date>2025-06-30T15:51:55.312464</dc:date>
    <dc:format>image/svg+xml</dc:format>
    <dc:creator>
     <cc:Agent>
      <dc:title>Matplotlib v3.7.4, https://matplotlib.org/</dc:title>
     </cc:Agent>
    </dc:creator>
   </cc:Work>
  </rdf:RDF>
 </metadata>
 <defs>
  <style type="text/css">*{stroke-linejoin: round; stroke-linecap: butt}</style>
 </defs>
 <g id="figure_1">
  <g id="patch_1">
   <path d="M 0 360 
L 864 360 
L 864 0 
L 0 0 
z
" style="fill: #ffffff"/>
  </g>
  <g id="axes_1">
   <g id="patch_2">
    <path d="M 108 320.4 
L 412.363636 320.4 
L 412.363636 43.2 
L 108 43.2 
z
" style="fill: #ffffff"/>
   </g>
   <g id="matplotlib.axis_1">
    <g id="xtick_1">
     <g id="text_1">
      <!-- 0.0 -->
      <g style="fill: #262626" transform="translate(104.001212 334.998438) scale(0.1 -0.1)">
       <defs>
        <path id="DejaVuSans-30" d="M 2034 4250 
Q 1547 4250 1301 3770 
Q 1056 3291 1056 2328 
Q 1056 1369 1301 889 
Q 1547 409 2034 409 
Q 2525 409 2770 889 
Q 3016 1369 3016 2328 
Q 3016 3291 2770 3770 
Q 2525 4250 2034 4250 
z
M 2034 4750 
Q 2819 4750 3233 4129 
Q 3647 3509 3647 2328 
Q 3647 1150 3233 529 
Q 2819 -91 2034 -91 
Q 1250 -91 836 529 
Q 422 1150 422 2328 
Q 422 3509 836 4129 
Q 1250 4750 2034 4750 
z
" transform="scale(0.015625)"/>
        <path id="DejaVuSans-2e" d="M 684 794 
L 1344 794 
L 1344 0 
L 684 0 
L 684 794 
z
" transform="scale(0.015625)"/>
       </defs>
       <use xlink:href="#DejaVuSans-30"/>
       <use xlink:href="#DejaVuSans-2e" x="63.623047"/>
       <use xlink:href="#DejaVuSans-30" x="95.410156"/>
      </g>
     </g>
    </g>
    <g id="xtick_2">
     <g id="text_2">
      <!-- 0.2 -->
      <g style="fill: #262626" transform="translate(149.316844 334.998438) scale(0.1 -0.1)">
       <defs>
        <path id="DejaVuSans-32" d="M 1228 531 
L 3431 531 
L 3431 0 
L 469 0 
L 469 531 
Q 828 903 1448 1529 
Q 2069 2156 2228 2338 
Q 2531 2678 2651 2914 
Q 2772 3150 2772 3378 
Q 2772 3750 2511 3984 
Q 2250 4219 1831 4219 
Q 1534 4219 1204 4116 
Q 875 4013 500 3803 
L 500 4441 
Q 881 4594 1212 4672 
Q 1544 4750 1819 4750 
Q 2544 4750 2975 4387 
Q 3406 4025 3406 3419 
Q 3406 3131 3298 2873 
Q 3191 2616 2906 2266 
Q 2828 2175 2409 1742 
Q 1991 1309 1228 531 
z
" transform="scale(0.015625)"/>
       </defs>
       <use xlink:href="#DejaVuSans-30"/>
       <use xlink:href="#DejaVuSans-2e" x="63.623047"/>
       <use xlink:href="#DejaVuSans-32" x="95.410156"/>
      </g>
     </g>
    </g>
    <g id="xtick_3">
     <g id="text_3">
      <!-- 0.4 -->
      <g style="fill: #262626" transform="translate(194.632476 334.998438) scale(0.1 -0.1)">
       <defs>
        <path id="DejaVuSans-34" d="M 2419 4116 
L 825 1625 
L 2419 1625 
L 2419 4116 
z
M 2253 4666 
L 3047 4666 
L 3047 1625 
L 3713 1625 
L 3713 1100 
L 3047 1100 
L 3047 0 
L 2419 0 
L 2419 1100 
L 313 1100 
L 313 1709 
L 2253 4666 
z
" transform="scale(0.015625)"/>
       </defs>
       <use xlink:href="#DejaVuSans-30"/>
       <use xlink:href="#DejaVuSans-2e" x="63.623047"/>
       <use xlink:href="#DejaVuSans-34" x="95.410156"/>
      </g>
     </g>
    </g>
    <g id="xtick_4">
     <g id="text_4">
      <!-- 0.6 -->
      <g style="fill: #262626" transform="translate(239.948108 334.998438) scale(0.1 -0.1)">
       <defs>
        <path id="DejaVuSans-36" d="M 2113 2584 
Q 1688 2584 1439 2293 
Q 1191 2003 1191 1497 
Q 1191 994 1439 701 
Q 1688 409 2113 409 
Q 2538 409 2786 701 
Q 3034 994 3034 1497 
Q 3034 2003 2786 2293 
Q 2538 2584 2113 2584 
z
M 3366 4563 
L 3366 3988 
Q 3128 4100 2886 4159 
Q 2644 4219 2406 4219 
Q 1781 4219 1451 3797 
Q 1122 3375 1075 2522 
Q 1259 2794 1537 2939 
Q 1816 3084 2150 3084 
Q 2853 3084 3261 2657 
Q 3669 2231 3669 1497 
Q 3669 778 3244 343 
Q 2819 -91 2113 -91 
Q 1303 -91 875 529 
Q 447 1150 447 2328 
Q 447 3434 972 4092 
Q 1497 4750 2381 4750 
Q 2619 4750 2861 4703 
Q 3103 4656 3366 4563 
z
" transform="scale(0.015625)"/>
       </defs>
       <use xlink:href="#DejaVuSans-30"/>
       <use xlink:href="#DejaVuSans-2e" x="63.623047"/>
       <use xlink:href="#DejaVuSans-36" x="95.410156"/>
      </g>
     </g>
    </g>
    <g id="xtick_5">
     <g id="text_5">
      <!-- 0.8 -->
      <g style="fill: #262626" transform="translate(285.26374 334.998438) scale(0.1 -0.1)">
       <defs>
        <path id="DejaVuSans-38" d="M 2034 2216 
Q 1584 2216 1326 1975 
Q 1069 1734 1069 1313 
Q 1069 891 1326 650 
Q 1584 409 2034 409 
Q 2484 409 2743 651 
Q 3003 894 3003 1313 
Q 3003 1734 2745 1975 
Q 2488 2216 2034 2216 
z
M 1403 2484 
Q 997 2584 770 2862 
Q 544 3141 544 3541 
Q 544 4100 942 4425 
Q 1341 4750 2034 4750 
Q 2731 4750 3128 4425 
Q 3525 4100 3525 3541 
Q 3525 3141 3298 2862 
Q 3072 2584 2669 2484 
Q 3125 2378 3379 2068 
Q 3634 1759 3634 1313 
Q 3634 634 3220 271 
Q 2806 -91 2034 -91 
Q 1263 -91 848 271 
Q 434 634 434 1313 
Q 434 1759 690 2068 
Q 947 2378 1403 2484 
z
M 1172 3481 
Q 1172 3119 1398 2916 
Q 1625 2713 2034 2713 
Q 2441 2713 2670 2916 
Q 2900 3119 2900 3481 
Q 2900 3844 2670 4047 
Q 2441 4250 2034 4250 
Q 1625 4250 1398 4047 
Q 1172 3844 1172 3481 
z
" transform="scale(0.015625)"/>
       </defs>
       <use xlink:href="#DejaVuSans-30"/>
       <use xlink:href="#DejaVuSans-2e" x="63.623047"/>
       <use xlink:href="#DejaVuSans-38" x="95.410156"/>
      </g>
     </g>
    </g>
    <g id="xtick_6">
     <g id="text_6">
      <!-- 1.0 -->
      <g style="fill: #262626" transform="translate(330.579373 334.998438) scale(0.1 -0.1)">
       <defs>
        <path id="DejaVuSans-31" d="M 794 531 
L 1825 531 
L 1825 4091 
L 703 3866 
L 703 4441 
L 1819 4666 
L 2450 4666 
L 2450 531 
L 3481 531 
L 3481 0 
L 794 0 
L 794 531 
z
" transform="scale(0.015625)"/>
       </defs>
       <use xlink:href="#DejaVuSans-31"/>
       <use xlink:href="#DejaVuSans-2e" x="63.623047"/>
       <use xlink:href="#DejaVuSans-30" x="95.410156"/>
      </g>
     </g>
    </g>
    <g id="xtick_7">
     <g id="text_7">
      <!-- 1.2 -->
      <g style="fill: #262626" transform="translate(375.895005 334.998438) scale(0.1 -0.1)">
       <use xlink:href="#DejaVuSans-31"/>
       <use xlink:href="#DejaVuSans-2e" x="63.623047"/>
       <use xlink:href="#DejaVuSans-32" x="95.410156"/>
      </g>
     </g>
    </g>
    <g id="text_8">
     <!-- binned_dist_bw_fishes -->
     <g style="fill: #262626" transform="translate(204.534943 348.676562) scale(0.1 -0.1)">
      <defs>
       <path id="DejaVuSans-62" d="M 3116 1747 
Q 3116 2381 2855 2742 
Q 2594 3103 2138 3103 
Q 1681 3103 1420 2742 
Q 1159 2381 1159 1747 
Q 1159 1113 1420 752 
Q 1681 391 2138 391 
Q 2594 391 2855 752 
Q 3116 1113 3116 1747 
z
M 1159 2969 
Q 1341 3281 1617 3432 
Q 1894 3584 2278 3584 
Q 2916 3584 3314 3078 
Q 3713 2572 3713 1747 
Q 3713 922 3314 415 
Q 2916 -91 2278 -91 
Q 1894 -91 1617 61 
Q 1341 213 1159 525 
L 1159 0 
L 581 0 
L 581 4863 
L 1159 4863 
L 1159 2969 
z
" transform="scale(0.015625)"/>
       <path id="DejaVuSans-69" d="M 603 3500 
L 1178 3500 
L 1178 0 
L 603 0 
L 603 3500 
z
M 603 4863 
L 1178 4863 
L 1178 4134 
L 603 4134 
L 603 4863 
z
" transform="scale(0.015625)"/>
       <path id="DejaVuSans-6e" d="M 3513 2113 
L 3513 0 
L 2938 0 
L 2938 2094 
Q 2938 2591 2744 2837 
Q 2550 3084 2163 3084 
Q 1697 3084 1428 2787 
Q 1159 2491 1159 1978 
L 1159 0 
L 581 0 
L 581 3500 
L 1159 3500 
L 1159 2956 
Q 1366 3272 1645 3428 
Q 1925 3584 2291 3584 
Q 2894 3584 3203 3211 
Q 3513 2838 3513 2113 
z
" transform="scale(0.015625)"/>
       <path id="DejaVuSans-65" d="M 3597 1894 
L 3597 1613 
L 953 1613 
Q 991 1019 1311 708 
Q 1631 397 2203 397 
Q 2534 397 2845 478 
Q 3156 559 3463 722 
L 3463 178 
Q 3153 47 2828 -22 
Q 2503 -91 2169 -91 
Q 1331 -91 842 396 
Q 353 884 353 1716 
Q 353 2575 817 3079 
Q 1281 3584 2069 3584 
Q 2775 3584 3186 3129 
Q 3597 2675 3597 1894 
z
M 3022 2063 
Q 3016 2534 2758 2815 
Q 2500 3097 2075 3097 
Q 1594 3097 1305 2825 
Q 1016 2553 972 2059 
L 3022 2063 
z
" transform="scale(0.015625)"/>
       <path id="DejaVuSans-64" d="M 2906 2969 
L 2906 4863 
L 3481 4863 
L 3481 0 
L 2906 0 
L 2906 525 
Q 2725 213 2448 61 
Q 2172 -91 1784 -91 
Q 1150 -91 751 415 
Q 353 922 353 1747 
Q 353 2572 751 3078 
Q 1150 3584 1784 3584 
Q 2172 3584 2448 3432 
Q 2725 3281 2906 2969 
z
M 947 1747 
Q 947 1113 1208 752 
Q 1469 391 1925 391 
Q 2381 391 2643 752 
Q 2906 1113 2906 1747 
Q 2906 2381 2643 2742 
Q 2381 3103 1925 3103 
Q 1469 3103 1208 2742 
Q 947 2381 947 1747 
z
" transform="scale(0.015625)"/>
       <path id="DejaVuSans-5f" d="M 3263 -1063 
L 3263 -1509 
L -63 -1509 
L -63 -1063 
L 3263 -1063 
z
" transform="scale(0.015625)"/>
       <path id="DejaVuSans-73" d="M 2834 3397 
L 2834 2853 
Q 2591 2978 2328 3040 
Q 2066 3103 1784 3103 
Q 1356 3103 1142 2972 
Q 928 2841 928 2578 
Q 928 2378 1081 2264 
Q 1234 2150 1697 2047 
L 1894 2003 
Q 2506 1872 2764 1633 
Q 3022 1394 3022 966 
Q 3022 478 2636 193 
Q 2250 -91 1575 -91 
Q 1294 -91 989 -36 
Q 684 19 347 128 
L 347 722 
Q 666 556 975 473 
Q 1284 391 1588 391 
Q 1994 391 2212 530 
Q 2431 669 2431 922 
Q 2431 1156 2273 1281 
Q 2116 1406 1581 1522 
L 1381 1569 
Q 847 1681 609 1914 
Q 372 2147 372 2553 
Q 372 3047 722 3315 
Q 1072 3584 1716 3584 
Q 2034 3584 2315 3537 
Q 2597 3491 2834 3397 
z
" transform="scale(0.015625)"/>
       <path id="DejaVuSans-74" d="M 1172 4494 
L 1172 3500 
L 2356 3500 
L 2356 3053 
L 1172 3053 
L 1172 1153 
Q 1172 725 1289 603 
Q 1406 481 1766 481 
L 2356 481 
L 2356 0 
L 1766 0 
Q 1100 0 847 248 
Q 594 497 594 1153 
L 594 3053 
L 172 3053 
L 172 3500 
L 594 3500 
L 594 4494 
L 1172 4494 
z
" transform="scale(0.015625)"/>
       <path id="DejaVuSans-77" d="M 269 3500 
L 844 3500 
L 1563 769 
L 2278 3500 
L 2956 3500 
L 3675 769 
L 4391 3500 
L 4966 3500 
L 4050 0 
L 3372 0 
L 2619 2869 
L 1863 0 
L 1184 0 
L 269 3500 
z
" transform="scale(0.015625)"/>
       <path id="DejaVuSans-66" d="M 2375 4863 
L 2375 4384 
L 1825 4384 
Q 1516 4384 1395 4259 
Q 1275 4134 1275 3809 
L 1275 3500 
L 2222 3500 
L 2222 3053 
L 1275 3053 
L 1275 0 
L 697 0 
L 697 3053 
L 147 3053 
L 147 3500 
L 697 3500 
L 697 3744 
Q 697 4328 969 4595 
Q 1241 4863 1831 4863 
L 2375 4863 
z
" transform="scale(0.015625)"/>
       <path id="DejaVuSans-68" d="M 3513 2113 
L 3513 0 
L 2938 0 
L 2938 2094 
Q 2938 2591 2744 2837 
Q 2550 3084 2163 3084 
Q 1697 3084 1428 2787 
Q 1159 2491 1159 1978 
L 1159 0 
L 581 0 
L 581 4863 
L 1159 4863 
L 1159 2956 
Q 1366 3272 1645 3428 
Q 1925 3584 2291 3584 
Q 2894 3584 3203 3211 
Q 3513 2838 3513 2113 
z
" transform="scale(0.015625)"/>
      </defs>
      <use xlink:href="#DejaVuSans-62"/>
      <use xlink:href="#DejaVuSans-69" x="63.476562"/>
      <use xlink:href="#DejaVuSans-6e" x="91.259766"/>
      <use xlink:href="#DejaVuSans-6e" x="154.638672"/>
      <use xlink:href="#DejaVuSans-65" x="218.017578"/>
      <use xlink:href="#DejaVuSans-64" x="279.541016"/>
      <use xlink:href="#DejaVuSans-5f" x="343.017578"/>
      <use xlink:href="#DejaVuSans-64" x="393.017578"/>
      <use xlink:href="#DejaVuSans-69" x="456.494141"/>
      <use xlink:href="#DejaVuSans-73" x="484.277344"/>
      <use xlink:href="#DejaVuSans-74" x="536.376953"/>
      <use xlink:href="#DejaVuSans-5f" x="575.585938"/>
      <use xlink:href="#DejaVuSans-62" x="625.585938"/>
      <use xlink:href="#DejaVuSans-77" x="689.0625"/>
      <use xlink:href="#DejaVuSans-5f" x="770.849609"/>
      <use xlink:href="#DejaVuSans-66" x="820.849609"/>
      <use xlink:href="#DejaVuSans-69" x="856.054688"/>
      <use xlink:href="#DejaVuSans-73" x="883.837891"/>
      <use xlink:href="#DejaVuSans-68" x="935.9375"/>
      <use xlink:href="#DejaVuSans-65" x="999.316406"/>
      <use xlink:href="#DejaVuSans-73" x="1060.839844"/>
     </g>
    </g>
   </g>
   <g id="matplotlib.axis_2">
    <g id="ytick_1">
     <g id="text_9">
      <!-- 0.0 -->
      <g style="fill: #262626" transform="translate(85.096875 324.199219) scale(0.1 -0.1)">
       <use xlink:href="#DejaVuSans-30"/>
       <use xlink:href="#DejaVuSans-2e" x="63.623047"/>
       <use xlink:href="#DejaVuSans-30" x="95.410156"/>
      </g>
     </g>
    </g>
    <g id="ytick_2">
     <g id="text_10">
      <!-- 0.1 -->
      <g style="fill: #262626" transform="translate(85.096875 289.549219) scale(0.1 -0.1)">
       <use xlink:href="#DejaVuSans-30"/>
       <use xlink:href="#DejaVuSans-2e" x="63.623047"/>
       <use xlink:href="#DejaVuSans-31" x="95.410156"/>
      </g>
     </g>
    </g>
    <g id="ytick_3">
     <g id="text_11">
      <!-- 0.2 -->
      <g style="fill: #262626" transform="translate(85.096875 254.899219) scale(0.1 -0.1)">
       <use xlink:href="#DejaVuSans-30"/>
       <use xlink:href="#DejaVuSans-2e" x="63.623047"/>
       <use xlink:href="#DejaVuSans-32" x="95.410156"/>
      </g>
     </g>
    </g>
    <g id="ytick_4">
     <g id="text_12">
      <!-- 0.3 -->
      <g style="fill: #262626" transform="translate(85.096875 220.249219) scale(0.1 -0.1)">
       <defs>
        <path id="DejaVuSans-33" d="M 2597 2516 
Q 3050 2419 3304 2112 
Q 3559 1806 3559 1356 
Q 3559 666 3084 287 
Q 2609 -91 1734 -91 
Q 1441 -91 1130 -33 
Q 819 25 488 141 
L 488 750 
Q 750 597 1062 519 
Q 1375 441 1716 441 
Q 2309 441 2620 675 
Q 2931 909 2931 1356 
Q 2931 1769 2642 2001 
Q 2353 2234 1838 2234 
L 1294 2234 
L 1294 2753 
L 1863 2753 
Q 2328 2753 2575 2939 
Q 2822 3125 2822 3475 
Q 2822 3834 2567 4026 
Q 2313 4219 1838 4219 
Q 1578 4219 1281 4162 
Q 984 4106 628 3988 
L 628 4550 
Q 988 4650 1302 4700 
Q 1616 4750 1894 4750 
Q 2613 4750 3031 4423 
Q 3450 4097 3450 3541 
Q 3450 3153 3228 2886 
Q 3006 2619 2597 2516 
z
" transform="scale(0.015625)"/>
       </defs>
       <use xlink:href="#DejaVuSans-30"/>
       <use xlink:href="#DejaVuSans-2e" x="63.623047"/>
       <use xlink:href="#DejaVuSans-33" x="95.410156"/>
      </g>
     </g>
    </g>
    <g id="ytick_5">
     <g id="text_13">
      <!-- 0.4 -->
      <g style="fill: #262626" transform="translate(85.096875 185.599219) scale(0.1 -0.1)">
       <use xlink:href="#DejaVuSans-30"/>
       <use xlink:href="#DejaVuSans-2e" x="63.623047"/>
       <use xlink:href="#DejaVuSans-34" x="95.410156"/>
      </g>
     </g>
    </g>
    <g id="ytick_6">
     <g id="text_14">
      <!-- 0.5 -->
      <g style="fill: #262626" transform="translate(85.096875 150.949219) scale(0.1 -0.1)">
       <defs>
        <path id="DejaVuSans-35" d="M 691 4666 
L 3169 4666 
L 3169 4134 
L 1269 4134 
L 1269 2991 
Q 1406 3038 1543 3061 
Q 1681 3084 1819 3084 
Q 2600 3084 3056 2656 
Q 3513 2228 3513 1497 
Q 3513 744 3044 326 
Q 2575 -91 1722 -91 
Q 1428 -91 1123 -41 
Q 819 9 494 109 
L 494 744 
Q 775 591 1075 516 
Q 1375 441 1709 441 
Q 2250 441 2565 725 
Q 2881 1009 2881 1497 
Q 2881 1984 2565 2268 
Q 2250 2553 1709 2553 
Q 1456 2553 1204 2497 
Q 953 2441 691 2322 
L 691 4666 
z
" transform="scale(0.015625)"/>
       </defs>
       <use xlink:href="#DejaVuSans-30"/>
       <use xlink:href="#DejaVuSans-2e" x="63.623047"/>
       <use xlink:href="#DejaVuSans-35" x="95.410156"/>
      </g>
     </g>
    </g>
    <g id="ytick_7">
     <g id="text_15">
      <!-- 0.6 -->
      <g style="fill: #262626" transform="translate(85.096875 116.299219) scale(0.1 -0.1)">
       <use xlink:href="#DejaVuSans-30"/>
       <use xlink:href="#DejaVuSans-2e" x="63.623047"/>
       <use xlink:href="#DejaVuSans-36" x="95.410156"/>
      </g>
     </g>
    </g>
    <g id="ytick_8">
     <g id="text_16">
      <!-- 0.7 -->
      <g style="fill: #262626" transform="translate(85.096875 81.649219) scale(0.1 -0.1)">
       <defs>
        <path id="DejaVuSans-37" d="M 525 4666 
L 3525 4666 
L 3525 4397 
L 1831 0 
L 1172 0 
L 2766 4134 
L 525 4134 
L 525 4666 
z
" transform="scale(0.015625)"/>
       </defs>
       <use xlink:href="#DejaVuSans-30"/>
       <use xlink:href="#DejaVuSans-2e" x="63.623047"/>
       <use xlink:href="#DejaVuSans-37" x="95.410156"/>
      </g>
     </g>
    </g>
    <g id="ytick_9">
     <g id="text_17">
      <!-- 0.8 -->
      <g style="fill: #262626" transform="translate(85.096875 46.999219) scale(0.1 -0.1)">
       <use xlink:href="#DejaVuSans-30"/>
       <use xlink:href="#DejaVuSans-2e" x="63.623047"/>
       <use xlink:href="#DejaVuSans-38" x="95.410156"/>
      </g>
     </g>
    </g>
    <g id="text_18">
     <!-- RMSE -->
     <g style="fill: #262626" transform="translate(79.017187 195.921875) rotate(-90) scale(0.1 -0.1)">
      <defs>
       <path id="DejaVuSans-52" d="M 2841 2188 
Q 3044 2119 3236 1894 
Q 3428 1669 3622 1275 
L 4263 0 
L 3584 0 
L 2988 1197 
Q 2756 1666 2539 1819 
Q 2322 1972 1947 1972 
L 1259 1972 
L 1259 0 
L 628 0 
L 628 4666 
L 2053 4666 
Q 2853 4666 3247 4331 
Q 3641 3997 3641 3322 
Q 3641 2881 3436 2590 
Q 3231 2300 2841 2188 
z
M 1259 4147 
L 1259 2491 
L 2053 2491 
Q 2509 2491 2742 2702 
Q 2975 2913 2975 3322 
Q 2975 3731 2742 3939 
Q 2509 4147 2053 4147 
L 1259 4147 
z
" transform="scale(0.015625)"/>
       <path id="DejaVuSans-4d" d="M 628 4666 
L 1569 4666 
L 2759 1491 
L 3956 4666 
L 4897 4666 
L 4897 0 
L 4281 0 
L 4281 4097 
L 3078 897 
L 2444 897 
L 1241 4097 
L 1241 0 
L 628 0 
L 628 4666 
z
" transform="scale(0.015625)"/>
       <path id="DejaVuSans-53" d="M 3425 4513 
L 3425 3897 
Q 3066 4069 2747 4153 
Q 2428 4238 2131 4238 
Q 1616 4238 1336 4038 
Q 1056 3838 1056 3469 
Q 1056 3159 1242 3001 
Q 1428 2844 1947 2747 
L 2328 2669 
Q 3034 2534 3370 2195 
Q 3706 1856 3706 1288 
Q 3706 609 3251 259 
Q 2797 -91 1919 -91 
Q 1588 -91 1214 -16 
Q 841 59 441 206 
L 441 856 
Q 825 641 1194 531 
Q 1563 422 1919 422 
Q 2459 422 2753 634 
Q 3047 847 3047 1241 
Q 3047 1584 2836 1778 
Q 2625 1972 2144 2069 
L 1759 2144 
Q 1053 2284 737 2584 
Q 422 2884 422 3419 
Q 422 4038 858 4394 
Q 1294 4750 2059 4750 
Q 2388 4750 2728 4690 
Q 3069 4631 3425 4513 
z
" transform="scale(0.015625)"/>
       <path id="DejaVuSans-45" d="M 628 4666 
L 3578 4666 
L 3578 4134 
L 1259 4134 
L 1259 2753 
L 3481 2753 
L 3481 2222 
L 1259 2222 
L 1259 531 
L 3634 531 
L 3634 0 
L 628 0 
L 628 4666 
z
" transform="scale(0.015625)"/>
      </defs>
      <use xlink:href="#DejaVuSans-52"/>
      <use xlink:href="#DejaVuSans-4d" x="69.482422"/>
      <use xlink:href="#DejaVuSans-53" x="155.761719"/>
      <use xlink:href="#DejaVuSans-45" x="219.238281"/>
     </g>
    </g>
   </g>
   <g id="PolyCollection_1">
    <defs>
     <path id="m6bf9678020" d="M 121.834711 -47.446899 
L 121.834711 -46.377343 
L 141.598583 -49.422075 
L 161.362456 -52.206929 
L 181.126328 -54.922614 
L 200.890201 -55.987447 
L 220.654073 -59.902054 
L 240.417946 -61.425884 
L 260.181818 -63.350591 
L 279.945691 -61.896241 
L 299.709563 -67.788227 
L 319.473436 -65.440585 
L 339.237308 -66.734442 
L 359.001181 -63.078129 
L 378.765053 -45.634293 
L 398.528926 -66.386507 
L 398.528926 -151.961364 
L 398.528926 -151.961364 
L 378.765053 -69.66316 
L 359.001181 -82.687934 
L 339.237308 -80.871209 
L 319.473436 -79.637043 
L 299.709563 -76.712914 
L 279.945691 -67.023384 
L 260.181818 -69.398073 
L 240.417946 -65.564157 
L 220.654073 -63.121253 
L 200.890201 -58.237278 
L 181.126328 -56.8494 
L 161.362456 -53.663705 
L 141.598583 -50.790064 
L 121.834711 -47.446899 
z
" style="stroke: #4169e1; stroke-opacity: 0.2"/>
    </defs>
    <g clip-path="url(#p7ce568704f)">
     <use xlink:href="#m6bf9678020" x="0" y="360" style="fill: #4169e1; fill-opacity: 0.2; stroke: #4169e1; stroke-opacity: 0.2"/>
    </g>
   </g>
   <g id="PolyCollection_2">
    <defs>
     <path id="m42fd755775" d="M 121.834711 -47.042215 
L 121.834711 -46.238957 
L 141.598583 -49.401388 
L 161.362456 -51.76716 
L 181.126328 -54.874618 
L 200.890201 -57.795017 
L 220.654073 -58.750048 
L 240.417946 -60.515655 
L 260.181818 -62.897737 
L 279.945691 -63.64819 
L 299.709563 -67.880622 
L 319.473436 -67.430359 
L 339.237308 -72.415745 
L 359.001181 -69.240685 
L 378.765053 -52.090294 
L 398.528926 -61.083255 
L 398.528926 -98.548926 
L 398.528926 -98.548926 
L 378.765053 -77.913142 
L 359.001181 -94.753698 
L 339.237308 -85.12792 
L 319.473436 -76.819765 
L 299.709563 -74.346814 
L 279.945691 -67.298925 
L 260.181818 -66.724897 
L 240.417946 -63.168856 
L 220.654073 -60.823936 
L 200.890201 -59.688523 
L 181.126328 -56.25323 
L 161.362456 -52.777286 
L 141.598583 -50.27435 
L 121.834711 -47.042215 
z
" style="stroke: #00008b; stroke-opacity: 0.2"/>
    </defs>
    <g clip-path="url(#p7ce568704f)">
     <use xlink:href="#m42fd755775" x="0" y="360" style="fill: #00008b; fill-opacity: 0.2; stroke: #00008b; stroke-opacity: 0.2"/>
    </g>
   </g>
   <g id="PolyCollection_3">
    <defs>
     <path id="m24ebf09476" d="M 121.834711 -55.544957 
L 121.834711 -50.655819 
L 141.598583 -52.062221 
L 161.362456 -55.679073 
L 181.126328 -62.053464 
L 200.890201 -63.683221 
L 220.654073 -69.607914 
L 240.417946 -70.737241 
L 260.181818 -72.490116 
L 279.945691 -70.642928 
L 299.709563 -77.377987 
L 319.473436 -81.147602 
L 339.237308 -80.91172 
L 359.001181 -66.538684 
L 378.765053 -70.728966 
L 378.765053 -110.949992 
L 378.765053 -110.949992 
L 359.001181 -162.842613 
L 339.237308 -121.024522 
L 319.473436 -107.469867 
L 299.709563 -95.428082 
L 279.945691 -83.771456 
L 260.181818 -85.346374 
L 240.417946 -80.523947 
L 220.654073 -78.350551 
L 200.890201 -68.726822 
L 181.126328 -67.859087 
L 161.362456 -58.711674 
L 141.598583 -54.975377 
L 121.834711 -55.544957 
z
" style="stroke: #800080; stroke-opacity: 0.2"/>
    </defs>
    <g clip-path="url(#p7ce568704f)">
     <use xlink:href="#m24ebf09476" x="0" y="360" style="fill: #800080; fill-opacity: 0.2; stroke: #800080; stroke-opacity: 0.2"/>
    </g>
   </g>
   <g id="PolyCollection_4">
    <defs>
     <path id="m900fa7e997" d="M 121.834711 -50.618806 
L 121.834711 -48.882189 
L 141.598583 -52.381281 
L 161.362456 -57.537049 
L 181.126328 -59.515784 
L 200.890201 -64.482127 
L 220.654073 -66.278641 
L 240.417946 -68.774265 
L 260.181818 -72.939834 
L 279.945691 -74.183119 
L 299.709563 -77.665028 
L 319.473436 -76.915653 
L 339.237308 -73.090848 
L 359.001181 -96.941813 
L 378.765053 -90.903841 
L 398.528926 -52.494512 
L 398.528926 -134.430232 
L 398.528926 -134.430232 
L 378.765053 -150.961046 
L 359.001181 -138.438972 
L 339.237308 -87.076433 
L 319.473436 -87.280411 
L 299.709563 -86.208328 
L 279.945691 -82.334638 
L 260.181818 -78.366029 
L 240.417946 -72.903207 
L 220.654073 -69.943607 
L 200.890201 -67.533432 
L 181.126328 -61.69011 
L 161.362456 -59.340952 
L 141.598583 -53.735894 
L 121.834711 -50.618806 
z
" style="stroke: #ff1493; stroke-opacity: 0.2"/>
    </defs>
    <g clip-path="url(#p7ce568704f)">
     <use xlink:href="#m900fa7e997" x="0" y="360" style="fill: #ff1493; fill-opacity: 0.2; stroke: #ff1493; stroke-opacity: 0.2"/>
    </g>
   </g>
   <g id="PolyCollection_5">
    <defs>
     <path id="maf0867696d" d="M 121.834711 -50.303064 
L 121.834711 -48.581445 
L 141.598583 -53.270394 
L 161.362456 -56.146613 
L 181.126328 -60.772358 
L 200.890201 -63.695733 
L 220.654073 -65.618204 
L 240.417946 -71.864567 
L 260.181818 -72.246953 
L 279.945691 -74.147618 
L 299.709563 -81.204947 
L 319.473436 -85.802025 
L 339.237308 -78.784159 
L 359.001181 -65.326148 
L 378.765053 -82.281264 
L 398.528926 -65.320506 
L 398.528926 -140.245068 
L 398.528926 -140.245068 
L 378.765053 -131.257731 
L 359.001181 -78.926519 
L 339.237308 -92.848048 
L 319.473436 -99.851646 
L 299.709563 -91.42142 
L 279.945691 -80.163189 
L 260.181818 -77.746027 
L 240.417946 -76.220163 
L 220.654073 -68.916636 
L 200.890201 -66.480129 
L 181.126328 -62.883674 
L 161.362456 -57.790131 
L 141.598583 -54.756839 
L 121.834711 -50.303064 
z
" style="stroke: #dc143c; stroke-opacity: 0.2"/>
    </defs>
    <g clip-path="url(#p7ce568704f)">
     <use xlink:href="#maf0867696d" x="0" y="360" style="fill: #dc143c; fill-opacity: 0.2; stroke: #dc143c; stroke-opacity: 0.2"/>
    </g>
   </g>
   <g id="PolyCollection_6">
    <defs>
     <path id="m486b1dd4e2" d="M 121.834711 -52.340901 
L 121.834711 -48.466586 
L 141.598583 -51.773748 
L 161.362456 -55.788231 
L 181.126328 -57.657602 
L 200.890201 -64.29991 
L 220.654073 -69.252649 
L 240.417946 -72.242214 
L 260.181818 -69.080458 
L 279.945691 -73.227212 
L 299.709563 -74.536381 
L 319.473436 -62.787164 
L 339.237308 -63.505093 
L 359.001181 -67.252399 
L 378.765053 -73.394902 
L 398.528926 -130.407878 
L 398.528926 -175.010105 
L 398.528926 -175.010105 
L 378.765053 -117.373869 
L 359.001181 -85.13193 
L 339.237308 -83.617699 
L 319.473436 -92.795558 
L 299.709563 -102.462391 
L 279.945691 -91.656603 
L 260.181818 -81.130159 
L 240.417946 -84.966021 
L 220.654073 -80.768439 
L 200.890201 -72.319758 
L 181.126328 -62.787666 
L 161.362456 -59.191869 
L 141.598583 -55.313415 
L 121.834711 -52.340901 
z
" style="stroke: #808080; stroke-opacity: 0.2"/>
    </defs>
    <g clip-path="url(#p7ce568704f)">
     <use xlink:href="#m486b1dd4e2" x="0" y="360" style="fill: #808080; fill-opacity: 0.2; stroke: #808080; stroke-opacity: 0.2"/>
    </g>
   </g>
   <g id="line2d_1">
    <path d="M 121.834711 313.094149 
L 141.598583 309.938683 
L 161.362456 307.080747 
L 181.126328 304.137312 
L 200.890201 302.95051 
L 220.654073 298.580936 
L 240.417946 296.586818 
L 260.181818 293.866328 
L 279.945691 295.552091 
L 299.709563 287.828905 
L 319.473436 288.141112 
L 339.237308 286.409366 
L 359.001181 287.881477 
L 378.765053 302.886093 
L 398.528926 261.226572 
" clip-path="url(#p7ce568704f)" style="fill: none; stroke: #4169e1; stroke-width: 1.5; stroke-linecap: round"/>
   </g>
   <g id="line2d_2">
    <path d="M 121.834711 313.36755 
L 141.598583 310.170334 
L 161.362456 307.751086 
L 181.126328 304.462951 
L 200.890201 301.303259 
L 220.654073 300.249981 
L 240.417946 298.176042 
L 260.181818 295.167119 
L 279.945691 294.566266 
L 299.709563 289.114266 
L 319.473436 287.96689 
L 339.237308 281.240889 
L 359.001181 279.678667 
L 378.765053 295.944415 
L 398.528926 280.18391 
" clip-path="url(#p7ce568704f)" style="fill: none; stroke: #00008b; stroke-width: 1.5; stroke-linecap: round"/>
   </g>
   <g id="line2d_3">
    <path d="M 121.834711 307.003738 
L 141.598583 306.496556 
L 161.362456 302.840403 
L 181.126328 295.313766 
L 200.890201 294.012368 
L 220.654073 286.243291 
L 240.417946 284.589767 
L 260.181818 281.444945 
L 279.945691 283.455937 
L 299.709563 274.756828 
L 319.473436 266.539256 
L 339.237308 260.617858 
L 359.001181 250.751026 
L 378.765053 269.14479 
" clip-path="url(#p7ce568704f)" style="fill: none; stroke: #800080; stroke-width: 1.5; stroke-linecap: round"/>
   </g>
   <g id="line2d_4">
    <path d="M 121.834711 310.321428 
L 141.598583 306.960207 
L 161.362456 301.59833 
L 181.126328 299.440676 
L 200.890201 294.04516 
L 220.654073 291.868308 
L 240.417946 289.2137 
L 260.181818 284.339563 
L 279.945691 281.679591 
L 299.709563 278.259405 
L 319.473436 278.157312 
L 339.237308 279.887416 
L 359.001181 242.493979 
L 378.765053 243.803061 
L 398.528926 266.568718 
" clip-path="url(#p7ce568704f)" style="fill: none; stroke: #ff1493; stroke-width: 1.5; stroke-linecap: round"/>
   </g>
   <g id="line2d_5">
    <path d="M 121.834711 310.615608 
L 141.598583 306.021547 
L 161.362456 303.032632 
L 181.126328 298.155403 
L 200.890201 295.030292 
L 220.654073 292.796556 
L 240.417946 285.975618 
L 260.181818 285.162762 
L 279.945691 282.857057 
L 299.709563 274.186721 
L 319.473436 267.704886 
L 339.237308 274.303026 
L 359.001181 288.125793 
L 378.765053 254.861054 
L 398.528926 264.706493 
" clip-path="url(#p7ce568704f)" style="fill: none; stroke: #dc143c; stroke-width: 1.5; stroke-linecap: round"/>
   </g>
   <g id="line2d_6">
    <path d="M 121.834711 309.670048 
L 141.598583 306.611444 
L 161.362456 302.492469 
L 181.126328 299.959706 
L 200.890201 292.063131 
L 220.654073 285.516392 
L 240.417946 281.552162 
L 260.181818 284.977408 
L 279.945691 278.546795 
L 299.709563 272.328978 
L 319.473436 284.194712 
L 339.237308 287.633853 
L 359.001181 283.183908 
L 378.765053 264.615614 
L 398.528926 207.291008 
" clip-path="url(#p7ce568704f)" style="fill: none; stroke: #808080; stroke-width: 1.5; stroke-linecap: round"/>
   </g>
   <g id="line2d_7"/>
   <g id="line2d_8"/>
   <g id="line2d_9"/>
   <g id="line2d_10"/>
   <g id="line2d_11"/>
   <g id="line2d_12"/>
   <g id="patch_3">
    <path d="M 108 320.4 
L 108 43.2 
" style="fill: none; stroke: #262626; stroke-width: 0.8; stroke-linejoin: miter; stroke-linecap: square"/>
   </g>
   <g id="patch_4">
    <path d="M 412.363636 320.4 
L 412.363636 43.2 
" style="fill: none; stroke: #262626; stroke-width: 0.8; stroke-linejoin: miter; stroke-linecap: square"/>
   </g>
   <g id="patch_5">
    <path d="M 108 320.4 
L 412.363636 320.4 
" style="fill: none; stroke: #262626; stroke-width: 0.8; stroke-linejoin: miter; stroke-linecap: square"/>
   </g>
   <g id="patch_6">
    <path d="M 108 43.2 
L 412.363636 43.2 
" style="fill: none; stroke: #262626; stroke-width: 0.8; stroke-linejoin: miter; stroke-linecap: square"/>
   </g>
   <g id="text_19">
    <!-- length_hole in [0, 30] -->
    <g style="fill: #262626" transform="translate(195.993068 37.2) scale(0.12 -0.12)">
     <defs>
      <path id="DejaVuSans-6c" d="M 603 4863 
L 1178 4863 
L 1178 0 
L 603 0 
L 603 4863 
z
" transform="scale(0.015625)"/>
      <path id="DejaVuSans-67" d="M 2906 1791 
Q 2906 2416 2648 2759 
Q 2391 3103 1925 3103 
Q 1463 3103 1205 2759 
Q 947 2416 947 1791 
Q 947 1169 1205 825 
Q 1463 481 1925 481 
Q 2391 481 2648 825 
Q 2906 1169 2906 1791 
z
M 3481 434 
Q 3481 -459 3084 -895 
Q 2688 -1331 1869 -1331 
Q 1566 -1331 1297 -1286 
Q 1028 -1241 775 -1147 
L 775 -588 
Q 1028 -725 1275 -790 
Q 1522 -856 1778 -856 
Q 2344 -856 2625 -561 
Q 2906 -266 2906 331 
L 2906 616 
Q 2728 306 2450 153 
Q 2172 0 1784 0 
Q 1141 0 747 490 
Q 353 981 353 1791 
Q 353 2603 747 3093 
Q 1141 3584 1784 3584 
Q 2172 3584 2450 3431 
Q 2728 3278 2906 2969 
L 2906 3500 
L 3481 3500 
L 3481 434 
z
" transform="scale(0.015625)"/>
      <path id="DejaVuSans-6f" d="M 1959 3097 
Q 1497 3097 1228 2736 
Q 959 2375 959 1747 
Q 959 1119 1226 758 
Q 1494 397 1959 397 
Q 2419 397 2687 759 
Q 2956 1122 2956 1747 
Q 2956 2369 2687 2733 
Q 2419 3097 1959 3097 
z
M 1959 3584 
Q 2709 3584 3137 3096 
Q 3566 2609 3566 1747 
Q 3566 888 3137 398 
Q 2709 -91 1959 -91 
Q 1206 -91 779 398 
Q 353 888 353 1747 
Q 353 2609 779 3096 
Q 1206 3584 1959 3584 
z
" transform="scale(0.015625)"/>
      <path id="DejaVuSans-20" transform="scale(0.015625)"/>
      <path id="DejaVuSans-5b" d="M 550 4863 
L 1875 4863 
L 1875 4416 
L 1125 4416 
L 1125 -397 
L 1875 -397 
L 1875 -844 
L 550 -844 
L 550 4863 
z
" transform="scale(0.015625)"/>
      <path id="DejaVuSans-2c" d="M 750 794 
L 1409 794 
L 1409 256 
L 897 -744 
L 494 -744 
L 750 256 
L 750 794 
z
" transform="scale(0.015625)"/>
      <path id="DejaVuSans-5d" d="M 1947 4863 
L 1947 -844 
L 622 -844 
L 622 -397 
L 1369 -397 
L 1369 4416 
L 622 4416 
L 622 4863 
L 1947 4863 
z
" transform="scale(0.015625)"/>
     </defs>
     <use xlink:href="#DejaVuSans-6c"/>
     <use xlink:href="#DejaVuSans-65" x="27.783203"/>
     <use xlink:href="#DejaVuSans-6e" x="89.306641"/>
     <use xlink:href="#DejaVuSans-67" x="152.685547"/>
     <use xlink:href="#DejaVuSans-74" x="216.162109"/>
     <use xlink:href="#DejaVuSans-68" x="255.371094"/>
     <use xlink:href="#DejaVuSans-5f" x="318.75"/>
     <use xlink:href="#DejaVuSans-68" x="368.75"/>
     <use xlink:href="#DejaVuSans-6f" x="432.128906"/>
     <use xlink:href="#DejaVuSans-6c" x="493.310547"/>
     <use xlink:href="#DejaVuSans-65" x="521.09375"/>
     <use xlink:href="#DejaVuSans-20" x="582.617188"/>
     <use xlink:href="#DejaVuSans-69" x="614.404297"/>
     <use xlink:href="#DejaVuSans-6e" x="642.1875"/>
     <use xlink:href="#DejaVuSans-20" x="705.566406"/>
     <use xlink:href="#DejaVuSans-5b" x="737.353516"/>
     <use xlink:href="#DejaVuSans-30" x="776.367188"/>
     <use xlink:href="#DejaVuSans-2c" x="839.990234"/>
     <use xlink:href="#DejaVuSans-20" x="871.777344"/>
     <use xlink:href="#DejaVuSans-33" x="903.564453"/>
     <use xlink:href="#DejaVuSans-30" x="967.1875"/>
     <use xlink:href="#DejaVuSans-5d" x="1030.810547"/>
    </g>
   </g>
   <g id="legend_1">
    <g id="patch_7">
     <path d="M 318.869886 154.225 
L 405.363636 154.225 
Q 407.363636 154.225 407.363636 152.225 
L 407.363636 50.2 
Q 407.363636 48.2 405.363636 48.2 
L 318.869886 48.2 
Q 316.869886 48.2 316.869886 50.2 
L 316.869886 152.225 
Q 316.869886 154.225 318.869886 154.225 
z
" style="fill: #ffffff; opacity: 0.8; stroke: #cccccc; stroke-linejoin: miter"/>
    </g>
    <g id="text_20">
     <!-- missing_scheme -->
     <g style="fill: #262626" transform="translate(320.869886 59.798437) scale(0.1 -0.1)">
      <defs>
       <path id="DejaVuSans-6d" d="M 3328 2828 
Q 3544 3216 3844 3400 
Q 4144 3584 4550 3584 
Q 5097 3584 5394 3201 
Q 5691 2819 5691 2113 
L 5691 0 
L 5113 0 
L 5113 2094 
Q 5113 2597 4934 2840 
Q 4756 3084 4391 3084 
Q 3944 3084 3684 2787 
Q 3425 2491 3425 1978 
L 3425 0 
L 2847 0 
L 2847 2094 
Q 2847 2600 2669 2842 
Q 2491 3084 2119 3084 
Q 1678 3084 1418 2786 
Q 1159 2488 1159 1978 
L 1159 0 
L 581 0 
L 581 3500 
L 1159 3500 
L 1159 2956 
Q 1356 3278 1631 3431 
Q 1906 3584 2284 3584 
Q 2666 3584 2933 3390 
Q 3200 3197 3328 2828 
z
" transform="scale(0.015625)"/>
       <path id="DejaVuSans-63" d="M 3122 3366 
L 3122 2828 
Q 2878 2963 2633 3030 
Q 2388 3097 2138 3097 
Q 1578 3097 1268 2742 
Q 959 2388 959 1747 
Q 959 1106 1268 751 
Q 1578 397 2138 397 
Q 2388 397 2633 464 
Q 2878 531 3122 666 
L 3122 134 
Q 2881 22 2623 -34 
Q 2366 -91 2075 -91 
Q 1284 -91 818 406 
Q 353 903 353 1747 
Q 353 2603 823 3093 
Q 1294 3584 2113 3584 
Q 2378 3584 2631 3529 
Q 2884 3475 3122 3366 
z
" transform="scale(0.015625)"/>
      </defs>
      <use xlink:href="#DejaVuSans-6d"/>
      <use xlink:href="#DejaVuSans-69" x="97.412109"/>
      <use xlink:href="#DejaVuSans-73" x="125.195312"/>
      <use xlink:href="#DejaVuSans-73" x="177.294922"/>
      <use xlink:href="#DejaVuSans-69" x="229.394531"/>
      <use xlink:href="#DejaVuSans-6e" x="257.177734"/>
      <use xlink:href="#DejaVuSans-67" x="320.556641"/>
      <use xlink:href="#DejaVuSans-5f" x="384.033203"/>
      <use xlink:href="#DejaVuSans-73" x="434.033203"/>
      <use xlink:href="#DejaVuSans-63" x="486.132812"/>
      <use xlink:href="#DejaVuSans-68" x="541.113281"/>
      <use xlink:href="#DejaVuSans-65" x="604.492188"/>
      <use xlink:href="#DejaVuSans-6d" x="666.015625"/>
      <use xlink:href="#DejaVuSans-65" x="763.427734"/>
     </g>
    </g>
    <g id="line2d_13">
     <path d="M 334.386293 71.254687 
L 344.386293 71.254687 
L 354.386293 71.254687 
" style="fill: none; stroke: #4169e1; stroke-width: 1.5; stroke-linecap: round"/>
    </g>
    <g id="text_21">
     <!-- 1 -->
     <g style="fill: #262626" transform="translate(362.386293 74.754687) scale(0.1 -0.1)">
      <use xlink:href="#DejaVuSans-31"/>
     </g>
    </g>
    <g id="line2d_14">
     <path d="M 334.386293 85.932813 
L 344.386293 85.932813 
L 354.386293 85.932813 
" style="fill: none; stroke: #00008b; stroke-width: 1.5; stroke-linecap: round"/>
    </g>
    <g id="text_22">
     <!-- 1 + 1 -->
     <g style="fill: #262626" transform="translate(362.386293 89.432813) scale(0.1 -0.1)">
      <defs>
       <path id="DejaVuSans-2b" d="M 2944 4013 
L 2944 2272 
L 4684 2272 
L 4684 1741 
L 2944 1741 
L 2944 0 
L 2419 0 
L 2419 1741 
L 678 1741 
L 678 2272 
L 2419 2272 
L 2419 4013 
L 2944 4013 
z
" transform="scale(0.015625)"/>
      </defs>
      <use xlink:href="#DejaVuSans-31"/>
      <use xlink:href="#DejaVuSans-20" x="63.623047"/>
      <use xlink:href="#DejaVuSans-2b" x="95.410156"/>
      <use xlink:href="#DejaVuSans-20" x="179.199219"/>
      <use xlink:href="#DejaVuSans-31" x="210.986328"/>
     </g>
    </g>
    <g id="line2d_15">
     <path d="M 334.386293 100.610937 
L 344.386293 100.610937 
L 354.386293 100.610937 
" style="fill: none; stroke: #800080; stroke-width: 1.5; stroke-linecap: round"/>
    </g>
    <g id="text_23">
     <!-- 3 -->
     <g style="fill: #262626" transform="translate(362.386293 104.110937) scale(0.1 -0.1)">
      <use xlink:href="#DejaVuSans-33"/>
     </g>
    </g>
    <g id="line2d_16">
     <path d="M 334.386293 115.289062 
L 344.386293 115.289062 
L 354.386293 115.289062 
" style="fill: none; stroke: #ff1493; stroke-width: 1.5; stroke-linecap: round"/>
    </g>
    <g id="text_24">
     <!-- 3 + 1 -->
     <g style="fill: #262626" transform="translate(362.386293 118.789062) scale(0.1 -0.1)">
      <use xlink:href="#DejaVuSans-33"/>
      <use xlink:href="#DejaVuSans-20" x="63.623047"/>
      <use xlink:href="#DejaVuSans-2b" x="95.410156"/>
      <use xlink:href="#DejaVuSans-20" x="179.199219"/>
      <use xlink:href="#DejaVuSans-31" x="210.986328"/>
     </g>
    </g>
    <g id="line2d_17">
     <path d="M 334.386293 129.967187 
L 344.386293 129.967187 
L 354.386293 129.967187 
" style="fill: none; stroke: #dc143c; stroke-width: 1.5; stroke-linecap: round"/>
    </g>
    <g id="text_25">
     <!-- 3 + 2 -->
     <g style="fill: #262626" transform="translate(362.386293 133.467187) scale(0.1 -0.1)">
      <use xlink:href="#DejaVuSans-33"/>
      <use xlink:href="#DejaVuSans-20" x="63.623047"/>
      <use xlink:href="#DejaVuSans-2b" x="95.410156"/>
      <use xlink:href="#DejaVuSans-20" x="179.199219"/>
      <use xlink:href="#DejaVuSans-32" x="210.986328"/>
     </g>
    </g>
    <g id="line2d_18">
     <path d="M 334.386293 144.645312 
L 344.386293 144.645312 
L 354.386293 144.645312 
" style="fill: none; stroke: #808080; stroke-width: 1.5; stroke-linecap: round"/>
    </g>
    <g id="text_26">
     <!-- 3 + 3 -->
     <g style="fill: #262626" transform="translate(362.386293 148.145312) scale(0.1 -0.1)">
      <use xlink:href="#DejaVuSans-33"/>
      <use xlink:href="#DejaVuSans-20" x="63.623047"/>
      <use xlink:href="#DejaVuSans-2b" x="95.410156"/>
      <use xlink:href="#DejaVuSans-20" x="179.199219"/>
      <use xlink:href="#DejaVuSans-33" x="210.986328"/>
     </g>
    </g>
   </g>
  </g>
  <g id="axes_2">
   <g id="patch_8">
    <path d="M 473.236364 320.4 
L 777.6 320.4 
L 777.6 43.2 
L 473.236364 43.2 
z
" style="fill: #ffffff"/>
   </g>
   <g id="matplotlib.axis_3">
    <g id="xtick_8">
     <g id="text_27">
      <!-- 0.0 -->
      <g style="fill: #262626" transform="translate(469.237576 334.998438) scale(0.1 -0.1)">
       <use xlink:href="#DejaVuSans-30"/>
       <use xlink:href="#DejaVuSans-2e" x="63.623047"/>
       <use xlink:href="#DejaVuSans-30" x="95.410156"/>
      </g>
     </g>
    </g>
    <g id="xtick_9">
     <g id="text_28">
      <!-- 0.2 -->
      <g style="fill: #262626" transform="translate(514.553208 334.998438) scale(0.1 -0.1)">
       <use xlink:href="#DejaVuSans-30"/>
       <use xlink:href="#DejaVuSans-2e" x="63.623047"/>
       <use xlink:href="#DejaVuSans-32" x="95.410156"/>
      </g>
     </g>
    </g>
    <g id="xtick_10">
     <g id="text_29">
      <!-- 0.4 -->
      <g style="fill: #262626" transform="translate(559.86884 334.998438) scale(0.1 -0.1)">
       <use xlink:href="#DejaVuSans-30"/>
       <use xlink:href="#DejaVuSans-2e" x="63.623047"/>
       <use xlink:href="#DejaVuSans-34" x="95.410156"/>
      </g>
     </g>
    </g>
    <g id="xtick_11">
     <g id="text_30">
      <!-- 0.6 -->
      <g style="fill: #262626" transform="translate(605.184472 334.998438) scale(0.1 -0.1)">
       <use xlink:href="#DejaVuSans-30"/>
       <use xlink:href="#DejaVuSans-2e" x="63.623047"/>
       <use xlink:href="#DejaVuSans-36" x="95.410156"/>
      </g>
     </g>
    </g>
    <g id="xtick_12">
     <g id="text_31">
      <!-- 0.8 -->
      <g style="fill: #262626" transform="translate(650.500104 334.998438) scale(0.1 -0.1)">
       <use xlink:href="#DejaVuSans-30"/>
       <use xlink:href="#DejaVuSans-2e" x="63.623047"/>
       <use xlink:href="#DejaVuSans-38" x="95.410156"/>
      </g>
     </g>
    </g>
    <g id="xtick_13">
     <g id="text_32">
      <!-- 1.0 -->
      <g style="fill: #262626" transform="translate(695.815736 334.998438) scale(0.1 -0.1)">
       <use xlink:href="#DejaVuSans-31"/>
       <use xlink:href="#DejaVuSans-2e" x="63.623047"/>
       <use xlink:href="#DejaVuSans-30" x="95.410156"/>
      </g>
     </g>
    </g>
    <g id="xtick_14">
     <g id="text_33">
      <!-- 1.2 -->
      <g style="fill: #262626" transform="translate(741.131368 334.998438) scale(0.1 -0.1)">
       <use xlink:href="#DejaVuSans-31"/>
       <use xlink:href="#DejaVuSans-2e" x="63.623047"/>
       <use xlink:href="#DejaVuSans-32" x="95.410156"/>
      </g>
     </g>
    </g>
    <g id="text_34">
     <!-- binned_dist_bw_fishes -->
     <g style="fill: #262626" transform="translate(569.771307 348.676562) scale(0.1 -0.1)">
      <use xlink:href="#DejaVuSans-62"/>
      <use xlink:href="#DejaVuSans-69" x="63.476562"/>
      <use xlink:href="#DejaVuSans-6e" x="91.259766"/>
      <use xlink:href="#DejaVuSans-6e" x="154.638672"/>
      <use xlink:href="#DejaVuSans-65" x="218.017578"/>
      <use xlink:href="#DejaVuSans-64" x="279.541016"/>
      <use xlink:href="#DejaVuSans-5f" x="343.017578"/>
      <use xlink:href="#DejaVuSans-64" x="393.017578"/>
      <use xlink:href="#DejaVuSans-69" x="456.494141"/>
      <use xlink:href="#DejaVuSans-73" x="484.277344"/>
      <use xlink:href="#DejaVuSans-74" x="536.376953"/>
      <use xlink:href="#DejaVuSans-5f" x="575.585938"/>
      <use xlink:href="#DejaVuSans-62" x="625.585938"/>
      <use xlink:href="#DejaVuSans-77" x="689.0625"/>
      <use xlink:href="#DejaVuSans-5f" x="770.849609"/>
      <use xlink:href="#DejaVuSans-66" x="820.849609"/>
      <use xlink:href="#DejaVuSans-69" x="856.054688"/>
      <use xlink:href="#DejaVuSans-73" x="883.837891"/>
      <use xlink:href="#DejaVuSans-68" x="935.9375"/>
      <use xlink:href="#DejaVuSans-65" x="999.316406"/>
      <use xlink:href="#DejaVuSans-73" x="1060.839844"/>
     </g>
    </g>
   </g>
   <g id="matplotlib.axis_4">
    <g id="ytick_10"/>
    <g id="ytick_11"/>
    <g id="ytick_12"/>
    <g id="ytick_13"/>
    <g id="ytick_14"/>
    <g id="ytick_15"/>
    <g id="ytick_16"/>
    <g id="ytick_17"/>
    <g id="ytick_18"/>
   </g>
   <g id="PolyCollection_7">
    <defs>
     <path id="m1003c63f00" d="M 487.071074 -54.529641 
L 487.071074 -51.625631 
L 506.834947 -58.980367 
L 526.598819 -66.864414 
L 546.362692 -72.420869 
L 566.126564 -73.431382 
L 585.890437 -83.959223 
L 605.654309 -88.399386 
L 625.418182 -90.620344 
L 645.182054 -95.194225 
L 664.945927 -99.906402 
L 684.709799 -115.035765 
L 704.473672 -123.888384 
L 724.237544 -77.331892 
L 744.001417 -65.038771 
L 744.001417 -151.649222 
L 744.001417 -151.649222 
L 724.237544 -156.713842 
L 704.473672 -192.150948 
L 684.709799 -148.365135 
L 664.945927 -120.742245 
L 645.182054 -111.753045 
L 625.418182 -103.032812 
L 605.654309 -98.277364 
L 585.890437 -91.754769 
L 566.126564 -78.956836 
L 546.362692 -77.514369 
L 526.598819 -70.953338 
L 506.834947 -62.134911 
L 487.071074 -54.529641 
z
" style="stroke: #4169e1; stroke-opacity: 0.2"/>
    </defs>
    <g clip-path="url(#pea189186df)">
     <use xlink:href="#m1003c63f00" x="0" y="360" style="fill: #4169e1; fill-opacity: 0.2; stroke: #4169e1; stroke-opacity: 0.2"/>
    </g>
   </g>
   <g id="PolyCollection_8">
    <defs>
     <path id="m2beee9d82b" d="M 487.071074 -54.991441 
L 487.071074 -52.689615 
L 506.834947 -59.972242 
L 526.598819 -67.200464 
L 546.362692 -73.56716 
L 566.126564 -76.98172 
L 585.890437 -81.74539 
L 605.654309 -89.157337 
L 625.418182 -92.857612 
L 645.182054 -102.537858 
L 664.945927 -103.312875 
L 684.709799 -114.165406 
L 704.473672 -122.717417 
L 724.237544 -111.550094 
L 744.001417 -86.985378 
L 763.765289 -90.84344 
L 763.765289 -237.622196 
L 763.765289 -237.622196 
L 744.001417 -226.769729 
L 724.237544 -200.146819 
L 704.473672 -171.632791 
L 684.709799 -135.806086 
L 664.945927 -119.716206 
L 645.182054 -115.841622 
L 625.418182 -102.434989 
L 605.654309 -96.421564 
L 585.890437 -87.068991 
L 566.126564 -81.117648 
L 546.362692 -77.036312 
L 526.598819 -69.966976 
L 506.834947 -62.321197 
L 487.071074 -54.991441 
z
" style="stroke: #00008b; stroke-opacity: 0.2"/>
    </defs>
    <g clip-path="url(#pea189186df)">
     <use xlink:href="#m2beee9d82b" x="0" y="360" style="fill: #00008b; fill-opacity: 0.2; stroke: #00008b; stroke-opacity: 0.2"/>
    </g>
   </g>
   <g id="PolyCollection_9">
    <defs>
     <path id="mf3f29dc6bc" d="M 487.071074 -76.410049 
L 487.071074 -65.879689 
L 506.834947 -78.345215 
L 526.598819 -93.565258 
L 546.362692 -102.188054 
L 566.126564 -106.538473 
L 585.890437 -124.498391 
L 605.654309 -128.497085 
L 625.418182 -126.344003 
L 645.182054 -148.60713 
L 664.945927 -150.894542 
L 684.709799 -164.051583 
L 704.473672 -145.496019 
L 724.237544 -142.078262 
L 724.237544 -220.606419 
L 724.237544 -220.606419 
L 704.473672 -196.76637 
L 684.709799 -212.841669 
L 664.945927 -190.310118 
L 645.182054 -175.736028 
L 625.418182 -147.022996 
L 605.654309 -148.438486 
L 585.890437 -141.296859 
L 566.126564 -120.0658 
L 546.362692 -112.799889 
L 526.598819 -103.951365 
L 506.834947 -84.954488 
L 487.071074 -76.410049 
z
" style="stroke: #800080; stroke-opacity: 0.2"/>
    </defs>
    <g clip-path="url(#pea189186df)">
     <use xlink:href="#mf3f29dc6bc" x="0" y="360" style="fill: #800080; fill-opacity: 0.2; stroke: #800080; stroke-opacity: 0.2"/>
    </g>
   </g>
   <g id="PolyCollection_10">
    <defs>
     <path id="mfc14fdce45" d="M 487.071074 -66.744288 
L 487.071074 -62.821361 
L 506.834947 -76.4051 
L 526.598819 -86.817873 
L 546.362692 -99.727625 
L 566.126564 -104.609581 
L 585.890437 -108.832299 
L 605.654309 -125.090427 
L 625.418182 -125.256664 
L 645.182054 -127.654319 
L 664.945927 -145.406534 
L 684.709799 -142.710541 
L 704.473672 -167.048964 
L 724.237544 -168.782099 
L 744.001417 -175.189212 
L 763.765289 -146.158602 
L 763.765289 -229.945674 
L 763.765289 -229.945674 
L 744.001417 -288.788762 
L 724.237544 -232.55176 
L 704.473672 -200.548621 
L 684.709799 -161.111843 
L 664.945927 -165.745885 
L 645.182054 -139.662866 
L 625.418182 -136.375784 
L 605.654309 -134.47167 
L 585.890437 -116.56667 
L 566.126564 -111.908484 
L 546.362692 -105.588995 
L 526.598819 -91.281593 
L 506.834947 -80.140139 
L 487.071074 -66.744288 
z
" style="stroke: #ff1493; stroke-opacity: 0.2"/>
    </defs>
    <g clip-path="url(#pea189186df)">
     <use xlink:href="#mfc14fdce45" x="0" y="360" style="fill: #ff1493; fill-opacity: 0.2; stroke: #ff1493; stroke-opacity: 0.2"/>
    </g>
   </g>
   <g id="PolyCollection_11">
    <defs>
     <path id="maab17450ff" d="M 487.071074 -64.684791 
L 487.071074 -61.6696 
L 506.834947 -72.910141 
L 526.598819 -85.31749 
L 546.362692 -92.691635 
L 566.126564 -100.263365 
L 585.890437 -109.568706 
L 605.654309 -116.953502 
L 625.418182 -126.107299 
L 645.182054 -140.97608 
L 664.945927 -150.368598 
L 684.709799 -148.547275 
L 704.473672 -147.129987 
L 724.237544 -159.340114 
L 744.001417 -149.385344 
L 763.765289 -145.075229 
L 763.765289 -198.907518 
L 763.765289 -198.907518 
L 744.001417 -254.731729 
L 724.237544 -202.468118 
L 704.473672 -190.239856 
L 684.709799 -169.925606 
L 664.945927 -172.330229 
L 645.182054 -155.500734 
L 625.418182 -138.100597 
L 605.654309 -125.838399 
L 585.890437 -116.653335 
L 566.126564 -106.123626 
L 546.362692 -97.347854 
L 526.598819 -89.71299 
L 506.834947 -76.340472 
L 487.071074 -64.684791 
z
" style="stroke: #dc143c; stroke-opacity: 0.2"/>
    </defs>
    <g clip-path="url(#pea189186df)">
     <use xlink:href="#maab17450ff" x="0" y="360" style="fill: #dc143c; fill-opacity: 0.2; stroke: #dc143c; stroke-opacity: 0.2"/>
    </g>
   </g>
   <g id="PolyCollection_12">
    <defs>
     <path id="mcef586cf6a" d="M 487.071074 -75.922931 
L 487.071074 -61.175162 
L 506.834947 -73.189375 
L 526.598819 -92.638647 
L 546.362692 -101.601905 
L 566.126564 -120.570116 
L 585.890437 -118.356289 
L 605.654309 -125.113452 
L 625.418182 -151.84465 
L 645.182054 -162.597899 
L 664.945927 -136.010237 
L 684.709799 -171.435394 
L 704.473672 -190.130089 
L 724.237544 -110.309902 
L 724.237544 -164.324549 
L 724.237544 -164.324549 
L 704.473672 -299.950668 
L 684.709799 -217.213039 
L 664.945927 -183.922467 
L 645.182054 -206.355713 
L 625.418182 -192.768553 
L 605.654309 -148.333265 
L 585.890437 -139.073897 
L 566.126564 -145.312381 
L 546.362692 -116.249427 
L 526.598819 -110.044844 
L 506.834947 -81.168771 
L 487.071074 -75.922931 
z
" style="stroke: #808080; stroke-opacity: 0.2"/>
    </defs>
    <g clip-path="url(#pea189186df)">
     <use xlink:href="#mcef586cf6a" x="0" y="360" style="fill: #808080; fill-opacity: 0.2; stroke: #808080; stroke-opacity: 0.2"/>
    </g>
   </g>
   <g id="line2d_19">
    <path d="M 487.071074 307.057277 
L 506.834947 299.3381 
L 526.598819 291.30188 
L 546.362692 285.009758 
L 566.126564 283.796389 
L 585.890437 272.314289 
L 605.654309 266.545223 
L 625.418182 263.468004 
L 645.182054 256.696966 
L 664.945927 249.962093 
L 684.709799 229.084876 
L 704.473672 202.442523 
L 724.237544 247.740338 
L 744.001417 253.298452 
" clip-path="url(#pea189186df)" style="fill: none; stroke: #4169e1; stroke-width: 1.5; stroke-linecap: round"/>
   </g>
   <g id="line2d_20">
    <path d="M 487.071074 306.17306 
L 506.834947 298.843562 
L 526.598819 291.407972 
L 546.362692 284.803836 
L 566.126564 280.941551 
L 585.890437 275.535603 
L 605.654309 267.144374 
L 625.418182 262.628211 
L 645.182054 250.767347 
L 664.945927 249.062056 
L 684.709799 235.820492 
L 704.473672 214.279209 
L 724.237544 204.459507 
L 744.001417 211.286554 
L 763.765289 197.381844 
" clip-path="url(#pea189186df)" style="fill: none; stroke: #00008b; stroke-width: 1.5; stroke-linecap: round"/>
   </g>
   <g id="line2d_21">
    <path d="M 487.071074 288.886615 
L 506.834947 278.593967 
L 526.598819 261.240931 
L 546.362692 252.638842 
L 566.126564 246.859245 
L 585.890437 227.493341 
L 605.654309 222.073075 
L 625.418182 223.354653 
L 645.182054 198.131178 
L 664.945927 190.740418 
L 684.709799 171.338058 
L 704.473672 190.727469 
L 724.237544 179.615916 
" clip-path="url(#pea189186df)" style="fill: none; stroke: #800080; stroke-width: 1.5; stroke-linecap: round"/>
   </g>
   <g id="line2d_22">
    <path d="M 487.071074 295.354147 
L 506.834947 281.758555 
L 526.598819 270.93788 
L 546.362692 257.437295 
L 566.126564 251.860674 
L 585.890437 247.601079 
L 605.654309 230.200424 
L 625.418182 229.409198 
L 645.182054 226.618878 
L 664.945927 204.683109 
L 684.709799 208.278919 
L 704.473672 175.494042 
L 724.237544 162.131794 
L 744.001417 129.94951 
L 763.765289 173.305618 
" clip-path="url(#pea189186df)" style="fill: none; stroke: #ff1493; stroke-width: 1.5; stroke-linecap: round"/>
   </g>
   <g id="line2d_23">
    <path d="M 487.071074 296.810457 
L 506.834947 285.419855 
L 526.598819 272.467211 
L 546.362692 264.885309 
L 566.126564 256.782469 
L 585.890437 246.73747 
L 605.654309 238.67717 
L 625.418182 228.025653 
L 645.182054 211.820284 
L 664.945927 198.786543 
L 684.709799 201.081587 
L 704.473672 193.630101 
L 724.237544 179.121892 
L 744.001417 161.759664 
L 763.765289 187.693118 
" clip-path="url(#pea189186df)" style="fill: none; stroke: #dc143c; stroke-width: 1.5; stroke-linecap: round"/>
   </g>
   <g id="line2d_24">
    <path d="M 487.071074 292.14705 
L 506.834947 282.995117 
L 526.598819 259.417007 
L 546.362692 250.949525 
L 566.126564 228.125613 
L 585.890437 231.408367 
L 605.654309 223.59434 
L 625.418182 187.388873 
L 645.182054 177.998243 
L 664.945927 201.269121 
L 684.709799 166.540069 
L 704.473672 114.864968 
L 724.237544 217.347253 
" clip-path="url(#pea189186df)" style="fill: none; stroke: #808080; stroke-width: 1.5; stroke-linecap: round"/>
   </g>
   <g id="line2d_25"/>
   <g id="line2d_26"/>
   <g id="line2d_27"/>
   <g id="line2d_28"/>
   <g id="line2d_29"/>
   <g id="line2d_30"/>
   <g id="patch_9">
    <path d="M 473.236364 320.4 
L 473.236364 43.2 
" style="fill: none; stroke: #262626; stroke-width: 0.8; stroke-linejoin: miter; stroke-linecap: square"/>
   </g>
   <g id="patch_10">
    <path d="M 777.6 320.4 
L 777.6 43.2 
" style="fill: none; stroke: #262626; stroke-width: 0.8; stroke-linejoin: miter; stroke-linecap: square"/>
   </g>
   <g id="patch_11">
    <path d="M 473.236364 320.4 
L 777.6 320.4 
" style="fill: none; stroke: #262626; stroke-width: 0.8; stroke-linejoin: miter; stroke-linecap: square"/>
   </g>
   <g id="patch_12">
    <path d="M 473.236364 43.2 
L 777.6 43.2 
" style="fill: none; stroke: #262626; stroke-width: 0.8; stroke-linejoin: miter; stroke-linecap: square"/>
   </g>
   <g id="text_35">
    <!-- length_hole in [30, 60] -->
    <g style="fill: #262626" transform="translate(557.411932 37.2) scale(0.12 -0.12)">
     <use xlink:href="#DejaVuSans-6c"/>
     <use xlink:href="#DejaVuSans-65" x="27.783203"/>
     <use xlink:href="#DejaVuSans-6e" x="89.306641"/>
     <use xlink:href="#DejaVuSans-67" x="152.685547"/>
     <use xlink:href="#DejaVuSans-74" x="216.162109"/>
     <use xlink:href="#DejaVuSans-68" x="255.371094"/>
     <use xlink:href="#DejaVuSans-5f" x="318.75"/>
     <use xlink:href="#DejaVuSans-68" x="368.75"/>
     <use xlink:href="#DejaVuSans-6f" x="432.128906"/>
     <use xlink:href="#DejaVuSans-6c" x="493.310547"/>
     <use xlink:href="#DejaVuSans-65" x="521.09375"/>
     <use xlink:href="#DejaVuSans-20" x="582.617188"/>
     <use xlink:href="#DejaVuSans-69" x="614.404297"/>
     <use xlink:href="#DejaVuSans-6e" x="642.1875"/>
     <use xlink:href="#DejaVuSans-20" x="705.566406"/>
     <use xlink:href="#DejaVuSans-5b" x="737.353516"/>
     <use xlink:href="#DejaVuSans-33" x="776.367188"/>
     <use xlink:href="#DejaVuSans-30" x="839.990234"/>
     <use xlink:href="#DejaVuSans-2c" x="903.613281"/>
     <use xlink:href="#DejaVuSans-20" x="935.400391"/>
     <use xlink:href="#DejaVuSans-36" x="967.1875"/>
     <use xlink:href="#DejaVuSans-30" x="1030.810547"/>
     <use xlink:href="#DejaVuSans-5d" x="1094.433594"/>
    </g>
   </g>
   <g id="legend_2">
    <g id="patch_13">
     <path d="M 480.236364 154.225 
L 566.730114 154.225 
Q 568.730114 154.225 568.730114 152.225 
L 568.730114 50.2 
Q 568.730114 48.2 566.730114 48.2 
L 480.236364 48.2 
Q 478.236364 48.2 478.236364 50.2 
L 478.236364 152.225 
Q 478.236364 154.225 480.236364 154.225 
z
" style="fill: #ffffff; opacity: 0.8; stroke: #cccccc; stroke-linejoin: miter"/>
    </g>
    <g id="text_36">
     <!-- missing_scheme -->
     <g style="fill: #262626" transform="translate(482.236364 59.798437) scale(0.1 -0.1)">
      <use xlink:href="#DejaVuSans-6d"/>
      <use xlink:href="#DejaVuSans-69" x="97.412109"/>
      <use xlink:href="#DejaVuSans-73" x="125.195312"/>
      <use xlink:href="#DejaVuSans-73" x="177.294922"/>
      <use xlink:href="#DejaVuSans-69" x="229.394531"/>
      <use xlink:href="#DejaVuSans-6e" x="257.177734"/>
      <use xlink:href="#DejaVuSans-67" x="320.556641"/>
      <use xlink:href="#DejaVuSans-5f" x="384.033203"/>
      <use xlink:href="#DejaVuSans-73" x="434.033203"/>
      <use xlink:href="#DejaVuSans-63" x="486.132812"/>
      <use xlink:href="#DejaVuSans-68" x="541.113281"/>
      <use xlink:href="#DejaVuSans-65" x="604.492188"/>
      <use xlink:href="#DejaVuSans-6d" x="666.015625"/>
      <use xlink:href="#DejaVuSans-65" x="763.427734"/>
     </g>
    </g>
    <g id="line2d_31">
     <path d="M 495.75277 71.254687 
L 505.75277 71.254687 
L 515.75277 71.254687 
" style="fill: none; stroke: #4169e1; stroke-width: 1.5; stroke-linecap: round"/>
    </g>
    <g id="text_37">
     <!-- 1 -->
     <g style="fill: #262626" transform="translate(523.75277 74.754687) scale(0.1 -0.1)">
      <use xlink:href="#DejaVuSans-31"/>
     </g>
    </g>
    <g id="line2d_32">
     <path d="M 495.75277 85.932813 
L 505.75277 85.932813 
L 515.75277 85.932813 
" style="fill: none; stroke: #00008b; stroke-width: 1.5; stroke-linecap: round"/>
    </g>
    <g id="text_38">
     <!-- 1 + 1 -->
     <g style="fill: #262626" transform="translate(523.75277 89.432813) scale(0.1 -0.1)">
      <use xlink:href="#DejaVuSans-31"/>
      <use xlink:href="#DejaVuSans-20" x="63.623047"/>
      <use xlink:href="#DejaVuSans-2b" x="95.410156"/>
      <use xlink:href="#DejaVuSans-20" x="179.199219"/>
      <use xlink:href="#DejaVuSans-31" x="210.986328"/>
     </g>
    </g>
    <g id="line2d_33">
     <path d="M 495.75277 100.610937 
L 505.75277 100.610937 
L 515.75277 100.610937 
" style="fill: none; stroke: #800080; stroke-width: 1.5; stroke-linecap: round"/>
    </g>
    <g id="text_39">
     <!-- 3 -->
     <g style="fill: #262626" transform="translate(523.75277 104.110937) scale(0.1 -0.1)">
      <use xlink:href="#DejaVuSans-33"/>
     </g>
    </g>
    <g id="line2d_34">
     <path d="M 495.75277 115.289062 
L 505.75277 115.289062 
L 515.75277 115.289062 
" style="fill: none; stroke: #ff1493; stroke-width: 1.5; stroke-linecap: round"/>
    </g>
    <g id="text_40">
     <!-- 3 + 1 -->
     <g style="fill: #262626" transform="translate(523.75277 118.789062) scale(0.1 -0.1)">
      <use xlink:href="#DejaVuSans-33"/>
      <use xlink:href="#DejaVuSans-20" x="63.623047"/>
      <use xlink:href="#DejaVuSans-2b" x="95.410156"/>
      <use xlink:href="#DejaVuSans-20" x="179.199219"/>
      <use xlink:href="#DejaVuSans-31" x="210.986328"/>
     </g>
    </g>
    <g id="line2d_35">
     <path d="M 495.75277 129.967187 
L 505.75277 129.967187 
L 515.75277 129.967187 
" style="fill: none; stroke: #dc143c; stroke-width: 1.5; stroke-linecap: round"/>
    </g>
    <g id="text_41">
     <!-- 3 + 2 -->
     <g style="fill: #262626" transform="translate(523.75277 133.467187) scale(0.1 -0.1)">
      <use xlink:href="#DejaVuSans-33"/>
      <use xlink:href="#DejaVuSans-20" x="63.623047"/>
      <use xlink:href="#DejaVuSans-2b" x="95.410156"/>
      <use xlink:href="#DejaVuSans-20" x="179.199219"/>
      <use xlink:href="#DejaVuSans-32" x="210.986328"/>
     </g>
    </g>
    <g id="line2d_36">
     <path d="M 495.75277 144.645312 
L 505.75277 144.645312 
L 515.75277 144.645312 
" style="fill: none; stroke: #808080; stroke-width: 1.5; stroke-linecap: round"/>
    </g>
    <g id="text_42">
     <!-- 3 + 3 -->
     <g style="fill: #262626" transform="translate(523.75277 148.145312) scale(0.1 -0.1)">
      <use xlink:href="#DejaVuSans-33"/>
      <use xlink:href="#DejaVuSans-20" x="63.623047"/>
      <use xlink:href="#DejaVuSans-2b" x="95.410156"/>
      <use xlink:href="#DejaVuSans-20" x="179.199219"/>
      <use xlink:href="#DejaVuSans-33" x="210.986328"/>
     </g>
    </g>
   </g>
  </g>
 </g>
 <defs>
  <clipPath id="p7ce568704f">
   <rect x="108" y="43.2" width="304.363636" height="277.2"/>
  </clipPath>
  <clipPath id="pea189186df">
   <rect x="473.236364" y="43.2" width="304.363636" height="277.2"/>
  </clipPath>
 </defs>
</svg>
