<?xml version="1.0" encoding="utf-8" standalone="no"?>
<!DOCTYPE svg PUBLIC "-//W3C//DTD SVG 1.1//EN"
  "http://www.w3.org/Graphics/SVG/1.1/DTD/svg11.dtd">
<svg xmlns:xlink="http://www.w3.org/1999/xlink" width="864pt" height="360pt" viewBox="0 0 864 360" xmlns="http://www.w3.org/2000/svg" version="1.1">
 <metadata>
  <rdf:RDF xmlns:dc="http://purl.org/dc/elements/1.1/" xmlns:cc="http://creativecommons.org/ns#" xmlns:rdf="http://www.w3.org/1999/02/22-rdf-syntax-ns#">
   <cc:Work>
    <dc:type rdf:resource="http://purl.org/dc/dcmitype/StillImage"/>
    <dc:date>2025-06-30T15:52:24.415817</dc:date>
    <dc:format>image/svg+xml</dc:format>
    <dc:creator>
     <cc:Agent>
      <dc:title>Matplotlib v3.7.4, https://matplotlib.org/</dc:title>
     </cc:Agent>
    </dc:creator>
   </cc:Work>
  </rdf:RDF>
 </metadata>
 <defs>
  <style type="text/css">*{stroke-linejoin: round; stroke-linecap: butt}</style>
 </defs>
 <g id="figure_1">
  <g id="patch_1">
   <path d="M 0 360 
L 864 360 
L 864 0 
L 0 0 
z
" style="fill: #ffffff"/>
  </g>
  <g id="axes_1">
   <g id="patch_2">
    <path d="M 108 320.4 
L 412.363636 320.4 
L 412.363636 43.2 
L 108 43.2 
z
" style="fill: #ffffff"/>
   </g>
   <g id="matplotlib.axis_1">
    <g id="xtick_1">
     <g id="text_1">
      <!-- 0 -->
      <g style="fill: #262626" transform="translate(108.771524 334.998438) scale(0.1 -0.1)">
       <defs>
        <path id="DejaVuSans-30" d="M 2034 4250 
Q 1547 4250 1301 3770 
Q 1056 3291 1056 2328 
Q 1056 1369 1301 889 
Q 1547 409 2034 409 
Q 2525 409 2770 889 
Q 3016 1369 3016 2328 
Q 3016 3291 2770 3770 
Q 2525 4250 2034 4250 
z
M 2034 4750 
Q 2819 4750 3233 4129 
Q 3647 3509 3647 2328 
Q 3647 1150 3233 529 
Q 2819 -91 2034 -91 
Q 1250 -91 836 529 
Q 422 1150 422 2328 
Q 422 3509 836 4129 
Q 1250 4750 2034 4750 
z
" transform="scale(0.015625)"/>
       </defs>
       <use xlink:href="#DejaVuSans-30"/>
      </g>
     </g>
    </g>
    <g id="xtick_2">
     <g id="text_2">
      <!-- 1 -->
      <g style="fill: #262626" transform="translate(143.282965 334.998438) scale(0.1 -0.1)">
       <defs>
        <path id="DejaVuSans-31" d="M 794 531 
L 1825 531 
L 1825 4091 
L 703 3866 
L 703 4441 
L 1819 4666 
L 2450 4666 
L 2450 531 
L 3481 531 
L 3481 0 
L 794 0 
L 794 531 
z
" transform="scale(0.015625)"/>
       </defs>
       <use xlink:href="#DejaVuSans-31"/>
      </g>
     </g>
    </g>
    <g id="xtick_3">
     <g id="text_3">
      <!-- 2 -->
      <g style="fill: #262626" transform="translate(177.794406 334.998438) scale(0.1 -0.1)">
       <defs>
        <path id="DejaVuSans-32" d="M 1228 531 
L 3431 531 
L 3431 0 
L 469 0 
L 469 531 
Q 828 903 1448 1529 
Q 2069 2156 2228 2338 
Q 2531 2678 2651 2914 
Q 2772 3150 2772 3378 
Q 2772 3750 2511 3984 
Q 2250 4219 1831 4219 
Q 1534 4219 1204 4116 
Q 875 4013 500 3803 
L 500 4441 
Q 881 4594 1212 4672 
Q 1544 4750 1819 4750 
Q 2544 4750 2975 4387 
Q 3406 4025 3406 3419 
Q 3406 3131 3298 2873 
Q 3191 2616 2906 2266 
Q 2828 2175 2409 1742 
Q 1991 1309 1228 531 
z
" transform="scale(0.015625)"/>
       </defs>
       <use xlink:href="#DejaVuSans-32"/>
      </g>
     </g>
    </g>
    <g id="xtick_4">
     <g id="text_4">
      <!-- 3 -->
      <g style="fill: #262626" transform="translate(212.305847 334.998438) scale(0.1 -0.1)">
       <defs>
        <path id="DejaVuSans-33" d="M 2597 2516 
Q 3050 2419 3304 2112 
Q 3559 1806 3559 1356 
Q 3559 666 3084 287 
Q 2609 -91 1734 -91 
Q 1441 -91 1130 -33 
Q 819 25 488 141 
L 488 750 
Q 750 597 1062 519 
Q 1375 441 1716 441 
Q 2309 441 2620 675 
Q 2931 909 2931 1356 
Q 2931 1769 2642 2001 
Q 2353 2234 1838 2234 
L 1294 2234 
L 1294 2753 
L 1863 2753 
Q 2328 2753 2575 2939 
Q 2822 3125 2822 3475 
Q 2822 3834 2567 4026 
Q 2313 4219 1838 4219 
Q 1578 4219 1281 4162 
Q 984 4106 628 3988 
L 628 4550 
Q 988 4650 1302 4700 
Q 1616 4750 1894 4750 
Q 2613 4750 3031 4423 
Q 3450 4097 3450 3541 
Q 3450 3153 3228 2886 
Q 3006 2619 2597 2516 
z
" transform="scale(0.015625)"/>
       </defs>
       <use xlink:href="#DejaVuSans-33"/>
      </g>
     </g>
    </g>
    <g id="xtick_5">
     <g id="text_5">
      <!-- 4 -->
      <g style="fill: #262626" transform="translate(246.817288 334.998438) scale(0.1 -0.1)">
       <defs>
        <path id="DejaVuSans-34" d="M 2419 4116 
L 825 1625 
L 2419 1625 
L 2419 4116 
z
M 2253 4666 
L 3047 4666 
L 3047 1625 
L 3713 1625 
L 3713 1100 
L 3047 1100 
L 3047 0 
L 2419 0 
L 2419 1100 
L 313 1100 
L 313 1709 
L 2253 4666 
z
" transform="scale(0.015625)"/>
       </defs>
       <use xlink:href="#DejaVuSans-34"/>
      </g>
     </g>
    </g>
    <g id="xtick_6">
     <g id="text_6">
      <!-- 5 -->
      <g style="fill: #262626" transform="translate(281.328729 334.998438) scale(0.1 -0.1)">
       <defs>
        <path id="DejaVuSans-35" d="M 691 4666 
L 3169 4666 
L 3169 4134 
L 1269 4134 
L 1269 2991 
Q 1406 3038 1543 3061 
Q 1681 3084 1819 3084 
Q 2600 3084 3056 2656 
Q 3513 2228 3513 1497 
Q 3513 744 3044 326 
Q 2575 -91 1722 -91 
Q 1428 -91 1123 -41 
Q 819 9 494 109 
L 494 744 
Q 775 591 1075 516 
Q 1375 441 1709 441 
Q 2250 441 2565 725 
Q 2881 1009 2881 1497 
Q 2881 1984 2565 2268 
Q 2250 2553 1709 2553 
Q 1456 2553 1204 2497 
Q 953 2441 691 2322 
L 691 4666 
z
" transform="scale(0.015625)"/>
       </defs>
       <use xlink:href="#DejaVuSans-35"/>
      </g>
     </g>
    </g>
    <g id="xtick_7">
     <g id="text_7">
      <!-- 6 -->
      <g style="fill: #262626" transform="translate(315.84017 334.998438) scale(0.1 -0.1)">
       <defs>
        <path id="DejaVuSans-36" d="M 2113 2584 
Q 1688 2584 1439 2293 
Q 1191 2003 1191 1497 
Q 1191 994 1439 701 
Q 1688 409 2113 409 
Q 2538 409 2786 701 
Q 3034 994 3034 1497 
Q 3034 2003 2786 2293 
Q 2538 2584 2113 2584 
z
M 3366 4563 
L 3366 3988 
Q 3128 4100 2886 4159 
Q 2644 4219 2406 4219 
Q 1781 4219 1451 3797 
Q 1122 3375 1075 2522 
Q 1259 2794 1537 2939 
Q 1816 3084 2150 3084 
Q 2853 3084 3261 2657 
Q 3669 2231 3669 1497 
Q 3669 778 3244 343 
Q 2819 -91 2113 -91 
Q 1303 -91 875 529 
Q 447 1150 447 2328 
Q 447 3434 972 4092 
Q 1497 4750 2381 4750 
Q 2619 4750 2861 4703 
Q 3103 4656 3366 4563 
z
" transform="scale(0.015625)"/>
       </defs>
       <use xlink:href="#DejaVuSans-36"/>
      </g>
     </g>
    </g>
    <g id="xtick_8">
     <g id="text_8">
      <!-- 7 -->
      <g style="fill: #262626" transform="translate(350.35161 334.998438) scale(0.1 -0.1)">
       <defs>
        <path id="DejaVuSans-37" d="M 525 4666 
L 3525 4666 
L 3525 4397 
L 1831 0 
L 1172 0 
L 2766 4134 
L 525 4134 
L 525 4666 
z
" transform="scale(0.015625)"/>
       </defs>
       <use xlink:href="#DejaVuSans-37"/>
      </g>
     </g>
    </g>
    <g id="xtick_9">
     <g id="text_9">
      <!-- 8 -->
      <g style="fill: #262626" transform="translate(384.863051 334.998438) scale(0.1 -0.1)">
       <defs>
        <path id="DejaVuSans-38" d="M 2034 2216 
Q 1584 2216 1326 1975 
Q 1069 1734 1069 1313 
Q 1069 891 1326 650 
Q 1584 409 2034 409 
Q 2484 409 2743 651 
Q 3003 894 3003 1313 
Q 3003 1734 2745 1975 
Q 2488 2216 2034 2216 
z
M 1403 2484 
Q 997 2584 770 2862 
Q 544 3141 544 3541 
Q 544 4100 942 4425 
Q 1341 4750 2034 4750 
Q 2731 4750 3128 4425 
Q 3525 4100 3525 3541 
Q 3525 3141 3298 2862 
Q 3072 2584 2669 2484 
Q 3125 2378 3379 2068 
Q 3634 1759 3634 1313 
Q 3634 634 3220 271 
Q 2806 -91 2034 -91 
Q 1263 -91 848 271 
Q 434 634 434 1313 
Q 434 1759 690 2068 
Q 947 2378 1403 2484 
z
M 1172 3481 
Q 1172 3119 1398 2916 
Q 1625 2713 2034 2713 
Q 2441 2713 2670 2916 
Q 2900 3119 2900 3481 
Q 2900 3844 2670 4047 
Q 2441 4250 2034 4250 
Q 1625 4250 1398 4047 
Q 1172 3844 1172 3481 
z
" transform="scale(0.015625)"/>
       </defs>
       <use xlink:href="#DejaVuSans-38"/>
      </g>
     </g>
    </g>
    <g id="text_10">
     <!-- binned_dist_bw_fishes -->
     <g style="fill: #262626" transform="translate(204.534943 348.676562) scale(0.1 -0.1)">
      <defs>
       <path id="DejaVuSans-62" d="M 3116 1747 
Q 3116 2381 2855 2742 
Q 2594 3103 2138 3103 
Q 1681 3103 1420 2742 
Q 1159 2381 1159 1747 
Q 1159 1113 1420 752 
Q 1681 391 2138 391 
Q 2594 391 2855 752 
Q 3116 1113 3116 1747 
z
M 1159 2969 
Q 1341 3281 1617 3432 
Q 1894 3584 2278 3584 
Q 2916 3584 3314 3078 
Q 3713 2572 3713 1747 
Q 3713 922 3314 415 
Q 2916 -91 2278 -91 
Q 1894 -91 1617 61 
Q 1341 213 1159 525 
L 1159 0 
L 581 0 
L 581 4863 
L 1159 4863 
L 1159 2969 
z
" transform="scale(0.015625)"/>
       <path id="DejaVuSans-69" d="M 603 3500 
L 1178 3500 
L 1178 0 
L 603 0 
L 603 3500 
z
M 603 4863 
L 1178 4863 
L 1178 4134 
L 603 4134 
L 603 4863 
z
" transform="scale(0.015625)"/>
       <path id="DejaVuSans-6e" d="M 3513 2113 
L 3513 0 
L 2938 0 
L 2938 2094 
Q 2938 2591 2744 2837 
Q 2550 3084 2163 3084 
Q 1697 3084 1428 2787 
Q 1159 2491 1159 1978 
L 1159 0 
L 581 0 
L 581 3500 
L 1159 3500 
L 1159 2956 
Q 1366 3272 1645 3428 
Q 1925 3584 2291 3584 
Q 2894 3584 3203 3211 
Q 3513 2838 3513 2113 
z
" transform="scale(0.015625)"/>
       <path id="DejaVuSans-65" d="M 3597 1894 
L 3597 1613 
L 953 1613 
Q 991 1019 1311 708 
Q 1631 397 2203 397 
Q 2534 397 2845 478 
Q 3156 559 3463 722 
L 3463 178 
Q 3153 47 2828 -22 
Q 2503 -91 2169 -91 
Q 1331 -91 842 396 
Q 353 884 353 1716 
Q 353 2575 817 3079 
Q 1281 3584 2069 3584 
Q 2775 3584 3186 3129 
Q 3597 2675 3597 1894 
z
M 3022 2063 
Q 3016 2534 2758 2815 
Q 2500 3097 2075 3097 
Q 1594 3097 1305 2825 
Q 1016 2553 972 2059 
L 3022 2063 
z
" transform="scale(0.015625)"/>
       <path id="DejaVuSans-64" d="M 2906 2969 
L 2906 4863 
L 3481 4863 
L 3481 0 
L 2906 0 
L 2906 525 
Q 2725 213 2448 61 
Q 2172 -91 1784 -91 
Q 1150 -91 751 415 
Q 353 922 353 1747 
Q 353 2572 751 3078 
Q 1150 3584 1784 3584 
Q 2172 3584 2448 3432 
Q 2725 3281 2906 2969 
z
M 947 1747 
Q 947 1113 1208 752 
Q 1469 391 1925 391 
Q 2381 391 2643 752 
Q 2906 1113 2906 1747 
Q 2906 2381 2643 2742 
Q 2381 3103 1925 3103 
Q 1469 3103 1208 2742 
Q 947 2381 947 1747 
z
" transform="scale(0.015625)"/>
       <path id="DejaVuSans-5f" d="M 3263 -1063 
L 3263 -1509 
L -63 -1509 
L -63 -1063 
L 3263 -1063 
z
" transform="scale(0.015625)"/>
       <path id="DejaVuSans-73" d="M 2834 3397 
L 2834 2853 
Q 2591 2978 2328 3040 
Q 2066 3103 1784 3103 
Q 1356 3103 1142 2972 
Q 928 2841 928 2578 
Q 928 2378 1081 2264 
Q 1234 2150 1697 2047 
L 1894 2003 
Q 2506 1872 2764 1633 
Q 3022 1394 3022 966 
Q 3022 478 2636 193 
Q 2250 -91 1575 -91 
Q 1294 -91 989 -36 
Q 684 19 347 128 
L 347 722 
Q 666 556 975 473 
Q 1284 391 1588 391 
Q 1994 391 2212 530 
Q 2431 669 2431 922 
Q 2431 1156 2273 1281 
Q 2116 1406 1581 1522 
L 1381 1569 
Q 847 1681 609 1914 
Q 372 2147 372 2553 
Q 372 3047 722 3315 
Q 1072 3584 1716 3584 
Q 2034 3584 2315 3537 
Q 2597 3491 2834 3397 
z
" transform="scale(0.015625)"/>
       <path id="DejaVuSans-74" d="M 1172 4494 
L 1172 3500 
L 2356 3500 
L 2356 3053 
L 1172 3053 
L 1172 1153 
Q 1172 725 1289 603 
Q 1406 481 1766 481 
L 2356 481 
L 2356 0 
L 1766 0 
Q 1100 0 847 248 
Q 594 497 594 1153 
L 594 3053 
L 172 3053 
L 172 3500 
L 594 3500 
L 594 4494 
L 1172 4494 
z
" transform="scale(0.015625)"/>
       <path id="DejaVuSans-77" d="M 269 3500 
L 844 3500 
L 1563 769 
L 2278 3500 
L 2956 3500 
L 3675 769 
L 4391 3500 
L 4966 3500 
L 4050 0 
L 3372 0 
L 2619 2869 
L 1863 0 
L 1184 0 
L 269 3500 
z
" transform="scale(0.015625)"/>
       <path id="DejaVuSans-66" d="M 2375 4863 
L 2375 4384 
L 1825 4384 
Q 1516 4384 1395 4259 
Q 1275 4134 1275 3809 
L 1275 3500 
L 2222 3500 
L 2222 3053 
L 1275 3053 
L 1275 0 
L 697 0 
L 697 3053 
L 147 3053 
L 147 3500 
L 697 3500 
L 697 3744 
Q 697 4328 969 4595 
Q 1241 4863 1831 4863 
L 2375 4863 
z
" transform="scale(0.015625)"/>
       <path id="DejaVuSans-68" d="M 3513 2113 
L 3513 0 
L 2938 0 
L 2938 2094 
Q 2938 2591 2744 2837 
Q 2550 3084 2163 3084 
Q 1697 3084 1428 2787 
Q 1159 2491 1159 1978 
L 1159 0 
L 581 0 
L 581 4863 
L 1159 4863 
L 1159 2956 
Q 1366 3272 1645 3428 
Q 1925 3584 2291 3584 
Q 2894 3584 3203 3211 
Q 3513 2838 3513 2113 
z
" transform="scale(0.015625)"/>
      </defs>
      <use xlink:href="#DejaVuSans-62"/>
      <use xlink:href="#DejaVuSans-69" x="63.476562"/>
      <use xlink:href="#DejaVuSans-6e" x="91.259766"/>
      <use xlink:href="#DejaVuSans-6e" x="154.638672"/>
      <use xlink:href="#DejaVuSans-65" x="218.017578"/>
      <use xlink:href="#DejaVuSans-64" x="279.541016"/>
      <use xlink:href="#DejaVuSans-5f" x="343.017578"/>
      <use xlink:href="#DejaVuSans-64" x="393.017578"/>
      <use xlink:href="#DejaVuSans-69" x="456.494141"/>
      <use xlink:href="#DejaVuSans-73" x="484.277344"/>
      <use xlink:href="#DejaVuSans-74" x="536.376953"/>
      <use xlink:href="#DejaVuSans-5f" x="575.585938"/>
      <use xlink:href="#DejaVuSans-62" x="625.585938"/>
      <use xlink:href="#DejaVuSans-77" x="689.0625"/>
      <use xlink:href="#DejaVuSans-5f" x="770.849609"/>
      <use xlink:href="#DejaVuSans-66" x="820.849609"/>
      <use xlink:href="#DejaVuSans-69" x="856.054688"/>
      <use xlink:href="#DejaVuSans-73" x="883.837891"/>
      <use xlink:href="#DejaVuSans-68" x="935.9375"/>
      <use xlink:href="#DejaVuSans-65" x="999.316406"/>
      <use xlink:href="#DejaVuSans-73" x="1060.839844"/>
     </g>
    </g>
   </g>
   <g id="matplotlib.axis_2">
    <g id="ytick_1">
     <g id="text_11">
      <!-- 0.0 -->
      <g style="fill: #262626" transform="translate(85.096875 324.199219) scale(0.1 -0.1)">
       <defs>
        <path id="DejaVuSans-2e" d="M 684 794 
L 1344 794 
L 1344 0 
L 684 0 
L 684 794 
z
" transform="scale(0.015625)"/>
       </defs>
       <use xlink:href="#DejaVuSans-30"/>
       <use xlink:href="#DejaVuSans-2e" x="63.623047"/>
       <use xlink:href="#DejaVuSans-30" x="95.410156"/>
      </g>
     </g>
    </g>
    <g id="ytick_2">
     <g id="text_12">
      <!-- 2.5 -->
      <g style="fill: #262626" transform="translate(85.096875 289.549219) scale(0.1 -0.1)">
       <use xlink:href="#DejaVuSans-32"/>
       <use xlink:href="#DejaVuSans-2e" x="63.623047"/>
       <use xlink:href="#DejaVuSans-35" x="95.410156"/>
      </g>
     </g>
    </g>
    <g id="ytick_3">
     <g id="text_13">
      <!-- 5.0 -->
      <g style="fill: #262626" transform="translate(85.096875 254.899219) scale(0.1 -0.1)">
       <use xlink:href="#DejaVuSans-35"/>
       <use xlink:href="#DejaVuSans-2e" x="63.623047"/>
       <use xlink:href="#DejaVuSans-30" x="95.410156"/>
      </g>
     </g>
    </g>
    <g id="ytick_4">
     <g id="text_14">
      <!-- 7.5 -->
      <g style="fill: #262626" transform="translate(85.096875 220.249219) scale(0.1 -0.1)">
       <use xlink:href="#DejaVuSans-37"/>
       <use xlink:href="#DejaVuSans-2e" x="63.623047"/>
       <use xlink:href="#DejaVuSans-35" x="95.410156"/>
      </g>
     </g>
    </g>
    <g id="ytick_5">
     <g id="text_15">
      <!-- 10.0 -->
      <g style="fill: #262626" transform="translate(78.734375 185.599219) scale(0.1 -0.1)">
       <use xlink:href="#DejaVuSans-31"/>
       <use xlink:href="#DejaVuSans-30" x="63.623047"/>
       <use xlink:href="#DejaVuSans-2e" x="127.246094"/>
       <use xlink:href="#DejaVuSans-30" x="159.033203"/>
      </g>
     </g>
    </g>
    <g id="ytick_6">
     <g id="text_16">
      <!-- 12.5 -->
      <g style="fill: #262626" transform="translate(78.734375 150.949219) scale(0.1 -0.1)">
       <use xlink:href="#DejaVuSans-31"/>
       <use xlink:href="#DejaVuSans-32" x="63.623047"/>
       <use xlink:href="#DejaVuSans-2e" x="127.246094"/>
       <use xlink:href="#DejaVuSans-35" x="159.033203"/>
      </g>
     </g>
    </g>
    <g id="ytick_7">
     <g id="text_17">
      <!-- 15.0 -->
      <g style="fill: #262626" transform="translate(78.734375 116.299219) scale(0.1 -0.1)">
       <use xlink:href="#DejaVuSans-31"/>
       <use xlink:href="#DejaVuSans-35" x="63.623047"/>
       <use xlink:href="#DejaVuSans-2e" x="127.246094"/>
       <use xlink:href="#DejaVuSans-30" x="159.033203"/>
      </g>
     </g>
    </g>
    <g id="ytick_8">
     <g id="text_18">
      <!-- 17.5 -->
      <g style="fill: #262626" transform="translate(78.734375 81.649219) scale(0.1 -0.1)">
       <use xlink:href="#DejaVuSans-31"/>
       <use xlink:href="#DejaVuSans-37" x="63.623047"/>
       <use xlink:href="#DejaVuSans-2e" x="127.246094"/>
       <use xlink:href="#DejaVuSans-35" x="159.033203"/>
      </g>
     </g>
    </g>
    <g id="ytick_9">
     <g id="text_19">
      <!-- 20.0 -->
      <g style="fill: #262626" transform="translate(78.734375 46.999219) scale(0.1 -0.1)">
       <use xlink:href="#DejaVuSans-32"/>
       <use xlink:href="#DejaVuSans-30" x="63.623047"/>
       <use xlink:href="#DejaVuSans-2e" x="127.246094"/>
       <use xlink:href="#DejaVuSans-30" x="159.033203"/>
      </g>
     </g>
    </g>
    <g id="text_20">
     <!-- RMSE -->
     <g style="fill: #262626" transform="translate(72.654687 195.921875) rotate(-90) scale(0.1 -0.1)">
      <defs>
       <path id="DejaVuSans-52" d="M 2841 2188 
Q 3044 2119 3236 1894 
Q 3428 1669 3622 1275 
L 4263 0 
L 3584 0 
L 2988 1197 
Q 2756 1666 2539 1819 
Q 2322 1972 1947 1972 
L 1259 1972 
L 1259 0 
L 628 0 
L 628 4666 
L 2053 4666 
Q 2853 4666 3247 4331 
Q 3641 3997 3641 3322 
Q 3641 2881 3436 2590 
Q 3231 2300 2841 2188 
z
M 1259 4147 
L 1259 2491 
L 2053 2491 
Q 2509 2491 2742 2702 
Q 2975 2913 2975 3322 
Q 2975 3731 2742 3939 
Q 2509 4147 2053 4147 
L 1259 4147 
z
" transform="scale(0.015625)"/>
       <path id="DejaVuSans-4d" d="M 628 4666 
L 1569 4666 
L 2759 1491 
L 3956 4666 
L 4897 4666 
L 4897 0 
L 4281 0 
L 4281 4097 
L 3078 897 
L 2444 897 
L 1241 4097 
L 1241 0 
L 628 0 
L 628 4666 
z
" transform="scale(0.015625)"/>
       <path id="DejaVuSans-53" d="M 3425 4513 
L 3425 3897 
Q 3066 4069 2747 4153 
Q 2428 4238 2131 4238 
Q 1616 4238 1336 4038 
Q 1056 3838 1056 3469 
Q 1056 3159 1242 3001 
Q 1428 2844 1947 2747 
L 2328 2669 
Q 3034 2534 3370 2195 
Q 3706 1856 3706 1288 
Q 3706 609 3251 259 
Q 2797 -91 1919 -91 
Q 1588 -91 1214 -16 
Q 841 59 441 206 
L 441 856 
Q 825 641 1194 531 
Q 1563 422 1919 422 
Q 2459 422 2753 634 
Q 3047 847 3047 1241 
Q 3047 1584 2836 1778 
Q 2625 1972 2144 2069 
L 1759 2144 
Q 1053 2284 737 2584 
Q 422 2884 422 3419 
Q 422 4038 858 4394 
Q 1294 4750 2059 4750 
Q 2388 4750 2728 4690 
Q 3069 4631 3425 4513 
z
" transform="scale(0.015625)"/>
       <path id="DejaVuSans-45" d="M 628 4666 
L 3578 4666 
L 3578 4134 
L 1259 4134 
L 1259 2753 
L 3481 2753 
L 3481 2222 
L 1259 2222 
L 1259 531 
L 3634 531 
L 3634 0 
L 628 0 
L 628 4666 
z
" transform="scale(0.015625)"/>
      </defs>
      <use xlink:href="#DejaVuSans-52"/>
      <use xlink:href="#DejaVuSans-4d" x="69.482422"/>
      <use xlink:href="#DejaVuSans-53" x="155.761719"/>
      <use xlink:href="#DejaVuSans-45" x="219.238281"/>
     </g>
    </g>
   </g>
   <g id="PolyCollection_1">
    <defs>
     <path id="m04e542d5f4" d="M 121.834711 -48.825975 
L 121.834711 -47.758633 
L 141.598583 -49.158192 
L 161.362456 -50.185696 
L 181.126328 -50.990735 
L 200.890201 -51.134266 
L 220.654073 -51.668074 
L 240.417946 -51.662538 
L 260.181818 -51.9659 
L 279.945691 -52.152946 
L 299.709563 -53.397848 
L 319.473436 -52.662827 
L 339.237308 -51.904236 
L 359.001181 -52.026556 
L 398.528926 -43.676222 
L 398.528926 -81.174873 
L 398.528926 -81.174873 
L 359.001181 -67.051222 
L 339.237308 -65.277278 
L 319.473436 -60.635206 
L 299.709563 -59.351758 
L 279.945691 -56.564341 
L 260.181818 -54.377886 
L 240.417946 -53.55379 
L 220.654073 -53.219222 
L 200.890201 -52.124422 
L 181.126328 -51.944689 
L 161.362456 -50.880191 
L 141.598583 -49.856847 
L 121.834711 -48.825975 
z
" style="stroke: #4169e1; stroke-opacity: 0.2"/>
    </defs>
    <g clip-path="url(#p2e2e6b01b1)">
     <use xlink:href="#m04e542d5f4" x="0" y="360" style="fill: #4169e1; fill-opacity: 0.2; stroke: #4169e1; stroke-opacity: 0.2"/>
    </g>
   </g>
   <g id="PolyCollection_2">
    <defs>
     <path id="m03b6c16fb5" d="M 121.834711 -51.884042 
L 121.834711 -49.305938 
L 141.598583 -52.298392 
L 161.362456 -53.981867 
L 181.126328 -53.783995 
L 200.890201 -53.43353 
L 220.654073 -52.905577 
L 240.417946 -52.761119 
L 260.181818 -53.165098 
L 279.945691 -52.920511 
L 299.709563 -52.84968 
L 319.473436 -49.709019 
L 339.237308 -45.583413 
L 359.001181 -47.542554 
L 359.001181 -83.888489 
L 359.001181 -83.888489 
L 339.237308 -67.815783 
L 319.473436 -64.673483 
L 299.709563 -65.722254 
L 279.945691 -68.773219 
L 260.181818 -60.725853 
L 240.417946 -58.269815 
L 220.654073 -56.859914 
L 200.890201 -56.431707 
L 181.126328 -56.336945 
L 161.362456 -56.084502 
L 141.598583 -54.235512 
L 121.834711 -51.884042 
z
" style="stroke: #00008b; stroke-opacity: 0.2"/>
    </defs>
    <g clip-path="url(#p2e2e6b01b1)">
     <use xlink:href="#m03b6c16fb5" x="0" y="360" style="fill: #00008b; fill-opacity: 0.2; stroke: #00008b; stroke-opacity: 0.2"/>
    </g>
   </g>
   <g id="PolyCollection_3">
    <defs>
     <path id="mda222c4293" d="M 121.834711 -55.809085 
L 121.834711 -54.274771 
L 141.598583 -57.694043 
L 161.362456 -60.170925 
L 181.126328 -59.491556 
L 200.890201 -58.874116 
L 220.654073 -57.801208 
L 240.417946 -58.459721 
L 260.181818 -58.74987 
L 279.945691 -57.351512 
L 299.709563 -59.641567 
L 319.473436 -58.651947 
L 339.237308 -56.817074 
L 359.001181 -60.263481 
L 398.528926 -41.29256 
L 398.528926 -140.251159 
L 398.528926 -140.251159 
L 359.001181 -85.632891 
L 339.237308 -74.959343 
L 319.473436 -73.461529 
L 299.709563 -67.74368 
L 279.945691 -63.600679 
L 260.181818 -63.099407 
L 240.417946 -61.581379 
L 220.654073 -60.159106 
L 200.890201 -60.964304 
L 181.126328 -61.118166 
L 161.362456 -61.757832 
L 141.598583 -59.15731 
L 121.834711 -55.809085 
z
" style="stroke: #800080; stroke-opacity: 0.2"/>
    </defs>
    <g clip-path="url(#p2e2e6b01b1)">
     <use xlink:href="#mda222c4293" x="0" y="360" style="fill: #800080; fill-opacity: 0.2; stroke: #800080; stroke-opacity: 0.2"/>
    </g>
   </g>
   <g id="PolyCollection_4">
    <defs>
     <path id="m00a4921b19" d="M 121.834711 -57.661263 
L 121.834711 -53.062108 
L 141.598583 -56.729606 
L 161.362456 -58.288677 
L 181.126328 -57.229954 
L 200.890201 -56.623703 
L 220.654073 -57.922199 
L 240.417946 -55.133347 
L 260.181818 -56.218001 
L 279.945691 -54.478537 
L 299.709563 -49.62967 
L 319.473436 -51.73117 
L 339.237308 -57.571224 
L 359.001181 -50.63446 
L 398.528926 -40.948261 
L 398.528926 -57.933746 
L 398.528926 -57.933746 
L 359.001181 -104.325401 
L 339.237308 -109.094365 
L 319.473436 -91.93454 
L 299.709563 -64.066546 
L 279.945691 -69.683591 
L 260.181818 -64.970384 
L 240.417946 -61.902803 
L 220.654073 -64.172726 
L 200.890201 -60.650147 
L 181.126328 -60.809533 
L 161.362456 -61.503065 
L 141.598583 -59.675781 
L 121.834711 -57.661263 
z
" style="stroke: #ff1493; stroke-opacity: 0.2"/>
    </defs>
    <g clip-path="url(#p2e2e6b01b1)">
     <use xlink:href="#m00a4921b19" x="0" y="360" style="fill: #ff1493; fill-opacity: 0.2; stroke: #ff1493; stroke-opacity: 0.2"/>
    </g>
   </g>
   <g id="PolyCollection_5">
    <defs>
     <path id="m7e16c210ab" d="M 121.834711 -66.370862 
L 121.834711 -44.591062 
L 141.598583 -47.756619 
L 161.362456 -49.429193 
L 181.126328 -48.913272 
L 200.890201 -49.42404 
L 220.654073 -42.769284 
L 240.417946 -40.853885 
L 240.417946 -113.057783 
L 240.417946 -113.057783 
L 220.654073 -69.389317 
L 200.890201 -76.471247 
L 181.126328 -89.380135 
L 161.362456 -74.976757 
L 141.598583 -64.346867 
L 121.834711 -66.370862 
z
" style="stroke: #dc143c; stroke-opacity: 0.2"/>
    </defs>
    <g clip-path="url(#p2e2e6b01b1)">
     <use xlink:href="#m7e16c210ab" x="0" y="360" style="fill: #dc143c; fill-opacity: 0.2; stroke: #dc143c; stroke-opacity: 0.2"/>
    </g>
   </g>
   <g id="PolyCollection_6">
    <defs>
     <path id="mb420155ef2" d="M 121.834711 -58.212833 
L 121.834711 -56.173601 
L 141.598583 -60.437608 
L 161.362456 -63.286435 
L 181.126328 -62.555804 
L 200.890201 -61.323779 
L 220.654073 -61.151246 
L 240.417946 -60.946465 
L 260.181818 -60.06949 
L 279.945691 -60.631215 
L 299.709563 -62.074655 
L 319.473436 -63.121733 
L 339.237308 -58.946095 
L 359.001181 -54.642293 
L 398.528926 -42.92349 
L 398.528926 -154.443022 
L 398.528926 -154.443022 
L 359.001181 -86.19962 
L 339.237308 -77.382495 
L 319.473436 -82.530277 
L 299.709563 -70.737932 
L 279.945691 -68.805085 
L 260.181818 -64.809588 
L 240.417946 -65.154199 
L 220.654073 -64.233591 
L 200.890201 -63.796096 
L 181.126328 -64.731771 
L 161.362456 -65.086374 
L 141.598583 -62.195302 
L 121.834711 -58.212833 
z
" style="stroke: #808080; stroke-opacity: 0.2"/>
    </defs>
    <g clip-path="url(#p2e2e6b01b1)">
     <use xlink:href="#mb420155ef2" x="0" y="360" style="fill: #808080; fill-opacity: 0.2; stroke: #808080; stroke-opacity: 0.2"/>
    </g>
   </g>
   <g id="line2d_1">
    <path d="M 121.834711 311.728402 
L 141.598583 310.482486 
L 161.362456 309.461259 
L 181.126328 308.557085 
L 200.890201 308.370975 
L 220.654073 307.577355 
L 240.417946 307.419409 
L 260.181818 306.845549 
L 279.945691 305.831256 
L 299.709563 303.844044 
L 319.473436 303.611902 
L 339.237308 302.119066 
L 359.001181 300.764691 
L 398.528926 301.517467 
" clip-path="url(#p2e2e6b01b1)" style="fill: none; stroke: #4169e1; stroke-width: 1.5; stroke-linecap: round"/>
   </g>
   <g id="line2d_2">
    <path d="M 121.834711 309.411731 
L 141.598583 306.799287 
L 161.362456 304.986842 
L 181.126328 304.915653 
L 200.890201 305.136149 
L 220.654073 305.248187 
L 240.417946 304.428728 
L 260.181818 303.459111 
L 279.945691 300.400738 
L 299.709563 301.505045 
L 319.473436 303.097902 
L 339.237308 305.872079 
L 359.001181 297.179422 
" clip-path="url(#p2e2e6b01b1)" style="fill: none; stroke: #00008b; stroke-width: 1.5; stroke-linecap: round"/>
   </g>
   <g id="line2d_3">
    <path d="M 121.834711 304.956382 
L 141.598583 301.58017 
L 161.362456 299.072813 
L 181.126328 299.685885 
L 200.890201 300.105382 
L 220.654073 300.994134 
L 240.417946 299.978428 
L 260.181818 299.194325 
L 279.945691 299.674267 
L 299.709563 296.225201 
L 319.473436 294.252174 
L 339.237308 294.236597 
L 359.001181 287.373095 
L 398.528926 284.041424 
" clip-path="url(#p2e2e6b01b1)" style="fill: none; stroke: #800080; stroke-width: 1.5; stroke-linecap: round"/>
   </g>
   <g id="line2d_4">
    <path d="M 121.834711 304.816626 
L 141.598583 301.836914 
L 161.362456 300.139162 
L 181.126328 300.969054 
L 200.890201 301.409681 
L 220.654073 299.058296 
L 240.417946 301.499342 
L 260.181818 299.254839 
L 279.945691 297.962988 
L 299.709563 303.442305 
L 319.473436 290.502292 
L 339.237308 278.291721 
L 359.001181 285.9297 
L 398.528926 311.14818 
" clip-path="url(#p2e2e6b01b1)" style="fill: none; stroke: #ff1493; stroke-width: 1.5; stroke-linecap: round"/>
   </g>
   <g id="line2d_5">
    <path d="M 121.834711 305.835896 
L 141.598583 304.800506 
L 161.362456 299.709029 
L 181.126328 291.655453 
L 200.890201 298.036526 
L 220.654073 304.396075 
L 240.417946 294.67705 
" clip-path="url(#p2e2e6b01b1)" style="fill: none; stroke: #dc143c; stroke-width: 1.5; stroke-linecap: round"/>
   </g>
   <g id="line2d_6">
    <path d="M 121.834711 302.789185 
L 141.598583 298.675139 
L 161.362456 295.792623 
L 181.126328 296.346723 
L 200.890201 297.42657 
L 220.654073 297.286973 
L 240.417946 297.032586 
L 260.181818 297.577022 
L 279.945691 295.136831 
L 299.709563 293.88516 
L 319.473436 287.669524 
L 339.237308 292.45893 
L 359.001181 290.211867 
L 398.528926 263.987782 
" clip-path="url(#p2e2e6b01b1)" style="fill: none; stroke: #808080; stroke-width: 1.5; stroke-linecap: round"/>
   </g>
   <g id="line2d_7"/>
   <g id="line2d_8"/>
   <g id="line2d_9"/>
   <g id="line2d_10"/>
   <g id="line2d_11"/>
   <g id="line2d_12"/>
   <g id="patch_3">
    <path d="M 108 320.4 
L 108 43.2 
" style="fill: none; stroke: #262626; stroke-width: 0.8; stroke-linejoin: miter; stroke-linecap: square"/>
   </g>
   <g id="patch_4">
    <path d="M 412.363636 320.4 
L 412.363636 43.2 
" style="fill: none; stroke: #262626; stroke-width: 0.8; stroke-linejoin: miter; stroke-linecap: square"/>
   </g>
   <g id="patch_5">
    <path d="M 108 320.4 
L 412.363636 320.4 
" style="fill: none; stroke: #262626; stroke-width: 0.8; stroke-linejoin: miter; stroke-linecap: square"/>
   </g>
   <g id="patch_6">
    <path d="M 108 43.2 
L 412.363636 43.2 
" style="fill: none; stroke: #262626; stroke-width: 0.8; stroke-linejoin: miter; stroke-linecap: square"/>
   </g>
   <g id="text_21">
    <!-- length_hole in [0, 30] -->
    <g style="fill: #262626" transform="translate(195.993068 37.2) scale(0.12 -0.12)">
     <defs>
      <path id="DejaVuSans-6c" d="M 603 4863 
L 1178 4863 
L 1178 0 
L 603 0 
L 603 4863 
z
" transform="scale(0.015625)"/>
      <path id="DejaVuSans-67" d="M 2906 1791 
Q 2906 2416 2648 2759 
Q 2391 3103 1925 3103 
Q 1463 3103 1205 2759 
Q 947 2416 947 1791 
Q 947 1169 1205 825 
Q 1463 481 1925 481 
Q 2391 481 2648 825 
Q 2906 1169 2906 1791 
z
M 3481 434 
Q 3481 -459 3084 -895 
Q 2688 -1331 1869 -1331 
Q 1566 -1331 1297 -1286 
Q 1028 -1241 775 -1147 
L 775 -588 
Q 1028 -725 1275 -790 
Q 1522 -856 1778 -856 
Q 2344 -856 2625 -561 
Q 2906 -266 2906 331 
L 2906 616 
Q 2728 306 2450 153 
Q 2172 0 1784 0 
Q 1141 0 747 490 
Q 353 981 353 1791 
Q 353 2603 747 3093 
Q 1141 3584 1784 3584 
Q 2172 3584 2450 3431 
Q 2728 3278 2906 2969 
L 2906 3500 
L 3481 3500 
L 3481 434 
z
" transform="scale(0.015625)"/>
      <path id="DejaVuSans-6f" d="M 1959 3097 
Q 1497 3097 1228 2736 
Q 959 2375 959 1747 
Q 959 1119 1226 758 
Q 1494 397 1959 397 
Q 2419 397 2687 759 
Q 2956 1122 2956 1747 
Q 2956 2369 2687 2733 
Q 2419 3097 1959 3097 
z
M 1959 3584 
Q 2709 3584 3137 3096 
Q 3566 2609 3566 1747 
Q 3566 888 3137 398 
Q 2709 -91 1959 -91 
Q 1206 -91 779 398 
Q 353 888 353 1747 
Q 353 2609 779 3096 
Q 1206 3584 1959 3584 
z
" transform="scale(0.015625)"/>
      <path id="DejaVuSans-20" transform="scale(0.015625)"/>
      <path id="DejaVuSans-5b" d="M 550 4863 
L 1875 4863 
L 1875 4416 
L 1125 4416 
L 1125 -397 
L 1875 -397 
L 1875 -844 
L 550 -844 
L 550 4863 
z
" transform="scale(0.015625)"/>
      <path id="DejaVuSans-2c" d="M 750 794 
L 1409 794 
L 1409 256 
L 897 -744 
L 494 -744 
L 750 256 
L 750 794 
z
" transform="scale(0.015625)"/>
      <path id="DejaVuSans-5d" d="M 1947 4863 
L 1947 -844 
L 622 -844 
L 622 -397 
L 1369 -397 
L 1369 4416 
L 622 4416 
L 622 4863 
L 1947 4863 
z
" transform="scale(0.015625)"/>
     </defs>
     <use xlink:href="#DejaVuSans-6c"/>
     <use xlink:href="#DejaVuSans-65" x="27.783203"/>
     <use xlink:href="#DejaVuSans-6e" x="89.306641"/>
     <use xlink:href="#DejaVuSans-67" x="152.685547"/>
     <use xlink:href="#DejaVuSans-74" x="216.162109"/>
     <use xlink:href="#DejaVuSans-68" x="255.371094"/>
     <use xlink:href="#DejaVuSans-5f" x="318.75"/>
     <use xlink:href="#DejaVuSans-68" x="368.75"/>
     <use xlink:href="#DejaVuSans-6f" x="432.128906"/>
     <use xlink:href="#DejaVuSans-6c" x="493.310547"/>
     <use xlink:href="#DejaVuSans-65" x="521.09375"/>
     <use xlink:href="#DejaVuSans-20" x="582.617188"/>
     <use xlink:href="#DejaVuSans-69" x="614.404297"/>
     <use xlink:href="#DejaVuSans-6e" x="642.1875"/>
     <use xlink:href="#DejaVuSans-20" x="705.566406"/>
     <use xlink:href="#DejaVuSans-5b" x="737.353516"/>
     <use xlink:href="#DejaVuSans-30" x="776.367188"/>
     <use xlink:href="#DejaVuSans-2c" x="839.990234"/>
     <use xlink:href="#DejaVuSans-20" x="871.777344"/>
     <use xlink:href="#DejaVuSans-33" x="903.564453"/>
     <use xlink:href="#DejaVuSans-30" x="967.1875"/>
     <use xlink:href="#DejaVuSans-5d" x="1030.810547"/>
    </g>
   </g>
   <g id="legend_1">
    <g id="patch_7">
     <path d="M 318.869886 154.225 
L 405.363636 154.225 
Q 407.363636 154.225 407.363636 152.225 
L 407.363636 50.2 
Q 407.363636 48.2 405.363636 48.2 
L 318.869886 48.2 
Q 316.869886 48.2 316.869886 50.2 
L 316.869886 152.225 
Q 316.869886 154.225 318.869886 154.225 
z
" style="fill: #ffffff; opacity: 0.8; stroke: #cccccc; stroke-linejoin: miter"/>
    </g>
    <g id="text_22">
     <!-- missing_scheme -->
     <g style="fill: #262626" transform="translate(320.869886 59.798437) scale(0.1 -0.1)">
      <defs>
       <path id="DejaVuSans-6d" d="M 3328 2828 
Q 3544 3216 3844 3400 
Q 4144 3584 4550 3584 
Q 5097 3584 5394 3201 
Q 5691 2819 5691 2113 
L 5691 0 
L 5113 0 
L 5113 2094 
Q 5113 2597 4934 2840 
Q 4756 3084 4391 3084 
Q 3944 3084 3684 2787 
Q 3425 2491 3425 1978 
L 3425 0 
L 2847 0 
L 2847 2094 
Q 2847 2600 2669 2842 
Q 2491 3084 2119 3084 
Q 1678 3084 1418 2786 
Q 1159 2488 1159 1978 
L 1159 0 
L 581 0 
L 581 3500 
L 1159 3500 
L 1159 2956 
Q 1356 3278 1631 3431 
Q 1906 3584 2284 3584 
Q 2666 3584 2933 3390 
Q 3200 3197 3328 2828 
z
" transform="scale(0.015625)"/>
       <path id="DejaVuSans-63" d="M 3122 3366 
L 3122 2828 
Q 2878 2963 2633 3030 
Q 2388 3097 2138 3097 
Q 1578 3097 1268 2742 
Q 959 2388 959 1747 
Q 959 1106 1268 751 
Q 1578 397 2138 397 
Q 2388 397 2633 464 
Q 2878 531 3122 666 
L 3122 134 
Q 2881 22 2623 -34 
Q 2366 -91 2075 -91 
Q 1284 -91 818 406 
Q 353 903 353 1747 
Q 353 2603 823 3093 
Q 1294 3584 2113 3584 
Q 2378 3584 2631 3529 
Q 2884 3475 3122 3366 
z
" transform="scale(0.015625)"/>
      </defs>
      <use xlink:href="#DejaVuSans-6d"/>
      <use xlink:href="#DejaVuSans-69" x="97.412109"/>
      <use xlink:href="#DejaVuSans-73" x="125.195312"/>
      <use xlink:href="#DejaVuSans-73" x="177.294922"/>
      <use xlink:href="#DejaVuSans-69" x="229.394531"/>
      <use xlink:href="#DejaVuSans-6e" x="257.177734"/>
      <use xlink:href="#DejaVuSans-67" x="320.556641"/>
      <use xlink:href="#DejaVuSans-5f" x="384.033203"/>
      <use xlink:href="#DejaVuSans-73" x="434.033203"/>
      <use xlink:href="#DejaVuSans-63" x="486.132812"/>
      <use xlink:href="#DejaVuSans-68" x="541.113281"/>
      <use xlink:href="#DejaVuSans-65" x="604.492188"/>
      <use xlink:href="#DejaVuSans-6d" x="666.015625"/>
      <use xlink:href="#DejaVuSans-65" x="763.427734"/>
     </g>
    </g>
    <g id="line2d_13">
     <path d="M 334.386293 71.254687 
L 344.386293 71.254687 
L 354.386293 71.254687 
" style="fill: none; stroke: #4169e1; stroke-width: 1.5; stroke-linecap: round"/>
    </g>
    <g id="text_23">
     <!-- 1 -->
     <g style="fill: #262626" transform="translate(362.386293 74.754687) scale(0.1 -0.1)">
      <use xlink:href="#DejaVuSans-31"/>
     </g>
    </g>
    <g id="line2d_14">
     <path d="M 334.386293 85.932813 
L 344.386293 85.932813 
L 354.386293 85.932813 
" style="fill: none; stroke: #00008b; stroke-width: 1.5; stroke-linecap: round"/>
    </g>
    <g id="text_24">
     <!-- 1 + 1 -->
     <g style="fill: #262626" transform="translate(362.386293 89.432813) scale(0.1 -0.1)">
      <defs>
       <path id="DejaVuSans-2b" d="M 2944 4013 
L 2944 2272 
L 4684 2272 
L 4684 1741 
L 2944 1741 
L 2944 0 
L 2419 0 
L 2419 1741 
L 678 1741 
L 678 2272 
L 2419 2272 
L 2419 4013 
L 2944 4013 
z
" transform="scale(0.015625)"/>
      </defs>
      <use xlink:href="#DejaVuSans-31"/>
      <use xlink:href="#DejaVuSans-20" x="63.623047"/>
      <use xlink:href="#DejaVuSans-2b" x="95.410156"/>
      <use xlink:href="#DejaVuSans-20" x="179.199219"/>
      <use xlink:href="#DejaVuSans-31" x="210.986328"/>
     </g>
    </g>
    <g id="line2d_15">
     <path d="M 334.386293 100.610937 
L 344.386293 100.610937 
L 354.386293 100.610937 
" style="fill: none; stroke: #800080; stroke-width: 1.5; stroke-linecap: round"/>
    </g>
    <g id="text_25">
     <!-- 3 -->
     <g style="fill: #262626" transform="translate(362.386293 104.110937) scale(0.1 -0.1)">
      <use xlink:href="#DejaVuSans-33"/>
     </g>
    </g>
    <g id="line2d_16">
     <path d="M 334.386293 115.289062 
L 344.386293 115.289062 
L 354.386293 115.289062 
" style="fill: none; stroke: #ff1493; stroke-width: 1.5; stroke-linecap: round"/>
    </g>
    <g id="text_26">
     <!-- 3 + 1 -->
     <g style="fill: #262626" transform="translate(362.386293 118.789062) scale(0.1 -0.1)">
      <use xlink:href="#DejaVuSans-33"/>
      <use xlink:href="#DejaVuSans-20" x="63.623047"/>
      <use xlink:href="#DejaVuSans-2b" x="95.410156"/>
      <use xlink:href="#DejaVuSans-20" x="179.199219"/>
      <use xlink:href="#DejaVuSans-31" x="210.986328"/>
     </g>
    </g>
    <g id="line2d_17">
     <path d="M 334.386293 129.967187 
L 344.386293 129.967187 
L 354.386293 129.967187 
" style="fill: none; stroke: #dc143c; stroke-width: 1.5; stroke-linecap: round"/>
    </g>
    <g id="text_27">
     <!-- 3 + 2 -->
     <g style="fill: #262626" transform="translate(362.386293 133.467187) scale(0.1 -0.1)">
      <use xlink:href="#DejaVuSans-33"/>
      <use xlink:href="#DejaVuSans-20" x="63.623047"/>
      <use xlink:href="#DejaVuSans-2b" x="95.410156"/>
      <use xlink:href="#DejaVuSans-20" x="179.199219"/>
      <use xlink:href="#DejaVuSans-32" x="210.986328"/>
     </g>
    </g>
    <g id="line2d_18">
     <path d="M 334.386293 144.645312 
L 344.386293 144.645312 
L 354.386293 144.645312 
" style="fill: none; stroke: #808080; stroke-width: 1.5; stroke-linecap: round"/>
    </g>
    <g id="text_28">
     <!-- 3 + 3 -->
     <g style="fill: #262626" transform="translate(362.386293 148.145312) scale(0.1 -0.1)">
      <use xlink:href="#DejaVuSans-33"/>
      <use xlink:href="#DejaVuSans-20" x="63.623047"/>
      <use xlink:href="#DejaVuSans-2b" x="95.410156"/>
      <use xlink:href="#DejaVuSans-20" x="179.199219"/>
      <use xlink:href="#DejaVuSans-33" x="210.986328"/>
     </g>
    </g>
   </g>
  </g>
  <g id="axes_2">
   <g id="patch_8">
    <path d="M 473.236364 320.4 
L 777.6 320.4 
L 777.6 43.2 
L 473.236364 43.2 
z
" style="fill: #ffffff"/>
   </g>
   <g id="matplotlib.axis_3">
    <g id="xtick_10">
     <g id="text_29">
      <!-- 0 -->
      <g style="fill: #262626" transform="translate(474.007888 334.998438) scale(0.1 -0.1)">
       <use xlink:href="#DejaVuSans-30"/>
      </g>
     </g>
    </g>
    <g id="xtick_11">
     <g id="text_30">
      <!-- 1 -->
      <g style="fill: #262626" transform="translate(508.519329 334.998438) scale(0.1 -0.1)">
       <use xlink:href="#DejaVuSans-31"/>
      </g>
     </g>
    </g>
    <g id="xtick_12">
     <g id="text_31">
      <!-- 2 -->
      <g style="fill: #262626" transform="translate(543.03077 334.998438) scale(0.1 -0.1)">
       <use xlink:href="#DejaVuSans-32"/>
      </g>
     </g>
    </g>
    <g id="xtick_13">
     <g id="text_32">
      <!-- 3 -->
      <g style="fill: #262626" transform="translate(577.542211 334.998438) scale(0.1 -0.1)">
       <use xlink:href="#DejaVuSans-33"/>
      </g>
     </g>
    </g>
    <g id="xtick_14">
     <g id="text_33">
      <!-- 4 -->
      <g style="fill: #262626" transform="translate(612.053652 334.998438) scale(0.1 -0.1)">
       <use xlink:href="#DejaVuSans-34"/>
      </g>
     </g>
    </g>
    <g id="xtick_15">
     <g id="text_34">
      <!-- 5 -->
      <g style="fill: #262626" transform="translate(646.565092 334.998438) scale(0.1 -0.1)">
       <use xlink:href="#DejaVuSans-35"/>
      </g>
     </g>
    </g>
    <g id="xtick_16">
     <g id="text_35">
      <!-- 6 -->
      <g style="fill: #262626" transform="translate(681.076533 334.998438) scale(0.1 -0.1)">
       <use xlink:href="#DejaVuSans-36"/>
      </g>
     </g>
    </g>
    <g id="xtick_17">
     <g id="text_36">
      <!-- 7 -->
      <g style="fill: #262626" transform="translate(715.587974 334.998438) scale(0.1 -0.1)">
       <use xlink:href="#DejaVuSans-37"/>
      </g>
     </g>
    </g>
    <g id="xtick_18">
     <g id="text_37">
      <!-- 8 -->
      <g style="fill: #262626" transform="translate(750.099415 334.998438) scale(0.1 -0.1)">
       <use xlink:href="#DejaVuSans-38"/>
      </g>
     </g>
    </g>
    <g id="text_38">
     <!-- binned_dist_bw_fishes -->
     <g style="fill: #262626" transform="translate(569.771307 348.676562) scale(0.1 -0.1)">
      <use xlink:href="#DejaVuSans-62"/>
      <use xlink:href="#DejaVuSans-69" x="63.476562"/>
      <use xlink:href="#DejaVuSans-6e" x="91.259766"/>
      <use xlink:href="#DejaVuSans-6e" x="154.638672"/>
      <use xlink:href="#DejaVuSans-65" x="218.017578"/>
      <use xlink:href="#DejaVuSans-64" x="279.541016"/>
      <use xlink:href="#DejaVuSans-5f" x="343.017578"/>
      <use xlink:href="#DejaVuSans-64" x="393.017578"/>
      <use xlink:href="#DejaVuSans-69" x="456.494141"/>
      <use xlink:href="#DejaVuSans-73" x="484.277344"/>
      <use xlink:href="#DejaVuSans-74" x="536.376953"/>
      <use xlink:href="#DejaVuSans-5f" x="575.585938"/>
      <use xlink:href="#DejaVuSans-62" x="625.585938"/>
      <use xlink:href="#DejaVuSans-77" x="689.0625"/>
      <use xlink:href="#DejaVuSans-5f" x="770.849609"/>
      <use xlink:href="#DejaVuSans-66" x="820.849609"/>
      <use xlink:href="#DejaVuSans-69" x="856.054688"/>
      <use xlink:href="#DejaVuSans-73" x="883.837891"/>
      <use xlink:href="#DejaVuSans-68" x="935.9375"/>
      <use xlink:href="#DejaVuSans-65" x="999.316406"/>
      <use xlink:href="#DejaVuSans-73" x="1060.839844"/>
     </g>
    </g>
   </g>
   <g id="matplotlib.axis_4">
    <g id="ytick_10"/>
    <g id="ytick_11"/>
    <g id="ytick_12"/>
    <g id="ytick_13"/>
    <g id="ytick_14"/>
    <g id="ytick_15"/>
    <g id="ytick_16"/>
    <g id="ytick_17"/>
    <g id="ytick_18"/>
   </g>
   <g id="PolyCollection_7">
    <defs>
     <path id="m56f118bf78" d="M 487.071074 -100.842834 
L 487.071074 -61.222407 
L 506.834947 -67.492848 
L 526.598819 -75.83228 
L 546.362692 -63.474308 
L 566.126564 -86.453224 
L 585.890437 -61.515126 
L 605.654309 -56.625323 
L 625.418182 -55.830558 
L 645.182054 -53.507046 
L 684.709799 -50.026304 
L 684.709799 -100.645982 
L 684.709799 -100.645982 
L 645.182054 -88.927146 
L 625.418182 -90.38436 
L 605.654309 -162.104754 
L 585.890437 -122.659398 
L 566.126564 -164.532451 
L 546.362692 -89.457881 
L 526.598819 -125.239039 
L 506.834947 -88.070358 
L 487.071074 -100.842834 
z
" style="stroke: #4169e1; stroke-opacity: 0.2"/>
    </defs>
    <g clip-path="url(#p598f976c85)">
     <use xlink:href="#m56f118bf78" x="0" y="360" style="fill: #4169e1; fill-opacity: 0.2; stroke: #4169e1; stroke-opacity: 0.2"/>
    </g>
   </g>
   <g id="PolyCollection_8">
    <defs>
     <path id="mf907d00eb8" d="M 487.071074 -60.804117 
L 487.071074 -43.959149 
L 506.834947 -43.636976 
L 526.598819 -50.537574 
L 546.362692 -48.747057 
L 566.126564 -53.585489 
L 605.654309 -47.608493 
L 605.654309 -117.315675 
L 605.654309 -117.315675 
L 566.126564 -85.6629 
L 546.362692 -80.084883 
L 526.598819 -114.906166 
L 506.834947 -65.241787 
L 487.071074 -60.804117 
z
" style="stroke: #00008b; stroke-opacity: 0.2"/>
    </defs>
    <g clip-path="url(#p598f976c85)">
     <use xlink:href="#mf907d00eb8" x="0" y="360" style="fill: #00008b; fill-opacity: 0.2; stroke: #00008b; stroke-opacity: 0.2"/>
    </g>
   </g>
   <g id="PolyCollection_9">
    <path d="M 487.071074 270.295494 
L 487.071074 286.519704 
L 506.834947 264.317513 
L 526.598819 257.917689 
L 546.362692 255.826607 
L 566.126564 254.416503 
L 585.890437 250.698614 
L 605.654309 253.078928 
L 625.418182 278.948499 
L 645.182054 277.867512 
L 664.945927 296.514643 
L 684.709799 277.789049 
L 704.473672 257.43584 
L 724.237544 295.426481 
L 724.237544 247.462764 
L 724.237544 247.462764 
L 704.473672 -95.181928 
L 684.709799 118.459799 
L 664.945927 227.978638 
L 645.182054 174.723246 
L 625.418182 208.291014 
L 605.654309 177.884348 
L 585.890437 198.29264 
L 566.126564 215.089724 
L 546.362692 235.346432 
L 526.598819 237.648354 
L 506.834947 247.423335 
L 487.071074 270.295494 
z
" clip-path="url(#p598f976c85)" style="fill: #800080; fill-opacity: 0.2; stroke: #800080; stroke-opacity: 0.2"/>
   </g>
   <g id="PolyCollection_10">
    <defs>
     <path id="m6c7216e684" d="M 506.834947 -136.288162 
L 506.834947 -56.949079 
L 506.834947 -136.288162 
L 506.834947 -136.288162 
z
" style="stroke: #ff1493; stroke-opacity: 0.2"/>
    </defs>
    <g clip-path="url(#p598f976c85)">
     <use xlink:href="#m6c7216e684" x="0" y="360" style="fill: #ff1493; fill-opacity: 0.2; stroke: #ff1493; stroke-opacity: 0.2"/>
    </g>
   </g>
   <g id="PolyCollection_11">
    <defs>
     <path id="m5b5de7e970" d="M 487.071074 -73.586303 
L 487.071074 -64.296386 
L 506.834947 -73.786318 
L 526.598819 -81.910896 
L 546.362692 -82.553053 
L 566.126564 -78.391395 
L 585.890437 -80.239669 
L 605.654309 -75.750224 
L 625.418182 -77.10049 
L 645.182054 -72.601154 
L 664.945927 -83.013889 
L 684.709799 -72.211697 
L 724.237544 -69.563237 
L 724.237544 -120.247764 
L 724.237544 -120.247764 
L 684.709799 -137.972963 
L 664.945927 -172.9101 
L 645.182054 -120.868108 
L 625.418182 -101.478808 
L 605.654309 -100.547826 
L 585.890437 -101.044925 
L 566.126564 -95.342607 
L 546.362692 -95.902957 
L 526.598819 -91.888396 
L 506.834947 -83.089183 
L 487.071074 -73.586303 
z
" style="stroke: #808080; stroke-opacity: 0.2"/>
    </defs>
    <g clip-path="url(#p598f976c85)">
     <use xlink:href="#m5b5de7e970" x="0" y="360" style="fill: #808080; fill-opacity: 0.2; stroke: #808080; stroke-opacity: 0.2"/>
    </g>
   </g>
   <g id="line2d_19">
    <path d="M 487.071074 281.06711 
L 506.834947 283.02958 
L 526.598819 261.969832 
L 546.362692 284.129928 
L 566.126564 236.715474 
L 585.890437 275.316378 
L 605.654309 264.813556 
L 625.418182 289.895829 
L 645.182054 290.161497 
L 684.709799 290.336996 
" clip-path="url(#p598f976c85)" style="fill: none; stroke: #4169e1; stroke-width: 1.5; stroke-linecap: round"/>
   </g>
   <g id="line2d_20">
    <path d="M 487.071074 308.655201 
L 506.834947 308.063954 
L 526.598819 282.746737 
L 546.362692 297.520977 
L 566.126564 290.647836 
L 605.654309 283.055579 
" clip-path="url(#p598f976c85)" style="fill: none; stroke: #00008b; stroke-width: 1.5; stroke-linecap: round"/>
   </g>
   <g id="line2d_21">
    <path d="M 487.071074 278.50592 
L 506.834947 256.241489 
L 526.598819 247.756567 
L 546.362692 245.825822 
L 566.126564 235.713535 
L 585.890437 226.007147 
L 605.654309 217.197666 
L 625.418182 248.046981 
L 645.182054 234.344949 
L 664.945927 269.554319 
L 684.709799 208.776448 
L 704.473672 97.842133 
L 724.237544 271.813288 
" clip-path="url(#p598f976c85)" style="fill: none; stroke: #800080; stroke-width: 1.5; stroke-linecap: round"/>
   </g>
   <g id="line2d_22">
    <path d="M 506.834947 264.274023 
" clip-path="url(#p598f976c85)" style="fill: none; stroke: #ff1493; stroke-width: 1.5; stroke-linecap: round"/>
   </g>
   <g id="line2d_23">
    <path d="M 487.071074 291.108307 
L 506.834947 281.766919 
L 526.598819 273.303914 
L 546.362692 271.330397 
L 566.126564 273.977104 
L 585.890437 269.9199 
L 605.654309 273.599677 
L 625.418182 272.000463 
L 645.182054 266.568217 
L 664.945927 236.709688 
L 684.709799 258.436604 
L 724.237544 269.948897 
" clip-path="url(#p598f976c85)" style="fill: none; stroke: #808080; stroke-width: 1.5; stroke-linecap: round"/>
   </g>
   <g id="line2d_24"/>
   <g id="line2d_25"/>
   <g id="line2d_26"/>
   <g id="line2d_27"/>
   <g id="line2d_28"/>
   <g id="line2d_29"/>
   <g id="patch_9">
    <path d="M 473.236364 320.4 
L 473.236364 43.2 
" style="fill: none; stroke: #262626; stroke-width: 0.8; stroke-linejoin: miter; stroke-linecap: square"/>
   </g>
   <g id="patch_10">
    <path d="M 777.6 320.4 
L 777.6 43.2 
" style="fill: none; stroke: #262626; stroke-width: 0.8; stroke-linejoin: miter; stroke-linecap: square"/>
   </g>
   <g id="patch_11">
    <path d="M 473.236364 320.4 
L 777.6 320.4 
" style="fill: none; stroke: #262626; stroke-width: 0.8; stroke-linejoin: miter; stroke-linecap: square"/>
   </g>
   <g id="patch_12">
    <path d="M 473.236364 43.2 
L 777.6 43.2 
" style="fill: none; stroke: #262626; stroke-width: 0.8; stroke-linejoin: miter; stroke-linecap: square"/>
   </g>
   <g id="text_39">
    <!-- length_hole in [30, 60] -->
    <g style="fill: #262626" transform="translate(557.411932 37.2) scale(0.12 -0.12)">
     <use xlink:href="#DejaVuSans-6c"/>
     <use xlink:href="#DejaVuSans-65" x="27.783203"/>
     <use xlink:href="#DejaVuSans-6e" x="89.306641"/>
     <use xlink:href="#DejaVuSans-67" x="152.685547"/>
     <use xlink:href="#DejaVuSans-74" x="216.162109"/>
     <use xlink:href="#DejaVuSans-68" x="255.371094"/>
     <use xlink:href="#DejaVuSans-5f" x="318.75"/>
     <use xlink:href="#DejaVuSans-68" x="368.75"/>
     <use xlink:href="#DejaVuSans-6f" x="432.128906"/>
     <use xlink:href="#DejaVuSans-6c" x="493.310547"/>
     <use xlink:href="#DejaVuSans-65" x="521.09375"/>
     <use xlink:href="#DejaVuSans-20" x="582.617188"/>
     <use xlink:href="#DejaVuSans-69" x="614.404297"/>
     <use xlink:href="#DejaVuSans-6e" x="642.1875"/>
     <use xlink:href="#DejaVuSans-20" x="705.566406"/>
     <use xlink:href="#DejaVuSans-5b" x="737.353516"/>
     <use xlink:href="#DejaVuSans-33" x="776.367188"/>
     <use xlink:href="#DejaVuSans-30" x="839.990234"/>
     <use xlink:href="#DejaVuSans-2c" x="903.613281"/>
     <use xlink:href="#DejaVuSans-20" x="935.400391"/>
     <use xlink:href="#DejaVuSans-36" x="967.1875"/>
     <use xlink:href="#DejaVuSans-30" x="1030.810547"/>
     <use xlink:href="#DejaVuSans-5d" x="1094.433594"/>
    </g>
   </g>
   <g id="legend_2">
    <g id="patch_13">
     <path d="M 480.236364 154.225 
L 566.730114 154.225 
Q 568.730114 154.225 568.730114 152.225 
L 568.730114 50.2 
Q 568.730114 48.2 566.730114 48.2 
L 480.236364 48.2 
Q 478.236364 48.2 478.236364 50.2 
L 478.236364 152.225 
Q 478.236364 154.225 480.236364 154.225 
z
" style="fill: #ffffff; opacity: 0.8; stroke: #cccccc; stroke-linejoin: miter"/>
    </g>
    <g id="text_40">
     <!-- missing_scheme -->
     <g style="fill: #262626" transform="translate(482.236364 59.798437) scale(0.1 -0.1)">
      <use xlink:href="#DejaVuSans-6d"/>
      <use xlink:href="#DejaVuSans-69" x="97.412109"/>
      <use xlink:href="#DejaVuSans-73" x="125.195312"/>
      <use xlink:href="#DejaVuSans-73" x="177.294922"/>
      <use xlink:href="#DejaVuSans-69" x="229.394531"/>
      <use xlink:href="#DejaVuSans-6e" x="257.177734"/>
      <use xlink:href="#DejaVuSans-67" x="320.556641"/>
      <use xlink:href="#DejaVuSans-5f" x="384.033203"/>
      <use xlink:href="#DejaVuSans-73" x="434.033203"/>
      <use xlink:href="#DejaVuSans-63" x="486.132812"/>
      <use xlink:href="#DejaVuSans-68" x="541.113281"/>
      <use xlink:href="#DejaVuSans-65" x="604.492188"/>
      <use xlink:href="#DejaVuSans-6d" x="666.015625"/>
      <use xlink:href="#DejaVuSans-65" x="763.427734"/>
     </g>
    </g>
    <g id="line2d_30">
     <path d="M 495.75277 71.254687 
L 505.75277 71.254687 
L 515.75277 71.254687 
" style="fill: none; stroke: #4169e1; stroke-width: 1.5; stroke-linecap: round"/>
    </g>
    <g id="text_41">
     <!-- 1 -->
     <g style="fill: #262626" transform="translate(523.75277 74.754687) scale(0.1 -0.1)">
      <use xlink:href="#DejaVuSans-31"/>
     </g>
    </g>
    <g id="line2d_31">
     <path d="M 495.75277 85.932813 
L 505.75277 85.932813 
L 515.75277 85.932813 
" style="fill: none; stroke: #00008b; stroke-width: 1.5; stroke-linecap: round"/>
    </g>
    <g id="text_42">
     <!-- 1 + 1 -->
     <g style="fill: #262626" transform="translate(523.75277 89.432813) scale(0.1 -0.1)">
      <use xlink:href="#DejaVuSans-31"/>
      <use xlink:href="#DejaVuSans-20" x="63.623047"/>
      <use xlink:href="#DejaVuSans-2b" x="95.410156"/>
      <use xlink:href="#DejaVuSans-20" x="179.199219"/>
      <use xlink:href="#DejaVuSans-31" x="210.986328"/>
     </g>
    </g>
    <g id="line2d_32">
     <path d="M 495.75277 100.610937 
L 505.75277 100.610937 
L 515.75277 100.610937 
" style="fill: none; stroke: #800080; stroke-width: 1.5; stroke-linecap: round"/>
    </g>
    <g id="text_43">
     <!-- 3 -->
     <g style="fill: #262626" transform="translate(523.75277 104.110937) scale(0.1 -0.1)">
      <use xlink:href="#DejaVuSans-33"/>
     </g>
    </g>
    <g id="line2d_33">
     <path d="M 495.75277 115.289062 
L 505.75277 115.289062 
L 515.75277 115.289062 
" style="fill: none; stroke: #ff1493; stroke-width: 1.5; stroke-linecap: round"/>
    </g>
    <g id="text_44">
     <!-- 3 + 1 -->
     <g style="fill: #262626" transform="translate(523.75277 118.789062) scale(0.1 -0.1)">
      <use xlink:href="#DejaVuSans-33"/>
      <use xlink:href="#DejaVuSans-20" x="63.623047"/>
      <use xlink:href="#DejaVuSans-2b" x="95.410156"/>
      <use xlink:href="#DejaVuSans-20" x="179.199219"/>
      <use xlink:href="#DejaVuSans-31" x="210.986328"/>
     </g>
    </g>
    <g id="line2d_34">
     <path d="M 495.75277 129.967187 
L 505.75277 129.967187 
L 515.75277 129.967187 
" style="fill: none; stroke: #dc143c; stroke-width: 1.5; stroke-linecap: round"/>
    </g>
    <g id="text_45">
     <!-- 3 + 2 -->
     <g style="fill: #262626" transform="translate(523.75277 133.467187) scale(0.1 -0.1)">
      <use xlink:href="#DejaVuSans-33"/>
      <use xlink:href="#DejaVuSans-20" x="63.623047"/>
      <use xlink:href="#DejaVuSans-2b" x="95.410156"/>
      <use xlink:href="#DejaVuSans-20" x="179.199219"/>
      <use xlink:href="#DejaVuSans-32" x="210.986328"/>
     </g>
    </g>
    <g id="line2d_35">
     <path d="M 495.75277 144.645312 
L 505.75277 144.645312 
L 515.75277 144.645312 
" style="fill: none; stroke: #808080; stroke-width: 1.5; stroke-linecap: round"/>
    </g>
    <g id="text_46">
     <!-- 3 + 3 -->
     <g style="fill: #262626" transform="translate(523.75277 148.145312) scale(0.1 -0.1)">
      <use xlink:href="#DejaVuSans-33"/>
      <use xlink:href="#DejaVuSans-20" x="63.623047"/>
      <use xlink:href="#DejaVuSans-2b" x="95.410156"/>
      <use xlink:href="#DejaVuSans-20" x="179.199219"/>
      <use xlink:href="#DejaVuSans-33" x="210.986328"/>
     </g>
    </g>
   </g>
  </g>
 </g>
 <defs>
  <clipPath id="p2e2e6b01b1">
   <rect x="108" y="43.2" width="304.363636" height="277.2"/>
  </clipPath>
  <clipPath id="p598f976c85">
   <rect x="473.236364" y="43.2" width="304.363636" height="277.2"/>
  </clipPath>
 </defs>
</svg>
