<?xml version="1.0" encoding="utf-8" standalone="no"?>
<!DOCTYPE svg PUBLIC "-//W3C//DTD SVG 1.1//EN"
  "http://www.w3.org/Graphics/SVG/1.1/DTD/svg11.dtd">
<svg xmlns:xlink="http://www.w3.org/1999/xlink" width="864pt" height="360pt" viewBox="0 0 864 360" xmlns="http://www.w3.org/2000/svg" version="1.1">
 <metadata>
  <rdf:RDF xmlns:dc="http://purl.org/dc/elements/1.1/" xmlns:cc="http://creativecommons.org/ns#" xmlns:rdf="http://www.w3.org/1999/02/22-rdf-syntax-ns#">
   <cc:Work>
    <dc:type rdf:resource="http://purl.org/dc/dcmitype/StillImage"/>
    <dc:date>2025-06-30T15:52:01.540495</dc:date>
    <dc:format>image/svg+xml</dc:format>
    <dc:creator>
     <cc:Agent>
      <dc:title>Matplotlib v3.7.4, https://matplotlib.org/</dc:title>
     </cc:Agent>
    </dc:creator>
   </cc:Work>
  </rdf:RDF>
 </metadata>
 <defs>
  <style type="text/css">*{stroke-linejoin: round; stroke-linecap: butt}</style>
 </defs>
 <g id="figure_1">
  <g id="patch_1">
   <path d="M 0 360 
L 864 360 
L 864 0 
L 0 0 
z
" style="fill: #ffffff"/>
  </g>
  <g id="axes_1">
   <g id="patch_2">
    <path d="M 108 320.4 
L 412.363636 320.4 
L 412.363636 43.2 
L 108 43.2 
z
" style="fill: #ffffff"/>
   </g>
   <g id="matplotlib.axis_1">
    <g id="xtick_1">
     <g id="text_1">
      <!-- 0.0 -->
      <g style="fill: #262626" transform="translate(104.001212 334.998438) scale(0.1 -0.1)">
       <defs>
        <path id="DejaVuSans-30" d="M 2034 4250 
Q 1547 4250 1301 3770 
Q 1056 3291 1056 2328 
Q 1056 1369 1301 889 
Q 1547 409 2034 409 
Q 2525 409 2770 889 
Q 3016 1369 3016 2328 
Q 3016 3291 2770 3770 
Q 2525 4250 2034 4250 
z
M 2034 4750 
Q 2819 4750 3233 4129 
Q 3647 3509 3647 2328 
Q 3647 1150 3233 529 
Q 2819 -91 2034 -91 
Q 1250 -91 836 529 
Q 422 1150 422 2328 
Q 422 3509 836 4129 
Q 1250 4750 2034 4750 
z
" transform="scale(0.015625)"/>
        <path id="DejaVuSans-2e" d="M 684 794 
L 1344 794 
L 1344 0 
L 684 0 
L 684 794 
z
" transform="scale(0.015625)"/>
       </defs>
       <use xlink:href="#DejaVuSans-30"/>
       <use xlink:href="#DejaVuSans-2e" x="63.623047"/>
       <use xlink:href="#DejaVuSans-30" x="95.410156"/>
      </g>
     </g>
    </g>
    <g id="xtick_2">
     <g id="text_2">
      <!-- 0.2 -->
      <g style="fill: #262626" transform="translate(149.316844 334.998438) scale(0.1 -0.1)">
       <defs>
        <path id="DejaVuSans-32" d="M 1228 531 
L 3431 531 
L 3431 0 
L 469 0 
L 469 531 
Q 828 903 1448 1529 
Q 2069 2156 2228 2338 
Q 2531 2678 2651 2914 
Q 2772 3150 2772 3378 
Q 2772 3750 2511 3984 
Q 2250 4219 1831 4219 
Q 1534 4219 1204 4116 
Q 875 4013 500 3803 
L 500 4441 
Q 881 4594 1212 4672 
Q 1544 4750 1819 4750 
Q 2544 4750 2975 4387 
Q 3406 4025 3406 3419 
Q 3406 3131 3298 2873 
Q 3191 2616 2906 2266 
Q 2828 2175 2409 1742 
Q 1991 1309 1228 531 
z
" transform="scale(0.015625)"/>
       </defs>
       <use xlink:href="#DejaVuSans-30"/>
       <use xlink:href="#DejaVuSans-2e" x="63.623047"/>
       <use xlink:href="#DejaVuSans-32" x="95.410156"/>
      </g>
     </g>
    </g>
    <g id="xtick_3">
     <g id="text_3">
      <!-- 0.4 -->
      <g style="fill: #262626" transform="translate(194.632476 334.998438) scale(0.1 -0.1)">
       <defs>
        <path id="DejaVuSans-34" d="M 2419 4116 
L 825 1625 
L 2419 1625 
L 2419 4116 
z
M 2253 4666 
L 3047 4666 
L 3047 1625 
L 3713 1625 
L 3713 1100 
L 3047 1100 
L 3047 0 
L 2419 0 
L 2419 1100 
L 313 1100 
L 313 1709 
L 2253 4666 
z
" transform="scale(0.015625)"/>
       </defs>
       <use xlink:href="#DejaVuSans-30"/>
       <use xlink:href="#DejaVuSans-2e" x="63.623047"/>
       <use xlink:href="#DejaVuSans-34" x="95.410156"/>
      </g>
     </g>
    </g>
    <g id="xtick_4">
     <g id="text_4">
      <!-- 0.6 -->
      <g style="fill: #262626" transform="translate(239.948108 334.998438) scale(0.1 -0.1)">
       <defs>
        <path id="DejaVuSans-36" d="M 2113 2584 
Q 1688 2584 1439 2293 
Q 1191 2003 1191 1497 
Q 1191 994 1439 701 
Q 1688 409 2113 409 
Q 2538 409 2786 701 
Q 3034 994 3034 1497 
Q 3034 2003 2786 2293 
Q 2538 2584 2113 2584 
z
M 3366 4563 
L 3366 3988 
Q 3128 4100 2886 4159 
Q 2644 4219 2406 4219 
Q 1781 4219 1451 3797 
Q 1122 3375 1075 2522 
Q 1259 2794 1537 2939 
Q 1816 3084 2150 3084 
Q 2853 3084 3261 2657 
Q 3669 2231 3669 1497 
Q 3669 778 3244 343 
Q 2819 -91 2113 -91 
Q 1303 -91 875 529 
Q 447 1150 447 2328 
Q 447 3434 972 4092 
Q 1497 4750 2381 4750 
Q 2619 4750 2861 4703 
Q 3103 4656 3366 4563 
z
" transform="scale(0.015625)"/>
       </defs>
       <use xlink:href="#DejaVuSans-30"/>
       <use xlink:href="#DejaVuSans-2e" x="63.623047"/>
       <use xlink:href="#DejaVuSans-36" x="95.410156"/>
      </g>
     </g>
    </g>
    <g id="xtick_5">
     <g id="text_5">
      <!-- 0.8 -->
      <g style="fill: #262626" transform="translate(285.26374 334.998438) scale(0.1 -0.1)">
       <defs>
        <path id="DejaVuSans-38" d="M 2034 2216 
Q 1584 2216 1326 1975 
Q 1069 1734 1069 1313 
Q 1069 891 1326 650 
Q 1584 409 2034 409 
Q 2484 409 2743 651 
Q 3003 894 3003 1313 
Q 3003 1734 2745 1975 
Q 2488 2216 2034 2216 
z
M 1403 2484 
Q 997 2584 770 2862 
Q 544 3141 544 3541 
Q 544 4100 942 4425 
Q 1341 4750 2034 4750 
Q 2731 4750 3128 4425 
Q 3525 4100 3525 3541 
Q 3525 3141 3298 2862 
Q 3072 2584 2669 2484 
Q 3125 2378 3379 2068 
Q 3634 1759 3634 1313 
Q 3634 634 3220 271 
Q 2806 -91 2034 -91 
Q 1263 -91 848 271 
Q 434 634 434 1313 
Q 434 1759 690 2068 
Q 947 2378 1403 2484 
z
M 1172 3481 
Q 1172 3119 1398 2916 
Q 1625 2713 2034 2713 
Q 2441 2713 2670 2916 
Q 2900 3119 2900 3481 
Q 2900 3844 2670 4047 
Q 2441 4250 2034 4250 
Q 1625 4250 1398 4047 
Q 1172 3844 1172 3481 
z
" transform="scale(0.015625)"/>
       </defs>
       <use xlink:href="#DejaVuSans-30"/>
       <use xlink:href="#DejaVuSans-2e" x="63.623047"/>
       <use xlink:href="#DejaVuSans-38" x="95.410156"/>
      </g>
     </g>
    </g>
    <g id="xtick_6">
     <g id="text_6">
      <!-- 1.0 -->
      <g style="fill: #262626" transform="translate(330.579373 334.998438) scale(0.1 -0.1)">
       <defs>
        <path id="DejaVuSans-31" d="M 794 531 
L 1825 531 
L 1825 4091 
L 703 3866 
L 703 4441 
L 1819 4666 
L 2450 4666 
L 2450 531 
L 3481 531 
L 3481 0 
L 794 0 
L 794 531 
z
" transform="scale(0.015625)"/>
       </defs>
       <use xlink:href="#DejaVuSans-31"/>
       <use xlink:href="#DejaVuSans-2e" x="63.623047"/>
       <use xlink:href="#DejaVuSans-30" x="95.410156"/>
      </g>
     </g>
    </g>
    <g id="xtick_7">
     <g id="text_7">
      <!-- 1.2 -->
      <g style="fill: #262626" transform="translate(375.895005 334.998438) scale(0.1 -0.1)">
       <use xlink:href="#DejaVuSans-31"/>
       <use xlink:href="#DejaVuSans-2e" x="63.623047"/>
       <use xlink:href="#DejaVuSans-32" x="95.410156"/>
      </g>
     </g>
    </g>
    <g id="text_8">
     <!-- binned_dist_bw_fishes -->
     <g style="fill: #262626" transform="translate(204.534943 348.676562) scale(0.1 -0.1)">
      <defs>
       <path id="DejaVuSans-62" d="M 3116 1747 
Q 3116 2381 2855 2742 
Q 2594 3103 2138 3103 
Q 1681 3103 1420 2742 
Q 1159 2381 1159 1747 
Q 1159 1113 1420 752 
Q 1681 391 2138 391 
Q 2594 391 2855 752 
Q 3116 1113 3116 1747 
z
M 1159 2969 
Q 1341 3281 1617 3432 
Q 1894 3584 2278 3584 
Q 2916 3584 3314 3078 
Q 3713 2572 3713 1747 
Q 3713 922 3314 415 
Q 2916 -91 2278 -91 
Q 1894 -91 1617 61 
Q 1341 213 1159 525 
L 1159 0 
L 581 0 
L 581 4863 
L 1159 4863 
L 1159 2969 
z
" transform="scale(0.015625)"/>
       <path id="DejaVuSans-69" d="M 603 3500 
L 1178 3500 
L 1178 0 
L 603 0 
L 603 3500 
z
M 603 4863 
L 1178 4863 
L 1178 4134 
L 603 4134 
L 603 4863 
z
" transform="scale(0.015625)"/>
       <path id="DejaVuSans-6e" d="M 3513 2113 
L 3513 0 
L 2938 0 
L 2938 2094 
Q 2938 2591 2744 2837 
Q 2550 3084 2163 3084 
Q 1697 3084 1428 2787 
Q 1159 2491 1159 1978 
L 1159 0 
L 581 0 
L 581 3500 
L 1159 3500 
L 1159 2956 
Q 1366 3272 1645 3428 
Q 1925 3584 2291 3584 
Q 2894 3584 3203 3211 
Q 3513 2838 3513 2113 
z
" transform="scale(0.015625)"/>
       <path id="DejaVuSans-65" d="M 3597 1894 
L 3597 1613 
L 953 1613 
Q 991 1019 1311 708 
Q 1631 397 2203 397 
Q 2534 397 2845 478 
Q 3156 559 3463 722 
L 3463 178 
Q 3153 47 2828 -22 
Q 2503 -91 2169 -91 
Q 1331 -91 842 396 
Q 353 884 353 1716 
Q 353 2575 817 3079 
Q 1281 3584 2069 3584 
Q 2775 3584 3186 3129 
Q 3597 2675 3597 1894 
z
M 3022 2063 
Q 3016 2534 2758 2815 
Q 2500 3097 2075 3097 
Q 1594 3097 1305 2825 
Q 1016 2553 972 2059 
L 3022 2063 
z
" transform="scale(0.015625)"/>
       <path id="DejaVuSans-64" d="M 2906 2969 
L 2906 4863 
L 3481 4863 
L 3481 0 
L 2906 0 
L 2906 525 
Q 2725 213 2448 61 
Q 2172 -91 1784 -91 
Q 1150 -91 751 415 
Q 353 922 353 1747 
Q 353 2572 751 3078 
Q 1150 3584 1784 3584 
Q 2172 3584 2448 3432 
Q 2725 3281 2906 2969 
z
M 947 1747 
Q 947 1113 1208 752 
Q 1469 391 1925 391 
Q 2381 391 2643 752 
Q 2906 1113 2906 1747 
Q 2906 2381 2643 2742 
Q 2381 3103 1925 3103 
Q 1469 3103 1208 2742 
Q 947 2381 947 1747 
z
" transform="scale(0.015625)"/>
       <path id="DejaVuSans-5f" d="M 3263 -1063 
L 3263 -1509 
L -63 -1509 
L -63 -1063 
L 3263 -1063 
z
" transform="scale(0.015625)"/>
       <path id="DejaVuSans-73" d="M 2834 3397 
L 2834 2853 
Q 2591 2978 2328 3040 
Q 2066 3103 1784 3103 
Q 1356 3103 1142 2972 
Q 928 2841 928 2578 
Q 928 2378 1081 2264 
Q 1234 2150 1697 2047 
L 1894 2003 
Q 2506 1872 2764 1633 
Q 3022 1394 3022 966 
Q 3022 478 2636 193 
Q 2250 -91 1575 -91 
Q 1294 -91 989 -36 
Q 684 19 347 128 
L 347 722 
Q 666 556 975 473 
Q 1284 391 1588 391 
Q 1994 391 2212 530 
Q 2431 669 2431 922 
Q 2431 1156 2273 1281 
Q 2116 1406 1581 1522 
L 1381 1569 
Q 847 1681 609 1914 
Q 372 2147 372 2553 
Q 372 3047 722 3315 
Q 1072 3584 1716 3584 
Q 2034 3584 2315 3537 
Q 2597 3491 2834 3397 
z
" transform="scale(0.015625)"/>
       <path id="DejaVuSans-74" d="M 1172 4494 
L 1172 3500 
L 2356 3500 
L 2356 3053 
L 1172 3053 
L 1172 1153 
Q 1172 725 1289 603 
Q 1406 481 1766 481 
L 2356 481 
L 2356 0 
L 1766 0 
Q 1100 0 847 248 
Q 594 497 594 1153 
L 594 3053 
L 172 3053 
L 172 3500 
L 594 3500 
L 594 4494 
L 1172 4494 
z
" transform="scale(0.015625)"/>
       <path id="DejaVuSans-77" d="M 269 3500 
L 844 3500 
L 1563 769 
L 2278 3500 
L 2956 3500 
L 3675 769 
L 4391 3500 
L 4966 3500 
L 4050 0 
L 3372 0 
L 2619 2869 
L 1863 0 
L 1184 0 
L 269 3500 
z
" transform="scale(0.015625)"/>
       <path id="DejaVuSans-66" d="M 2375 4863 
L 2375 4384 
L 1825 4384 
Q 1516 4384 1395 4259 
Q 1275 4134 1275 3809 
L 1275 3500 
L 2222 3500 
L 2222 3053 
L 1275 3053 
L 1275 0 
L 697 0 
L 697 3053 
L 147 3053 
L 147 3500 
L 697 3500 
L 697 3744 
Q 697 4328 969 4595 
Q 1241 4863 1831 4863 
L 2375 4863 
z
" transform="scale(0.015625)"/>
       <path id="DejaVuSans-68" d="M 3513 2113 
L 3513 0 
L 2938 0 
L 2938 2094 
Q 2938 2591 2744 2837 
Q 2550 3084 2163 3084 
Q 1697 3084 1428 2787 
Q 1159 2491 1159 1978 
L 1159 0 
L 581 0 
L 581 4863 
L 1159 4863 
L 1159 2956 
Q 1366 3272 1645 3428 
Q 1925 3584 2291 3584 
Q 2894 3584 3203 3211 
Q 3513 2838 3513 2113 
z
" transform="scale(0.015625)"/>
      </defs>
      <use xlink:href="#DejaVuSans-62"/>
      <use xlink:href="#DejaVuSans-69" x="63.476562"/>
      <use xlink:href="#DejaVuSans-6e" x="91.259766"/>
      <use xlink:href="#DejaVuSans-6e" x="154.638672"/>
      <use xlink:href="#DejaVuSans-65" x="218.017578"/>
      <use xlink:href="#DejaVuSans-64" x="279.541016"/>
      <use xlink:href="#DejaVuSans-5f" x="343.017578"/>
      <use xlink:href="#DejaVuSans-64" x="393.017578"/>
      <use xlink:href="#DejaVuSans-69" x="456.494141"/>
      <use xlink:href="#DejaVuSans-73" x="484.277344"/>
      <use xlink:href="#DejaVuSans-74" x="536.376953"/>
      <use xlink:href="#DejaVuSans-5f" x="575.585938"/>
      <use xlink:href="#DejaVuSans-62" x="625.585938"/>
      <use xlink:href="#DejaVuSans-77" x="689.0625"/>
      <use xlink:href="#DejaVuSans-5f" x="770.849609"/>
      <use xlink:href="#DejaVuSans-66" x="820.849609"/>
      <use xlink:href="#DejaVuSans-69" x="856.054688"/>
      <use xlink:href="#DejaVuSans-73" x="883.837891"/>
      <use xlink:href="#DejaVuSans-68" x="935.9375"/>
      <use xlink:href="#DejaVuSans-65" x="999.316406"/>
      <use xlink:href="#DejaVuSans-73" x="1060.839844"/>
     </g>
    </g>
   </g>
   <g id="matplotlib.axis_2">
    <g id="ytick_1">
     <g id="text_9">
      <!-- 0.0 -->
      <g style="fill: #262626" transform="translate(85.096875 324.199219) scale(0.1 -0.1)">
       <use xlink:href="#DejaVuSans-30"/>
       <use xlink:href="#DejaVuSans-2e" x="63.623047"/>
       <use xlink:href="#DejaVuSans-30" x="95.410156"/>
      </g>
     </g>
    </g>
    <g id="ytick_2">
     <g id="text_10">
      <!-- 0.1 -->
      <g style="fill: #262626" transform="translate(85.096875 289.549219) scale(0.1 -0.1)">
       <use xlink:href="#DejaVuSans-30"/>
       <use xlink:href="#DejaVuSans-2e" x="63.623047"/>
       <use xlink:href="#DejaVuSans-31" x="95.410156"/>
      </g>
     </g>
    </g>
    <g id="ytick_3">
     <g id="text_11">
      <!-- 0.2 -->
      <g style="fill: #262626" transform="translate(85.096875 254.899219) scale(0.1 -0.1)">
       <use xlink:href="#DejaVuSans-30"/>
       <use xlink:href="#DejaVuSans-2e" x="63.623047"/>
       <use xlink:href="#DejaVuSans-32" x="95.410156"/>
      </g>
     </g>
    </g>
    <g id="ytick_4">
     <g id="text_12">
      <!-- 0.3 -->
      <g style="fill: #262626" transform="translate(85.096875 220.249219) scale(0.1 -0.1)">
       <defs>
        <path id="DejaVuSans-33" d="M 2597 2516 
Q 3050 2419 3304 2112 
Q 3559 1806 3559 1356 
Q 3559 666 3084 287 
Q 2609 -91 1734 -91 
Q 1441 -91 1130 -33 
Q 819 25 488 141 
L 488 750 
Q 750 597 1062 519 
Q 1375 441 1716 441 
Q 2309 441 2620 675 
Q 2931 909 2931 1356 
Q 2931 1769 2642 2001 
Q 2353 2234 1838 2234 
L 1294 2234 
L 1294 2753 
L 1863 2753 
Q 2328 2753 2575 2939 
Q 2822 3125 2822 3475 
Q 2822 3834 2567 4026 
Q 2313 4219 1838 4219 
Q 1578 4219 1281 4162 
Q 984 4106 628 3988 
L 628 4550 
Q 988 4650 1302 4700 
Q 1616 4750 1894 4750 
Q 2613 4750 3031 4423 
Q 3450 4097 3450 3541 
Q 3450 3153 3228 2886 
Q 3006 2619 2597 2516 
z
" transform="scale(0.015625)"/>
       </defs>
       <use xlink:href="#DejaVuSans-30"/>
       <use xlink:href="#DejaVuSans-2e" x="63.623047"/>
       <use xlink:href="#DejaVuSans-33" x="95.410156"/>
      </g>
     </g>
    </g>
    <g id="ytick_5">
     <g id="text_13">
      <!-- 0.4 -->
      <g style="fill: #262626" transform="translate(85.096875 185.599219) scale(0.1 -0.1)">
       <use xlink:href="#DejaVuSans-30"/>
       <use xlink:href="#DejaVuSans-2e" x="63.623047"/>
       <use xlink:href="#DejaVuSans-34" x="95.410156"/>
      </g>
     </g>
    </g>
    <g id="ytick_6">
     <g id="text_14">
      <!-- 0.5 -->
      <g style="fill: #262626" transform="translate(85.096875 150.949219) scale(0.1 -0.1)">
       <defs>
        <path id="DejaVuSans-35" d="M 691 4666 
L 3169 4666 
L 3169 4134 
L 1269 4134 
L 1269 2991 
Q 1406 3038 1543 3061 
Q 1681 3084 1819 3084 
Q 2600 3084 3056 2656 
Q 3513 2228 3513 1497 
Q 3513 744 3044 326 
Q 2575 -91 1722 -91 
Q 1428 -91 1123 -41 
Q 819 9 494 109 
L 494 744 
Q 775 591 1075 516 
Q 1375 441 1709 441 
Q 2250 441 2565 725 
Q 2881 1009 2881 1497 
Q 2881 1984 2565 2268 
Q 2250 2553 1709 2553 
Q 1456 2553 1204 2497 
Q 953 2441 691 2322 
L 691 4666 
z
" transform="scale(0.015625)"/>
       </defs>
       <use xlink:href="#DejaVuSans-30"/>
       <use xlink:href="#DejaVuSans-2e" x="63.623047"/>
       <use xlink:href="#DejaVuSans-35" x="95.410156"/>
      </g>
     </g>
    </g>
    <g id="ytick_7">
     <g id="text_15">
      <!-- 0.6 -->
      <g style="fill: #262626" transform="translate(85.096875 116.299219) scale(0.1 -0.1)">
       <use xlink:href="#DejaVuSans-30"/>
       <use xlink:href="#DejaVuSans-2e" x="63.623047"/>
       <use xlink:href="#DejaVuSans-36" x="95.410156"/>
      </g>
     </g>
    </g>
    <g id="ytick_8">
     <g id="text_16">
      <!-- 0.7 -->
      <g style="fill: #262626" transform="translate(85.096875 81.649219) scale(0.1 -0.1)">
       <defs>
        <path id="DejaVuSans-37" d="M 525 4666 
L 3525 4666 
L 3525 4397 
L 1831 0 
L 1172 0 
L 2766 4134 
L 525 4134 
L 525 4666 
z
" transform="scale(0.015625)"/>
       </defs>
       <use xlink:href="#DejaVuSans-30"/>
       <use xlink:href="#DejaVuSans-2e" x="63.623047"/>
       <use xlink:href="#DejaVuSans-37" x="95.410156"/>
      </g>
     </g>
    </g>
    <g id="ytick_9">
     <g id="text_17">
      <!-- 0.8 -->
      <g style="fill: #262626" transform="translate(85.096875 46.999219) scale(0.1 -0.1)">
       <use xlink:href="#DejaVuSans-30"/>
       <use xlink:href="#DejaVuSans-2e" x="63.623047"/>
       <use xlink:href="#DejaVuSans-38" x="95.410156"/>
      </g>
     </g>
    </g>
    <g id="text_18">
     <!-- RMSE -->
     <g style="fill: #262626" transform="translate(79.017187 195.921875) rotate(-90) scale(0.1 -0.1)">
      <defs>
       <path id="DejaVuSans-52" d="M 2841 2188 
Q 3044 2119 3236 1894 
Q 3428 1669 3622 1275 
L 4263 0 
L 3584 0 
L 2988 1197 
Q 2756 1666 2539 1819 
Q 2322 1972 1947 1972 
L 1259 1972 
L 1259 0 
L 628 0 
L 628 4666 
L 2053 4666 
Q 2853 4666 3247 4331 
Q 3641 3997 3641 3322 
Q 3641 2881 3436 2590 
Q 3231 2300 2841 2188 
z
M 1259 4147 
L 1259 2491 
L 2053 2491 
Q 2509 2491 2742 2702 
Q 2975 2913 2975 3322 
Q 2975 3731 2742 3939 
Q 2509 4147 2053 4147 
L 1259 4147 
z
" transform="scale(0.015625)"/>
       <path id="DejaVuSans-4d" d="M 628 4666 
L 1569 4666 
L 2759 1491 
L 3956 4666 
L 4897 4666 
L 4897 0 
L 4281 0 
L 4281 4097 
L 3078 897 
L 2444 897 
L 1241 4097 
L 1241 0 
L 628 0 
L 628 4666 
z
" transform="scale(0.015625)"/>
       <path id="DejaVuSans-53" d="M 3425 4513 
L 3425 3897 
Q 3066 4069 2747 4153 
Q 2428 4238 2131 4238 
Q 1616 4238 1336 4038 
Q 1056 3838 1056 3469 
Q 1056 3159 1242 3001 
Q 1428 2844 1947 2747 
L 2328 2669 
Q 3034 2534 3370 2195 
Q 3706 1856 3706 1288 
Q 3706 609 3251 259 
Q 2797 -91 1919 -91 
Q 1588 -91 1214 -16 
Q 841 59 441 206 
L 441 856 
Q 825 641 1194 531 
Q 1563 422 1919 422 
Q 2459 422 2753 634 
Q 3047 847 3047 1241 
Q 3047 1584 2836 1778 
Q 2625 1972 2144 2069 
L 1759 2144 
Q 1053 2284 737 2584 
Q 422 2884 422 3419 
Q 422 4038 858 4394 
Q 1294 4750 2059 4750 
Q 2388 4750 2728 4690 
Q 3069 4631 3425 4513 
z
" transform="scale(0.015625)"/>
       <path id="DejaVuSans-45" d="M 628 4666 
L 3578 4666 
L 3578 4134 
L 1259 4134 
L 1259 2753 
L 3481 2753 
L 3481 2222 
L 1259 2222 
L 1259 531 
L 3634 531 
L 3634 0 
L 628 0 
L 628 4666 
z
" transform="scale(0.015625)"/>
      </defs>
      <use xlink:href="#DejaVuSans-52"/>
      <use xlink:href="#DejaVuSans-4d" x="69.482422"/>
      <use xlink:href="#DejaVuSans-53" x="155.761719"/>
      <use xlink:href="#DejaVuSans-45" x="219.238281"/>
     </g>
    </g>
   </g>
   <g id="PolyCollection_1">
    <defs>
     <path id="me9d705d122" d="M 121.834711 -49.123813 
L 121.834711 -47.769933 
L 141.598583 -50.263071 
L 161.362456 -53.869689 
L 181.126328 -56.437502 
L 200.890201 -59.384822 
L 220.654073 -61.281584 
L 240.417946 -63.418745 
L 260.181818 -63.658105 
L 279.945691 -67.026164 
L 299.709563 -68.343892 
L 319.473436 -66.677626 
L 339.237308 -67.200661 
L 359.001181 -72.686428 
L 378.765053 -54.903869 
L 398.528926 -97.76791 
L 398.528926 -127.602273 
L 398.528926 -127.602273 
L 378.765053 -117.889597 
L 359.001181 -97.834214 
L 339.237308 -84.308408 
L 319.473436 -77.982992 
L 299.709563 -76.205543 
L 279.945691 -72.96378 
L 260.181818 -68.336206 
L 240.417946 -67.211665 
L 220.654073 -64.711134 
L 200.890201 -61.749132 
L 181.126328 -58.249884 
L 161.362456 -55.230196 
L 141.598583 -51.584106 
L 121.834711 -49.123813 
z
" style="stroke: #32cd32; stroke-opacity: 0.2"/>
    </defs>
    <g clip-path="url(#p8f1cccd894)">
     <use xlink:href="#me9d705d122" x="0" y="360" style="fill: #32cd32; fill-opacity: 0.2; stroke: #32cd32; stroke-opacity: 0.2"/>
    </g>
   </g>
   <g id="PolyCollection_2">
    <defs>
     <path id="m6319cb6158" d="M 121.834711 -47.318845 
L 121.834711 -46.751803 
L 141.598583 -50.111144 
L 161.362456 -53.408405 
L 181.126328 -56.194974 
L 200.890201 -58.569893 
L 220.654073 -60.609566 
L 240.417946 -62.528642 
L 260.181818 -65.011442 
L 279.945691 -67.696894 
L 299.709563 -69.790803 
L 319.473436 -74.084586 
L 339.237308 -72.669126 
L 359.001181 -78.027861 
L 378.765053 -77.249266 
L 398.528926 -85.291838 
L 398.528926 -150.863978 
L 398.528926 -150.863978 
L 378.765053 -104.551122 
L 359.001181 -90.71528 
L 339.237308 -82.488563 
L 319.473436 -81.165558 
L 299.709563 -73.830451 
L 279.945691 -70.954001 
L 260.181818 -67.433645 
L 240.417946 -64.410622 
L 220.654073 -62.203173 
L 200.890201 -59.754606 
L 181.126328 -57.143026 
L 161.362456 -54.17196 
L 141.598583 -50.78096 
L 121.834711 -47.318845 
z
" style="stroke: #2e8b57; stroke-opacity: 0.2"/>
    </defs>
    <g clip-path="url(#p8f1cccd894)">
     <use xlink:href="#m6319cb6158" x="0" y="360" style="fill: #2e8b57; fill-opacity: 0.2; stroke: #2e8b57; stroke-opacity: 0.2"/>
    </g>
   </g>
   <g id="PolyCollection_3">
    <defs>
     <path id="m6a11a7e739" d="M 121.834711 -47.617838 
L 121.834711 -46.824033 
L 141.598583 -50.535768 
L 161.362456 -54.015499 
L 181.126328 -56.157023 
L 200.890201 -59.751802 
L 220.654073 -62.934156 
L 240.417946 -64.246742 
L 260.181818 -65.250162 
L 279.945691 -66.642607 
L 299.709563 -71.132014 
L 319.473436 -72.588471 
L 339.237308 -69.647001 
L 359.001181 -78.33251 
L 378.765053 -74.346355 
L 398.528926 -76.552429 
L 398.528926 -157.985578 
L 398.528926 -157.985578 
L 378.765053 -103.557013 
L 359.001181 -102.053488 
L 339.237308 -79.844875 
L 319.473436 -81.010902 
L 299.709563 -76.976976 
L 279.945691 -70.909069 
L 260.181818 -68.753468 
L 240.417946 -66.879354 
L 220.654073 -65.173662 
L 200.890201 -61.614658 
L 181.126328 -57.327482 
L 161.362456 -55.092324 
L 141.598583 -51.537504 
L 121.834711 -47.617838 
z
" style="stroke: #006400; stroke-opacity: 0.2"/>
    </defs>
    <g clip-path="url(#p8f1cccd894)">
     <use xlink:href="#m6a11a7e739" x="0" y="360" style="fill: #006400; fill-opacity: 0.2; stroke: #006400; stroke-opacity: 0.2"/>
    </g>
   </g>
   <g id="line2d_1">
    <path d="M 121.834711 311.585892 
L 141.598583 309.094888 
L 161.362456 305.442926 
L 181.126328 302.671188 
L 200.890201 299.450132 
L 220.654073 297.031322 
L 240.417946 294.71426 
L 260.181818 293.934596 
L 279.945691 290.058161 
L 299.709563 287.89892 
L 319.473436 288.072017 
L 339.237308 285.106901 
L 359.001181 275.479846 
L 378.765053 279.007208 
L 398.528926 247.314909 
" clip-path="url(#p8f1cccd894)" style="fill: none; stroke: #32cd32; stroke-width: 1.5; stroke-linecap: round"/>
   </g>
   <g id="line2d_2">
    <path d="M 121.834711 312.982935 
L 141.598583 309.57695 
L 161.362456 306.197217 
L 181.126328 303.360453 
L 200.890201 300.83497 
L 220.654073 298.618333 
L 240.417946 296.531642 
L 260.181818 293.843465 
L 279.945691 290.665745 
L 299.709563 288.232436 
L 319.473436 282.402085 
L 339.237308 282.747 
L 359.001181 275.851566 
L 378.765053 270.247092 
L 398.528926 246.116853 
" clip-path="url(#p8f1cccd894)" style="fill: none; stroke: #2e8b57; stroke-width: 1.5; stroke-linecap: round"/>
   </g>
   <g id="line2d_3">
    <path d="M 121.834711 312.794462 
L 141.598583 308.974907 
L 161.362456 305.461232 
L 181.126328 303.252734 
L 200.890201 299.331274 
L 220.654073 295.978685 
L 240.417946 294.443128 
L 260.181818 293.02641 
L 279.945691 291.33771 
L 299.709563 286.058821 
L 319.473436 283.305843 
L 339.237308 285.453557 
L 359.001181 270.808482 
L 378.765053 270.71779 
L 398.528926 245.546658 
" clip-path="url(#p8f1cccd894)" style="fill: none; stroke: #006400; stroke-width: 1.5; stroke-linecap: round"/>
   </g>
   <g id="line2d_4"/>
   <g id="line2d_5"/>
   <g id="line2d_6"/>
   <g id="patch_3">
    <path d="M 108 320.4 
L 108 43.2 
" style="fill: none; stroke: #262626; stroke-width: 0.8; stroke-linejoin: miter; stroke-linecap: square"/>
   </g>
   <g id="patch_4">
    <path d="M 412.363636 320.4 
L 412.363636 43.2 
" style="fill: none; stroke: #262626; stroke-width: 0.8; stroke-linejoin: miter; stroke-linecap: square"/>
   </g>
   <g id="patch_5">
    <path d="M 108 320.4 
L 412.363636 320.4 
" style="fill: none; stroke: #262626; stroke-width: 0.8; stroke-linejoin: miter; stroke-linecap: square"/>
   </g>
   <g id="patch_6">
    <path d="M 108 43.2 
L 412.363636 43.2 
" style="fill: none; stroke: #262626; stroke-width: 0.8; stroke-linejoin: miter; stroke-linecap: square"/>
   </g>
   <g id="text_19">
    <!-- length_hole in [0, 30] -->
    <g style="fill: #262626" transform="translate(195.993068 37.2) scale(0.12 -0.12)">
     <defs>
      <path id="DejaVuSans-6c" d="M 603 4863 
L 1178 4863 
L 1178 0 
L 603 0 
L 603 4863 
z
" transform="scale(0.015625)"/>
      <path id="DejaVuSans-67" d="M 2906 1791 
Q 2906 2416 2648 2759 
Q 2391 3103 1925 3103 
Q 1463 3103 1205 2759 
Q 947 2416 947 1791 
Q 947 1169 1205 825 
Q 1463 481 1925 481 
Q 2391 481 2648 825 
Q 2906 1169 2906 1791 
z
M 3481 434 
Q 3481 -459 3084 -895 
Q 2688 -1331 1869 -1331 
Q 1566 -1331 1297 -1286 
Q 1028 -1241 775 -1147 
L 775 -588 
Q 1028 -725 1275 -790 
Q 1522 -856 1778 -856 
Q 2344 -856 2625 -561 
Q 2906 -266 2906 331 
L 2906 616 
Q 2728 306 2450 153 
Q 2172 0 1784 0 
Q 1141 0 747 490 
Q 353 981 353 1791 
Q 353 2603 747 3093 
Q 1141 3584 1784 3584 
Q 2172 3584 2450 3431 
Q 2728 3278 2906 2969 
L 2906 3500 
L 3481 3500 
L 3481 434 
z
" transform="scale(0.015625)"/>
      <path id="DejaVuSans-6f" d="M 1959 3097 
Q 1497 3097 1228 2736 
Q 959 2375 959 1747 
Q 959 1119 1226 758 
Q 1494 397 1959 397 
Q 2419 397 2687 759 
Q 2956 1122 2956 1747 
Q 2956 2369 2687 2733 
Q 2419 3097 1959 3097 
z
M 1959 3584 
Q 2709 3584 3137 3096 
Q 3566 2609 3566 1747 
Q 3566 888 3137 398 
Q 2709 -91 1959 -91 
Q 1206 -91 779 398 
Q 353 888 353 1747 
Q 353 2609 779 3096 
Q 1206 3584 1959 3584 
z
" transform="scale(0.015625)"/>
      <path id="DejaVuSans-20" transform="scale(0.015625)"/>
      <path id="DejaVuSans-5b" d="M 550 4863 
L 1875 4863 
L 1875 4416 
L 1125 4416 
L 1125 -397 
L 1875 -397 
L 1875 -844 
L 550 -844 
L 550 4863 
z
" transform="scale(0.015625)"/>
      <path id="DejaVuSans-2c" d="M 750 794 
L 1409 794 
L 1409 256 
L 897 -744 
L 494 -744 
L 750 256 
L 750 794 
z
" transform="scale(0.015625)"/>
      <path id="DejaVuSans-5d" d="M 1947 4863 
L 1947 -844 
L 622 -844 
L 622 -397 
L 1369 -397 
L 1369 4416 
L 622 4416 
L 622 4863 
L 1947 4863 
z
" transform="scale(0.015625)"/>
     </defs>
     <use xlink:href="#DejaVuSans-6c"/>
     <use xlink:href="#DejaVuSans-65" x="27.783203"/>
     <use xlink:href="#DejaVuSans-6e" x="89.306641"/>
     <use xlink:href="#DejaVuSans-67" x="152.685547"/>
     <use xlink:href="#DejaVuSans-74" x="216.162109"/>
     <use xlink:href="#DejaVuSans-68" x="255.371094"/>
     <use xlink:href="#DejaVuSans-5f" x="318.75"/>
     <use xlink:href="#DejaVuSans-68" x="368.75"/>
     <use xlink:href="#DejaVuSans-6f" x="432.128906"/>
     <use xlink:href="#DejaVuSans-6c" x="493.310547"/>
     <use xlink:href="#DejaVuSans-65" x="521.09375"/>
     <use xlink:href="#DejaVuSans-20" x="582.617188"/>
     <use xlink:href="#DejaVuSans-69" x="614.404297"/>
     <use xlink:href="#DejaVuSans-6e" x="642.1875"/>
     <use xlink:href="#DejaVuSans-20" x="705.566406"/>
     <use xlink:href="#DejaVuSans-5b" x="737.353516"/>
     <use xlink:href="#DejaVuSans-30" x="776.367188"/>
     <use xlink:href="#DejaVuSans-2c" x="839.990234"/>
     <use xlink:href="#DejaVuSans-20" x="871.777344"/>
     <use xlink:href="#DejaVuSans-33" x="903.564453"/>
     <use xlink:href="#DejaVuSans-30" x="967.1875"/>
     <use xlink:href="#DejaVuSans-5d" x="1030.810547"/>
    </g>
   </g>
   <g id="legend_1">
    <g id="patch_7">
     <path d="M 318.869886 110.190625 
L 405.363636 110.190625 
Q 407.363636 110.190625 407.363636 108.190625 
L 407.363636 50.2 
Q 407.363636 48.2 405.363636 48.2 
L 318.869886 48.2 
Q 316.869886 48.2 316.869886 50.2 
L 316.869886 108.190625 
Q 316.869886 110.190625 318.869886 110.190625 
z
" style="fill: #ffffff; opacity: 0.8; stroke: #cccccc; stroke-linejoin: miter"/>
    </g>
    <g id="text_20">
     <!-- missing_scheme -->
     <g style="fill: #262626" transform="translate(320.869886 59.798437) scale(0.1 -0.1)">
      <defs>
       <path id="DejaVuSans-6d" d="M 3328 2828 
Q 3544 3216 3844 3400 
Q 4144 3584 4550 3584 
Q 5097 3584 5394 3201 
Q 5691 2819 5691 2113 
L 5691 0 
L 5113 0 
L 5113 2094 
Q 5113 2597 4934 2840 
Q 4756 3084 4391 3084 
Q 3944 3084 3684 2787 
Q 3425 2491 3425 1978 
L 3425 0 
L 2847 0 
L 2847 2094 
Q 2847 2600 2669 2842 
Q 2491 3084 2119 3084 
Q 1678 3084 1418 2786 
Q 1159 2488 1159 1978 
L 1159 0 
L 581 0 
L 581 3500 
L 1159 3500 
L 1159 2956 
Q 1356 3278 1631 3431 
Q 1906 3584 2284 3584 
Q 2666 3584 2933 3390 
Q 3200 3197 3328 2828 
z
" transform="scale(0.015625)"/>
       <path id="DejaVuSans-63" d="M 3122 3366 
L 3122 2828 
Q 2878 2963 2633 3030 
Q 2388 3097 2138 3097 
Q 1578 3097 1268 2742 
Q 959 2388 959 1747 
Q 959 1106 1268 751 
Q 1578 397 2138 397 
Q 2388 397 2633 464 
Q 2878 531 3122 666 
L 3122 134 
Q 2881 22 2623 -34 
Q 2366 -91 2075 -91 
Q 1284 -91 818 406 
Q 353 903 353 1747 
Q 353 2603 823 3093 
Q 1294 3584 2113 3584 
Q 2378 3584 2631 3529 
Q 2884 3475 3122 3366 
z
" transform="scale(0.015625)"/>
      </defs>
      <use xlink:href="#DejaVuSans-6d"/>
      <use xlink:href="#DejaVuSans-69" x="97.412109"/>
      <use xlink:href="#DejaVuSans-73" x="125.195312"/>
      <use xlink:href="#DejaVuSans-73" x="177.294922"/>
      <use xlink:href="#DejaVuSans-69" x="229.394531"/>
      <use xlink:href="#DejaVuSans-6e" x="257.177734"/>
      <use xlink:href="#DejaVuSans-67" x="320.556641"/>
      <use xlink:href="#DejaVuSans-5f" x="384.033203"/>
      <use xlink:href="#DejaVuSans-73" x="434.033203"/>
      <use xlink:href="#DejaVuSans-63" x="486.132812"/>
      <use xlink:href="#DejaVuSans-68" x="541.113281"/>
      <use xlink:href="#DejaVuSans-65" x="604.492188"/>
      <use xlink:href="#DejaVuSans-6d" x="666.015625"/>
      <use xlink:href="#DejaVuSans-65" x="763.427734"/>
     </g>
    </g>
    <g id="line2d_7">
     <path d="M 334.386293 71.254687 
L 344.386293 71.254687 
L 354.386293 71.254687 
" style="fill: none; stroke: #32cd32; stroke-width: 1.5; stroke-linecap: round"/>
    </g>
    <g id="text_21">
     <!-- 2 -->
     <g style="fill: #262626" transform="translate(362.386293 74.754687) scale(0.1 -0.1)">
      <use xlink:href="#DejaVuSans-32"/>
     </g>
    </g>
    <g id="line2d_8">
     <path d="M 334.386293 85.932813 
L 344.386293 85.932813 
L 354.386293 85.932813 
" style="fill: none; stroke: #2e8b57; stroke-width: 1.5; stroke-linecap: round"/>
    </g>
    <g id="text_22">
     <!-- 2 + 1 -->
     <g style="fill: #262626" transform="translate(362.386293 89.432813) scale(0.1 -0.1)">
      <defs>
       <path id="DejaVuSans-2b" d="M 2944 4013 
L 2944 2272 
L 4684 2272 
L 4684 1741 
L 2944 1741 
L 2944 0 
L 2419 0 
L 2419 1741 
L 678 1741 
L 678 2272 
L 2419 2272 
L 2419 4013 
L 2944 4013 
z
" transform="scale(0.015625)"/>
      </defs>
      <use xlink:href="#DejaVuSans-32"/>
      <use xlink:href="#DejaVuSans-20" x="63.623047"/>
      <use xlink:href="#DejaVuSans-2b" x="95.410156"/>
      <use xlink:href="#DejaVuSans-20" x="179.199219"/>
      <use xlink:href="#DejaVuSans-31" x="210.986328"/>
     </g>
    </g>
    <g id="line2d_9">
     <path d="M 334.386293 100.610937 
L 344.386293 100.610937 
L 354.386293 100.610937 
" style="fill: none; stroke: #006400; stroke-width: 1.5; stroke-linecap: round"/>
    </g>
    <g id="text_23">
     <!-- 2 + 2 -->
     <g style="fill: #262626" transform="translate(362.386293 104.110937) scale(0.1 -0.1)">
      <use xlink:href="#DejaVuSans-32"/>
      <use xlink:href="#DejaVuSans-20" x="63.623047"/>
      <use xlink:href="#DejaVuSans-2b" x="95.410156"/>
      <use xlink:href="#DejaVuSans-20" x="179.199219"/>
      <use xlink:href="#DejaVuSans-32" x="210.986328"/>
     </g>
    </g>
   </g>
  </g>
  <g id="axes_2">
   <g id="patch_8">
    <path d="M 473.236364 320.4 
L 777.6 320.4 
L 777.6 43.2 
L 473.236364 43.2 
z
" style="fill: #ffffff"/>
   </g>
   <g id="matplotlib.axis_3">
    <g id="xtick_8">
     <g id="text_24">
      <!-- 0.0 -->
      <g style="fill: #262626" transform="translate(469.237576 334.998438) scale(0.1 -0.1)">
       <use xlink:href="#DejaVuSans-30"/>
       <use xlink:href="#DejaVuSans-2e" x="63.623047"/>
       <use xlink:href="#DejaVuSans-30" x="95.410156"/>
      </g>
     </g>
    </g>
    <g id="xtick_9">
     <g id="text_25">
      <!-- 0.2 -->
      <g style="fill: #262626" transform="translate(514.553208 334.998438) scale(0.1 -0.1)">
       <use xlink:href="#DejaVuSans-30"/>
       <use xlink:href="#DejaVuSans-2e" x="63.623047"/>
       <use xlink:href="#DejaVuSans-32" x="95.410156"/>
      </g>
     </g>
    </g>
    <g id="xtick_10">
     <g id="text_26">
      <!-- 0.4 -->
      <g style="fill: #262626" transform="translate(559.86884 334.998438) scale(0.1 -0.1)">
       <use xlink:href="#DejaVuSans-30"/>
       <use xlink:href="#DejaVuSans-2e" x="63.623047"/>
       <use xlink:href="#DejaVuSans-34" x="95.410156"/>
      </g>
     </g>
    </g>
    <g id="xtick_11">
     <g id="text_27">
      <!-- 0.6 -->
      <g style="fill: #262626" transform="translate(605.184472 334.998438) scale(0.1 -0.1)">
       <use xlink:href="#DejaVuSans-30"/>
       <use xlink:href="#DejaVuSans-2e" x="63.623047"/>
       <use xlink:href="#DejaVuSans-36" x="95.410156"/>
      </g>
     </g>
    </g>
    <g id="xtick_12">
     <g id="text_28">
      <!-- 0.8 -->
      <g style="fill: #262626" transform="translate(650.500104 334.998438) scale(0.1 -0.1)">
       <use xlink:href="#DejaVuSans-30"/>
       <use xlink:href="#DejaVuSans-2e" x="63.623047"/>
       <use xlink:href="#DejaVuSans-38" x="95.410156"/>
      </g>
     </g>
    </g>
    <g id="xtick_13">
     <g id="text_29">
      <!-- 1.0 -->
      <g style="fill: #262626" transform="translate(695.815736 334.998438) scale(0.1 -0.1)">
       <use xlink:href="#DejaVuSans-31"/>
       <use xlink:href="#DejaVuSans-2e" x="63.623047"/>
       <use xlink:href="#DejaVuSans-30" x="95.410156"/>
      </g>
     </g>
    </g>
    <g id="xtick_14">
     <g id="text_30">
      <!-- 1.2 -->
      <g style="fill: #262626" transform="translate(741.131368 334.998438) scale(0.1 -0.1)">
       <use xlink:href="#DejaVuSans-31"/>
       <use xlink:href="#DejaVuSans-2e" x="63.623047"/>
       <use xlink:href="#DejaVuSans-32" x="95.410156"/>
      </g>
     </g>
    </g>
    <g id="text_31">
     <!-- binned_dist_bw_fishes -->
     <g style="fill: #262626" transform="translate(569.771307 348.676562) scale(0.1 -0.1)">
      <use xlink:href="#DejaVuSans-62"/>
      <use xlink:href="#DejaVuSans-69" x="63.476562"/>
      <use xlink:href="#DejaVuSans-6e" x="91.259766"/>
      <use xlink:href="#DejaVuSans-6e" x="154.638672"/>
      <use xlink:href="#DejaVuSans-65" x="218.017578"/>
      <use xlink:href="#DejaVuSans-64" x="279.541016"/>
      <use xlink:href="#DejaVuSans-5f" x="343.017578"/>
      <use xlink:href="#DejaVuSans-64" x="393.017578"/>
      <use xlink:href="#DejaVuSans-69" x="456.494141"/>
      <use xlink:href="#DejaVuSans-73" x="484.277344"/>
      <use xlink:href="#DejaVuSans-74" x="536.376953"/>
      <use xlink:href="#DejaVuSans-5f" x="575.585938"/>
      <use xlink:href="#DejaVuSans-62" x="625.585938"/>
      <use xlink:href="#DejaVuSans-77" x="689.0625"/>
      <use xlink:href="#DejaVuSans-5f" x="770.849609"/>
      <use xlink:href="#DejaVuSans-66" x="820.849609"/>
      <use xlink:href="#DejaVuSans-69" x="856.054688"/>
      <use xlink:href="#DejaVuSans-73" x="883.837891"/>
      <use xlink:href="#DejaVuSans-68" x="935.9375"/>
      <use xlink:href="#DejaVuSans-65" x="999.316406"/>
      <use xlink:href="#DejaVuSans-73" x="1060.839844"/>
     </g>
    </g>
   </g>
   <g id="matplotlib.axis_4">
    <g id="ytick_10"/>
    <g id="ytick_11"/>
    <g id="ytick_12"/>
    <g id="ytick_13"/>
    <g id="ytick_14"/>
    <g id="ytick_15"/>
    <g id="ytick_16"/>
    <g id="ytick_17"/>
    <g id="ytick_18"/>
   </g>
   <g id="PolyCollection_4">
    <defs>
     <path id="m89edb88239" d="M 487.071074 -55.928373 
L 487.071074 -53.52523 
L 506.834947 -62.450899 
L 526.598819 -68.494335 
L 546.362692 -75.9819 
L 566.126564 -83.397453 
L 585.890437 -86.965391 
L 605.654309 -90.824318 
L 625.418182 -95.876702 
L 645.182054 -102.789909 
L 664.945927 -107.55917 
L 684.709799 -112.259996 
L 704.473672 -115.967906 
L 724.237544 -105.867625 
L 744.001417 -130.854956 
L 763.765289 -80.911445 
L 763.765289 -268.818838 
L 763.765289 -268.818838 
L 744.001417 -267.157212 
L 724.237544 -174.333628 
L 704.473672 -170.778305 
L 684.709799 -143.842281 
L 664.945927 -125.820294 
L 645.182054 -116.694881 
L 625.418182 -107.17384 
L 605.654309 -100.184912 
L 585.890437 -93.617234 
L 566.126564 -89.570426 
L 546.362692 -80.353258 
L 526.598819 -72.031414 
L 506.834947 -65.396796 
L 487.071074 -55.928373 
z
" style="stroke: #32cd32; stroke-opacity: 0.2"/>
    </defs>
    <g clip-path="url(#pf59b14a1ba)">
     <use xlink:href="#m89edb88239" x="0" y="360" style="fill: #32cd32; fill-opacity: 0.2; stroke: #32cd32; stroke-opacity: 0.2"/>
    </g>
   </g>
   <g id="PolyCollection_5">
    <defs>
     <path id="m75a0575003" d="M 487.071074 -55.125479 
L 487.071074 -53.621998 
L 506.834947 -62.065697 
L 526.598819 -69.319551 
L 546.362692 -75.689284 
L 566.126564 -81.018099 
L 585.890437 -86.887913 
L 605.654309 -92.443198 
L 625.418182 -97.021521 
L 645.182054 -107.450909 
L 664.945927 -114.597853 
L 684.709799 -113.357859 
L 704.473672 -116.646781 
L 724.237544 -136.087241 
L 744.001417 -104.260666 
L 763.765289 -112.108389 
L 763.765289 -243.622251 
L 763.765289 -243.622251 
L 744.001417 -170.976386 
L 724.237544 -187.5848 
L 704.473672 -143.20107 
L 684.709799 -129.094193 
L 664.945927 -125.637078 
L 645.182054 -116.241671 
L 625.418182 -103.480833 
L 605.654309 -97.295476 
L 585.890437 -90.791275 
L 566.126564 -83.880764 
L 546.362692 -78.134563 
L 526.598819 -71.313307 
L 506.834947 -63.722381 
L 487.071074 -55.125479 
z
" style="stroke: #2e8b57; stroke-opacity: 0.2"/>
    </defs>
    <g clip-path="url(#pf59b14a1ba)">
     <use xlink:href="#m75a0575003" x="0" y="360" style="fill: #2e8b57; fill-opacity: 0.2; stroke: #2e8b57; stroke-opacity: 0.2"/>
    </g>
   </g>
   <g id="PolyCollection_6">
    <defs>
     <path id="mea6297f867" d="M 487.071074 -55.836394 
L 487.071074 -53.816427 
L 506.834947 -63.310021 
L 526.598819 -70.689891 
L 546.362692 -75.743724 
L 566.126564 -84.073932 
L 585.890437 -90.611139 
L 605.654309 -96.217761 
L 625.418182 -99.887015 
L 645.182054 -107.44534 
L 664.945927 -112.401107 
L 684.709799 -119.708048 
L 704.473672 -120.437107 
L 724.237544 -113.408798 
L 744.001417 -128.549183 
L 744.001417 -215.195816 
L 744.001417 -215.195816 
L 724.237544 -180.688881 
L 704.473672 -155.216225 
L 684.709799 -143.355117 
L 664.945927 -127.515578 
L 645.182054 -118.994817 
L 625.418182 -109.393311 
L 605.654309 -102.792304 
L 585.890437 -96.419193 
L 566.126564 -88.856307 
L 546.362692 -78.96628 
L 526.598819 -73.679018 
L 506.834947 -65.610391 
L 487.071074 -55.836394 
z
" style="stroke: #006400; stroke-opacity: 0.2"/>
    </defs>
    <g clip-path="url(#pf59b14a1ba)">
     <use xlink:href="#mea6297f867" x="0" y="360" style="fill: #006400; fill-opacity: 0.2; stroke: #006400; stroke-opacity: 0.2"/>
    </g>
   </g>
   <g id="line2d_10">
    <path d="M 487.071074 305.281159 
L 506.834947 296.089605 
L 526.598819 289.750012 
L 546.362692 281.934365 
L 566.126564 273.483635 
L 585.890437 269.645939 
L 605.654309 264.632925 
L 625.418182 258.463844 
L 645.182054 250.57619 
L 664.945927 244.073359 
L 684.709799 232.731985 
L 704.473672 218.238985 
L 724.237544 222.237089 
L 744.001417 170.693151 
L 763.765289 191.055328 
" clip-path="url(#pf59b14a1ba)" style="fill: none; stroke: #32cd32; stroke-width: 1.5; stroke-linecap: round"/>
   </g>
   <g id="line2d_11">
    <path d="M 487.071074 305.626884 
L 506.834947 297.123688 
L 526.598819 289.689935 
L 546.362692 283.039031 
L 566.126564 277.627144 
L 585.890437 271.164355 
L 605.654309 265.144478 
L 625.418182 259.815705 
L 645.182054 248.137667 
L 664.945927 239.854283 
L 684.709799 238.869031 
L 704.473672 230.562556 
L 724.237544 199.082737 
L 744.001417 224.210306 
L 763.765289 185.719776 
" clip-path="url(#pf59b14a1ba)" style="fill: none; stroke: #2e8b57; stroke-width: 1.5; stroke-linecap: round"/>
   </g>
   <g id="line2d_12">
    <path d="M 487.071074 305.166482 
L 506.834947 295.597605 
L 526.598819 287.771708 
L 546.362692 282.695454 
L 566.126564 273.632876 
L 585.890437 266.567753 
L 605.654309 260.591663 
L 625.418182 255.61587 
L 645.182054 246.942528 
L 664.945927 239.608831 
L 684.709799 229.026883 
L 704.473672 222.335789 
L 724.237544 213.269642 
L 744.001417 190.652431 
" clip-path="url(#pf59b14a1ba)" style="fill: none; stroke: #006400; stroke-width: 1.5; stroke-linecap: round"/>
   </g>
   <g id="line2d_13"/>
   <g id="line2d_14"/>
   <g id="line2d_15"/>
   <g id="patch_9">
    <path d="M 473.236364 320.4 
L 473.236364 43.2 
" style="fill: none; stroke: #262626; stroke-width: 0.8; stroke-linejoin: miter; stroke-linecap: square"/>
   </g>
   <g id="patch_10">
    <path d="M 777.6 320.4 
L 777.6 43.2 
" style="fill: none; stroke: #262626; stroke-width: 0.8; stroke-linejoin: miter; stroke-linecap: square"/>
   </g>
   <g id="patch_11">
    <path d="M 473.236364 320.4 
L 777.6 320.4 
" style="fill: none; stroke: #262626; stroke-width: 0.8; stroke-linejoin: miter; stroke-linecap: square"/>
   </g>
   <g id="patch_12">
    <path d="M 473.236364 43.2 
L 777.6 43.2 
" style="fill: none; stroke: #262626; stroke-width: 0.8; stroke-linejoin: miter; stroke-linecap: square"/>
   </g>
   <g id="text_32">
    <!-- length_hole in [30, 60] -->
    <g style="fill: #262626" transform="translate(557.411932 37.2) scale(0.12 -0.12)">
     <use xlink:href="#DejaVuSans-6c"/>
     <use xlink:href="#DejaVuSans-65" x="27.783203"/>
     <use xlink:href="#DejaVuSans-6e" x="89.306641"/>
     <use xlink:href="#DejaVuSans-67" x="152.685547"/>
     <use xlink:href="#DejaVuSans-74" x="216.162109"/>
     <use xlink:href="#DejaVuSans-68" x="255.371094"/>
     <use xlink:href="#DejaVuSans-5f" x="318.75"/>
     <use xlink:href="#DejaVuSans-68" x="368.75"/>
     <use xlink:href="#DejaVuSans-6f" x="432.128906"/>
     <use xlink:href="#DejaVuSans-6c" x="493.310547"/>
     <use xlink:href="#DejaVuSans-65" x="521.09375"/>
     <use xlink:href="#DejaVuSans-20" x="582.617188"/>
     <use xlink:href="#DejaVuSans-69" x="614.404297"/>
     <use xlink:href="#DejaVuSans-6e" x="642.1875"/>
     <use xlink:href="#DejaVuSans-20" x="705.566406"/>
     <use xlink:href="#DejaVuSans-5b" x="737.353516"/>
     <use xlink:href="#DejaVuSans-33" x="776.367188"/>
     <use xlink:href="#DejaVuSans-30" x="839.990234"/>
     <use xlink:href="#DejaVuSans-2c" x="903.613281"/>
     <use xlink:href="#DejaVuSans-20" x="935.400391"/>
     <use xlink:href="#DejaVuSans-36" x="967.1875"/>
     <use xlink:href="#DejaVuSans-30" x="1030.810547"/>
     <use xlink:href="#DejaVuSans-5d" x="1094.433594"/>
    </g>
   </g>
   <g id="legend_2">
    <g id="patch_13">
     <path d="M 684.10625 110.190625 
L 770.6 110.190625 
Q 772.6 110.190625 772.6 108.190625 
L 772.6 50.2 
Q 772.6 48.2 770.6 48.2 
L 684.10625 48.2 
Q 682.10625 48.2 682.10625 50.2 
L 682.10625 108.190625 
Q 682.10625 110.190625 684.10625 110.190625 
z
" style="fill: #ffffff; opacity: 0.8; stroke: #cccccc; stroke-linejoin: miter"/>
    </g>
    <g id="text_33">
     <!-- missing_scheme -->
     <g style="fill: #262626" transform="translate(686.10625 59.798437) scale(0.1 -0.1)">
      <use xlink:href="#DejaVuSans-6d"/>
      <use xlink:href="#DejaVuSans-69" x="97.412109"/>
      <use xlink:href="#DejaVuSans-73" x="125.195312"/>
      <use xlink:href="#DejaVuSans-73" x="177.294922"/>
      <use xlink:href="#DejaVuSans-69" x="229.394531"/>
      <use xlink:href="#DejaVuSans-6e" x="257.177734"/>
      <use xlink:href="#DejaVuSans-67" x="320.556641"/>
      <use xlink:href="#DejaVuSans-5f" x="384.033203"/>
      <use xlink:href="#DejaVuSans-73" x="434.033203"/>
      <use xlink:href="#DejaVuSans-63" x="486.132812"/>
      <use xlink:href="#DejaVuSans-68" x="541.113281"/>
      <use xlink:href="#DejaVuSans-65" x="604.492188"/>
      <use xlink:href="#DejaVuSans-6d" x="666.015625"/>
      <use xlink:href="#DejaVuSans-65" x="763.427734"/>
     </g>
    </g>
    <g id="line2d_16">
     <path d="M 699.622656 71.254687 
L 709.622656 71.254687 
L 719.622656 71.254687 
" style="fill: none; stroke: #32cd32; stroke-width: 1.5; stroke-linecap: round"/>
    </g>
    <g id="text_34">
     <!-- 2 -->
     <g style="fill: #262626" transform="translate(727.622656 74.754687) scale(0.1 -0.1)">
      <use xlink:href="#DejaVuSans-32"/>
     </g>
    </g>
    <g id="line2d_17">
     <path d="M 699.622656 85.932813 
L 709.622656 85.932813 
L 719.622656 85.932813 
" style="fill: none; stroke: #2e8b57; stroke-width: 1.5; stroke-linecap: round"/>
    </g>
    <g id="text_35">
     <!-- 2 + 1 -->
     <g style="fill: #262626" transform="translate(727.622656 89.432813) scale(0.1 -0.1)">
      <use xlink:href="#DejaVuSans-32"/>
      <use xlink:href="#DejaVuSans-20" x="63.623047"/>
      <use xlink:href="#DejaVuSans-2b" x="95.410156"/>
      <use xlink:href="#DejaVuSans-20" x="179.199219"/>
      <use xlink:href="#DejaVuSans-31" x="210.986328"/>
     </g>
    </g>
    <g id="line2d_18">
     <path d="M 699.622656 100.610937 
L 709.622656 100.610937 
L 719.622656 100.610937 
" style="fill: none; stroke: #006400; stroke-width: 1.5; stroke-linecap: round"/>
    </g>
    <g id="text_36">
     <!-- 2 + 2 -->
     <g style="fill: #262626" transform="translate(727.622656 104.110937) scale(0.1 -0.1)">
      <use xlink:href="#DejaVuSans-32"/>
      <use xlink:href="#DejaVuSans-20" x="63.623047"/>
      <use xlink:href="#DejaVuSans-2b" x="95.410156"/>
      <use xlink:href="#DejaVuSans-20" x="179.199219"/>
      <use xlink:href="#DejaVuSans-32" x="210.986328"/>
     </g>
    </g>
   </g>
  </g>
 </g>
 <defs>
  <clipPath id="p8f1cccd894">
   <rect x="108" y="43.2" width="304.363636" height="277.2"/>
  </clipPath>
  <clipPath id="pf59b14a1ba">
   <rect x="473.236364" y="43.2" width="304.363636" height="277.2"/>
  </clipPath>
 </defs>
</svg>
