<?xml version="1.0" encoding="utf-8" standalone="no"?>
<!DOCTYPE svg PUBLIC "-//W3C//DTD SVG 1.1//EN"
  "http://www.w3.org/Graphics/SVG/1.1/DTD/svg11.dtd">
<svg xmlns:xlink="http://www.w3.org/1999/xlink" width="864pt" height="360pt" viewBox="0 0 864 360" xmlns="http://www.w3.org/2000/svg" version="1.1">
 <metadata>
  <rdf:RDF xmlns:dc="http://purl.org/dc/elements/1.1/" xmlns:cc="http://creativecommons.org/ns#" xmlns:rdf="http://www.w3.org/1999/02/22-rdf-syntax-ns#">
   <cc:Work>
    <dc:type rdf:resource="http://purl.org/dc/dcmitype/StillImage"/>
    <dc:date>2025-06-30T15:52:35.482489</dc:date>
    <dc:format>image/svg+xml</dc:format>
    <dc:creator>
     <cc:Agent>
      <dc:title>Matplotlib v3.7.4, https://matplotlib.org/</dc:title>
     </cc:Agent>
    </dc:creator>
   </cc:Work>
  </rdf:RDF>
 </metadata>
 <defs>
  <style type="text/css">*{stroke-linejoin: round; stroke-linecap: butt}</style>
 </defs>
 <g id="figure_1">
  <g id="patch_1">
   <path d="M 0 360 
L 864 360 
L 864 0 
L 0 0 
z
" style="fill: #ffffff"/>
  </g>
  <g id="axes_1">
   <g id="patch_2">
    <path d="M 108 320.4 
L 412.363636 320.4 
L 412.363636 43.2 
L 108 43.2 
z
" style="fill: #ffffff"/>
   </g>
   <g id="matplotlib.axis_1">
    <g id="xtick_1">
     <g id="text_1">
      <!-- 0.0 -->
      <g style="fill: #262626" transform="translate(104.001212 334.998438) scale(0.1 -0.1)">
       <defs>
        <path id="DejaVuSans-30" d="M 2034 4250 
Q 1547 4250 1301 3770 
Q 1056 3291 1056 2328 
Q 1056 1369 1301 889 
Q 1547 409 2034 409 
Q 2525 409 2770 889 
Q 3016 1369 3016 2328 
Q 3016 3291 2770 3770 
Q 2525 4250 2034 4250 
z
M 2034 4750 
Q 2819 4750 3233 4129 
Q 3647 3509 3647 2328 
Q 3647 1150 3233 529 
Q 2819 -91 2034 -91 
Q 1250 -91 836 529 
Q 422 1150 422 2328 
Q 422 3509 836 4129 
Q 1250 4750 2034 4750 
z
" transform="scale(0.015625)"/>
        <path id="DejaVuSans-2e" d="M 684 794 
L 1344 794 
L 1344 0 
L 684 0 
L 684 794 
z
" transform="scale(0.015625)"/>
       </defs>
       <use xlink:href="#DejaVuSans-30"/>
       <use xlink:href="#DejaVuSans-2e" x="63.623047"/>
       <use xlink:href="#DejaVuSans-30" x="95.410156"/>
      </g>
     </g>
    </g>
    <g id="xtick_2">
     <g id="text_2">
      <!-- 0.2 -->
      <g style="fill: #262626" transform="translate(150.669635 334.998438) scale(0.1 -0.1)">
       <defs>
        <path id="DejaVuSans-32" d="M 1228 531 
L 3431 531 
L 3431 0 
L 469 0 
L 469 531 
Q 828 903 1448 1529 
Q 2069 2156 2228 2338 
Q 2531 2678 2651 2914 
Q 2772 3150 2772 3378 
Q 2772 3750 2511 3984 
Q 2250 4219 1831 4219 
Q 1534 4219 1204 4116 
Q 875 4013 500 3803 
L 500 4441 
Q 881 4594 1212 4672 
Q 1544 4750 1819 4750 
Q 2544 4750 2975 4387 
Q 3406 4025 3406 3419 
Q 3406 3131 3298 2873 
Q 3191 2616 2906 2266 
Q 2828 2175 2409 1742 
Q 1991 1309 1228 531 
z
" transform="scale(0.015625)"/>
       </defs>
       <use xlink:href="#DejaVuSans-30"/>
       <use xlink:href="#DejaVuSans-2e" x="63.623047"/>
       <use xlink:href="#DejaVuSans-32" x="95.410156"/>
      </g>
     </g>
    </g>
    <g id="xtick_3">
     <g id="text_3">
      <!-- 0.4 -->
      <g style="fill: #262626" transform="translate(197.338059 334.998438) scale(0.1 -0.1)">
       <defs>
        <path id="DejaVuSans-34" d="M 2419 4116 
L 825 1625 
L 2419 1625 
L 2419 4116 
z
M 2253 4666 
L 3047 4666 
L 3047 1625 
L 3713 1625 
L 3713 1100 
L 3047 1100 
L 3047 0 
L 2419 0 
L 2419 1100 
L 313 1100 
L 313 1709 
L 2253 4666 
z
" transform="scale(0.015625)"/>
       </defs>
       <use xlink:href="#DejaVuSans-30"/>
       <use xlink:href="#DejaVuSans-2e" x="63.623047"/>
       <use xlink:href="#DejaVuSans-34" x="95.410156"/>
      </g>
     </g>
    </g>
    <g id="xtick_4">
     <g id="text_4">
      <!-- 0.6 -->
      <g style="fill: #262626" transform="translate(244.006482 334.998438) scale(0.1 -0.1)">
       <defs>
        <path id="DejaVuSans-36" d="M 2113 2584 
Q 1688 2584 1439 2293 
Q 1191 2003 1191 1497 
Q 1191 994 1439 701 
Q 1688 409 2113 409 
Q 2538 409 2786 701 
Q 3034 994 3034 1497 
Q 3034 2003 2786 2293 
Q 2538 2584 2113 2584 
z
M 3366 4563 
L 3366 3988 
Q 3128 4100 2886 4159 
Q 2644 4219 2406 4219 
Q 1781 4219 1451 3797 
Q 1122 3375 1075 2522 
Q 1259 2794 1537 2939 
Q 1816 3084 2150 3084 
Q 2853 3084 3261 2657 
Q 3669 2231 3669 1497 
Q 3669 778 3244 343 
Q 2819 -91 2113 -91 
Q 1303 -91 875 529 
Q 447 1150 447 2328 
Q 447 3434 972 4092 
Q 1497 4750 2381 4750 
Q 2619 4750 2861 4703 
Q 3103 4656 3366 4563 
z
" transform="scale(0.015625)"/>
       </defs>
       <use xlink:href="#DejaVuSans-30"/>
       <use xlink:href="#DejaVuSans-2e" x="63.623047"/>
       <use xlink:href="#DejaVuSans-36" x="95.410156"/>
      </g>
     </g>
    </g>
    <g id="xtick_5">
     <g id="text_5">
      <!-- 0.8 -->
      <g style="fill: #262626" transform="translate(290.674906 334.998438) scale(0.1 -0.1)">
       <defs>
        <path id="DejaVuSans-38" d="M 2034 2216 
Q 1584 2216 1326 1975 
Q 1069 1734 1069 1313 
Q 1069 891 1326 650 
Q 1584 409 2034 409 
Q 2484 409 2743 651 
Q 3003 894 3003 1313 
Q 3003 1734 2745 1975 
Q 2488 2216 2034 2216 
z
M 1403 2484 
Q 997 2584 770 2862 
Q 544 3141 544 3541 
Q 544 4100 942 4425 
Q 1341 4750 2034 4750 
Q 2731 4750 3128 4425 
Q 3525 4100 3525 3541 
Q 3525 3141 3298 2862 
Q 3072 2584 2669 2484 
Q 3125 2378 3379 2068 
Q 3634 1759 3634 1313 
Q 3634 634 3220 271 
Q 2806 -91 2034 -91 
Q 1263 -91 848 271 
Q 434 634 434 1313 
Q 434 1759 690 2068 
Q 947 2378 1403 2484 
z
M 1172 3481 
Q 1172 3119 1398 2916 
Q 1625 2713 2034 2713 
Q 2441 2713 2670 2916 
Q 2900 3119 2900 3481 
Q 2900 3844 2670 4047 
Q 2441 4250 2034 4250 
Q 1625 4250 1398 4047 
Q 1172 3844 1172 3481 
z
" transform="scale(0.015625)"/>
       </defs>
       <use xlink:href="#DejaVuSans-30"/>
       <use xlink:href="#DejaVuSans-2e" x="63.623047"/>
       <use xlink:href="#DejaVuSans-38" x="95.410156"/>
      </g>
     </g>
    </g>
    <g id="xtick_6">
     <g id="text_6">
      <!-- 1.0 -->
      <g style="fill: #262626" transform="translate(337.343329 334.998438) scale(0.1 -0.1)">
       <defs>
        <path id="DejaVuSans-31" d="M 794 531 
L 1825 531 
L 1825 4091 
L 703 3866 
L 703 4441 
L 1819 4666 
L 2450 4666 
L 2450 531 
L 3481 531 
L 3481 0 
L 794 0 
L 794 531 
z
" transform="scale(0.015625)"/>
       </defs>
       <use xlink:href="#DejaVuSans-31"/>
       <use xlink:href="#DejaVuSans-2e" x="63.623047"/>
       <use xlink:href="#DejaVuSans-30" x="95.410156"/>
      </g>
     </g>
    </g>
    <g id="xtick_7">
     <g id="text_7">
      <!-- 1.2 -->
      <g style="fill: #262626" transform="translate(384.011753 334.998438) scale(0.1 -0.1)">
       <use xlink:href="#DejaVuSans-31"/>
       <use xlink:href="#DejaVuSans-2e" x="63.623047"/>
       <use xlink:href="#DejaVuSans-32" x="95.410156"/>
      </g>
     </g>
    </g>
    <g id="text_8">
     <!-- binned_dist_bw_fishes -->
     <g style="fill: #262626" transform="translate(204.534943 348.676562) scale(0.1 -0.1)">
      <defs>
       <path id="DejaVuSans-62" d="M 3116 1747 
Q 3116 2381 2855 2742 
Q 2594 3103 2138 3103 
Q 1681 3103 1420 2742 
Q 1159 2381 1159 1747 
Q 1159 1113 1420 752 
Q 1681 391 2138 391 
Q 2594 391 2855 752 
Q 3116 1113 3116 1747 
z
M 1159 2969 
Q 1341 3281 1617 3432 
Q 1894 3584 2278 3584 
Q 2916 3584 3314 3078 
Q 3713 2572 3713 1747 
Q 3713 922 3314 415 
Q 2916 -91 2278 -91 
Q 1894 -91 1617 61 
Q 1341 213 1159 525 
L 1159 0 
L 581 0 
L 581 4863 
L 1159 4863 
L 1159 2969 
z
" transform="scale(0.015625)"/>
       <path id="DejaVuSans-69" d="M 603 3500 
L 1178 3500 
L 1178 0 
L 603 0 
L 603 3500 
z
M 603 4863 
L 1178 4863 
L 1178 4134 
L 603 4134 
L 603 4863 
z
" transform="scale(0.015625)"/>
       <path id="DejaVuSans-6e" d="M 3513 2113 
L 3513 0 
L 2938 0 
L 2938 2094 
Q 2938 2591 2744 2837 
Q 2550 3084 2163 3084 
Q 1697 3084 1428 2787 
Q 1159 2491 1159 1978 
L 1159 0 
L 581 0 
L 581 3500 
L 1159 3500 
L 1159 2956 
Q 1366 3272 1645 3428 
Q 1925 3584 2291 3584 
Q 2894 3584 3203 3211 
Q 3513 2838 3513 2113 
z
" transform="scale(0.015625)"/>
       <path id="DejaVuSans-65" d="M 3597 1894 
L 3597 1613 
L 953 1613 
Q 991 1019 1311 708 
Q 1631 397 2203 397 
Q 2534 397 2845 478 
Q 3156 559 3463 722 
L 3463 178 
Q 3153 47 2828 -22 
Q 2503 -91 2169 -91 
Q 1331 -91 842 396 
Q 353 884 353 1716 
Q 353 2575 817 3079 
Q 1281 3584 2069 3584 
Q 2775 3584 3186 3129 
Q 3597 2675 3597 1894 
z
M 3022 2063 
Q 3016 2534 2758 2815 
Q 2500 3097 2075 3097 
Q 1594 3097 1305 2825 
Q 1016 2553 972 2059 
L 3022 2063 
z
" transform="scale(0.015625)"/>
       <path id="DejaVuSans-64" d="M 2906 2969 
L 2906 4863 
L 3481 4863 
L 3481 0 
L 2906 0 
L 2906 525 
Q 2725 213 2448 61 
Q 2172 -91 1784 -91 
Q 1150 -91 751 415 
Q 353 922 353 1747 
Q 353 2572 751 3078 
Q 1150 3584 1784 3584 
Q 2172 3584 2448 3432 
Q 2725 3281 2906 2969 
z
M 947 1747 
Q 947 1113 1208 752 
Q 1469 391 1925 391 
Q 2381 391 2643 752 
Q 2906 1113 2906 1747 
Q 2906 2381 2643 2742 
Q 2381 3103 1925 3103 
Q 1469 3103 1208 2742 
Q 947 2381 947 1747 
z
" transform="scale(0.015625)"/>
       <path id="DejaVuSans-5f" d="M 3263 -1063 
L 3263 -1509 
L -63 -1509 
L -63 -1063 
L 3263 -1063 
z
" transform="scale(0.015625)"/>
       <path id="DejaVuSans-73" d="M 2834 3397 
L 2834 2853 
Q 2591 2978 2328 3040 
Q 2066 3103 1784 3103 
Q 1356 3103 1142 2972 
Q 928 2841 928 2578 
Q 928 2378 1081 2264 
Q 1234 2150 1697 2047 
L 1894 2003 
Q 2506 1872 2764 1633 
Q 3022 1394 3022 966 
Q 3022 478 2636 193 
Q 2250 -91 1575 -91 
Q 1294 -91 989 -36 
Q 684 19 347 128 
L 347 722 
Q 666 556 975 473 
Q 1284 391 1588 391 
Q 1994 391 2212 530 
Q 2431 669 2431 922 
Q 2431 1156 2273 1281 
Q 2116 1406 1581 1522 
L 1381 1569 
Q 847 1681 609 1914 
Q 372 2147 372 2553 
Q 372 3047 722 3315 
Q 1072 3584 1716 3584 
Q 2034 3584 2315 3537 
Q 2597 3491 2834 3397 
z
" transform="scale(0.015625)"/>
       <path id="DejaVuSans-74" d="M 1172 4494 
L 1172 3500 
L 2356 3500 
L 2356 3053 
L 1172 3053 
L 1172 1153 
Q 1172 725 1289 603 
Q 1406 481 1766 481 
L 2356 481 
L 2356 0 
L 1766 0 
Q 1100 0 847 248 
Q 594 497 594 1153 
L 594 3053 
L 172 3053 
L 172 3500 
L 594 3500 
L 594 4494 
L 1172 4494 
z
" transform="scale(0.015625)"/>
       <path id="DejaVuSans-77" d="M 269 3500 
L 844 3500 
L 1563 769 
L 2278 3500 
L 2956 3500 
L 3675 769 
L 4391 3500 
L 4966 3500 
L 4050 0 
L 3372 0 
L 2619 2869 
L 1863 0 
L 1184 0 
L 269 3500 
z
" transform="scale(0.015625)"/>
       <path id="DejaVuSans-66" d="M 2375 4863 
L 2375 4384 
L 1825 4384 
Q 1516 4384 1395 4259 
Q 1275 4134 1275 3809 
L 1275 3500 
L 2222 3500 
L 2222 3053 
L 1275 3053 
L 1275 0 
L 697 0 
L 697 3053 
L 147 3053 
L 147 3500 
L 697 3500 
L 697 3744 
Q 697 4328 969 4595 
Q 1241 4863 1831 4863 
L 2375 4863 
z
" transform="scale(0.015625)"/>
       <path id="DejaVuSans-68" d="M 3513 2113 
L 3513 0 
L 2938 0 
L 2938 2094 
Q 2938 2591 2744 2837 
Q 2550 3084 2163 3084 
Q 1697 3084 1428 2787 
Q 1159 2491 1159 1978 
L 1159 0 
L 581 0 
L 581 4863 
L 1159 4863 
L 1159 2956 
Q 1366 3272 1645 3428 
Q 1925 3584 2291 3584 
Q 2894 3584 3203 3211 
Q 3513 2838 3513 2113 
z
" transform="scale(0.015625)"/>
      </defs>
      <use xlink:href="#DejaVuSans-62"/>
      <use xlink:href="#DejaVuSans-69" x="63.476562"/>
      <use xlink:href="#DejaVuSans-6e" x="91.259766"/>
      <use xlink:href="#DejaVuSans-6e" x="154.638672"/>
      <use xlink:href="#DejaVuSans-65" x="218.017578"/>
      <use xlink:href="#DejaVuSans-64" x="279.541016"/>
      <use xlink:href="#DejaVuSans-5f" x="343.017578"/>
      <use xlink:href="#DejaVuSans-64" x="393.017578"/>
      <use xlink:href="#DejaVuSans-69" x="456.494141"/>
      <use xlink:href="#DejaVuSans-73" x="484.277344"/>
      <use xlink:href="#DejaVuSans-74" x="536.376953"/>
      <use xlink:href="#DejaVuSans-5f" x="575.585938"/>
      <use xlink:href="#DejaVuSans-62" x="625.585938"/>
      <use xlink:href="#DejaVuSans-77" x="689.0625"/>
      <use xlink:href="#DejaVuSans-5f" x="770.849609"/>
      <use xlink:href="#DejaVuSans-66" x="820.849609"/>
      <use xlink:href="#DejaVuSans-69" x="856.054688"/>
      <use xlink:href="#DejaVuSans-73" x="883.837891"/>
      <use xlink:href="#DejaVuSans-68" x="935.9375"/>
      <use xlink:href="#DejaVuSans-65" x="999.316406"/>
      <use xlink:href="#DejaVuSans-73" x="1060.839844"/>
     </g>
    </g>
   </g>
   <g id="matplotlib.axis_2">
    <g id="ytick_1">
     <g id="text_9">
      <!-- 0.0 -->
      <g style="fill: #262626" transform="translate(85.096875 324.199219) scale(0.1 -0.1)">
       <use xlink:href="#DejaVuSans-30"/>
       <use xlink:href="#DejaVuSans-2e" x="63.623047"/>
       <use xlink:href="#DejaVuSans-30" x="95.410156"/>
      </g>
     </g>
    </g>
    <g id="ytick_2">
     <g id="text_10">
      <!-- 0.2 -->
      <g style="fill: #262626" transform="translate(85.096875 289.549219) scale(0.1 -0.1)">
       <use xlink:href="#DejaVuSans-30"/>
       <use xlink:href="#DejaVuSans-2e" x="63.623047"/>
       <use xlink:href="#DejaVuSans-32" x="95.410156"/>
      </g>
     </g>
    </g>
    <g id="ytick_3">
     <g id="text_11">
      <!-- 0.4 -->
      <g style="fill: #262626" transform="translate(85.096875 254.899219) scale(0.1 -0.1)">
       <use xlink:href="#DejaVuSans-30"/>
       <use xlink:href="#DejaVuSans-2e" x="63.623047"/>
       <use xlink:href="#DejaVuSans-34" x="95.410156"/>
      </g>
     </g>
    </g>
    <g id="ytick_4">
     <g id="text_12">
      <!-- 0.6 -->
      <g style="fill: #262626" transform="translate(85.096875 220.249219) scale(0.1 -0.1)">
       <use xlink:href="#DejaVuSans-30"/>
       <use xlink:href="#DejaVuSans-2e" x="63.623047"/>
       <use xlink:href="#DejaVuSans-36" x="95.410156"/>
      </g>
     </g>
    </g>
    <g id="ytick_5">
     <g id="text_13">
      <!-- 0.8 -->
      <g style="fill: #262626" transform="translate(85.096875 185.599219) scale(0.1 -0.1)">
       <use xlink:href="#DejaVuSans-30"/>
       <use xlink:href="#DejaVuSans-2e" x="63.623047"/>
       <use xlink:href="#DejaVuSans-38" x="95.410156"/>
      </g>
     </g>
    </g>
    <g id="ytick_6">
     <g id="text_14">
      <!-- 1.0 -->
      <g style="fill: #262626" transform="translate(85.096875 150.949219) scale(0.1 -0.1)">
       <use xlink:href="#DejaVuSans-31"/>
       <use xlink:href="#DejaVuSans-2e" x="63.623047"/>
       <use xlink:href="#DejaVuSans-30" x="95.410156"/>
      </g>
     </g>
    </g>
    <g id="ytick_7">
     <g id="text_15">
      <!-- 1.2 -->
      <g style="fill: #262626" transform="translate(85.096875 116.299219) scale(0.1 -0.1)">
       <use xlink:href="#DejaVuSans-31"/>
       <use xlink:href="#DejaVuSans-2e" x="63.623047"/>
       <use xlink:href="#DejaVuSans-32" x="95.410156"/>
      </g>
     </g>
    </g>
    <g id="ytick_8">
     <g id="text_16">
      <!-- 1.4 -->
      <g style="fill: #262626" transform="translate(85.096875 81.649219) scale(0.1 -0.1)">
       <use xlink:href="#DejaVuSans-31"/>
       <use xlink:href="#DejaVuSans-2e" x="63.623047"/>
       <use xlink:href="#DejaVuSans-34" x="95.410156"/>
      </g>
     </g>
    </g>
    <g id="ytick_9">
     <g id="text_17">
      <!-- 1.6 -->
      <g style="fill: #262626" transform="translate(85.096875 46.999219) scale(0.1 -0.1)">
       <use xlink:href="#DejaVuSans-31"/>
       <use xlink:href="#DejaVuSans-2e" x="63.623047"/>
       <use xlink:href="#DejaVuSans-36" x="95.410156"/>
      </g>
     </g>
    </g>
    <g id="text_18">
     <!-- RMSE -->
     <g style="fill: #262626" transform="translate(79.017187 195.921875) rotate(-90) scale(0.1 -0.1)">
      <defs>
       <path id="DejaVuSans-52" d="M 2841 2188 
Q 3044 2119 3236 1894 
Q 3428 1669 3622 1275 
L 4263 0 
L 3584 0 
L 2988 1197 
Q 2756 1666 2539 1819 
Q 2322 1972 1947 1972 
L 1259 1972 
L 1259 0 
L 628 0 
L 628 4666 
L 2053 4666 
Q 2853 4666 3247 4331 
Q 3641 3997 3641 3322 
Q 3641 2881 3436 2590 
Q 3231 2300 2841 2188 
z
M 1259 4147 
L 1259 2491 
L 2053 2491 
Q 2509 2491 2742 2702 
Q 2975 2913 2975 3322 
Q 2975 3731 2742 3939 
Q 2509 4147 2053 4147 
L 1259 4147 
z
" transform="scale(0.015625)"/>
       <path id="DejaVuSans-4d" d="M 628 4666 
L 1569 4666 
L 2759 1491 
L 3956 4666 
L 4897 4666 
L 4897 0 
L 4281 0 
L 4281 4097 
L 3078 897 
L 2444 897 
L 1241 4097 
L 1241 0 
L 628 0 
L 628 4666 
z
" transform="scale(0.015625)"/>
       <path id="DejaVuSans-53" d="M 3425 4513 
L 3425 3897 
Q 3066 4069 2747 4153 
Q 2428 4238 2131 4238 
Q 1616 4238 1336 4038 
Q 1056 3838 1056 3469 
Q 1056 3159 1242 3001 
Q 1428 2844 1947 2747 
L 2328 2669 
Q 3034 2534 3370 2195 
Q 3706 1856 3706 1288 
Q 3706 609 3251 259 
Q 2797 -91 1919 -91 
Q 1588 -91 1214 -16 
Q 841 59 441 206 
L 441 856 
Q 825 641 1194 531 
Q 1563 422 1919 422 
Q 2459 422 2753 634 
Q 3047 847 3047 1241 
Q 3047 1584 2836 1778 
Q 2625 1972 2144 2069 
L 1759 2144 
Q 1053 2284 737 2584 
Q 422 2884 422 3419 
Q 422 4038 858 4394 
Q 1294 4750 2059 4750 
Q 2388 4750 2728 4690 
Q 3069 4631 3425 4513 
z
" transform="scale(0.015625)"/>
       <path id="DejaVuSans-45" d="M 628 4666 
L 3578 4666 
L 3578 4134 
L 1259 4134 
L 1259 2753 
L 3481 2753 
L 3481 2222 
L 1259 2222 
L 1259 531 
L 3634 531 
L 3634 0 
L 628 0 
L 628 4666 
z
" transform="scale(0.015625)"/>
      </defs>
      <use xlink:href="#DejaVuSans-52"/>
      <use xlink:href="#DejaVuSans-4d" x="69.482422"/>
      <use xlink:href="#DejaVuSans-53" x="155.761719"/>
      <use xlink:href="#DejaVuSans-45" x="219.238281"/>
     </g>
    </g>
   </g>
   <g id="PolyCollection_1">
    <defs>
     <path id="med353b8a11" d="M 121.834711 -42.196798 
L 121.834711 -42.062613 
L 141.598583 -43.168102 
L 161.362456 -44.252485 
L 181.126328 -45.165768 
L 200.890201 -45.572578 
L 220.654073 -46.605685 
L 240.417946 -47.258749 
L 260.181818 -47.720551 
L 279.945691 -47.926262 
L 299.709563 -48.666979 
L 319.473436 -49.234954 
L 339.237308 -49.662464 
L 359.001181 -49.853818 
L 378.765053 -50.604329 
L 398.528926 -45.751669 
L 398.528926 -50.735281 
L 398.528926 -50.735281 
L 378.765053 -56.557035 
L 359.001181 -51.962685 
L 339.237308 -51.376032 
L 319.473436 -50.394395 
L 299.709563 -49.448467 
L 279.945691 -48.583559 
L 260.181818 -48.249654 
L 240.417946 -47.687714 
L 220.654073 -46.989517 
L 200.890201 -45.846564 
L 181.126328 -45.390216 
L 161.362456 -44.46772 
L 141.598583 -43.31813 
L 121.834711 -42.196798 
z
" style="stroke: #4169e1; stroke-opacity: 0.2"/>
    </defs>
    <g clip-path="url(#p23f7e1cf5f)">
     <use xlink:href="#med353b8a11" x="0" y="360" style="fill: #4169e1; fill-opacity: 0.2; stroke: #4169e1; stroke-opacity: 0.2"/>
    </g>
   </g>
   <g id="PolyCollection_2">
    <defs>
     <path id="mbcfb05fdf7" d="M 121.834711 -42.024021 
L 121.834711 -41.737634 
L 141.598583 -43.05925 
L 161.362456 -43.918835 
L 181.126328 -44.718888 
L 200.890201 -45.168966 
L 220.654073 -46.192107 
L 240.417946 -45.915075 
L 260.181818 -47.285461 
L 279.945691 -47.064674 
L 299.709563 -47.045867 
L 319.473436 -48.416999 
L 339.237308 -47.599014 
L 359.001181 -48.680991 
L 378.765053 -49.404897 
L 398.528926 -49.206107 
L 398.528926 -64.011438 
L 398.528926 -64.011438 
L 378.765053 -58.4549 
L 359.001181 -52.279639 
L 339.237308 -50.600899 
L 319.473436 -51.309617 
L 299.709563 -48.725385 
L 279.945691 -48.688606 
L 260.181818 -48.710676 
L 240.417946 -46.824056 
L 220.654073 -47.0492 
L 200.890201 -45.979757 
L 181.126328 -45.243395 
L 161.362456 -44.449692 
L 141.598583 -43.511594 
L 121.834711 -42.024021 
z
" style="stroke: #00008b; stroke-opacity: 0.2"/>
    </defs>
    <g clip-path="url(#p23f7e1cf5f)">
     <use xlink:href="#mbcfb05fdf7" x="0" y="360" style="fill: #00008b; fill-opacity: 0.2; stroke: #00008b; stroke-opacity: 0.2"/>
    </g>
   </g>
   <g id="PolyCollection_3">
    <defs>
     <path id="m95d7d5ffff" d="M 121.834711 -42.80395 
L 121.834711 -42.481361 
L 141.598583 -44.101233 
L 161.362456 -44.937967 
L 181.126328 -46.300442 
L 200.890201 -46.716795 
L 220.654073 -48.439154 
L 240.417946 -49.068037 
L 260.181818 -50.663298 
L 279.945691 -50.462813 
L 299.709563 -51.121254 
L 319.473436 -53.849498 
L 339.237308 -54.240012 
L 359.001181 -54.898845 
L 378.765053 -53.141088 
L 398.528926 -56.209168 
L 398.528926 -108.782326 
L 398.528926 -108.782326 
L 378.765053 -60.988317 
L 359.001181 -63.210488 
L 339.237308 -58.63513 
L 319.473436 -57.650389 
L 299.709563 -53.226773 
L 279.945691 -52.132929 
L 260.181818 -52.107763 
L 240.417946 -50.262585 
L 220.654073 -49.307854 
L 200.890201 -47.454382 
L 181.126328 -46.79363 
L 161.362456 -45.395621 
L 141.598583 -44.525773 
L 121.834711 -42.80395 
z
" style="stroke: #800080; stroke-opacity: 0.2"/>
    </defs>
    <g clip-path="url(#p23f7e1cf5f)">
     <use xlink:href="#m95d7d5ffff" x="0" y="360" style="fill: #800080; fill-opacity: 0.2; stroke: #800080; stroke-opacity: 0.2"/>
    </g>
   </g>
   <g id="PolyCollection_4">
    <defs>
     <path id="m3af9004b34" d="M 121.834711 -41.913473 
L 121.834711 -41.60994 
L 141.598583 -42.732319 
L 161.362456 -43.729796 
L 181.126328 -44.033281 
L 200.890201 -44.517289 
L 220.654073 -45.771656 
L 240.417946 -45.705799 
L 260.181818 -46.641726 
L 279.945691 -46.775854 
L 299.709563 -46.598605 
L 319.473436 -47.474152 
L 339.237308 -46.56565 
L 359.001181 -48.558682 
L 378.765053 -50.850684 
L 378.765053 -65.888445 
L 378.765053 -65.888445 
L 359.001181 -59.469771 
L 339.237308 -49.372909 
L 319.473436 -51.339803 
L 299.709563 -50.406788 
L 279.945691 -48.919175 
L 260.181818 -48.053829 
L 240.417946 -46.774906 
L 220.654073 -47.326847 
L 200.890201 -45.29185 
L 181.126328 -44.601442 
L 161.362456 -44.453212 
L 141.598583 -43.374276 
L 121.834711 -41.913473 
z
" style="stroke: #ff1493; stroke-opacity: 0.2"/>
    </defs>
    <g clip-path="url(#p23f7e1cf5f)">
     <use xlink:href="#m3af9004b34" x="0" y="360" style="fill: #ff1493; fill-opacity: 0.2; stroke: #ff1493; stroke-opacity: 0.2"/>
    </g>
   </g>
   <g id="PolyCollection_5">
    <defs>
     <path id="ma4a4c6b5ad" d="M 121.834711 -42.823524 
L 121.834711 -40.88725 
L 141.598583 -43.15313 
L 161.362456 -42.252111 
L 181.126328 -42.39496 
L 200.890201 -42.214071 
L 220.654073 -42.321493 
L 240.417946 -42.902374 
L 260.181818 -45.458053 
L 279.945691 -43.370233 
L 299.709563 -42.584988 
L 319.473436 -42.86358 
L 319.473436 -49.055098 
L 319.473436 -49.055098 
L 299.709563 -45.643056 
L 279.945691 -46.727162 
L 260.181818 -52.129463 
L 240.417946 -47.424805 
L 220.654073 -44.441908 
L 200.890201 -43.870822 
L 181.126328 -44.536881 
L 161.362456 -44.361398 
L 141.598583 -46.61616 
L 121.834711 -42.823524 
z
" style="stroke: #dc143c; stroke-opacity: 0.2"/>
    </defs>
    <g clip-path="url(#p23f7e1cf5f)">
     <use xlink:href="#ma4a4c6b5ad" x="0" y="360" style="fill: #dc143c; fill-opacity: 0.2; stroke: #dc143c; stroke-opacity: 0.2"/>
    </g>
   </g>
   <g id="PolyCollection_6">
    <defs>
     <path id="m2e57e5eec6" d="M 121.834711 -43.221076 
L 121.834711 -42.869475 
L 141.598583 -45.235358 
L 161.362456 -46.279685 
L 181.126328 -47.908155 
L 200.890201 -49.114815 
L 220.654073 -50.346184 
L 240.417946 -50.912611 
L 260.181818 -52.943761 
L 279.945691 -53.187157 
L 299.709563 -53.445588 
L 319.473436 -54.258206 
L 339.237308 -57.073684 
L 359.001181 -58.341482 
L 378.765053 -55.304808 
L 398.528926 -49.554235 
L 398.528926 -83.614757 
L 398.528926 -83.614757 
L 378.765053 -65.981111 
L 359.001181 -67.154484 
L 339.237308 -61.757195 
L 319.473436 -57.918794 
L 299.709563 -55.832093 
L 279.945691 -55.248238 
L 260.181818 -54.68096 
L 240.417946 -52.158761 
L 220.654073 -51.405333 
L 200.890201 -50.1023 
L 181.126328 -48.596136 
L 161.362456 -46.853513 
L 141.598583 -45.739865 
L 121.834711 -43.221076 
z
" style="stroke: #808080; stroke-opacity: 0.2"/>
    </defs>
    <g clip-path="url(#p23f7e1cf5f)">
     <use xlink:href="#m2e57e5eec6" x="0" y="360" style="fill: #808080; fill-opacity: 0.2; stroke: #808080; stroke-opacity: 0.2"/>
    </g>
   </g>
   <g id="line2d_1">
    <path d="M 121.834711 317.876346 
L 141.598583 316.75507 
L 161.362456 315.643274 
L 181.126328 314.7222 
L 200.890201 314.294353 
L 220.654073 313.208695 
L 240.417946 312.530232 
L 260.181818 312.01281 
L 279.945691 311.747802 
L 299.709563 310.945826 
L 319.473436 310.187594 
L 339.237308 309.496322 
L 359.001181 309.084595 
L 378.765053 306.675971 
L 398.528926 312.014931 
" clip-path="url(#p23f7e1cf5f)" style="fill: none; stroke: #4169e1; stroke-width: 1.5; stroke-linecap: round"/>
   </g>
   <g id="line2d_2">
    <path d="M 121.834711 318.133225 
L 141.598583 316.720577 
L 161.362456 315.820393 
L 181.126328 315.017245 
L 200.890201 314.454582 
L 220.654073 313.383166 
L 240.417946 313.631113 
L 260.181818 311.997312 
L 279.945691 312.202624 
L 299.709563 312.077003 
L 319.473436 310.155637 
L 339.237308 310.967364 
L 359.001181 309.627799 
L 378.765053 305.946611 
L 398.528926 303.100081 
" clip-path="url(#p23f7e1cf5f)" style="fill: none; stroke: #00008b; stroke-width: 1.5; stroke-linecap: round"/>
   </g>
   <g id="line2d_3">
    <path d="M 121.834711 317.36521 
L 141.598583 315.691954 
L 161.362456 314.826596 
L 181.126328 313.449843 
L 200.890201 312.926877 
L 220.654073 311.137634 
L 240.417946 310.323994 
L 260.181818 308.63632 
L 279.945691 308.723838 
L 299.709563 307.879271 
L 319.473436 304.262029 
L 339.237308 303.64228 
L 359.001181 301.343028 
L 378.765053 303.030951 
L 398.528926 280.175241 
" clip-path="url(#p23f7e1cf5f)" style="fill: none; stroke: #800080; stroke-width: 1.5; stroke-linecap: round"/>
   </g>
   <g id="line2d_4">
    <path d="M 121.834711 318.24721 
L 141.598583 316.981869 
L 161.362456 315.913955 
L 181.126328 315.688395 
L 200.890201 315.10348 
L 220.654073 313.505873 
L 240.417946 313.777009 
L 260.181818 312.673642 
L 279.945691 312.18837 
L 299.709563 311.848927 
L 319.473436 310.768856 
L 339.237308 312.099453 
L 359.001181 306.54344 
L 378.765053 302.32426 
" clip-path="url(#p23f7e1cf5f)" style="fill: none; stroke: #ff1493; stroke-width: 1.5; stroke-linecap: round"/>
   </g>
   <g id="line2d_5">
    <path d="M 121.834711 318.176332 
L 141.598583 315.232632 
L 161.362456 316.783703 
L 181.126328 316.571643 
L 200.890201 317.023195 
L 220.654073 316.588408 
L 240.417946 315.021793 
L 260.181818 311.607691 
L 279.945691 314.878072 
L 299.709563 315.861582 
L 319.473436 314.043413 
" clip-path="url(#p23f7e1cf5f)" style="fill: none; stroke: #dc143c; stroke-width: 1.5; stroke-linecap: round"/>
   </g>
   <g id="line2d_6">
    <path d="M 121.834711 316.953962 
L 141.598583 314.516007 
L 161.362456 313.430057 
L 181.126328 311.764228 
L 200.890201 310.422456 
L 220.654073 309.134488 
L 240.417946 308.482875 
L 260.181818 306.210331 
L 279.945691 305.831587 
L 299.709563 305.366444 
L 319.473436 303.994147 
L 339.237308 300.661375 
L 359.001181 297.250124 
L 378.765053 299.471615 
L 398.528926 295.286715 
" clip-path="url(#p23f7e1cf5f)" style="fill: none; stroke: #808080; stroke-width: 1.5; stroke-linecap: round"/>
   </g>
   <g id="line2d_7"/>
   <g id="line2d_8"/>
   <g id="line2d_9"/>
   <g id="line2d_10"/>
   <g id="line2d_11"/>
   <g id="line2d_12"/>
   <g id="patch_3">
    <path d="M 108 320.4 
L 108 43.2 
" style="fill: none; stroke: #262626; stroke-width: 0.8; stroke-linejoin: miter; stroke-linecap: square"/>
   </g>
   <g id="patch_4">
    <path d="M 412.363636 320.4 
L 412.363636 43.2 
" style="fill: none; stroke: #262626; stroke-width: 0.8; stroke-linejoin: miter; stroke-linecap: square"/>
   </g>
   <g id="patch_5">
    <path d="M 108 320.4 
L 412.363636 320.4 
" style="fill: none; stroke: #262626; stroke-width: 0.8; stroke-linejoin: miter; stroke-linecap: square"/>
   </g>
   <g id="patch_6">
    <path d="M 108 43.2 
L 412.363636 43.2 
" style="fill: none; stroke: #262626; stroke-width: 0.8; stroke-linejoin: miter; stroke-linecap: square"/>
   </g>
   <g id="text_19">
    <!-- length_hole in [0, 30] -->
    <g style="fill: #262626" transform="translate(195.993068 37.2) scale(0.12 -0.12)">
     <defs>
      <path id="DejaVuSans-6c" d="M 603 4863 
L 1178 4863 
L 1178 0 
L 603 0 
L 603 4863 
z
" transform="scale(0.015625)"/>
      <path id="DejaVuSans-67" d="M 2906 1791 
Q 2906 2416 2648 2759 
Q 2391 3103 1925 3103 
Q 1463 3103 1205 2759 
Q 947 2416 947 1791 
Q 947 1169 1205 825 
Q 1463 481 1925 481 
Q 2391 481 2648 825 
Q 2906 1169 2906 1791 
z
M 3481 434 
Q 3481 -459 3084 -895 
Q 2688 -1331 1869 -1331 
Q 1566 -1331 1297 -1286 
Q 1028 -1241 775 -1147 
L 775 -588 
Q 1028 -725 1275 -790 
Q 1522 -856 1778 -856 
Q 2344 -856 2625 -561 
Q 2906 -266 2906 331 
L 2906 616 
Q 2728 306 2450 153 
Q 2172 0 1784 0 
Q 1141 0 747 490 
Q 353 981 353 1791 
Q 353 2603 747 3093 
Q 1141 3584 1784 3584 
Q 2172 3584 2450 3431 
Q 2728 3278 2906 2969 
L 2906 3500 
L 3481 3500 
L 3481 434 
z
" transform="scale(0.015625)"/>
      <path id="DejaVuSans-6f" d="M 1959 3097 
Q 1497 3097 1228 2736 
Q 959 2375 959 1747 
Q 959 1119 1226 758 
Q 1494 397 1959 397 
Q 2419 397 2687 759 
Q 2956 1122 2956 1747 
Q 2956 2369 2687 2733 
Q 2419 3097 1959 3097 
z
M 1959 3584 
Q 2709 3584 3137 3096 
Q 3566 2609 3566 1747 
Q 3566 888 3137 398 
Q 2709 -91 1959 -91 
Q 1206 -91 779 398 
Q 353 888 353 1747 
Q 353 2609 779 3096 
Q 1206 3584 1959 3584 
z
" transform="scale(0.015625)"/>
      <path id="DejaVuSans-20" transform="scale(0.015625)"/>
      <path id="DejaVuSans-5b" d="M 550 4863 
L 1875 4863 
L 1875 4416 
L 1125 4416 
L 1125 -397 
L 1875 -397 
L 1875 -844 
L 550 -844 
L 550 4863 
z
" transform="scale(0.015625)"/>
      <path id="DejaVuSans-2c" d="M 750 794 
L 1409 794 
L 1409 256 
L 897 -744 
L 494 -744 
L 750 256 
L 750 794 
z
" transform="scale(0.015625)"/>
      <path id="DejaVuSans-33" d="M 2597 2516 
Q 3050 2419 3304 2112 
Q 3559 1806 3559 1356 
Q 3559 666 3084 287 
Q 2609 -91 1734 -91 
Q 1441 -91 1130 -33 
Q 819 25 488 141 
L 488 750 
Q 750 597 1062 519 
Q 1375 441 1716 441 
Q 2309 441 2620 675 
Q 2931 909 2931 1356 
Q 2931 1769 2642 2001 
Q 2353 2234 1838 2234 
L 1294 2234 
L 1294 2753 
L 1863 2753 
Q 2328 2753 2575 2939 
Q 2822 3125 2822 3475 
Q 2822 3834 2567 4026 
Q 2313 4219 1838 4219 
Q 1578 4219 1281 4162 
Q 984 4106 628 3988 
L 628 4550 
Q 988 4650 1302 4700 
Q 1616 4750 1894 4750 
Q 2613 4750 3031 4423 
Q 3450 4097 3450 3541 
Q 3450 3153 3228 2886 
Q 3006 2619 2597 2516 
z
" transform="scale(0.015625)"/>
      <path id="DejaVuSans-5d" d="M 1947 4863 
L 1947 -844 
L 622 -844 
L 622 -397 
L 1369 -397 
L 1369 4416 
L 622 4416 
L 622 4863 
L 1947 4863 
z
" transform="scale(0.015625)"/>
     </defs>
     <use xlink:href="#DejaVuSans-6c"/>
     <use xlink:href="#DejaVuSans-65" x="27.783203"/>
     <use xlink:href="#DejaVuSans-6e" x="89.306641"/>
     <use xlink:href="#DejaVuSans-67" x="152.685547"/>
     <use xlink:href="#DejaVuSans-74" x="216.162109"/>
     <use xlink:href="#DejaVuSans-68" x="255.371094"/>
     <use xlink:href="#DejaVuSans-5f" x="318.75"/>
     <use xlink:href="#DejaVuSans-68" x="368.75"/>
     <use xlink:href="#DejaVuSans-6f" x="432.128906"/>
     <use xlink:href="#DejaVuSans-6c" x="493.310547"/>
     <use xlink:href="#DejaVuSans-65" x="521.09375"/>
     <use xlink:href="#DejaVuSans-20" x="582.617188"/>
     <use xlink:href="#DejaVuSans-69" x="614.404297"/>
     <use xlink:href="#DejaVuSans-6e" x="642.1875"/>
     <use xlink:href="#DejaVuSans-20" x="705.566406"/>
     <use xlink:href="#DejaVuSans-5b" x="737.353516"/>
     <use xlink:href="#DejaVuSans-30" x="776.367188"/>
     <use xlink:href="#DejaVuSans-2c" x="839.990234"/>
     <use xlink:href="#DejaVuSans-20" x="871.777344"/>
     <use xlink:href="#DejaVuSans-33" x="903.564453"/>
     <use xlink:href="#DejaVuSans-30" x="967.1875"/>
     <use xlink:href="#DejaVuSans-5d" x="1030.810547"/>
    </g>
   </g>
   <g id="legend_1">
    <g id="patch_7">
     <path d="M 318.869886 154.225 
L 405.363636 154.225 
Q 407.363636 154.225 407.363636 152.225 
L 407.363636 50.2 
Q 407.363636 48.2 405.363636 48.2 
L 318.869886 48.2 
Q 316.869886 48.2 316.869886 50.2 
L 316.869886 152.225 
Q 316.869886 154.225 318.869886 154.225 
z
" style="fill: #ffffff; opacity: 0.8; stroke: #cccccc; stroke-linejoin: miter"/>
    </g>
    <g id="text_20">
     <!-- missing_scheme -->
     <g style="fill: #262626" transform="translate(320.869886 59.798437) scale(0.1 -0.1)">
      <defs>
       <path id="DejaVuSans-6d" d="M 3328 2828 
Q 3544 3216 3844 3400 
Q 4144 3584 4550 3584 
Q 5097 3584 5394 3201 
Q 5691 2819 5691 2113 
L 5691 0 
L 5113 0 
L 5113 2094 
Q 5113 2597 4934 2840 
Q 4756 3084 4391 3084 
Q 3944 3084 3684 2787 
Q 3425 2491 3425 1978 
L 3425 0 
L 2847 0 
L 2847 2094 
Q 2847 2600 2669 2842 
Q 2491 3084 2119 3084 
Q 1678 3084 1418 2786 
Q 1159 2488 1159 1978 
L 1159 0 
L 581 0 
L 581 3500 
L 1159 3500 
L 1159 2956 
Q 1356 3278 1631 3431 
Q 1906 3584 2284 3584 
Q 2666 3584 2933 3390 
Q 3200 3197 3328 2828 
z
" transform="scale(0.015625)"/>
       <path id="DejaVuSans-63" d="M 3122 3366 
L 3122 2828 
Q 2878 2963 2633 3030 
Q 2388 3097 2138 3097 
Q 1578 3097 1268 2742 
Q 959 2388 959 1747 
Q 959 1106 1268 751 
Q 1578 397 2138 397 
Q 2388 397 2633 464 
Q 2878 531 3122 666 
L 3122 134 
Q 2881 22 2623 -34 
Q 2366 -91 2075 -91 
Q 1284 -91 818 406 
Q 353 903 353 1747 
Q 353 2603 823 3093 
Q 1294 3584 2113 3584 
Q 2378 3584 2631 3529 
Q 2884 3475 3122 3366 
z
" transform="scale(0.015625)"/>
      </defs>
      <use xlink:href="#DejaVuSans-6d"/>
      <use xlink:href="#DejaVuSans-69" x="97.412109"/>
      <use xlink:href="#DejaVuSans-73" x="125.195312"/>
      <use xlink:href="#DejaVuSans-73" x="177.294922"/>
      <use xlink:href="#DejaVuSans-69" x="229.394531"/>
      <use xlink:href="#DejaVuSans-6e" x="257.177734"/>
      <use xlink:href="#DejaVuSans-67" x="320.556641"/>
      <use xlink:href="#DejaVuSans-5f" x="384.033203"/>
      <use xlink:href="#DejaVuSans-73" x="434.033203"/>
      <use xlink:href="#DejaVuSans-63" x="486.132812"/>
      <use xlink:href="#DejaVuSans-68" x="541.113281"/>
      <use xlink:href="#DejaVuSans-65" x="604.492188"/>
      <use xlink:href="#DejaVuSans-6d" x="666.015625"/>
      <use xlink:href="#DejaVuSans-65" x="763.427734"/>
     </g>
    </g>
    <g id="line2d_13">
     <path d="M 334.386293 71.254687 
L 344.386293 71.254687 
L 354.386293 71.254687 
" style="fill: none; stroke: #4169e1; stroke-width: 1.5; stroke-linecap: round"/>
    </g>
    <g id="text_21">
     <!-- 1 -->
     <g style="fill: #262626" transform="translate(362.386293 74.754687) scale(0.1 -0.1)">
      <use xlink:href="#DejaVuSans-31"/>
     </g>
    </g>
    <g id="line2d_14">
     <path d="M 334.386293 85.932813 
L 344.386293 85.932813 
L 354.386293 85.932813 
" style="fill: none; stroke: #00008b; stroke-width: 1.5; stroke-linecap: round"/>
    </g>
    <g id="text_22">
     <!-- 1 + 1 -->
     <g style="fill: #262626" transform="translate(362.386293 89.432813) scale(0.1 -0.1)">
      <defs>
       <path id="DejaVuSans-2b" d="M 2944 4013 
L 2944 2272 
L 4684 2272 
L 4684 1741 
L 2944 1741 
L 2944 0 
L 2419 0 
L 2419 1741 
L 678 1741 
L 678 2272 
L 2419 2272 
L 2419 4013 
L 2944 4013 
z
" transform="scale(0.015625)"/>
      </defs>
      <use xlink:href="#DejaVuSans-31"/>
      <use xlink:href="#DejaVuSans-20" x="63.623047"/>
      <use xlink:href="#DejaVuSans-2b" x="95.410156"/>
      <use xlink:href="#DejaVuSans-20" x="179.199219"/>
      <use xlink:href="#DejaVuSans-31" x="210.986328"/>
     </g>
    </g>
    <g id="line2d_15">
     <path d="M 334.386293 100.610937 
L 344.386293 100.610937 
L 354.386293 100.610937 
" style="fill: none; stroke: #800080; stroke-width: 1.5; stroke-linecap: round"/>
    </g>
    <g id="text_23">
     <!-- 3 -->
     <g style="fill: #262626" transform="translate(362.386293 104.110937) scale(0.1 -0.1)">
      <use xlink:href="#DejaVuSans-33"/>
     </g>
    </g>
    <g id="line2d_16">
     <path d="M 334.386293 115.289062 
L 344.386293 115.289062 
L 354.386293 115.289062 
" style="fill: none; stroke: #ff1493; stroke-width: 1.5; stroke-linecap: round"/>
    </g>
    <g id="text_24">
     <!-- 3 + 1 -->
     <g style="fill: #262626" transform="translate(362.386293 118.789062) scale(0.1 -0.1)">
      <use xlink:href="#DejaVuSans-33"/>
      <use xlink:href="#DejaVuSans-20" x="63.623047"/>
      <use xlink:href="#DejaVuSans-2b" x="95.410156"/>
      <use xlink:href="#DejaVuSans-20" x="179.199219"/>
      <use xlink:href="#DejaVuSans-31" x="210.986328"/>
     </g>
    </g>
    <g id="line2d_17">
     <path d="M 334.386293 129.967187 
L 344.386293 129.967187 
L 354.386293 129.967187 
" style="fill: none; stroke: #dc143c; stroke-width: 1.5; stroke-linecap: round"/>
    </g>
    <g id="text_25">
     <!-- 3 + 2 -->
     <g style="fill: #262626" transform="translate(362.386293 133.467187) scale(0.1 -0.1)">
      <use xlink:href="#DejaVuSans-33"/>
      <use xlink:href="#DejaVuSans-20" x="63.623047"/>
      <use xlink:href="#DejaVuSans-2b" x="95.410156"/>
      <use xlink:href="#DejaVuSans-20" x="179.199219"/>
      <use xlink:href="#DejaVuSans-32" x="210.986328"/>
     </g>
    </g>
    <g id="line2d_18">
     <path d="M 334.386293 144.645312 
L 344.386293 144.645312 
L 354.386293 144.645312 
" style="fill: none; stroke: #808080; stroke-width: 1.5; stroke-linecap: round"/>
    </g>
    <g id="text_26">
     <!-- 3 + 3 -->
     <g style="fill: #262626" transform="translate(362.386293 148.145312) scale(0.1 -0.1)">
      <use xlink:href="#DejaVuSans-33"/>
      <use xlink:href="#DejaVuSans-20" x="63.623047"/>
      <use xlink:href="#DejaVuSans-2b" x="95.410156"/>
      <use xlink:href="#DejaVuSans-20" x="179.199219"/>
      <use xlink:href="#DejaVuSans-33" x="210.986328"/>
     </g>
    </g>
   </g>
  </g>
  <g id="axes_2">
   <g id="patch_8">
    <path d="M 473.236364 320.4 
L 777.6 320.4 
L 777.6 43.2 
L 473.236364 43.2 
z
" style="fill: #ffffff"/>
   </g>
   <g id="matplotlib.axis_3">
    <g id="xtick_8">
     <g id="text_27">
      <!-- 0.0 -->
      <g style="fill: #262626" transform="translate(469.237576 334.998438) scale(0.1 -0.1)">
       <use xlink:href="#DejaVuSans-30"/>
       <use xlink:href="#DejaVuSans-2e" x="63.623047"/>
       <use xlink:href="#DejaVuSans-30" x="95.410156"/>
      </g>
     </g>
    </g>
    <g id="xtick_9">
     <g id="text_28">
      <!-- 0.2 -->
      <g style="fill: #262626" transform="translate(515.905999 334.998438) scale(0.1 -0.1)">
       <use xlink:href="#DejaVuSans-30"/>
       <use xlink:href="#DejaVuSans-2e" x="63.623047"/>
       <use xlink:href="#DejaVuSans-32" x="95.410156"/>
      </g>
     </g>
    </g>
    <g id="xtick_10">
     <g id="text_29">
      <!-- 0.4 -->
      <g style="fill: #262626" transform="translate(562.574423 334.998438) scale(0.1 -0.1)">
       <use xlink:href="#DejaVuSans-30"/>
       <use xlink:href="#DejaVuSans-2e" x="63.623047"/>
       <use xlink:href="#DejaVuSans-34" x="95.410156"/>
      </g>
     </g>
    </g>
    <g id="xtick_11">
     <g id="text_30">
      <!-- 0.6 -->
      <g style="fill: #262626" transform="translate(609.242846 334.998438) scale(0.1 -0.1)">
       <use xlink:href="#DejaVuSans-30"/>
       <use xlink:href="#DejaVuSans-2e" x="63.623047"/>
       <use xlink:href="#DejaVuSans-36" x="95.410156"/>
      </g>
     </g>
    </g>
    <g id="xtick_12">
     <g id="text_31">
      <!-- 0.8 -->
      <g style="fill: #262626" transform="translate(655.91127 334.998438) scale(0.1 -0.1)">
       <use xlink:href="#DejaVuSans-30"/>
       <use xlink:href="#DejaVuSans-2e" x="63.623047"/>
       <use xlink:href="#DejaVuSans-38" x="95.410156"/>
      </g>
     </g>
    </g>
    <g id="xtick_13">
     <g id="text_32">
      <!-- 1.0 -->
      <g style="fill: #262626" transform="translate(702.579693 334.998438) scale(0.1 -0.1)">
       <use xlink:href="#DejaVuSans-31"/>
       <use xlink:href="#DejaVuSans-2e" x="63.623047"/>
       <use xlink:href="#DejaVuSans-30" x="95.410156"/>
      </g>
     </g>
    </g>
    <g id="xtick_14">
     <g id="text_33">
      <!-- 1.2 -->
      <g style="fill: #262626" transform="translate(749.248116 334.998438) scale(0.1 -0.1)">
       <use xlink:href="#DejaVuSans-31"/>
       <use xlink:href="#DejaVuSans-2e" x="63.623047"/>
       <use xlink:href="#DejaVuSans-32" x="95.410156"/>
      </g>
     </g>
    </g>
    <g id="text_34">
     <!-- binned_dist_bw_fishes -->
     <g style="fill: #262626" transform="translate(569.771307 348.676562) scale(0.1 -0.1)">
      <use xlink:href="#DejaVuSans-62"/>
      <use xlink:href="#DejaVuSans-69" x="63.476562"/>
      <use xlink:href="#DejaVuSans-6e" x="91.259766"/>
      <use xlink:href="#DejaVuSans-6e" x="154.638672"/>
      <use xlink:href="#DejaVuSans-65" x="218.017578"/>
      <use xlink:href="#DejaVuSans-64" x="279.541016"/>
      <use xlink:href="#DejaVuSans-5f" x="343.017578"/>
      <use xlink:href="#DejaVuSans-64" x="393.017578"/>
      <use xlink:href="#DejaVuSans-69" x="456.494141"/>
      <use xlink:href="#DejaVuSans-73" x="484.277344"/>
      <use xlink:href="#DejaVuSans-74" x="536.376953"/>
      <use xlink:href="#DejaVuSans-5f" x="575.585938"/>
      <use xlink:href="#DejaVuSans-62" x="625.585938"/>
      <use xlink:href="#DejaVuSans-77" x="689.0625"/>
      <use xlink:href="#DejaVuSans-5f" x="770.849609"/>
      <use xlink:href="#DejaVuSans-66" x="820.849609"/>
      <use xlink:href="#DejaVuSans-69" x="856.054688"/>
      <use xlink:href="#DejaVuSans-73" x="883.837891"/>
      <use xlink:href="#DejaVuSans-68" x="935.9375"/>
      <use xlink:href="#DejaVuSans-65" x="999.316406"/>
      <use xlink:href="#DejaVuSans-73" x="1060.839844"/>
     </g>
    </g>
   </g>
   <g id="matplotlib.axis_4">
    <g id="ytick_10"/>
    <g id="ytick_11"/>
    <g id="ytick_12"/>
    <g id="ytick_13"/>
    <g id="ytick_14"/>
    <g id="ytick_15"/>
    <g id="ytick_16"/>
    <g id="ytick_17"/>
    <g id="ytick_18"/>
   </g>
   <g id="PolyCollection_7">
    <defs>
     <path id="m341c88ac6e" d="M 487.071074 -49.116165 
L 487.071074 -46.028091 
L 506.834947 -48.445806 
L 526.598819 -52.885479 
L 546.362692 -57.102079 
L 566.126564 -55.646235 
L 585.890437 -58.514999 
L 605.654309 -61.189789 
L 625.418182 -60.644817 
L 645.182054 -61.249855 
L 664.945927 -71.236218 
L 684.709799 -64.866515 
L 704.473672 -67.732368 
L 724.237544 -62.606605 
L 744.001417 -59.784186 
L 744.001417 -118.912791 
L 744.001417 -118.912791 
L 724.237544 -152.805915 
L 704.473672 -103.748068 
L 684.709799 -96.266944 
L 664.945927 -93.872545 
L 645.182054 -75.615762 
L 625.418182 -74.647746 
L 605.654309 -74.042691 
L 585.890437 -66.996143 
L 566.126564 -61.466617 
L 546.362692 -63.814747 
L 526.598819 -57.439733 
L 506.834947 -51.923713 
L 487.071074 -49.116165 
z
" style="stroke: #4169e1; stroke-opacity: 0.2"/>
    </defs>
    <g clip-path="url(#p8b1c42a66c)">
     <use xlink:href="#m341c88ac6e" x="0" y="360" style="fill: #4169e1; fill-opacity: 0.2; stroke: #4169e1; stroke-opacity: 0.2"/>
    </g>
   </g>
   <g id="PolyCollection_8">
    <defs>
     <path id="mc358ddb03a" d="M 487.071074 -57.556021 
L 487.071074 -44.204018 
L 506.834947 -43.349564 
L 526.598819 -43.544373 
L 546.362692 -48.792721 
L 566.126564 -46.130154 
L 605.654309 -54.807814 
L 684.709799 -64.218295 
L 684.709799 -85.404468 
L 684.709799 -85.404468 
L 605.654309 -65.858073 
L 566.126564 -54.626768 
L 546.362692 -83.394837 
L 526.598819 -45.711441 
L 506.834947 -46.89326 
L 487.071074 -57.556021 
z
" style="stroke: #00008b; stroke-opacity: 0.2"/>
    </defs>
    <g clip-path="url(#p8b1c42a66c)">
     <use xlink:href="#mc358ddb03a" x="0" y="360" style="fill: #00008b; fill-opacity: 0.2; stroke: #00008b; stroke-opacity: 0.2"/>
    </g>
   </g>
   <g id="PolyCollection_9">
    <defs>
     <path id="m4d4f0ce1e8" d="M 487.071074 -55.258478 
L 487.071074 -50.543325 
L 506.834947 -59.267942 
L 526.598819 -65.755862 
L 546.362692 -70.940389 
L 566.126564 -73.662378 
L 585.890437 -81.45168 
L 605.654309 -89.096701 
L 625.418182 -93.282859 
L 645.182054 -93.522588 
L 664.945927 -91.34766 
L 684.709799 -101.01594 
L 704.473672 -117.255961 
L 724.237544 -123.177831 
L 744.001417 -163.843242 
L 763.765289 -135.123058 
L 763.765289 -146.931562 
L 763.765289 -146.931562 
L 744.001417 -172.755589 
L 724.237544 -151.523256 
L 704.473672 -153.467835 
L 684.709799 -126.191419 
L 664.945927 -110.681036 
L 645.182054 -112.728155 
L 625.418182 -107.217197 
L 605.654309 -100.66152 
L 585.890437 -91.153605 
L 566.126564 -80.125077 
L 546.362692 -76.951173 
L 526.598819 -69.992237 
L 506.834947 -63.619054 
L 487.071074 -55.258478 
z
" style="stroke: #800080; stroke-opacity: 0.2"/>
    </defs>
    <g clip-path="url(#p8b1c42a66c)">
     <use xlink:href="#m4d4f0ce1e8" x="0" y="360" style="fill: #800080; fill-opacity: 0.2; stroke: #800080; stroke-opacity: 0.2"/>
    </g>
   </g>
   <g id="PolyCollection_10">
    <defs>
     <path id="mb2c607b065" d="M 487.071074 -55.629282 
L 487.071074 -51.388007 
L 506.834947 -57.577511 
L 526.598819 -64.85788 
L 546.362692 -68.233349 
L 566.126564 -70.254388 
L 585.890437 -82.743729 
L 605.654309 -81.414539 
L 625.418182 -88.960278 
L 645.182054 -97.53457 
L 664.945927 -90.388002 
L 684.709799 -100.441102 
L 704.473672 -100.300413 
L 724.237544 -111.35226 
L 744.001417 -169.741304 
L 763.765289 -154.749493 
L 763.765289 -285.451266 
L 763.765289 -285.451266 
L 744.001417 -315.341511 
L 724.237544 -194.744127 
L 704.473672 -140.682962 
L 684.709799 -129.532869 
L 664.945927 -105.161347 
L 645.182054 -113.277575 
L 625.418182 -99.83157 
L 605.654309 -90.825466 
L 585.890437 -91.071283 
L 566.126564 -75.590873 
L 546.362692 -72.898008 
L 526.598819 -69.219374 
L 506.834947 -61.335309 
L 487.071074 -55.629282 
z
" style="stroke: #808080; stroke-opacity: 0.2"/>
    </defs>
    <g clip-path="url(#p8b1c42a66c)">
     <use xlink:href="#mb2c607b065" x="0" y="360" style="fill: #808080; fill-opacity: 0.2; stroke: #808080; stroke-opacity: 0.2"/>
    </g>
   </g>
   <g id="line2d_19">
    <path d="M 487.071074 312.475168 
L 506.834947 309.977293 
L 526.598819 304.869861 
L 546.362692 299.777749 
L 566.126564 301.525763 
L 585.890437 297.384494 
L 605.654309 292.855513 
L 625.418182 292.762581 
L 645.182054 291.930248 
L 664.945927 277.487265 
L 684.709799 279.923508 
L 704.473672 275.209861 
L 724.237544 252.29374 
L 744.001417 270.651512 
" clip-path="url(#p8b1c42a66c)" style="fill: none; stroke: #4169e1; stroke-width: 1.5; stroke-linecap: round"/>
   </g>
   <g id="line2d_20">
    <path d="M 487.071074 310.628353 
L 506.834947 314.878588 
L 526.598819 315.134304 
L 546.362692 298.01611 
L 566.126564 309.546999 
L 605.654309 299.667056 
L 684.709799 285.188618 
" clip-path="url(#p8b1c42a66c)" style="fill: none; stroke: #00008b; stroke-width: 1.5; stroke-linecap: round"/>
   </g>
   <g id="line2d_21">
    <path d="M 487.071074 307.364306 
L 506.834947 298.440379 
L 526.598819 292.129959 
L 546.362692 286.045534 
L 566.126564 283.107469 
L 585.890437 273.976424 
L 605.654309 265.556657 
L 625.418182 259.862219 
L 645.182054 257.242221 
L 664.945927 259.662563 
L 684.709799 247.150504 
L 704.473672 225.197926 
L 724.237544 223.740018 
L 744.001417 191.700585 
L 763.765289 218.97269 
" clip-path="url(#p8b1c42a66c)" style="fill: none; stroke: #800080; stroke-width: 1.5; stroke-linecap: round"/>
   </g>
   <g id="line2d_22">
    <path d="M 487.071074 306.629552 
L 506.834947 300.599555 
L 526.598819 292.914492 
L 546.362692 289.599753 
L 566.126564 287.136052 
L 585.890437 272.926494 
L 605.654309 274.183715 
L 625.418182 265.613934 
L 645.182054 254.791809 
L 664.945927 262.467914 
L 684.709799 245.930985 
L 704.473672 241.215313 
L 724.237544 216.005526 
L 744.001417 117.458592 
L 763.765289 137.198607 
" clip-path="url(#p8b1c42a66c)" style="fill: none; stroke: #808080; stroke-width: 1.5; stroke-linecap: round"/>
   </g>
   <g id="line2d_23"/>
   <g id="line2d_24"/>
   <g id="line2d_25"/>
   <g id="line2d_26"/>
   <g id="line2d_27"/>
   <g id="line2d_28"/>
   <g id="patch_9">
    <path d="M 473.236364 320.4 
L 473.236364 43.2 
" style="fill: none; stroke: #262626; stroke-width: 0.8; stroke-linejoin: miter; stroke-linecap: square"/>
   </g>
   <g id="patch_10">
    <path d="M 777.6 320.4 
L 777.6 43.2 
" style="fill: none; stroke: #262626; stroke-width: 0.8; stroke-linejoin: miter; stroke-linecap: square"/>
   </g>
   <g id="patch_11">
    <path d="M 473.236364 320.4 
L 777.6 320.4 
" style="fill: none; stroke: #262626; stroke-width: 0.8; stroke-linejoin: miter; stroke-linecap: square"/>
   </g>
   <g id="patch_12">
    <path d="M 473.236364 43.2 
L 777.6 43.2 
" style="fill: none; stroke: #262626; stroke-width: 0.8; stroke-linejoin: miter; stroke-linecap: square"/>
   </g>
   <g id="text_35">
    <!-- length_hole in [30, 60] -->
    <g style="fill: #262626" transform="translate(557.411932 37.2) scale(0.12 -0.12)">
     <use xlink:href="#DejaVuSans-6c"/>
     <use xlink:href="#DejaVuSans-65" x="27.783203"/>
     <use xlink:href="#DejaVuSans-6e" x="89.306641"/>
     <use xlink:href="#DejaVuSans-67" x="152.685547"/>
     <use xlink:href="#DejaVuSans-74" x="216.162109"/>
     <use xlink:href="#DejaVuSans-68" x="255.371094"/>
     <use xlink:href="#DejaVuSans-5f" x="318.75"/>
     <use xlink:href="#DejaVuSans-68" x="368.75"/>
     <use xlink:href="#DejaVuSans-6f" x="432.128906"/>
     <use xlink:href="#DejaVuSans-6c" x="493.310547"/>
     <use xlink:href="#DejaVuSans-65" x="521.09375"/>
     <use xlink:href="#DejaVuSans-20" x="582.617188"/>
     <use xlink:href="#DejaVuSans-69" x="614.404297"/>
     <use xlink:href="#DejaVuSans-6e" x="642.1875"/>
     <use xlink:href="#DejaVuSans-20" x="705.566406"/>
     <use xlink:href="#DejaVuSans-5b" x="737.353516"/>
     <use xlink:href="#DejaVuSans-33" x="776.367188"/>
     <use xlink:href="#DejaVuSans-30" x="839.990234"/>
     <use xlink:href="#DejaVuSans-2c" x="903.613281"/>
     <use xlink:href="#DejaVuSans-20" x="935.400391"/>
     <use xlink:href="#DejaVuSans-36" x="967.1875"/>
     <use xlink:href="#DejaVuSans-30" x="1030.810547"/>
     <use xlink:href="#DejaVuSans-5d" x="1094.433594"/>
    </g>
   </g>
   <g id="legend_2">
    <g id="patch_13">
     <path d="M 480.236364 154.225 
L 566.730114 154.225 
Q 568.730114 154.225 568.730114 152.225 
L 568.730114 50.2 
Q 568.730114 48.2 566.730114 48.2 
L 480.236364 48.2 
Q 478.236364 48.2 478.236364 50.2 
L 478.236364 152.225 
Q 478.236364 154.225 480.236364 154.225 
z
" style="fill: #ffffff; opacity: 0.8; stroke: #cccccc; stroke-linejoin: miter"/>
    </g>
    <g id="text_36">
     <!-- missing_scheme -->
     <g style="fill: #262626" transform="translate(482.236364 59.798437) scale(0.1 -0.1)">
      <use xlink:href="#DejaVuSans-6d"/>
      <use xlink:href="#DejaVuSans-69" x="97.412109"/>
      <use xlink:href="#DejaVuSans-73" x="125.195312"/>
      <use xlink:href="#DejaVuSans-73" x="177.294922"/>
      <use xlink:href="#DejaVuSans-69" x="229.394531"/>
      <use xlink:href="#DejaVuSans-6e" x="257.177734"/>
      <use xlink:href="#DejaVuSans-67" x="320.556641"/>
      <use xlink:href="#DejaVuSans-5f" x="384.033203"/>
      <use xlink:href="#DejaVuSans-73" x="434.033203"/>
      <use xlink:href="#DejaVuSans-63" x="486.132812"/>
      <use xlink:href="#DejaVuSans-68" x="541.113281"/>
      <use xlink:href="#DejaVuSans-65" x="604.492188"/>
      <use xlink:href="#DejaVuSans-6d" x="666.015625"/>
      <use xlink:href="#DejaVuSans-65" x="763.427734"/>
     </g>
    </g>
    <g id="line2d_29">
     <path d="M 495.75277 71.254687 
L 505.75277 71.254687 
L 515.75277 71.254687 
" style="fill: none; stroke: #4169e1; stroke-width: 1.5; stroke-linecap: round"/>
    </g>
    <g id="text_37">
     <!-- 1 -->
     <g style="fill: #262626" transform="translate(523.75277 74.754687) scale(0.1 -0.1)">
      <use xlink:href="#DejaVuSans-31"/>
     </g>
    </g>
    <g id="line2d_30">
     <path d="M 495.75277 85.932813 
L 505.75277 85.932813 
L 515.75277 85.932813 
" style="fill: none; stroke: #00008b; stroke-width: 1.5; stroke-linecap: round"/>
    </g>
    <g id="text_38">
     <!-- 1 + 1 -->
     <g style="fill: #262626" transform="translate(523.75277 89.432813) scale(0.1 -0.1)">
      <use xlink:href="#DejaVuSans-31"/>
      <use xlink:href="#DejaVuSans-20" x="63.623047"/>
      <use xlink:href="#DejaVuSans-2b" x="95.410156"/>
      <use xlink:href="#DejaVuSans-20" x="179.199219"/>
      <use xlink:href="#DejaVuSans-31" x="210.986328"/>
     </g>
    </g>
    <g id="line2d_31">
     <path d="M 495.75277 100.610937 
L 505.75277 100.610937 
L 515.75277 100.610937 
" style="fill: none; stroke: #800080; stroke-width: 1.5; stroke-linecap: round"/>
    </g>
    <g id="text_39">
     <!-- 3 -->
     <g style="fill: #262626" transform="translate(523.75277 104.110937) scale(0.1 -0.1)">
      <use xlink:href="#DejaVuSans-33"/>
     </g>
    </g>
    <g id="line2d_32">
     <path d="M 495.75277 115.289062 
L 505.75277 115.289062 
L 515.75277 115.289062 
" style="fill: none; stroke: #ff1493; stroke-width: 1.5; stroke-linecap: round"/>
    </g>
    <g id="text_40">
     <!-- 3 + 1 -->
     <g style="fill: #262626" transform="translate(523.75277 118.789062) scale(0.1 -0.1)">
      <use xlink:href="#DejaVuSans-33"/>
      <use xlink:href="#DejaVuSans-20" x="63.623047"/>
      <use xlink:href="#DejaVuSans-2b" x="95.410156"/>
      <use xlink:href="#DejaVuSans-20" x="179.199219"/>
      <use xlink:href="#DejaVuSans-31" x="210.986328"/>
     </g>
    </g>
    <g id="line2d_33">
     <path d="M 495.75277 129.967187 
L 505.75277 129.967187 
L 515.75277 129.967187 
" style="fill: none; stroke: #dc143c; stroke-width: 1.5; stroke-linecap: round"/>
    </g>
    <g id="text_41">
     <!-- 3 + 2 -->
     <g style="fill: #262626" transform="translate(523.75277 133.467187) scale(0.1 -0.1)">
      <use xlink:href="#DejaVuSans-33"/>
      <use xlink:href="#DejaVuSans-20" x="63.623047"/>
      <use xlink:href="#DejaVuSans-2b" x="95.410156"/>
      <use xlink:href="#DejaVuSans-20" x="179.199219"/>
      <use xlink:href="#DejaVuSans-32" x="210.986328"/>
     </g>
    </g>
    <g id="line2d_34">
     <path d="M 495.75277 144.645312 
L 505.75277 144.645312 
L 515.75277 144.645312 
" style="fill: none; stroke: #808080; stroke-width: 1.5; stroke-linecap: round"/>
    </g>
    <g id="text_42">
     <!-- 3 + 3 -->
     <g style="fill: #262626" transform="translate(523.75277 148.145312) scale(0.1 -0.1)">
      <use xlink:href="#DejaVuSans-33"/>
      <use xlink:href="#DejaVuSans-20" x="63.623047"/>
      <use xlink:href="#DejaVuSans-2b" x="95.410156"/>
      <use xlink:href="#DejaVuSans-20" x="179.199219"/>
      <use xlink:href="#DejaVuSans-33" x="210.986328"/>
     </g>
    </g>
   </g>
  </g>
 </g>
 <defs>
  <clipPath id="p23f7e1cf5f">
   <rect x="108" y="43.2" width="304.363636" height="277.2"/>
  </clipPath>
  <clipPath id="p8b1c42a66c">
   <rect x="473.236364" y="43.2" width="304.363636" height="277.2"/>
  </clipPath>
 </defs>
</svg>
